<?xml version="1.0" encoding="UTF-8"?>
<svg version="1.1" xmlns="http://www.w3.org/2000/svg" width="582" height="370">
<path d="M0 0 C16.45731212 13.95136709 28.53366582 33.40487574 30.66796875 55.26171875 C32.31461288 81.64723061 26.88436581 104.32690782 9.16796875 124.57421875 C-0.50494585 134.88870421 -11.25707739 142.60977013 -24.51953125 147.63671875 C-25.14794922 147.87527588 -25.77636719 148.11383301 -26.42382812 148.35961914 C-44.35713273 154.7739746 -65.4164616 154.47815646 -83.33203125 148.26171875 C-84.39292969 147.89949219 -85.45382813 147.53726563 -86.546875 147.1640625 C-107.02506534 139.38920259 -123.21480029 123.26825337 -132.70703125 103.76171875 C-142.21814437 81.72180222 -143.25058036 58.08072438 -135.01953125 35.51171875 C-126.49659256 14.8239922 -111.73397915 -2.10089702 -91.33203125 -11.73828125 C-60.18486222 -24.49453389 -26.478581 -21.04707721 0 0 Z M-65.33203125 -1.73828125 C-65.33203125 -1.40828125 -65.33203125 -1.07828125 -65.33203125 -0.73828125 C-58.40203125 -0.73828125 -51.47203125 -0.73828125 -44.33203125 -0.73828125 C-44.33203125 -1.06828125 -44.33203125 -1.39828125 -44.33203125 -1.73828125 C-51.26203125 -1.73828125 -58.19203125 -1.73828125 -65.33203125 -1.73828125 Z M-70.33203125 -0.73828125 C-70.33203125 -0.40828125 -70.33203125 -0.07828125 -70.33203125 0.26171875 C-68.68203125 0.26171875 -67.03203125 0.26171875 -65.33203125 0.26171875 C-65.33203125 -0.06828125 -65.33203125 -0.39828125 -65.33203125 -0.73828125 C-66.98203125 -0.73828125 -68.63203125 -0.73828125 -70.33203125 -0.73828125 Z M-43.33203125 -0.73828125 C-39.33203125 0.26171875 -39.33203125 0.26171875 -39.33203125 0.26171875 Z M-68.33203125 13.26171875 C-68.33203125 13.59171875 -68.33203125 13.92171875 -68.33203125 14.26171875 C-65.03203125 14.26171875 -61.73203125 14.26171875 -58.33203125 14.26171875 C-58.33203125 13.93171875 -58.33203125 13.60171875 -58.33203125 13.26171875 C-61.63203125 13.26171875 -64.93203125 13.26171875 -68.33203125 13.26171875 Z M-51.33203125 13.26171875 C-51.33203125 13.59171875 -51.33203125 13.92171875 -51.33203125 14.26171875 C-48.69203125 14.26171875 -46.05203125 14.26171875 -43.33203125 14.26171875 C-43.33203125 13.93171875 -43.33203125 13.60171875 -43.33203125 13.26171875 C-45.97203125 13.26171875 -48.61203125 13.26171875 -51.33203125 13.26171875 Z M-84.33203125 20.26171875 C-84.33203125 20.59171875 -84.33203125 20.92171875 -84.33203125 21.26171875 C-81.03203125 21.26171875 -77.73203125 21.26171875 -74.33203125 21.26171875 C-78.18234175 18.69484508 -79.91772888 19.42883151 -84.33203125 20.26171875 Z M-36.33203125 20.26171875 C-36.33203125 20.59171875 -36.33203125 20.92171875 -36.33203125 21.26171875 C-31.38203125 21.26171875 -26.43203125 21.26171875 -21.33203125 21.26171875 C-21.33203125 20.93171875 -21.33203125 20.60171875 -21.33203125 20.26171875 C-26.28203125 20.26171875 -31.23203125 20.26171875 -36.33203125 20.26171875 Z M-20.33203125 21.26171875 C-20.33203125 21.59171875 -20.33203125 21.92171875 -20.33203125 22.26171875 C-18.35203125 22.26171875 -16.37203125 22.26171875 -14.33203125 22.26171875 C-14.33203125 21.93171875 -14.33203125 21.60171875 -14.33203125 21.26171875 C-16.31203125 21.26171875 -18.29203125 21.26171875 -20.33203125 21.26171875 Z M-55.33203125 22.26171875 C-55.33203125 22.92171875 -55.33203125 23.58171875 -55.33203125 24.26171875 C-54.67203125 24.26171875 -54.01203125 24.26171875 -53.33203125 24.26171875 C-53.33203125 23.60171875 -53.33203125 22.94171875 -53.33203125 22.26171875 C-53.99203125 22.26171875 -54.65203125 22.26171875 -55.33203125 22.26171875 Z M-41.33203125 24.26171875 C-40.33203125 26.26171875 -40.33203125 26.26171875 -40.33203125 26.26171875 Z M-97.33203125 25.26171875 C-97.33203125 25.59171875 -97.33203125 25.92171875 -97.33203125 26.26171875 C-95.68203125 26.26171875 -94.03203125 26.26171875 -92.33203125 26.26171875 C-92.33203125 25.93171875 -92.33203125 25.60171875 -92.33203125 25.26171875 C-93.98203125 25.26171875 -95.63203125 25.26171875 -97.33203125 25.26171875 Z M-8.33203125 29.26171875 C-7.33203125 32.26171875 -7.33203125 32.26171875 -7.33203125 32.26171875 Z M3.66796875 31.26171875 C4.66796875 33.26171875 4.66796875 33.26171875 4.66796875 33.26171875 Z M-106.33203125 32.26171875 C-105.33203125 34.26171875 -105.33203125 34.26171875 -105.33203125 34.26171875 Z M-96.33203125 32.26171875 C-95.01203125 32.59171875 -93.69203125 32.92171875 -92.33203125 33.26171875 C-92.33203125 35.57171875 -92.33203125 37.88171875 -92.33203125 40.26171875 C-92.00203125 40.26171875 -91.67203125 40.26171875 -91.33203125 40.26171875 C-91.33203125 37.62171875 -91.33203125 34.98171875 -91.33203125 32.26171875 C-92.98203125 32.26171875 -94.63203125 32.26171875 -96.33203125 32.26171875 Z M-14.33203125 32.26171875 C-14.66203125 33.91171875 -14.99203125 35.56171875 -15.33203125 37.26171875 C-14.01203125 36.60171875 -12.69203125 35.94171875 -11.33203125 35.26171875 C-11.99203125 35.26171875 -12.65203125 35.26171875 -13.33203125 35.26171875 C-13.66203125 34.27171875 -13.99203125 33.28171875 -14.33203125 32.26171875 Z M-28.33203125 34.26171875 C-27.67203125 34.92171875 -27.01203125 35.58171875 -26.33203125 36.26171875 C-26.00203125 35.60171875 -25.67203125 34.94171875 -25.33203125 34.26171875 C-26.32203125 34.26171875 -27.31203125 34.26171875 -28.33203125 34.26171875 Z M-116.33203125 35.26171875 C-115.33203125 37.26171875 -115.33203125 37.26171875 -115.33203125 37.26171875 Z M-105.33203125 35.26171875 C-104.33203125 37.26171875 -104.33203125 37.26171875 -104.33203125 37.26171875 Z M-9.33203125 35.26171875 C-8.33203125 39.26171875 -8.33203125 39.26171875 -8.33203125 39.26171875 Z M-117.33203125 37.26171875 C-116.33203125 39.26171875 -116.33203125 39.26171875 -116.33203125 39.26171875 Z M6.66796875 37.26171875 C7.66796875 39.26171875 7.66796875 39.26171875 7.66796875 39.26171875 Z M-99.33203125 35.26171875 C-99.33203125 36.58171875 -99.33203125 37.90171875 -99.33203125 39.26171875 C-100.65203125 38.93171875 -101.97203125 38.60171875 -103.33203125 38.26171875 C-103.33203125 39.91171875 -103.33203125 41.56171875 -103.33203125 43.26171875 C-103.00203125 42.27171875 -102.67203125 41.28171875 -102.33203125 40.26171875 C-101.01203125 40.26171875 -99.69203125 40.26171875 -98.33203125 40.26171875 C-98.33203125 38.61171875 -98.33203125 36.96171875 -98.33203125 35.26171875 C-98.66203125 35.26171875 -98.99203125 35.26171875 -99.33203125 35.26171875 Z M-85.33203125 38.26171875 C-84.33203125 40.26171875 -84.33203125 40.26171875 -84.33203125 40.26171875 Z M7.66796875 39.26171875 C8.66796875 41.26171875 8.66796875 41.26171875 8.66796875 41.26171875 Z M-86.33203125 40.26171875 C-85.33203125 42.26171875 -85.33203125 42.26171875 -85.33203125 42.26171875 Z M-8.33203125 40.26171875 C-8.33203125 42.24171875 -8.33203125 44.22171875 -8.33203125 46.26171875 C-8.00203125 46.26171875 -7.67203125 46.26171875 -7.33203125 46.26171875 C-7.33203125 44.28171875 -7.33203125 42.30171875 -7.33203125 40.26171875 C-7.66203125 40.26171875 -7.99203125 40.26171875 -8.33203125 40.26171875 Z M-79.33203125 41.26171875 C-78.33203125 43.26171875 -78.33203125 43.26171875 -78.33203125 43.26171875 Z M-23.33203125 41.26171875 C-22.33203125 43.26171875 -22.33203125 43.26171875 -22.33203125 43.26171875 Z M-119.33203125 42.26171875 C-118.33203125 44.26171875 -118.33203125 44.26171875 -118.33203125 44.26171875 Z M-87.33203125 43.26171875 C-87.66203125 44.25171875 -87.99203125 45.24171875 -88.33203125 46.26171875 C-87.67203125 46.26171875 -87.01203125 46.26171875 -86.33203125 46.26171875 C-86.66203125 45.27171875 -86.99203125 44.28171875 -87.33203125 43.26171875 Z M-80.33203125 43.26171875 C-80.33203125 46.56171875 -80.33203125 49.86171875 -80.33203125 53.26171875 C-80.00203125 53.26171875 -79.67203125 53.26171875 -79.33203125 53.26171875 C-79.33203125 49.96171875 -79.33203125 46.66171875 -79.33203125 43.26171875 C-79.66203125 43.26171875 -79.99203125 43.26171875 -80.33203125 43.26171875 Z M-104.33203125 44.26171875 C-103.33203125 47.26171875 -103.33203125 47.26171875 -103.33203125 47.26171875 Z M-29.33203125 44.26171875 C-29.33203125 46.90171875 -29.33203125 49.54171875 -29.33203125 52.26171875 C-29.00203125 52.26171875 -28.67203125 52.26171875 -28.33203125 52.26171875 C-28.33203125 49.62171875 -28.33203125 46.98171875 -28.33203125 44.26171875 C-28.66203125 44.26171875 -28.99203125 44.26171875 -29.33203125 44.26171875 Z M-22.33203125 44.26171875 C-22.33203125 47.56171875 -22.33203125 50.86171875 -22.33203125 54.26171875 C-21.67203125 52.94171875 -21.01203125 51.62171875 -20.33203125 50.26171875 C-20.00203125 49.60171875 -19.67203125 48.94171875 -19.33203125 48.26171875 C-19.99203125 48.26171875 -20.65203125 48.26171875 -21.33203125 48.26171875 C-21.66203125 46.94171875 -21.99203125 45.62171875 -22.33203125 44.26171875 Z M9.66796875 44.26171875 C10.66796875 47.26171875 10.66796875 47.26171875 10.66796875 47.26171875 Z M-120.33203125 45.26171875 C-119.33203125 47.26171875 -119.33203125 47.26171875 -119.33203125 47.26171875 Z M-71.33203125 45.26171875 C-71.33203125 45.59171875 -71.33203125 45.92171875 -71.33203125 46.26171875 C-69.35203125 46.26171875 -67.37203125 46.26171875 -65.33203125 46.26171875 C-65.33203125 45.93171875 -65.33203125 45.60171875 -65.33203125 45.26171875 C-67.31203125 45.26171875 -69.29203125 45.26171875 -71.33203125 45.26171875 Z M-44.33203125 45.26171875 C-44.33203125 45.59171875 -44.33203125 45.92171875 -44.33203125 46.26171875 C-42.35203125 46.26171875 -40.37203125 46.26171875 -38.33203125 46.26171875 C-38.33203125 45.93171875 -38.33203125 45.60171875 -38.33203125 45.26171875 C-40.31203125 45.26171875 -42.29203125 45.26171875 -44.33203125 45.26171875 Z M-17.33203125 46.26171875 C-17.33203125 46.59171875 -17.33203125 46.92171875 -17.33203125 47.26171875 C-15.68203125 47.26171875 -14.03203125 47.26171875 -12.33203125 47.26171875 C-12.33203125 46.93171875 -12.33203125 46.60171875 -12.33203125 46.26171875 C-13.98203125 46.26171875 -15.63203125 46.26171875 -17.33203125 46.26171875 Z M-105.33203125 47.26171875 C-104.33203125 50.26171875 -104.33203125 50.26171875 -104.33203125 50.26171875 Z M10.66796875 47.26171875 C11.66796875 50.26171875 11.66796875 50.26171875 11.66796875 50.26171875 Z M-121.33203125 48.26171875 C-120.33203125 51.26171875 -120.33203125 51.26171875 -120.33203125 51.26171875 Z M-88.33203125 48.26171875 C-87.33203125 50.26171875 -87.33203125 50.26171875 -87.33203125 50.26171875 Z M-100.33203125 49.26171875 C-96.33203125 50.26171875 -96.33203125 50.26171875 -96.33203125 50.26171875 Z M-59.33203125 49.26171875 C-58.33203125 51.26171875 -58.33203125 51.26171875 -58.33203125 51.26171875 Z M-87.33203125 51.26171875 C-86.33203125 55.26171875 -86.33203125 55.26171875 -86.33203125 55.26171875 Z M-58.33203125 51.26171875 C-58.33203125 54.56171875 -58.33203125 57.86171875 -58.33203125 61.26171875 C-58.00203125 61.26171875 -57.67203125 61.26171875 -57.33203125 61.26171875 C-57.33203125 57.96171875 -57.33203125 54.66171875 -57.33203125 51.26171875 C-57.66203125 51.26171875 -57.99203125 51.26171875 -58.33203125 51.26171875 Z M-52.33203125 51.26171875 C-52.33203125 55.88171875 -52.33203125 60.50171875 -52.33203125 65.26171875 C-52.00203125 65.26171875 -51.67203125 65.26171875 -51.33203125 65.26171875 C-51.33203125 60.64171875 -51.33203125 56.02171875 -51.33203125 51.26171875 C-51.66203125 51.26171875 -51.99203125 51.26171875 -52.33203125 51.26171875 Z M11.66796875 51.26171875 C12.66796875 55.26171875 12.66796875 55.26171875 12.66796875 55.26171875 Z M-122.33203125 52.26171875 C-122.33203125 53.91171875 -122.33203125 55.56171875 -122.33203125 57.26171875 C-122.00203125 57.26171875 -121.67203125 57.26171875 -121.33203125 57.26171875 C-121.33203125 55.61171875 -121.33203125 53.96171875 -121.33203125 52.26171875 C-121.66203125 52.26171875 -121.99203125 52.26171875 -122.33203125 52.26171875 Z M-93.33203125 52.26171875 C-92.33203125 56.26171875 -92.33203125 56.26171875 -92.33203125 56.26171875 Z M-10.33203125 52.26171875 C-9.33203125 55.26171875 -9.33203125 55.26171875 -9.33203125 55.26171875 Z M-30.33203125 53.26171875 C-30.33203125 54.91171875 -30.33203125 56.56171875 -30.33203125 58.26171875 C-30.00203125 58.26171875 -29.67203125 58.26171875 -29.33203125 58.26171875 C-29.33203125 56.61171875 -29.33203125 54.96171875 -29.33203125 53.26171875 C-29.66203125 53.26171875 -29.99203125 53.26171875 -30.33203125 53.26171875 Z M-18.33203125 53.26171875 C-17.33203125 55.26171875 -17.33203125 55.26171875 -17.33203125 55.26171875 Z M-79.33203125 54.26171875 C-79.82703125 61.68671875 -79.82703125 61.68671875 -80.33203125 69.26171875 C-79.67203125 69.26171875 -79.01203125 69.26171875 -78.33203125 69.26171875 C-78.33203125 64.31171875 -78.33203125 59.36171875 -78.33203125 54.26171875 C-78.66203125 54.26171875 -78.99203125 54.26171875 -79.33203125 54.26171875 Z M-64.33203125 54.26171875 C-64.33203125 54.92171875 -64.33203125 55.58171875 -64.33203125 56.26171875 C-63.67203125 55.93171875 -63.01203125 55.60171875 -62.33203125 55.26171875 C-62.99203125 54.93171875 -63.65203125 54.60171875 -64.33203125 54.26171875 Z M-47.33203125 54.26171875 C-47.66203125 54.92171875 -47.99203125 55.58171875 -48.33203125 56.26171875 C-47.34203125 55.93171875 -46.35203125 55.60171875 -45.33203125 55.26171875 C-45.99203125 54.93171875 -46.65203125 54.60171875 -47.33203125 54.26171875 Z M-103.33203125 55.26171875 C-103.33203125 56.91171875 -103.33203125 58.56171875 -103.33203125 60.26171875 C-103.00203125 60.26171875 -102.67203125 60.26171875 -102.33203125 60.26171875 C-102.33203125 58.61171875 -102.33203125 56.96171875 -102.33203125 55.26171875 C-102.66203125 55.26171875 -102.99203125 55.26171875 -103.33203125 55.26171875 Z M-86.33203125 55.26171875 C-85.33203125 57.26171875 -85.33203125 57.26171875 -85.33203125 57.26171875 Z M-71.33203125 56.26171875 C-71.33203125 56.59171875 -71.33203125 56.92171875 -71.33203125 57.26171875 C-69.35203125 57.26171875 -67.37203125 57.26171875 -65.33203125 57.26171875 C-65.33203125 56.93171875 -65.33203125 56.60171875 -65.33203125 56.26171875 C-67.31203125 56.26171875 -69.29203125 56.26171875 -71.33203125 56.26171875 Z M-45.33203125 56.26171875 C-45.33203125 56.59171875 -45.33203125 56.92171875 -45.33203125 57.26171875 C-43.35203125 57.26171875 -41.37203125 57.26171875 -39.33203125 57.26171875 C-39.33203125 56.93171875 -39.33203125 56.60171875 -39.33203125 56.26171875 C-41.31203125 56.26171875 -43.29203125 56.26171875 -45.33203125 56.26171875 Z M-9.33203125 56.26171875 C-8.33203125 59.26171875 -8.33203125 59.26171875 -8.33203125 59.26171875 Z M12.66796875 56.26171875 C12.66796875 63.19171875 12.66796875 70.12171875 12.66796875 77.26171875 C12.99796875 77.26171875 13.32796875 77.26171875 13.66796875 77.26171875 C13.66796875 70.33171875 13.66796875 63.40171875 13.66796875 56.26171875 C13.33796875 56.26171875 13.00796875 56.26171875 12.66796875 56.26171875 Z M-98.33203125 57.26171875 C-94.33203125 58.26171875 -94.33203125 58.26171875 -94.33203125 58.26171875 Z M-24.33203125 57.26171875 C-23.33203125 59.26171875 -23.33203125 59.26171875 -23.33203125 59.26171875 Z M-123.33203125 58.26171875 C-123.33203125 63.87171875 -123.33203125 69.48171875 -123.33203125 75.26171875 C-123.00203125 75.26171875 -122.67203125 75.26171875 -122.33203125 75.26171875 C-122.33203125 69.65171875 -122.33203125 64.04171875 -122.33203125 58.26171875 C-122.66203125 58.26171875 -122.99203125 58.26171875 -123.33203125 58.26171875 Z M-99.33203125 58.26171875 C-98.33203125 60.26171875 -98.33203125 60.26171875 -98.33203125 60.26171875 Z M-31.33203125 59.26171875 C-30.33203125 62.26171875 -30.33203125 62.26171875 -30.33203125 62.26171875 Z M-8.33203125 60.26171875 C-7.33203125 63.26171875 -7.33203125 63.26171875 -7.33203125 63.26171875 Z M-104.33203125 61.26171875 C-104.33203125 62.91171875 -104.33203125 64.56171875 -104.33203125 66.26171875 C-104.00203125 66.26171875 -103.67203125 66.26171875 -103.33203125 66.26171875 C-103.33203125 64.61171875 -103.33203125 62.96171875 -103.33203125 61.26171875 C-103.66203125 61.26171875 -103.99203125 61.26171875 -104.33203125 61.26171875 Z M-97.33203125 62.26171875 C-96.33203125 65.26171875 -96.33203125 65.26171875 -96.33203125 65.26171875 Z M-59.33203125 63.26171875 C-58.33203125 67.26171875 -58.33203125 67.26171875 -58.33203125 67.26171875 Z M-30.33203125 63.26171875 C-30.33203125 65.24171875 -30.33203125 67.22171875 -30.33203125 69.26171875 C-29.67203125 69.26171875 -29.01203125 69.26171875 -28.33203125 69.26171875 C-28.66203125 67.28171875 -28.99203125 65.30171875 -29.33203125 63.26171875 C-29.66203125 63.26171875 -29.99203125 63.26171875 -30.33203125 63.26171875 Z M-7.33203125 64.26171875 C-7.33203125 65.91171875 -7.33203125 67.56171875 -7.33203125 69.26171875 C-7.00203125 69.26171875 -6.67203125 69.26171875 -6.33203125 69.26171875 C-6.33203125 67.61171875 -6.33203125 65.96171875 -6.33203125 64.26171875 C-6.66203125 64.26171875 -6.99203125 64.26171875 -7.33203125 64.26171875 Z M-60.33203125 67.26171875 C-60.33203125 68.58171875 -60.33203125 69.90171875 -60.33203125 71.26171875 C-59.34203125 70.93171875 -58.35203125 70.60171875 -57.33203125 70.26171875 C-57.99203125 70.26171875 -58.65203125 70.26171875 -59.33203125 70.26171875 C-59.66203125 69.27171875 -59.99203125 68.28171875 -60.33203125 67.26171875 Z M-50.33203125 67.26171875 C-49.33203125 70.26171875 -49.33203125 70.26171875 -49.33203125 70.26171875 Z M-103.33203125 69.26171875 C-102.34203125 69.59171875 -101.35203125 69.92171875 -100.33203125 70.26171875 C-100.33203125 72.24171875 -100.33203125 74.22171875 -100.33203125 76.26171875 C-100.00203125 76.26171875 -99.67203125 76.26171875 -99.33203125 76.26171875 C-99.33203125 74.61171875 -99.33203125 72.96171875 -99.33203125 71.26171875 C-98.67203125 70.93171875 -98.01203125 70.60171875 -97.33203125 70.26171875 C-100.30203125 69.76671875 -100.30203125 69.76671875 -103.33203125 69.26171875 Z M-78.33203125 69.26171875 C-77.33203125 71.26171875 -77.33203125 71.26171875 -77.33203125 71.26171875 Z M-28.33203125 69.26171875 C-27.33203125 71.26171875 -27.33203125 71.26171875 -27.33203125 71.26171875 Z M-14.33203125 69.26171875 C-12.35203125 70.25171875 -12.35203125 70.25171875 -10.33203125 71.26171875 C-9.34203125 70.60171875 -8.35203125 69.94171875 -7.33203125 69.26171875 C-9.64203125 69.26171875 -11.95203125 69.26171875 -14.33203125 69.26171875 Z M-91.33203125 71.26171875 C-90.33203125 73.26171875 -90.33203125 73.26171875 -90.33203125 73.26171875 Z M-77.33203125 71.26171875 C-76.33203125 73.26171875 -76.33203125 73.26171875 -76.33203125 73.26171875 Z M-27.33203125 71.26171875 C-26.33203125 73.26171875 -26.33203125 73.26171875 -26.33203125 73.26171875 Z M-12.33203125 72.26171875 C-11.33203125 76.26171875 -11.33203125 76.26171875 -11.33203125 76.26171875 Z M-83.33203125 73.26171875 C-82.33203125 75.26171875 -82.33203125 75.26171875 -82.33203125 75.26171875 Z M-76.33203125 73.26171875 C-75.33203125 76.26171875 -75.33203125 76.26171875 -75.33203125 76.26171875 Z M-33.33203125 73.26171875 C-32.33203125 75.26171875 -32.33203125 75.26171875 -32.33203125 75.26171875 Z M-26.33203125 74.26171875 C-25.33203125 76.26171875 -25.33203125 76.26171875 -25.33203125 76.26171875 Z M-122.33203125 76.26171875 C-122.33203125 77.91171875 -122.33203125 79.56171875 -122.33203125 81.26171875 C-122.00203125 81.26171875 -121.67203125 81.26171875 -121.33203125 81.26171875 C-121.33203125 79.61171875 -121.33203125 77.96171875 -121.33203125 76.26171875 C-121.66203125 76.26171875 -121.99203125 76.26171875 -122.33203125 76.26171875 Z M-99.33203125 76.26171875 C-99.00203125 76.92171875 -98.67203125 77.58171875 -98.33203125 78.26171875 C-96.68203125 77.93171875 -95.03203125 77.60171875 -93.33203125 77.26171875 C-93.33203125 76.93171875 -93.33203125 76.60171875 -93.33203125 76.26171875 C-95.31203125 76.26171875 -97.29203125 76.26171875 -99.33203125 76.26171875 Z M-84.33203125 76.26171875 C-84.33203125 79.89171875 -84.33203125 83.52171875 -84.33203125 87.26171875 C-84.00203125 87.26171875 -83.67203125 87.26171875 -83.33203125 87.26171875 C-83.33203125 83.63171875 -83.33203125 80.00171875 -83.33203125 76.26171875 C-83.66203125 76.26171875 -83.99203125 76.26171875 -84.33203125 76.26171875 Z M-34.33203125 76.26171875 C-34.99203125 78.57171875 -35.65203125 80.88171875 -36.33203125 83.26171875 C-36.00203125 83.26171875 -35.67203125 83.26171875 -35.33203125 83.26171875 C-35.00203125 85.24171875 -34.67203125 87.22171875 -34.33203125 89.26171875 C-34.00203125 89.26171875 -33.67203125 89.26171875 -33.33203125 89.26171875 C-33.33203125 84.97171875 -33.33203125 80.68171875 -33.33203125 76.26171875 C-33.66203125 76.26171875 -33.99203125 76.26171875 -34.33203125 76.26171875 Z M-18.33203125 76.26171875 C-18.33203125 76.59171875 -18.33203125 76.92171875 -18.33203125 77.26171875 C-16.68203125 77.26171875 -15.03203125 77.26171875 -13.33203125 77.26171875 C-13.00203125 77.92171875 -12.67203125 78.58171875 -12.33203125 79.26171875 C-12.33203125 78.27171875 -12.33203125 77.28171875 -12.33203125 76.26171875 C-14.31203125 76.26171875 -16.29203125 76.26171875 -18.33203125 76.26171875 Z M-75.33203125 77.26171875 C-75.33203125 80.89171875 -75.33203125 84.52171875 -75.33203125 88.26171875 C-75.00203125 88.26171875 -74.67203125 88.26171875 -74.33203125 88.26171875 C-74.12578125 87.00359375 -73.91953125 85.74546875 -73.70703125 84.44921875 C-73.59101562 83.74152344 -73.475 83.03382813 -73.35546875 82.3046875 C-73.13625277 79.94416051 -73.13625277 79.94416051 -75.33203125 77.26171875 Z M-25.33203125 77.26171875 C-25.33203125 80.23171875 -25.33203125 83.20171875 -25.33203125 86.26171875 C-25.00203125 86.26171875 -24.67203125 86.26171875 -24.33203125 86.26171875 C-24.33203125 83.29171875 -24.33203125 80.32171875 -24.33203125 77.26171875 C-24.66203125 77.26171875 -24.99203125 77.26171875 -25.33203125 77.26171875 Z M-59.33203125 78.26171875 C-55.33203125 79.26171875 -55.33203125 79.26171875 -55.33203125 79.26171875 Z M-54.33203125 78.26171875 C-50.33203125 79.26171875 -50.33203125 79.26171875 -50.33203125 79.26171875 Z M11.66796875 78.26171875 C12.66796875 82.26171875 12.66796875 82.26171875 12.66796875 82.26171875 Z M-121.33203125 82.26171875 C-120.33203125 85.26171875 -120.33203125 85.26171875 -120.33203125 85.26171875 Z M-96.33203125 82.26171875 C-95.33203125 85.26171875 -95.33203125 85.26171875 -95.33203125 85.26171875 Z M-59.33203125 82.26171875 C-59.33203125 82.59171875 -59.33203125 82.92171875 -59.33203125 83.26171875 C-56.36203125 83.26171875 -53.39203125 83.26171875 -50.33203125 83.26171875 C-50.33203125 82.93171875 -50.33203125 82.60171875 -50.33203125 82.26171875 C-53.30203125 82.26171875 -56.27203125 82.26171875 -59.33203125 82.26171875 Z M10.66796875 83.26171875 C11.66796875 86.26171875 11.66796875 86.26171875 11.66796875 86.26171875 Z M-38.33203125 84.26171875 C-39.30759689 87.18841566 -39.39266535 88.70233196 -39.2109375 91.7109375 C-39.16259766 92.55849609 -39.11425781 93.40605469 -39.06445312 94.27929688 C-39.00837891 95.16037109 -38.95230469 96.04144531 -38.89453125 96.94921875 C-38.84232422 97.84189453 -38.79011719 98.73457031 -38.73632812 99.65429688 C-38.60674945 101.85713435 -38.47178879 104.05950748 -38.33203125 106.26171875 C-38.00203125 106.26171875 -37.67203125 106.26171875 -37.33203125 106.26171875 C-37.33203125 99.00171875 -37.33203125 91.74171875 -37.33203125 84.26171875 C-37.66203125 84.26171875 -37.99203125 84.26171875 -38.33203125 84.26171875 Z M-71.33203125 85.26171875 C-71.33203125 91.86171875 -71.33203125 98.46171875 -71.33203125 105.26171875 C-71.00203125 105.26171875 -70.67203125 105.26171875 -70.33203125 105.26171875 C-70.00203125 98.99171875 -69.67203125 92.72171875 -69.33203125 86.26171875 C-69.99203125 85.93171875 -70.65203125 85.60171875 -71.33203125 85.26171875 Z M-15.33203125 85.26171875 C-14.33203125 87.26171875 -14.33203125 87.26171875 -14.33203125 87.26171875 Z M-120.33203125 86.26171875 C-119.33203125 88.26171875 -119.33203125 88.26171875 -119.33203125 88.26171875 Z M-97.33203125 86.26171875 C-96.33203125 89.26171875 -96.33203125 89.26171875 -96.33203125 89.26171875 Z M9.66796875 86.26171875 C10.66796875 89.26171875 10.66796875 89.26171875 10.66796875 89.26171875 Z M-26.33203125 87.26171875 C-25.33203125 90.26171875 -25.33203125 90.26171875 -25.33203125 90.26171875 Z M-119.33203125 89.26171875 C-118.33203125 91.26171875 -118.33203125 91.26171875 -118.33203125 91.26171875 Z M-96.33203125 89.26171875 C-96.33203125 89.59171875 -96.33203125 89.92171875 -96.33203125 90.26171875 C-93.36203125 90.26171875 -90.39203125 90.26171875 -87.33203125 90.26171875 C-87.33203125 89.93171875 -87.33203125 89.60171875 -87.33203125 89.26171875 C-90.30203125 89.26171875 -93.27203125 89.26171875 -96.33203125 89.26171875 Z M-76.33203125 89.26171875 C-75.33203125 92.26171875 -75.33203125 92.26171875 -75.33203125 92.26171875 Z M8.66796875 89.26171875 C9.66796875 91.26171875 9.66796875 91.26171875 9.66796875 91.26171875 Z M-83.33203125 88.26171875 C-83.33203125 88.92171875 -83.33203125 89.58171875 -83.33203125 90.26171875 C-84.32203125 90.59171875 -85.31203125 90.92171875 -86.33203125 91.26171875 C-85.01203125 91.26171875 -83.69203125 91.26171875 -82.33203125 91.26171875 C-82.66203125 90.27171875 -82.99203125 89.28171875 -83.33203125 88.26171875 Z M-33.33203125 90.26171875 C-32.33203125 92.26171875 -32.33203125 92.26171875 -32.33203125 92.26171875 Z M-27.33203125 90.26171875 C-26.33203125 92.26171875 -26.33203125 92.26171875 -26.33203125 92.26171875 Z M-25.33203125 90.26171875 C-25.33203125 90.59171875 -25.33203125 90.92171875 -25.33203125 91.26171875 C-22.36203125 91.26171875 -19.39203125 91.26171875 -16.33203125 91.26171875 C-16.33203125 90.93171875 -16.33203125 90.60171875 -16.33203125 90.26171875 C-19.30203125 90.26171875 -22.27203125 90.26171875 -25.33203125 90.26171875 Z M-82.33203125 91.26171875 C-81.33203125 93.26171875 -81.33203125 93.26171875 -81.33203125 93.26171875 Z M-77.33203125 92.26171875 C-76.33203125 94.26171875 -76.33203125 94.26171875 -76.33203125 94.26171875 Z M7.66796875 92.26171875 C8.66796875 94.26171875 8.66796875 94.26171875 8.66796875 94.26171875 Z M-81.33203125 93.26171875 C-80.33203125 95.26171875 -80.33203125 95.26171875 -80.33203125 95.26171875 Z M-117.33203125 94.26171875 C-116.33203125 96.26171875 -116.33203125 96.26171875 -116.33203125 96.26171875 Z M-56.33203125 94.26171875 C-52.33203125 95.26171875 -52.33203125 95.26171875 -52.33203125 95.26171875 Z M6.66796875 94.26171875 C7.66796875 96.26171875 7.66796875 96.26171875 7.66796875 96.26171875 Z M-80.33203125 95.26171875 C-80.00203125 96.91171875 -79.67203125 98.56171875 -79.33203125 100.26171875 C-79.00203125 98.94171875 -78.67203125 97.62171875 -78.33203125 96.26171875 C-78.99203125 95.93171875 -79.65203125 95.60171875 -80.33203125 95.26171875 Z M-116.33203125 96.26171875 C-115.33203125 98.26171875 -115.33203125 98.26171875 -115.33203125 98.26171875 Z M-30.33203125 96.26171875 C-30.33203125 97.25171875 -30.33203125 98.24171875 -30.33203125 99.26171875 C-29.67203125 98.93171875 -29.01203125 98.60171875 -28.33203125 98.26171875 C-28.99203125 97.60171875 -29.65203125 96.94171875 -30.33203125 96.26171875 Z M-31.33203125 100.26171875 C-30.33203125 104.26171875 -30.33203125 104.26171875 -30.33203125 104.26171875 Z M3.66796875 100.26171875 C4.66796875 102.26171875 4.66796875 102.26171875 4.66796875 102.26171875 Z M-83.33203125 101.26171875 C-82.33203125 103.26171875 -82.33203125 103.26171875 -82.33203125 103.26171875 Z M-78.33203125 101.26171875 C-78.33203125 103.24171875 -78.33203125 105.22171875 -78.33203125 107.26171875 C-78.00203125 107.26171875 -77.67203125 107.26171875 -77.33203125 107.26171875 C-77.33203125 105.28171875 -77.33203125 103.30171875 -77.33203125 101.26171875 C-77.66203125 101.26171875 -77.99203125 101.26171875 -78.33203125 101.26171875 Z M-25.33203125 103.26171875 C-24.33203125 105.26171875 -24.33203125 105.26171875 -24.33203125 105.26171875 Z M-72.33203125 105.26171875 C-71.33203125 107.26171875 -71.33203125 107.26171875 -71.33203125 107.26171875 Z M-32.33203125 105.26171875 C-31.33203125 107.26171875 -31.33203125 107.26171875 -31.33203125 107.26171875 Z M-24.33203125 105.26171875 C-23.33203125 107.26171875 -23.33203125 107.26171875 -23.33203125 107.26171875 Z M-37.33203125 106.26171875 C-36.33203125 108.26171875 -36.33203125 108.26171875 -36.33203125 108.26171875 Z M-86.33203125 107.26171875 C-85.33203125 110.26171875 -85.33203125 110.26171875 -85.33203125 110.26171875 Z M-23.33203125 107.26171875 C-23.33203125 109.90171875 -23.33203125 112.54171875 -23.33203125 115.26171875 C-24.32203125 115.75671875 -24.32203125 115.75671875 -25.33203125 116.26171875 C-24.34203125 116.26171875 -23.35203125 116.26171875 -22.33203125 116.26171875 C-22.33203125 113.29171875 -22.33203125 110.32171875 -22.33203125 107.26171875 C-22.66203125 107.26171875 -22.99203125 107.26171875 -23.33203125 107.26171875 Z M-86.33203125 113.26171875 C-86.33203125 114.25171875 -86.33203125 115.24171875 -86.33203125 116.26171875 C-85.34203125 115.93171875 -84.35203125 115.60171875 -83.33203125 115.26171875 C-83.99203125 115.26171875 -84.65203125 115.26171875 -85.33203125 115.26171875 C-85.66203125 114.60171875 -85.99203125 113.94171875 -86.33203125 113.26171875 Z M-90.33203125 116.26171875 C-86.33203125 117.26171875 -86.33203125 117.26171875 -86.33203125 117.26171875 Z M-97.33203125 117.26171875 C-97.33203125 117.59171875 -97.33203125 117.92171875 -97.33203125 118.26171875 C-95.35203125 118.26171875 -93.37203125 118.26171875 -91.33203125 118.26171875 C-91.33203125 117.93171875 -91.33203125 117.60171875 -91.33203125 117.26171875 C-93.31203125 117.26171875 -95.29203125 117.26171875 -97.33203125 117.26171875 Z M-18.33203125 117.26171875 C-18.33203125 117.59171875 -18.33203125 117.92171875 -18.33203125 118.26171875 C-16.35203125 118.26171875 -14.37203125 118.26171875 -12.33203125 118.26171875 C-12.00203125 118.92171875 -11.67203125 119.58171875 -11.33203125 120.26171875 C-11.33203125 119.27171875 -11.33203125 118.28171875 -11.33203125 117.26171875 C-13.64203125 117.26171875 -15.95203125 117.26171875 -18.33203125 117.26171875 Z M-99.33203125 118.26171875 C-98.67203125 118.92171875 -98.01203125 119.58171875 -97.33203125 120.26171875 C-97.33203125 119.60171875 -97.33203125 118.94171875 -97.33203125 118.26171875 C-97.99203125 118.26171875 -98.65203125 118.26171875 -99.33203125 118.26171875 Z M-70.33203125 133.26171875 C-70.33203125 133.59171875 -70.33203125 133.92171875 -70.33203125 134.26171875 C-68.68203125 134.26171875 -67.03203125 134.26171875 -65.33203125 134.26171875 C-65.33203125 133.93171875 -65.33203125 133.60171875 -65.33203125 133.26171875 C-66.98203125 133.26171875 -68.63203125 133.26171875 -70.33203125 133.26171875 Z M-43.33203125 133.26171875 C-39.33203125 134.26171875 -39.33203125 134.26171875 -39.33203125 134.26171875 Z M-65.33203125 134.26171875 C-65.33203125 134.59171875 -65.33203125 134.92171875 -65.33203125 135.26171875 C-58.40203125 135.26171875 -51.47203125 135.26171875 -44.33203125 135.26171875 C-44.33203125 134.93171875 -44.33203125 134.60171875 -44.33203125 134.26171875 C-51.26203125 134.26171875 -58.19203125 134.26171875 -65.33203125 134.26171875 Z " fill="#FFFFFF" transform="translate(160.33203125,127.73828125)"/>
<path d="M0 0 C0.495 8.91 0.495 8.91 1 18 C2.32 17.34 3.64 16.68 5 16 C8.5625 16.0625 8.5625 16.0625 12 17 C15.44821467 21.12836711 15.36658872 25.17403122 15.1875 30.3125 C15.16719727 31.42334961 15.16719727 31.42334961 15.14648438 32.55664062 C15.11135979 34.37141075 15.05755972 36.18580288 15 38 C16.32 38.33 17.64 38.66 19 39 C18.67 39.99 18.34 40.98 18 42 C14.04 42 10.08 42 6 42 C6 41.01 6 40.02 6 39 C6.99 38.34 7.98 37.68 9 37 C9.44144243 34.47305748 9.44144243 34.47305748 9.3125 31.625 C9.30863281 30.66851562 9.30476563 29.71203125 9.30078125 28.7265625 C9.00100077 26.00907193 8.38578659 24.32988821 7 22 C4.69 22 2.38 22 0 22 C0.495 29.92 0.495 29.92 1 38 C1.99 38.33 2.98 38.66 4 39 C4 39.99 4 40.98 4 42 C-0.29 42 -4.58 42 -9 42 C-9 41.01 -9 40.02 -9 39 C-8.01 38.34 -7.02 37.68 -6 37 C-5.5818783 33.99147392 -5.5818783 33.99147392 -5.70703125 30.4609375 C-5.71669922 29.15898437 -5.72636719 27.85703125 -5.73632812 26.515625 C-5.76139612 25.13541077 -5.78679098 23.75520244 -5.8125 22.375 C-5.82754483 20.98699337 -5.84123359 19.59897133 -5.85351562 18.2109375 C-5.8889743 14.80690491 -5.93839702 11.40364378 -6 8 C-9.3 8 -12.6 8 -16 8 C-16.33 17.9 -16.66 27.8 -17 38 C-15.35 38.33 -13.7 38.66 -12 39 C-12 39.99 -12 40.98 -12 42 C-17.61 42 -23.22 42 -29 42 C-29 41.01 -29 40.02 -29 39 C-26.525 38.505 -26.525 38.505 -24 38 C-24 28.1 -24 18.2 -24 8 C-26.31 8 -28.62 8 -31 8 C-33.28239171 10.92321965 -33.28239171 10.92321965 -35 14 C-35.99 14 -36.98 14 -38 14 C-37.67 10.37 -37.34 6.74 -37 3 C-21.16 3.495 -21.16 3.495 -5 4 C-5 3.01 -5 2.02 -5 1 C-3 0 -3 0 0 0 Z " fill="#FFFFFF" transform="translate(262,141)"/>
<path d="M0 0 C3.85545459 -0.70163604 7.16295654 -0.88664749 11 0 C14.4234463 3.15724704 16.55556137 7.06561783 19 11 C20.73863599 13.37545039 22.55346344 15.68778519 24.375 18 C26.67196047 20.94954034 28.9245227 23.88678405 31 27 C31.02714434 24.2915983 31.04690846 21.58347279 31.0625 18.875 C31.07087891 18.11445313 31.07925781 17.35390625 31.08789062 16.5703125 C31.10646509 12.2610356 30.86117265 8.24483526 30 4 C27.525 3.505 27.525 3.505 25 3 C25 2.01 25 1.02 25 0 C29.95 0 34.9 0 40 0 C40 0.99 40 1.98 40 3 C39.01 3.33 38.02 3.66 37 4 C35.83597273 7.49208181 35.78881492 10.39147772 35.68359375 14.07421875 C35.66281265 14.7580513 35.64203156 15.44188385 35.62062073 16.1464386 C35.55533846 18.3266921 35.49633983 20.50706405 35.4375 22.6875 C35.39429447 24.16732986 35.35067953 25.64714783 35.30664062 27.12695312 C35.19967917 30.75117622 35.09835177 34.37553189 35 38 C32.70874023 38.2421875 32.70874023 38.2421875 30 38 C28.24243164 36.3828125 28.24243164 36.3828125 26.66015625 34.125 C26.07169922 33.30386719 25.48324219 32.48273438 24.87695312 31.63671875 C23.97879883 30.33154297 23.97879883 30.33154297 23.0625 29 C21.86610505 27.31234428 20.66949244 25.62484283 19.47265625 23.9375 C18.94937744 23.18339844 18.42609863 22.42929688 17.88696289 21.65234375 C15.32580003 18.05233427 12.65086108 14.53448143 10 11 C10 18.59 10 26.18 10 34 C11.65 34.33 13.3 34.66 15 35 C15 35.99 15 36.98 15 38 C10.05 38 5.1 38 0 38 C0 37.01 0 36.02 0 35 C2.475 34.505 2.475 34.505 5 34 C5 24.43 5 14.86 5 5 C2.525 4.01 2.525 4.01 0 3 C0 2.01 0 1.02 0 0 Z " fill="#FFFFFF" transform="translate(288,208)"/>
<path d="M0 0 C0 2.64 0 5.28 0 8 C6.6 8 13.2 8 20 8 C20 8.99 20 9.98 20 11 C19.01 11.495 19.01 11.495 18 12 C18.2165625 12.54269531 18.433125 13.08539063 18.65625 13.64453125 C18.9346875 14.35996094 19.213125 15.07539063 19.5 15.8125 C19.7784375 16.52019531 20.056875 17.22789062 20.34375 17.95703125 C21 20 21 20 21 23 C21.66 23 22.32 23 23 23 C23.185625 21.9790625 23.185625 21.9790625 23.375 20.9375 C24.09100877 17.5722588 25.02945125 14.29986575 26 11 C25.01 11 24.02 11 23 11 C23 10.01 23 9.02 23 8 C26.63 8 30.26 8 34 8 C34 8.99 34 9.98 34 11 C33.01 11.33 32.02 11.66 31 12 C29.85796388 13.97949557 29.85796388 13.97949557 28.984375 16.453125 C28.62335693 17.37722168 28.26233887 18.30131836 27.89038086 19.25341797 C27.51405518 20.24229004 27.13772949 21.23116211 26.75 22.25 C23.36082277 30.87407733 19.69045719 39.00661636 15 47 C13.0625 46.625 13.0625 46.625 11 46 C10.67 45.34 10.34 44.68 10 44 C11.10369623 42.22997652 12.28425934 40.50752304 13.5 38.8125 C16.31693302 34.54921737 16.31693302 34.54921737 17.25 29.625 C16.8375 28.42875 16.425 27.2325 16 26 C15.64808594 24.9171875 15.29617188 23.834375 14.93359375 22.71875 C13.31428739 16.51838416 13.31428739 16.51838416 9.26953125 12.1171875 C6.18355175 11.9578426 3.09009066 12 0 12 C0.33 16.95 0.66 21.9 1 27 C2.98 27.33 4.96 27.66 7 28 C6.625 29.9375 6.625 29.9375 6 32 C3.20129973 33.39935013 1.09501208 33.25265405 -2 33 C-4.07285546 31.4498199 -4.90038223 30.5829246 -5.34057617 28.00708008 C-5.32486572 27.26868896 -5.30915527 26.53029785 -5.29296875 25.76953125 C-5.28330078 24.96708984 -5.27363281 24.16464844 -5.26367188 23.33789062 C-5.23853516 22.50451172 -5.21339844 21.67113281 -5.1875 20.8125 C-5.17396484 19.96751953 -5.16042969 19.12253906 -5.14648438 18.25195312 C-5.11115799 16.16769616 -5.05735139 14.08376723 -5 12 C-6.32 12 -7.64 12 -9 12 C-8.34 10.68 -7.68 9.36 -7 8 C-6.34 8 -5.68 8 -5 8 C-5.061875 7.05125 -5.12375 6.1025 -5.1875 5.125 C-5.125625 4.09375 -5.06375 3.0625 -5 2 C-2 0 -2 0 0 0 Z " fill="#FFFFFF" transform="translate(367,150)"/>
<path d="M0 0 C-0.33 12.21 -0.66 24.42 -1 37 C0.98 37 2.96 37 5 37 C5.33 26.11 5.66 15.22 6 4 C4.68 4 3.36 4 2 4 C2.33 3.01 2.66 2.02 3 1 C5.97 0.34 8.94 -0.32 12 -1 C12 11.54 12 24.08 12 37 C13.485 37.495 13.485 37.495 15 38 C15 38.99 15 39.98 15 41 C6.75 41 -1.5 41 -10 41 C-10 40.01 -10 39.02 -10 38 C-9.01 37.34 -8.02 36.68 -7 36 C-6.58145952 32.79574675 -6.58145952 32.79574675 -6.70703125 29.0234375 C-6.71127609 28.33819 -6.71552094 27.6529425 -6.71989441 26.94692993 C-6.73670247 24.75588871 -6.77435595 22.56576368 -6.8125 20.375 C-6.82754421 18.89063827 -6.84123307 17.40626215 -6.85351562 15.921875 C-6.8866121 12.28095167 -6.93840793 8.64056522 -7 5 C-7.99 4.67 -8.98 4.34 -10 4 C-10 3.01 -10 2.02 -10 1 C-3.375 -1.125 -3.375 -1.125 0 0 Z " fill="#FFFFFF" transform="translate(478,142)"/>
<path d="M0 0 C1.0528418 0.07831055 1.0528418 0.07831055 2.12695312 0.15820312 C3.85588054 0.28757865 5.58425355 0.42432531 7.3125 0.5625 C7 2.5 7 2.5 6.3125 4.5625 C5.3225 4.8925 4.3325 5.2225 3.3125 5.5625 C3.43625 6.861875 3.43625 6.861875 3.5625 8.1875 C3.24360786 12.49254388 2.16712402 14.34189854 -0.6875 17.5625 C-4.4375 18.9375 -4.4375 18.9375 -7.6875 19.5625 C-7.6875 19.8925 -7.6875 20.2225 -7.6875 20.5625 C-6.84445312 20.68367188 -6.00140625 20.80484375 -5.1328125 20.9296875 C-4.03710938 21.09726563 -2.94140625 21.26484375 -1.8125 21.4375 C-0.72195313 21.59992188 0.36859375 21.76234375 1.4921875 21.9296875 C4.3125 22.5625 4.3125 22.5625 6.3125 24.5625 C6.88291491 27.61872307 6.84197776 30.50211852 6.3125 33.5625 C3.59814626 37.01046286 0.50850793 40.24240393 -3.9921875 40.8984375 C-8.18569812 40.96216866 -11.00945259 40.90152371 -14.8125 39 C-16.6875 36.5625 -16.6875 36.5625 -17.25 33.0625 C-16.61899012 29.13621632 -15.76608551 27.96764493 -12.6875 25.5625 C-13.3475 24.9025 -14.0075 24.2425 -14.6875 23.5625 C-14.3125 21.5625 -14.3125 21.5625 -13.6875 19.5625 C-13.50259993 17.23892489 -13.50259993 17.23892489 -15.6875 14.5625 C-16.2329104 11.49671943 -16.22558365 8.6295768 -15.6875 5.5625 C-11.0562484 -0.44561018 -7.10784339 -0.57738784 0 0 Z M-7.6875 2.5625 C-9.31243901 3.68359566 -9.31243901 3.68359566 -10.6875 5.5625 C-11.13935216 9.10200857 -11.10859443 10.89576715 -9.1875 13.9375 C-8.6925 14.47375 -8.1975 15.01 -7.6875 15.5625 C-5.71993548 15.53127057 -5.71993548 15.53127057 -3.6875 14.5625 C-2.0835397 11.83492264 -2.0835397 11.83492264 -1.6875 8.5625 C-2.7345311 5.70561671 -2.7345311 5.70561671 -4.6875 3.5625 C-5.6775 3.2325 -6.6675 2.9025 -7.6875 2.5625 Z M-10.5625 27.75 C-11.93927597 29.57174255 -11.93927597 29.57174255 -11.5 32.125 C-10.84122967 34.70691272 -10.84122967 34.70691272 -8.6875 36.5625 C-4.69455668 37.00616037 -2.52765454 37.15060818 0.8125 34.8125 C2.4957913 32.71818719 2.4957913 32.71818719 2.375 30.4375 C1.41499047 28.36371015 1.41499047 28.36371015 -0.9375 27.3125 C-4.58281332 26.31832364 -7.25522469 25.65539231 -10.5625 27.75 Z " fill="#FFFFFF" transform="translate(532.6875,157.4375)"/>
<path d="M0 0 C4.29 0 8.58 0 13 0 C12.67 0.99 12.34 1.98 12 3 C11.34 3 10.68 3 10 3 C10.99 6.63 11.98 10.26 13 14 C14.65 9.71 16.3 5.42 18 1 C19.32 1 20.64 1 22 1 C22.67260351 2.76858691 23.33788395 4.53996016 24 6.3125 C24.37125 7.29863281 24.7425 8.28476563 25.125 9.30078125 C26 12 26 12 26 15 C26.66 15 27.32 15 28 15 C28.66 11.37 29.32 7.74 30 4 C29.01 3.67 28.02 3.34 27 3 C27 2.01 27 1.02 27 0 C30.63 0 34.26 0 38 0 C38 0.99 38 1.98 38 3 C37.01 3.66 36.02 4.32 35 5 C33.94835111 7.09977959 33.94835111 7.09977959 33.17578125 9.5703125 C32.86962891 10.46621094 32.56347656 11.36210937 32.24804688 12.28515625 C31.93931641 13.22230469 31.63058594 14.15945312 31.3125 15.125 C30.99216797 16.06988281 30.67183594 17.01476562 30.34179688 17.98828125 C29.55191085 20.32257129 28.77177031 22.65967065 28 25 C26.35 24.67 24.7 24.34 23 24 C21.68 20.04 20.36 16.08 19 12 C17.35 16.29 15.7 20.58 14 25 C12.35 24.67 10.7 24.34 9 24 C8.75092896 23.09906616 8.75092896 23.09906616 8.49682617 22.17993164 C7.73994247 19.47032475 6.96401727 16.76654242 6.1875 14.0625 C5.92646484 13.11697266 5.66542969 12.17144531 5.39648438 11.19726562 C5.13544922 10.29814453 4.87441406 9.39902344 4.60546875 8.47265625 C4.36981201 7.64000244 4.13415527 6.80734863 3.89135742 5.94946289 C3.59720947 5.30614014 3.30306152 4.66281738 3 4 C2.01 3.67 1.02 3.34 0 3 C0 2.01 0 1.02 0 0 Z " fill="#FFFFFF" transform="translate(348,221)"/>
<path d="M0 0 C-0.33 8.91 -0.66 17.82 -1 27 C0.65 25.35 2.3 23.7 4 22 C4.33 21.67 4.66 21.34 5 21 C4.01 20.67 3.02 20.34 2 20 C2.33 19.01 2.66 18.02 3 17 C6.96 17 10.92 17 15 17 C14 20 14 20 11.6875 21.375 C8.68360048 23.19131134 7.05456408 25.18448626 5 28 C6.04846541 29.46845587 7.11443761 30.92442099 8.1875 32.375 C8.77917969 33.18710938 9.37085938 33.99921875 9.98046875 34.8359375 C12.19553039 37.20952387 13.93353141 38.03610141 17 39 C17 39.99 17 40.98 17 42 C9.7702407 42.61269147 9.7702407 42.61269147 6.25 39.8125 C5.5075 38.884375 4.765 37.95625 4 37 C3.236875 36.071875 2.47375 35.14375 1.6875 34.1875 C1.130625 33.465625 0.57375 32.74375 0 32 C0 33.98 0 35.96 0 38 C0.99 38.33 1.98 38.66 3 39 C3 39.99 3 40.98 3 42 C-1.29 42 -5.58 42 -10 42 C-10 41.01 -10 40.02 -10 39 C-8.515 38.505 -8.515 38.505 -7 38 C-6.67 27.11 -6.34 16.22 -6 5 C-7.32 5 -8.64 5 -10 5 C-10 4.01 -10 3.02 -10 2 C-8.7090864 1.66376204 -7.41723903 1.33110751 -6.125 1 C-5.40570313 0.814375 -4.68640625 0.62875 -3.9453125 0.4375 C-2 0 -2 0 0 0 Z " fill="#FFFFFF" transform="translate(470,204)"/>
<path d="M0 0 C1.79824219 0.00966797 1.79824219 0.00966797 3.6328125 0.01953125 C6.875 0.1875 6.875 0.1875 10.875 1.1875 C10.545 4.4875 10.215 7.7875 9.875 11.1875 C8.885 11.1875 7.895 11.1875 6.875 11.1875 C6.42125 10.218125 5.9675 9.24875 5.5 8.25 C4.21713779 5.11670418 4.21713779 5.11670418 1.875 4.1875 C-2.23161505 3.91821377 -5.09109478 3.79691358 -8.9375 5.25 C-12.46235347 8.37201307 -13.80337007 11.77307258 -14.41015625 16.328125 C-14.63275945 21.86416968 -13.80528617 27.2806769 -11.125 32.1875 C-8.68937999 33.79756032 -8.68937999 33.79756032 -6.125 34.1875 C-5.465 34.5175 -4.805 34.8475 -4.125 35.1875 C-0.23704889 35.44106203 2.65963789 35.51586566 5.875 33.1875 C7.62822937 30.65561352 7.62822937 30.65561352 8.875 28.1875 C9.865 28.5175 10.855 28.8475 11.875 29.1875 C10.66483552 33.62476975 9.56145211 36.36524896 5.875 39.1875 C2.4140625 39.68359375 2.4140625 39.68359375 -1.5 39.625 C-3.42972656 39.62306641 -3.42972656 39.62306641 -5.3984375 39.62109375 C-10.80506526 38.99202071 -14.00784015 37.27926986 -17.875 33.5 C-22.25972706 27.74327769 -22.57138792 21.44538147 -21.66796875 14.515625 C-20.48457869 9.44152087 -17.07997662 5.44453957 -13.125 2.1875 C-8.62825093 0.35089173 -4.8380795 -0.05747179 0 0 Z " fill="#FFFFFF" transform="translate(332.125,143.8125)"/>
<path d="M0 0 C1.20785156 0.00644531 2.41570312 0.01289063 3.66015625 0.01953125 C6.28808061 0.15421629 8.44398479 0.4102197 10.9375 1.1875 C11.0625 7.8125 11.0625 7.8125 9.9375 11.1875 C8.9475 11.1875 7.9575 11.1875 6.9375 11.1875 C6.669375 10.218125 6.40125 9.24875 6.125 8.25 C5.733125 7.239375 5.34125 6.22875 4.9375 5.1875 C1.18671265 3.93723755 -2.17407015 3.57740609 -6.0625 4.1875 C-9.98173765 6.29227578 -11.47155051 7.51401472 -12.9453125 11.6875 C-14.55092747 19.00422645 -14.32675102 24.59592942 -10.25 31.0625 C-6.55559441 34.65135114 -4.21705908 35.1875 0.9375 35.1875 C4.28275943 34.68886699 5.70900575 33.7574795 7.8125 31.125 C8.51375 30.155625 9.215 29.18625 9.9375 28.1875 C10.5975 28.1875 11.2575 28.1875 11.9375 28.1875 C11.67618153 31.93306468 11.1863751 33.86931202 8.84765625 36.859375 C4.35565013 40.4529799 0.0396979 39.86527523 -5.44921875 39.60546875 C-10.23110597 39.05232071 -12.39377295 38.28553618 -16.0625 35.1875 C-21.29631528 28.43863293 -21.82240599 22.5148031 -21.0625 14.1875 C-19.47356828 8.82485545 -16.82541624 5.20788591 -12.0625 2.1875 C-7.94217695 0.16360892 -4.56704486 -0.05372994 0 0 Z " fill="#FFFFFF" transform="translate(430.0625,143.8125)"/>
<path d="M0 0 C4.95 0 9.9 0 15 0 C14.67 0.99 14.34 1.98 14 3 C13.34 3 12.68 3 12 3 C14.31 7.29 16.62 11.58 19 16 C20.98 11.71 22.96 7.42 25 3 C23.68 2.67 22.36 2.34 21 2 C21.33 1.34 21.66 0.68 22 0 C26.29 0 30.58 0 35 0 C35 0.99 35 1.98 35 3 C34.08190552 3.1383728 34.08190552 3.1383728 33.14526367 3.27954102 C30.44205628 4.18737816 30.00427944 5.04937788 28.67578125 7.52734375 C28.28712891 8.23697266 27.89847656 8.94660156 27.49804688 9.67773438 C27.10681641 10.42345703 26.71558594 11.16917969 26.3125 11.9375 C25.90966797 12.67935547 25.50683594 13.42121094 25.09179688 14.18554688 C21.75200467 20.24063642 21.75200467 20.24063642 20.875 27 C20.87242187 27.886875 20.86984375 28.77375 20.8671875 29.6875 C20.84872098 32.02676966 20.84872098 32.02676966 22 34 C24.02463255 34.65213292 24.02463255 34.65213292 26 35 C26 35.99 26 36.98 26 38 C20.39 38 14.78 38 9 38 C9 37.01 9 36.02 9 35 C10.98 34.505 10.98 34.505 13 34 C14.01016656 25.8064268 12.94801502 19.61006664 9.3125 12.3125 C8.97347656 11.61769531 8.63445312 10.92289063 8.28515625 10.20703125 C6.61019494 7.05710401 5.42401462 5.22307116 2.23046875 3.54296875 C1.49441406 3.36378906 0.75835937 3.18460938 0 3 C0 2.01 0 1.02 0 0 Z " fill="#FFFFFF" transform="translate(389,208)"/>
<path d="M0 0 C5.78180431 4.90196452 5.78180431 4.90196452 6.203125 8.953125 C6.30730929 14.05815533 5.99750883 17.65878032 3 22 C-0.64445623 25.21569668 -4.15384158 25.52338267 -8.84765625 25.3515625 C-12.16391744 24.80988644 -13.79216435 23.4754521 -16 21 C-18.36256159 16.94989442 -18.71111728 12.59075715 -18 8 C-16.08306306 3.93609368 -14.57081498 2.33387291 -10.6875 0.0625 C-6.48726814 -1.1477363 -4.18587912 -1.24026048 0 0 Z M-10.8125 4.5 C-12.47476397 7.9995031 -12.56168587 11.23296011 -12 15 C-10.36312815 18.58552881 -9.31027417 19.79315055 -6 22 C-3.90708843 21.91428339 -3.90708843 21.91428339 -2 21 C0.68765626 16.96851561 0.5648871 13.73508302 0 9 C-1.1589584 6.58130422 -2.12322096 4.87677904 -4 3 C-7.0182111 2.60286696 -8.42620859 2.52513815 -10.8125 4.5 Z " fill="#FFFFFF" transform="translate(435,221)"/>
<path d="M0 0 C3.3923422 1.72817433 5.42158265 3.02720718 7.375 6.3125 C8.79074719 12.40021294 8.27623318 16.66095333 5 22 C2.13571921 25.46100596 -0.32625201 25.93372971 -4.8125 26.375 C-8.10561342 26.34462072 -9.86865095 25.75374815 -12.4375 23.6875 C-16.30192259 19.63456899 -16.45341458 15.96741454 -16.421875 10.58203125 C-15.72737432 6.33142985 -13.31226839 3.63530842 -10 1 C-6.38069302 -0.20643566 -3.80768995 -0.32268559 0 0 Z M-6 3 C-8.20808542 4.36483958 -8.20808542 4.36483958 -10 7 C-10.85451926 11.8724031 -10.71883343 15.74204149 -8.25 20.0625 C-6.01861313 21.98397203 -4.9304688 22.90546875 -2 23 C1.24849977 21.27773504 1.24849977 21.27773504 2 18 C2.39262808 12.79767793 1.94624831 9.36857508 -1 5 C-3.55721737 3.57442644 -3.55721737 3.57442644 -6 3 Z " fill="#FFFFFF" transform="translate(460,157)"/>
<path d="M0 0 C3.17457564 2.09386904 4.63548742 3.64156804 5.62890625 7.34375 C6.39613086 12.70624622 6.2488135 16.4516611 3 21 C0.71237611 23.63423357 -0.91761536 24.80920073 -4.37109375 25.41796875 C-9.05566587 25.67551581 -11.26851995 25.56727024 -15.0625 22.625 C-18.73745555 17.64602796 -18.76210247 13.07113087 -18 7 C-16.36216798 3.5408444 -13.93207467 1.57939777 -10.6875 -0.4375 C-6.89493751 -1.23129215 -3.71646487 -1.12620148 0 0 Z M-10 3 C-12.83938277 7.25907416 -12.51006585 11.0029486 -12 16 C-11.02662806 19.07499469 -11.02662806 19.07499469 -9 21 C-6.55460214 22.07272562 -6.55460214 22.07272562 -4 22 C-0.75150023 20.27773504 -0.75150023 20.27773504 0 17 C0.3887767 11.84870868 0.12061144 8.22792518 -3 4 C-6.59385054 3.02126462 -6.59385054 3.02126462 -10 3 Z " fill="#FFFFFF" transform="translate(251,221)"/>
<path d="M0 0 C-0.33 1.98 -0.66 3.96 -1 6 C-3.64 5.67 -6.28 5.34 -9 5 C-9.66 8.63 -10.32 12.26 -11 16 C-9.02 16 -7.04 16 -5 16 C-5 17.32 -5 18.64 -5 20 C-6.98 20 -8.96 20 -11 20 C-11 25.61 -11 31.22 -11 37 C-9.35 37.33 -7.7 37.66 -6 38 C-6 38.99 -6 39.98 -6 41 C-10.62 41 -15.24 41 -20 41 C-20 40.01 -20 39.02 -20 38 C-19.01 38 -18.02 38 -17 38 C-16.505 29.09 -16.505 29.09 -16 20 C-17.32 20 -18.64 20 -20 20 C-19.505 18.515 -19.505 18.515 -19 17 C-18.34 16.67 -17.68 16.34 -17 16 C-16.53442287 14.11003506 -16.53442287 14.11003506 -16.25 11.875 C-15.22996646 6.76667201 -12.95000919 3.37710709 -9 0 C-5.52176885 -1.15941038 -3.54104422 -0.70820884 0 0 Z " fill="#FFFFFF" transform="translate(279,205)"/>
<path d="M0 0 C2.91384662 2.08131902 3.90923835 4.64381031 5 8 C5 8.99 5 9.98 5 11 C0.03926578 12.32286246 -4.91111512 12.08893197 -10 12 C-8.3672149 15.74667202 -8.3672149 15.74667202 -6 19 C-2.1638778 19.14475933 1.32307787 19.17661508 5 18 C3.52543097 22.66946859 3.52543097 22.66946859 1.19921875 24.1328125 C-2.55254673 25.61219427 -6.04930277 25.78168876 -10 25 C-13.86064104 21.86322915 -15.19862132 19.43755364 -16 14.5625 C-16.27496169 9.90386338 -15.33562276 7.02693579 -13 3 C-8.85269247 -0.88810081 -5.45276216 -1.36319054 0 0 Z M-8 3 C-10.2773501 5.81509993 -10.2773501 5.81509993 -10 9 C-7.36 9 -4.72 9 -2 9 C-1.67 8.34 -1.34 7.68 -1 7 C-2.22590192 4.92022703 -2.22590192 4.92022703 -4 3 C-5.32 3 -6.64 3 -8 3 Z " fill="#FFFFFF" transform="translate(343,221)"/>
<path d="M0 0 C3.31567711 2.48675783 4.79049406 5.0691057 6 9 C6 9.99 6 10.98 6 12 C1.05 12.33 -3.9 12.66 -9 13 C-7.34922098 16.75170424 -7.34922098 16.75170424 -5 20 C-1.1638778 20.14475933 2.32307787 20.17661508 6 19 C5.70049983 21.8951683 5.19065168 22.83823494 2.9375 24.75 C-0.8571759 26.3647557 -3.93644749 26.7238717 -8 26 C-11.65410464 24.01407357 -12.75435455 22.58061651 -14.375 18.75 C-15.1879978 13.87201323 -15.53983705 9.56824808 -12.91796875 5.1953125 C-9.1819017 0.47725804 -5.89913766 -0.60195282 0 0 Z M-5 3 C-7.0624994 4.81222534 -7.0624994 4.81222534 -9 7 C-9 7.99 -9 8.98 -9 10 C-4.545 9.505 -4.545 9.505 0 9 C-1.86566488 5.37206002 -1.86566488 5.37206002 -5 3 Z " fill="#FFFFFF" transform="translate(508,157)"/>
<path d="M0 0 C3.58849926 2.85448805 5.79595514 5.54503401 7 10 C6.67 10.66 6.34 11.32 6 12 C0.96109772 13.0283474 -3.88689982 13.08970351 -9 13 C-7.31192092 17.23084903 -7.31192092 17.23084903 -4 20 C-0.46981203 20.15348643 2.61527952 20.04145246 6 19 C5.70049983 21.8951683 5.19065168 22.83823494 2.9375 24.75 C-0.8288985 26.35272277 -3.97013805 26.89552488 -8 26 C-10.69105198 23.82425584 -12.45532928 22.08934144 -14 19 C-14.53209766 13.66157758 -14.64057432 9.30402629 -12.25 4.4375 C-8.49732084 0.37209758 -5.58526213 -0.79789459 0 0 Z M-5 3 C-8.22404978 4.66954819 -8.22404978 4.66954819 -8.6875 7.625 C-8.790625 8.40875 -8.89375 9.1925 -9 10 C-4.545 9.505 -4.545 9.505 0 9 C-0.78130071 6.50447516 -0.78130071 6.50447516 -2 4 C-2.99 3.67 -3.98 3.34 -5 3 Z " fill="#FFFFFF" transform="translate(295,157)"/>
<path d="M0 0 C3.71819473 2.72667613 4.84499731 4.27267969 5.8125 8.8125 C5.874375 9.864375 5.93625 10.91625 6 12 C0.91913204 12.84681133 -3.84828377 13.09038099 -9 13 C-7.31192092 17.23084903 -7.31192092 17.23084903 -4 20 C-0.46981203 20.15348643 2.61527952 20.04145246 6 19 C5.70049983 21.8951683 5.19065168 22.83823494 2.9375 24.75 C-0.8288985 26.35272277 -3.97013805 26.89552488 -8 26 C-10.69105198 23.82425584 -12.45532928 22.08934144 -14 19 C-14.53209766 13.66157758 -14.64057432 9.30402629 -12.25 4.4375 C-8.49732084 0.37209758 -5.58526213 -0.79789459 0 0 Z M-5 3 C-7.0624994 4.81222534 -7.0624994 4.81222534 -9 7 C-9 7.99 -9 8.98 -9 10 C-4.545 9.505 -4.545 9.505 0 9 C-0.78130071 6.50447516 -0.78130071 6.50447516 -2 4 C-2.99 3.67 -3.98 3.34 -5 3 Z " fill="#FFFFFF" transform="translate(555,157)"/>
<path d="M0 0 C0.66 0.99 1.32 1.98 2 3 C2.86625 2.2265625 2.86625 2.2265625 3.75 1.4375 C6 0 6 0 8.1875 0.125 C9.0846875 0.558125 9.0846875 0.558125 10 1 C10.33 1.99 10.66 2.98 11 4 C9.25 6.0625 9.25 6.0625 7 8 C4.75 7.75 4.75 7.75 3 7 C1.61773984 9.76452033 1.90474613 12.0461363 1.9375 15.125 C1.95103516 16.76855469 1.95103516 16.76855469 1.96484375 18.4453125 C1.97644531 19.28835937 1.98804688 20.13140625 2 21 C3.32 21.66 4.64 22.32 6 23 C6 23.99 6 24.98 6 26 C1.71 26 -2.58 26 -7 26 C-7 25.01 -7 24.02 -7 23 C-6.34 22.67 -5.68 22.34 -5 22 C-5 16.72 -5 11.44 -5 6 C-5.66 5.67 -6.32 5.34 -7 5 C-7 4.01 -7 3.02 -7 2 C-4.69 1.34 -2.38 0.68 0 0 Z " fill="#FFFFFF" transform="translate(450,220)"/>
<path d="M0 0 C0 7.26 0 14.52 0 22 C1.32 22.33 2.64 22.66 4 23 C3.67 23.99 3.34 24.98 3 26 C-0.96 26 -4.92 26 -9 26 C-9 25.01 -9 24.02 -9 23 C-8.01 22.34 -7.02 21.68 -6 21 C-5.77862607 18.37302936 -5.71837975 15.99106036 -5.8125 13.375 C-5.82603516 12.66859375 -5.83957031 11.9621875 -5.85351562 11.234375 C-5.8888896 9.48925872 -5.94269779 7.74453392 -6 6 C-6.66 5.67 -7.32 5.34 -8 5 C-8 4.01 -8 3.02 -8 2 C-2.25 0 -2.25 0 0 0 Z " fill="#FFFFFF" transform="translate(354,157)"/>
<path d="M0 0 C0 1.65 0 3.3 0 5 C-1.65 5.33 -3.3 5.66 -5 6 C-5.33 4.02 -5.66 2.04 -6 0 C-3 -1 -3 -1 0 0 Z " fill="#FFFFFF" transform="translate(354,147)"/>
</svg>
