<?xml version="1.0" encoding="UTF-8"?>
<svg version="1.1" xmlns="http://www.w3.org/2000/svg" width="1657" height="697">
<path d="M0 0 C8.29360538 7.58462398 15.72098751 15.64065141 22.64501953 24.50439453 C23.43392578 25.47634766 24.22283203 26.44830078 25.03564453 27.44970703 C32.08977537 36.30064478 37.9775641 45.71734578 43.64501953 55.50439453 C44.01900879 56.14634766 44.39299805 56.78830078 44.77832031 57.44970703 C64.57800109 91.80448308 74.53943838 133.92313253 72.64501953 173.50439453 C72.58338623 174.79555176 72.58338623 174.79555176 72.52050781 176.11279297 C69.70295431 229.85335011 49.35517016 284.96536736 10.14575195 322.99047852 C8.49153878 324.59795071 8.49153878 324.59795071 6.70751953 327.00439453 C3.72332359 330.62160174 0.21504923 333.47787897 -3.35498047 336.50439453 C-4.28310547 337.32037109 -5.21123047 338.13634766 -6.16748047 338.97705078 C-35.08741778 364.2542239 -69.9698256 381.25365474 -107.47998047 389.25439453 C-108.87277222 389.55265137 -108.87277222 389.55265137 -110.29370117 389.85693359 C-124.9849655 392.82394047 -139.52538516 393.8896786 -154.47998047 393.81689453 C-155.28479858 393.81473938 -156.0896167 393.81258423 -156.91882324 393.81036377 C-216.44907581 393.5559107 -270.40685869 370.24165018 -313.35498047 329.50439453 C-313.85819824 329.0298584 -314.36141602 328.55532227 -314.87988281 328.06640625 C-322.87957842 320.47325677 -329.76377942 312.33616075 -336.35498047 303.50439453 C-336.7695752 302.96121582 -337.18416992 302.41803711 -337.61132812 301.85839844 C-366.97052013 263.3528232 -381.88723122 215.62782928 -381.66748047 167.44189453 C-381.66532532 166.58755829 -381.66317017 165.73322205 -381.66094971 164.85299683 C-381.43681924 109.31592872 -361.3018473 55.85903154 -323.53076172 14.86767578 C-322.04939109 13.25864664 -320.58907143 11.63003819 -319.14794922 9.98486328 C-300.55257415 -11.21581828 -275.94440914 -27.85638744 -250.35498047 -39.49560547 C-249.6234375 -39.83043945 -248.89189453 -40.16527344 -248.13818359 -40.51025391 C-164.57060596 -78.31801524 -67.63536205 -60.68016268 0 0 Z M-209.35498047 -8.49560547 C-210.11311035 -8.25890137 -210.87124023 -8.02219727 -211.65234375 -7.77832031 C-237.12324831 0.41281117 -260.00479666 14.12011008 -279.35498047 32.50439453 C-280.72429265 33.67773176 -282.09889834 34.84493419 -283.47998047 36.00439453 C-316.41358919 64.8630537 -335.32774384 111.60643334 -338.35498047 154.50439453 C-340.60937746 204.73766399 -324.67265828 252.42403859 -290.82958984 289.89648438 C-276.91939392 305.06412517 -261.44864563 317.62954677 -243.35498047 327.50439453 C-242.41452881 328.01993896 -242.41452881 328.01993896 -241.45507812 328.54589844 C-198.61582327 351.71018468 -148.31763583 356.39220865 -101.67333984 342.71826172 C-74.46401344 334.23439781 -50.01765697 320.20261796 -29.35498047 300.50439453 C-28.49767334 299.68793457 -28.49767334 299.68793457 -27.62304688 298.85498047 C-0.51796671 272.87309753 17.61063117 240.22871616 25.64501953 203.50439453 C25.81018066 202.76125 25.9753418 202.01810547 26.14550781 201.25244141 C30.9010561 178.76809106 30.63462255 152.911363 25.64501953 130.50439453 C25.47341309 129.72531738 25.30180664 128.94624023 25.125 128.14355469 C13.88530864 78.75520579 -15.74772069 37.69659607 -58.35498047 10.50439453 C-103.21640113 -17.5756088 -158.9506282 -24.23830547 -209.35498047 -8.49560547 Z " fill="#7E57C6" transform="translate(491.35498046875,181.49560546875)"/>
<path d="M0 0 C1.04929687 0.75152344 2.09859375 1.50304687 3.1796875 2.27734375 C40.49706743 29.85762045 64.59598753 70.67085773 73 116 C73.3403125 117.81564453 73.3403125 117.81564453 73.6875 119.66796875 C80.66339365 164.86594633 69.22124153 212.81949664 42.58300781 249.89624023 C38.11465326 255.97345679 33.4477083 261.82985516 28.38867188 267.42529297 C26.93009815 269.07926634 25.55445015 270.78611827 24.171875 272.50390625 C20.48581842 276.87970032 17.34965033 280.58153351 11.46875 281.62890625 C7.54044715 281.42671419 3.8342989 280.81154556 0 280 C-1.47940384 279.74504381 -2.95992039 279.49647177 -4.44140625 279.25390625 C-15.10586003 277.44706999 -15.10586003 277.44706999 -18 276 C-17.94199219 274.83984375 -17.88398438 273.6796875 -17.82421875 272.484375 C-17.26019928 256.41068257 -21.93249688 243.67628117 -33 231.625 C-35 229 -35 229 -34.81640625 226.76171875 C-33.82138209 223.39577578 -32.44257213 220.35775833 -30.9375 217.1875 C-30.38964844 216.02605469 -29.84179688 214.86460937 -29.27734375 213.66796875 C-28.85582031 212.78753906 -28.43429687 211.90710938 -28 211 C-27.30438965 211.01571045 -26.6087793 211.0314209 -25.89208984 211.04760742 C-22.71981029 211.11022863 -19.54766115 211.14907677 -16.375 211.1875 C-15.28058594 211.21263672 -14.18617188 211.23777344 -13.05859375 211.26367188 C-5.11137807 211.34458371 -5.11137807 211.34458371 2 208 C4.35601529 206.07857558 4.35601529 206.07857558 4.25 202.6875 C4.01434958 199.21165637 3.32697179 197.15155799 2 194 C1.4375 191.5625 1.4375 191.5625 2 189 C3.13300295 188.06195267 4.3058342 187.17133439 5.5 186.3125 C8.00423501 184.39041181 8.90169297 183.63169565 9.39453125 180.46484375 C9.34113284 178.69761052 9.22934635 176.93087449 9.05078125 175.171875 C9.03402344 174.45515625 9.01726562 173.7384375 9 173 C9.66 172.34 10.32 171.68 11 171 C11.43410192 168.65925434 11.77639112 166.30090357 12.0625 163.9375 C12.90277778 157.09722222 12.90277778 157.09722222 14 156 C16.28357104 155.54864839 18.573392 155.16546935 20.87109375 154.79296875 C23.1227297 154.19531146 23.1227297 154.19531146 24.14453125 152.23413086 C26.90305938 145.02999533 22.95660015 135.66394616 20.9375 128.625 C16.32670805 111.64501551 16.32670805 111.64501551 18 105 C19.62553283 103.29319053 21.29115995 101.62339805 23 100 C24.11093128 92.8462627 22.39976147 85.3898387 21.0625 78.375 C20.36069973 74.58577449 19.66865059 70.79522421 19 67 C18.79310547 65.84189819 18.79310547 65.84189819 18.58203125 64.66040039 C17.96785419 60.72628558 17.80050605 58.14260544 19.875 54.6875 C22.92325554 49.43298958 23.69330055 45.03274957 23 39 C20.70483472 33.57506389 17.09152992 31.41818582 11.90625 29.09375 C-4.0395228 23.09265271 -22.46133042 23.21104711 -39.3046875 22.83203125 C-40.26173584 22.8057666 -41.21878418 22.77950195 -42.20483398 22.75244141 C-43.97479066 22.71037865 -45.74541657 22.689183 -47.51586914 22.69287109 C-51.7294303 22.59372848 -53.45244037 22.44319053 -56.828125 19.7109375 C-57.54484375 18.81632812 -58.2615625 17.92171875 -59 17 C-65.20328917 10.35096551 -71.47421463 4.52378014 -80.96875 3.76171875 C-87.09860961 3.63288321 -92.0218189 3.70212185 -97.6875 6.1875 C-103.78478889 8.76712222 -108.01110572 7.22278248 -114 5 C-124.58110388 1.54865281 -138.11256915 3.60987771 -148 8 C-153.33121174 10.86691464 -158.04743404 13.94993788 -162.25 18.3125 C-166.06073039 21.8010672 -170.40922333 21.82712566 -175.38525391 22.3269043 C-183.86508474 23.20467061 -189.35487655 26.57365175 -196.4375 31.125 C-203.0166769 35.23889368 -208.26122182 36.76022161 -215.93359375 37.1484375 C-223.94545832 37.57709777 -231.09860848 38.69349785 -236.73046875 44.91015625 C-240.56505277 50.82851982 -241.20571164 57.12090102 -240 64 C-238.93165464 66.37241104 -237.75592407 68.30625443 -236.19140625 70.37890625 C-234.62295959 72.5130222 -233.95220443 74.28548754 -234.13012695 76.9453125 C-234.24831787 77.66460937 -234.36650879 78.38390625 -234.48828125 79.125 C-234.61783203 79.91390625 -234.74738281 80.7028125 -234.88085938 81.515625 C-235.02330078 82.33546875 -235.16574219 83.1553125 -235.3125 84 C-235.44333984 84.81984375 -235.57417969 85.6396875 -235.70898438 86.484375 C-235.84240234 87.27328125 -235.97582031 88.0621875 -236.11328125 88.875 C-236.29564331 89.95394531 -236.29564331 89.95394531 -236.48168945 91.0546875 C-237 93 -237 93 -239 96 C-238.91832511 99.57176115 -238.91832511 99.57176115 -238 103 C-234.51636689 105.32242207 -233.40995687 104.90553975 -229.453125 104.3046875 C-226.56370644 103.94581067 -223.7235229 103.81453006 -220.8125 103.75 C-219.33716797 103.71132813 -219.33716797 103.71132813 -217.83203125 103.671875 C-213.69954152 104.15067381 -211.09204484 105.90795516 -208.1875 108.8125 C-206.57200625 111.78840954 -206.51310821 113.66131343 -207 117 C-208.3125 119.3125 -208.3125 119.3125 -211 121 C-213.88879507 121.46321787 -216.71459807 121.6887562 -219.63671875 121.82421875 C-221.95576822 121.73819854 -221.95576822 121.73819854 -223 123 C-222.77726394 126.86075831 -222.62883692 129.26973777 -220.0625 132.25 C-217.80739766 135.25680312 -217.54636324 136.79015618 -217 140.4375 C-215.64340063 148.95329607 -211.68272038 152.32402882 -204.99609375 157.25390625 C-202.40323243 159.52202565 -201.57478548 161.63339934 -201 165 C-200.01 165 -199.02 165 -198 165 C-198.69493832 160.13543175 -199.99823466 156.65072507 -203.87109375 153.45703125 C-205.25441363 152.4290596 -206.65109258 151.41874195 -208.0625 150.4296875 C-212.80723445 146.92853264 -212.80723445 146.92853264 -213.5546875 143.328125 C-213.66039062 142.31234375 -213.76609375 141.2965625 -213.875 140.25 C-214.69250977 134.42876666 -216.29698444 131.48259778 -220 127 C-220 126.34 -220 125.68 -220 125 C-219.12988281 124.96132813 -219.12988281 124.96132813 -218.2421875 124.921875 C-212.63831229 124.51499297 -209.35315826 123.59135557 -205 120 C-203.39039759 116.78079518 -203.53841874 113.49111461 -204 110 C-206.4159386 105.07520209 -208.88214904 102.90665036 -214 101 C-219.98153882 99.41306113 -225.24737971 100.56364462 -231.20703125 101.72265625 C-232.58955078 101.85994141 -232.58955078 101.85994141 -234 102 C-234.99 101.01 -234.99 101.01 -236 100 C-235.71452634 97.35936864 -235.09607348 95.21751037 -234.0234375 92.7890625 C-232.79116952 89.43089708 -232.33873838 86.23178617 -231.875 82.6875 C-231.70742187 81.43324219 -231.53984375 80.17898438 -231.3671875 78.88671875 C-231.24601562 77.93410156 -231.12484375 76.98148437 -231 76 C-227.04 76.33 -223.08 76.66 -219 77 C-219.33 75.35 -219.66 73.7 -220 72 C-220.35662276 68.00582514 -220.43474663 65.76515407 -218.4375 62.25 C-214.34720144 58.47433979 -210.53981758 57 -205 57 C-205.05800781 57.94359375 -205.11601562 58.8871875 -205.17578125 59.859375 C-205.49303531 68.88751898 -204.80451655 76.03618596 -200 84 C-198.78235387 85.26122504 -197.53249013 86.49227209 -196.25 87.6875 C-192.06655661 92.00560358 -192.43543254 96.71408352 -192.33520508 102.37109375 C-191.93919137 117.77051293 -183.06945689 132.05175136 -173.93359375 144.03515625 C-172.62634124 146.78640317 -173.09158732 148.11696259 -174 151 C-174.91200039 153.0834021 -175.87486788 155.14494161 -176.875 157.1875 C-183.76481855 171.92543319 -184.98752815 184.97404544 -182 201 C-181.63036918 203.66375254 -181.31423077 206.32903842 -181 209 C-182.93786085 208.52229477 -184.87527674 208.04278429 -186.8125 207.5625 C-187.89144531 207.29566406 -188.97039062 207.02882813 -190.08203125 206.75390625 C-192.0740843 206.23922588 -194.04811524 205.65062825 -196 205 C-201.14943278 204.5982661 -201.14943278 204.5982661 -206 206 C-209.5625 206.125 -209.5625 206.125 -213 206 C-214 205 -214 205 -214.1875 202.25 C-213.99884988 198.98006465 -213.20058912 197.0014728 -212 194 C-211.66756853 190.74217156 -211.65979113 188.72044231 -213.0625 185.75 C-215.75927433 183.31420383 -218.5042396 182.79149292 -222 182 C-221.01 179.03 -221.01 179.03 -220 176 C-212.77466796 175.00060828 -207.04335384 175.03709811 -200 177 C-204.48015483 172.21086898 -207.73940301 171.85159797 -214.1875 171.4375 C-215.45980469 171.35371094 -216.73210937 171.26992188 -218.04296875 171.18359375 C-219.01878906 171.12300781 -219.99460937 171.06242188 -221 171 C-222.64019775 166.44102516 -223.19447287 162.86182168 -223 158 C-221.02 158 -219.04 158 -217 158 C-217 157.34 -217 156.68 -217 156 C-222.73310689 153.60251894 -227.80481527 152.41588046 -234 152 C-234.17932149 147.33764138 -233.90575545 143.20480573 -233 138.625 C-231.50964149 130.45951465 -231.83469606 122.26519718 -232 114 C-232.66 114 -233.32 114 -234 114 C-234.0501123 114.71542969 -234.10022461 115.43085938 -234.15185547 116.16796875 C-234.38561329 119.44587894 -234.63022182 122.72289507 -234.875 126 C-234.95363281 127.12535156 -235.03226563 128.25070312 -235.11328125 129.41015625 C-235.4789248 134.21977527 -235.83532708 138.86364499 -237.09375 143.53125 C-237.89878774 146.61260136 -238.17370836 148.4272332 -237.625 151.5 C-237.41875 152.655 -237.2125 153.81 -237 155 C-233.7 155.66 -230.4 156.32 -227 157 C-226.87882812 158.04800781 -226.75765625 159.09601563 -226.6328125 160.17578125 C-226.46396055 161.55473886 -226.29466659 162.93364239 -226.125 164.3125 C-226.04636719 165.00279297 -225.96773437 165.69308594 -225.88671875 166.40429688 C-225.44056153 169.95639471 -225.02019807 171.9697029 -223 175 C-223.5259375 175.804375 -223.5259375 175.804375 -224.0625 176.625 C-225.28924249 179.73274763 -224.72856431 181.79431703 -224 185 C-221.36 185.66 -218.72 186.32 -216 187 C-214.75795907 191.29068685 -215.18375576 193.95955362 -216.625 198.0625 C-217.9415242 201.98558615 -217.9415242 201.98558615 -217.0625 206 C-214.42372103 208.55881597 -212.62325094 209.36060278 -209 210 C-208.071875 209.690625 -207.14375 209.38125 -206.1875 209.0625 C-201.85213654 207.61737885 -198.3823664 208.19419005 -194 209 C-192.18435547 209.25136719 -192.18435547 209.25136719 -190.33203125 209.5078125 C-184.67164548 210.4788675 -180.34068007 211.45710574 -176.41015625 215.98046875 C-171.63774883 224.34399463 -171.63774883 224.34399463 -172.546875 228.5 C-174.40796805 231.70188051 -176.57637908 234.61948162 -178.8125 237.5625 C-186.76019579 248.4211625 -191.41025781 259.54349804 -189.5625 273.25 C-189.376875 274.1575 -189.19125 275.065 -189 276 C-197.90005088 278.48604773 -206.7947813 280.13732791 -216 281 C-217.1859375 281.11214844 -218.371875 281.22429687 -219.59375 281.33984375 C-228.89291829 280.41205976 -238.23998988 266.86034877 -243.99609375 259.84375 C-265.26232587 233.08610724 -278.47847819 201.86649781 -283 168 C-283.14953125 166.89140625 -283.2990625 165.7828125 -283.453125 164.640625 C-283.75649641 161.75061316 -283.91542908 158.90482731 -284 156 C-284.02046387 155.33000977 -284.04092773 154.66001953 -284.06201172 153.96972656 C-285.36044776 104.6720804 -268.56312454 58.64624782 -234.62890625 22.76171875 C-233.76136719 21.85035156 -232.89382812 20.93898437 -232 20 C-231.30777344 19.24332031 -230.61554688 18.48664063 -229.90234375 17.70703125 C-171.49907753 -44.07214632 -67.36221524 -48.77024383 0 0 Z " fill="#7E57C6" transform="translate(441,202)"/>
<path d="M0 0 C3.10033706 1.41426513 5.52741115 3.13335986 8.15234375 5.296875 C12.70030257 8.89064512 17.43067556 11.58755252 22.5625 14.25 C31.85387475 19.22304336 40.53056112 24.73513067 49 31 C49.54543457 31.39960938 50.09086914 31.79921875 50.65283203 32.2109375 C58.53434075 38.0552662 66.0337243 44.97199392 68 55 C68.86966006 62.86770583 67.49660465 70.24632682 66 77.9375 C64.03735397 88.07131833 62.6430379 97.28727301 65.5 107.375 C66.74085141 113.29685636 64.24227079 117.1090361 61.30102539 122.02416992 C58.48713549 126.79440042 56.81873511 131.33543826 55.4375 136.6875 C52.16004641 148.92598796 45.91809308 158.05167609 37 167 C36.30132812 167.721875 35.60265625 168.44375 34.8828125 169.1875 C25.59522906 178.16889937 13.72980003 182.80491629 0.8828125 183.0625 C-14.27908973 182.48074836 -25.84423293 175.93697992 -36 165 C-36.59296875 164.42378906 -37.1859375 163.84757813 -37.796875 163.25390625 C-46.89417889 153.92740672 -51.74032926 142.03458059 -55.19238281 129.65234375 C-56.40981492 125.41743411 -58.03050067 122.11048318 -60.4375 118.4375 C-63.84537359 112.65968386 -62.77882823 108.22155837 -61.6015625 101.82421875 C-60.25266845 93.24910658 -61.72701698 84.96201991 -63.5625 76.5625 C-65.59517451 66.94985206 -67.61686667 54.72522978 -62 46 C-51.48331281 31.48746196 -34.55508788 22.48885252 -19.2265625 13.875 C-8.17767639 8.52903711 -8.17767639 8.52903711 0 0 Z M-52 58 C-51.67 58.99 -51.34 59.98 -51 61 C-48.23723823 60.47731534 -45.6739124 59.89130413 -43 59 C-33.64139029 58.30873906 -23.20872805 58.42456693 -15.4375 64.375 C-11.07457055 69.07353941 -10.69418623 73.40486976 -10.8125 79.625 C-10.8218457 80.35702637 -10.83119141 81.08905273 -10.84082031 81.84326172 C-10.88010944 84.22932084 -10.93979071 86.61438457 -11 89 C-11.01401855 89.83660156 -11.02803711 90.67320312 -11.04248047 91.53515625 C-11.08933487 94.06626014 -11.16529917 96.59490425 -11.25 99.125 C-11.26393799 99.90568848 -11.27787598 100.68637695 -11.29223633 101.49072266 C-11.5349884 107.08426049 -13.03554375 110.27210238 -16 115 C-16.50265692 118.21160696 -16.50265692 118.21160696 -16 121 C-13.82492851 123.17507149 -13.0285112 123.38642782 -10.125 124 C-7.73994237 124.536209 -6.02191997 124.9877506 -3.875 126.1875 C-1.0221208 127.42374765 1.04229906 126.73942523 4 126 C5.34187818 125.3507041 6.67479497 124.68268138 8 124 C10.33183607 123.32811503 12.66501142 122.66084583 15 122 C16.37375369 120.84354174 16.37375369 120.84354174 16.25 117.6875 C15.97914235 113.69234962 15.39593987 112.97096544 13 110 C11.36744442 102.59681393 11.41424188 94.85096545 11.09960938 87.30126953 C11.01401647 85.32382175 10.90749148 83.34729968 10.796875 81.37109375 C10.57755962 75.23809582 10.69109113 69.73651051 15 65 C21.82670839 60.39513768 28.34996283 58.86010536 36.5 58.8125 C38.15515625 58.79123047 38.15515625 58.79123047 39.84375 58.76953125 C42.99655676 58.99974858 45.12527102 59.76080618 48 61 C50.24240782 60.71260075 50.24240782 60.71260075 52 60 C51.27886877 56.79159062 51.27886877 56.79159062 48.375 55.3125 C39.35312095 51.79675744 27.7201255 53.18084729 19 57 C12.7417144 60.42434495 8.1611117 65.09025723 6 72 C5.831599 74.58595436 5.76341221 77.04429916 5.8125 79.625 C5.82651855 80.72303955 5.82651855 80.72303955 5.84082031 81.84326172 C5.88010944 84.22932084 5.93979071 86.61438457 6 89 C6.01401855 89.83660156 6.02803711 90.67320312 6.04248047 91.53515625 C6.08933487 94.06626014 6.16529917 96.59490425 6.25 99.125 C6.27090698 100.29603271 6.27090698 100.29603271 6.29223633 101.49072266 C6.53418271 107.06569567 7.97704374 110.31796033 11 115 C11.75 117.4375 11.75 117.4375 12 119 C10.2984375 119.2165625 10.2984375 119.2165625 8.5625 119.4375 C5.19222799 119.61171478 5.19222799 119.61171478 4 121 C-3.82641509 121.38490566 -3.82641509 121.38490566 -8 119 C-9.32 119 -10.64 119 -12 119 C-10.46395304 115.85808576 -8.94268841 112.91403262 -7 110 C-6.68433283 107.5312445 -6.48347021 105.16661514 -6.375 102.6875 C-6.33922852 101.95490967 -6.30345703 101.22231934 -6.26660156 100.4675293 C-6.1580185 97.97865036 -6.0747314 95.49012395 -6 93 C-5.97131836 92.05801758 -5.94263672 91.11603516 -5.91308594 90.14550781 C-5.83608888 87.20110134 -5.78788135 84.25765224 -5.75 81.3125 C-5.72856934 80.38074951 -5.70713867 79.44899902 -5.68505859 78.48901367 C-5.65251348 71.85282311 -6.82059765 67.70774232 -11.0625 62.4375 C-22.48623633 52.95822943 -38.92733893 50.25323789 -52 58 Z M-50 74 C-49.67 74.99 -49.34 75.98 -49 77 C-45.39007621 76.34414811 -45.39007621 76.34414811 -42 75 C-35.43804138 74.18476685 -31.42484731 75.30648694 -26 79 C-26 79.66 -26 80.32 -26 81 C-32.59339016 83.0263374 -37.40660984 83.0263374 -44 81 C-44.33 82.32 -44.66 83.64 -45 85 C-38.47425668 88.02117746 -34.02980358 88.14678688 -27 87 C-25.081875 86.7525 -25.081875 86.7525 -23.125 86.5 C-20.6934156 86.1109465 -18.36807247 85.66306029 -16 85 C-16.8427839 79.58719071 -20.82617462 77.13400477 -25 74 C-33.7736847 68.09926696 -41.08688797 68.81418936 -50 74 Z M16 82 C16.33 83.32 16.66 84.64 17 86 C18.216875 85.95875 19.43375 85.9175 20.6875 85.875 C24.29123366 85.86235532 26.66252767 86.63078058 30 88 C35.80597462 88.54773345 39.73922445 87.21506339 45 85 C44.67 83.68 44.34 82.36 44 81 C43.43152344 81.15597656 42.86304688 81.31195313 42.27734375 81.47265625 C37.1828385 82.75691383 33.21807556 83.25233813 28 82 C27.01 81.34 26.02 80.68 25 80 C29.94052581 76.23066151 33.65732455 74.43736424 39.921875 74.62890625 C42.23147996 75.04133571 43.91829754 75.94613813 46 77 C48.19747131 76.70194993 48.19747131 76.70194993 50 76 C49.27845688 72.72689105 49.27845688 72.72689105 46.0625 71.3125 C33.12204808 66.35376125 25.11313026 73.58974415 16 82 Z M-20 143 C-20.99 144.485 -20.99 144.485 -22 146 C-18.31284116 148.43712206 -15.8539534 147.89547567 -11.625 147.0625 C-6.99730423 146.15755247 -3.61936625 146.13069619 1 147 C3.16003989 146.88488772 3.16003989 146.88488772 5.125 146.5 C8.65288234 146.04478938 9.78951565 146.16380921 13 147 C14.58211573 147.06548492 16.16670081 147.08578381 17.75 147.0625 C18.94882812 147.04896484 18.94882812 147.04896484 20.171875 147.03515625 C21.07679688 147.01775391 21.07679688 147.01775391 22 147 C21.505 145.02 21.505 145.02 21 143 C8.9789107 139.97446741 -8.1551783 138.52528958 -20 143 Z M-13 150 C-13 151.32 -13 152.64 -13 154 C-5.16480989 157.54801062 2.46707896 158.55537773 10.6875 155.5 C11.780625 155.005 12.87375 154.51 14 154 C14 152.68 14 151.36 14 150 C13.18208984 150.2165625 13.18208984 150.2165625 12.34765625 150.4375 C3.39443637 152.64136951 -4.10605596 152.35489771 -13 150 Z " fill="#7E57C6" transform="translate(336,237)"/>
<path d="M0 0 C1.25453398 0.93535658 2.5082852 1.87176305 3.76171875 2.80859375 C4.80912231 3.59061157 4.80912231 3.59061157 5.87768555 4.38842773 C7.88523005 5.91284983 9.85086008 7.4797362 11.8125 9.0625 C22.17517621 16.8040287 34.19012031 20.07762896 47 19 C60.10616606 17.06486139 70.73307104 10.84175879 80.171875 1.72265625 C82 0 82 0 83 0 C83.0093457 1.27528564 83.01869141 2.55057129 83.02832031 3.86450195 C83.06849574 8.64153692 83.13432887 13.41794638 83.20751953 18.19458008 C83.2355704 20.25341699 83.2568631 22.31235841 83.27099609 24.37133789 C83.12509124 44.27740582 83.12509124 44.27740582 92.76953125 61.09375 C109.07710594 75.03087162 131.18123307 79.73334135 152 82 C152 85 152 85 150.48046875 86.65625 C123.31869687 108.49672075 86.04437576 122.9775162 51.046875 123.203125 C50.31314163 123.21018463 49.57940826 123.21724426 48.82344055 123.22451782 C5.85450677 123.54390931 -35.89522772 113.65937633 -70 86 C-70.66 85.01 -71.32 84.02 -72 83 C-70.99324219 82.84144531 -69.98648438 82.68289063 -68.94921875 82.51953125 C-34.4147475 76.96526301 -34.4147475 76.96526301 -7 57 C-1.85846523 48.59993411 -0.87026224 41.11641614 -0.68359375 31.4453125 C-0.6524221 30.09299026 -0.6524221 30.09299026 -0.62062073 28.71334839 C-0.5555542 25.8506386 -0.49644086 22.98784181 -0.4375 20.125 C-0.39427393 18.17707456 -0.35065836 16.22915771 -0.30664062 14.28125 C-0.19991711 9.52092111 -0.09853036 4.76050524 0 0 Z " fill="#7E57C6" transform="translate(296,404)"/>
<path d="M0 0 C4.75564689 1.27371969 8.58641306 0.01733915 13.02734375 -1.78515625 C20.21635841 -4.24615115 28.90756725 -4.63041174 35.9375 -1.41015625 C45.40117774 4.30944223 51.41262774 13.09592447 57.72485352 21.94506836 C58.33772217 22.79593018 58.95059082 23.64679199 59.58203125 24.5234375 C60.39776611 25.67863892 60.39776611 25.67863892 61.22998047 26.85717773 C62.98989513 28.87786807 64.44287817 29.77004152 66.90234375 30.77734375 C65.55707734 26.94537277 63.83862652 24.16834073 61.27734375 21.02734375 C57.90234375 16.86713967 57.90234375 16.86713967 57.90234375 15.77734375 C115.14693079 16.98311209 115.14693079 16.98311209 125.65234375 25.40234375 C128.33709865 28.2362517 128.84160382 29.01809466 129.15234375 32.90234375 C128.72279016 39.56042443 126.60293047 44.93850448 121.90234375 49.77734375 C117.55751616 52.77734375 117.55751616 52.77734375 114.90234375 52.77734375 C114.804375 52.05289063 114.70640625 51.3284375 114.60546875 50.58203125 C113.67475348 44.56447564 112.62771803 40.58427831 108.90234375 35.77734375 C107.80575439 32.48757567 108.10281237 31.06430608 108.90234375 27.77734375 C107.91234375 27.77734375 106.92234375 27.77734375 105.90234375 27.77734375 C105.69609375 28.60234375 105.48984375 29.42734375 105.27734375 30.27734375 C101.64679908 39.51873017 96.09050693 43.20617032 87.33984375 47.33203125 C85.63828125 48.04746094 85.63828125 48.04746094 83.90234375 48.77734375 C82.35546875 49.46183594 82.35546875 49.46183594 80.77734375 50.16015625 C77.90234375 50.77734375 77.90234375 50.77734375 75.40234375 49.65234375 C74.57734375 49.03359375 73.75234375 48.41484375 72.90234375 47.77734375 C68.6329196 44.79515389 64.56060047 42.688639 59.71484375 40.77734375 C53.52665792 38.24766778 47.02851394 35.02968413 43.90234375 28.77734375 C43.86211984 26.44435715 43.85914128 24.11027709 43.90234375 21.77734375 C42.91234375 22.10734375 41.92234375 22.43734375 40.90234375 22.77734375 C40.34756586 28.21416703 41.16128648 30.90144721 44.32641602 35.1027832 C46.96521888 37.9067412 50.04519185 39.30109341 53.52734375 40.83984375 C54.95762528 41.51567135 56.38731122 42.1927608 57.81640625 42.87109375 C58.51282227 43.19464844 59.20923828 43.51820313 59.92675781 43.8515625 C71.7848931 49.40841483 81.35530486 55.50164823 86.90234375 67.77734375 C92.06265861 82.07237745 92.8972044 95.65017909 86.90234375 109.77734375 C83.28383453 117.12503205 79.05775039 124.40890025 73.90234375 130.77734375 C73.24234375 130.77734375 72.58234375 130.77734375 71.90234375 130.77734375 C70.93058472 126.05842299 70.85000437 121.62295158 71.15234375 116.83984375 C71.19609131 116.09694092 71.23983887 115.35403809 71.28491211 114.58862305 C71.63156828 109.62727152 72.39320126 104.94524762 73.46484375 100.08984375 C75.77278977 89.32704596 76.7915397 78.52777562 70.90234375 68.77734375 C60.58832673 53.78632618 42.35416945 44.57299838 26.90234375 35.77734375 C9.60770466 25.89342649 9.60770466 25.89342649 6.90234375 17.77734375 C5.91234375 17.77734375 4.92234375 17.77734375 3.90234375 17.77734375 C3.55171875 18.64359375 3.20109375 19.50984375 2.83984375 20.40234375 C-1.59530972 28.12809496 -9.34792823 31.79754781 -16.97265625 35.90234375 C-44.43765378 50.69911246 -44.43765378 50.69911246 -63.234375 74.51953125 C-64.23464264 78.2942969 -64.4385973 81.83841807 -64.41015625 85.71484375 C-64.40822266 86.83572388 -64.40822266 86.83572388 -64.40625 87.97924805 C-64.32364527 92.85550874 -63.69859002 97.32086999 -62.59765625 102.08984375 C-60.48431365 111.27742706 -60.84058874 120.39914012 -61.09765625 129.77734375 C-62.08765625 129.77734375 -63.07765625 129.77734375 -64.09765625 129.77734375 C-65.7177259 127.69916452 -67.09868465 125.69851996 -68.47265625 123.46484375 C-68.8704126 122.83054443 -69.26816895 122.19624512 -69.67797852 121.54272461 C-78.42002777 107.3375632 -82.24102441 93.48353826 -79.4453125 76.91015625 C-76.50037624 65.35791702 -70.6416437 56.8585297 -61.09765625 49.77734375 C-56.83232545 47.40124444 -52.35536196 45.53388853 -47.875 43.60546875 C-40.73672622 40.40519463 -33.14060278 36.42603404 -30.09765625 28.77734375 C-29.93040888 25.61038419 -29.93040888 25.61038419 -30.09765625 22.77734375 C-31.58265625 23.27234375 -31.58265625 23.27234375 -33.09765625 23.77734375 C-33.18015625 24.66421875 -33.26265625 25.55109375 -33.34765625 26.46484375 C-34.30649648 30.69972144 -35.98496034 33.43654585 -39.73144531 35.81420898 C-41.66333775 36.81999598 -43.61750938 37.74535095 -45.59765625 38.65234375 C-47.03774698 39.34629044 -48.47654033 40.04293553 -49.9140625 40.7421875 C-50.62320801 41.08491699 -51.33235352 41.42764648 -52.06298828 41.78076172 C-68.66198317 49.91096296 -77.02764169 59.52572342 -83.09765625 76.77734375 C-83.75765625 76.77734375 -84.41765625 76.77734375 -85.09765625 76.77734375 C-92.09326939 67.32946404 -94.19806792 58.1960579 -92.59765625 46.71484375 C-92.43265625 45.74546875 -92.26765625 44.77609375 -92.09765625 43.77734375 C-98.7245433 43.22510316 -103.58081369 43.91915974 -109.09765625 47.77734375 C-113.63125823 51.92510726 -114.69350924 55.10401697 -115.0546875 61.01953125 C-115.07595703 61.88964844 -115.07595703 61.88964844 -115.09765625 62.77734375 C-120.30435913 62.461786 -123.67496381 59.47605978 -127.09765625 55.77734375 C-128.90971309 50.34117322 -128.80763985 44.79519189 -126.91015625 39.40234375 C-123.79736133 34.89415801 -120.25915957 32.46028958 -115.09765625 30.77734375 C-113.05672534 30.57669612 -111.01464847 30.38084016 -108.96826172 30.24682617 C-96.98041855 29.43149053 -88.76855145 25.50635691 -78.72265625 18.96484375 C-68.27662617 12.25111617 -55.64262603 14.52073535 -44.09765625 16.77734375 C-44.59265625 15.29234375 -44.59265625 15.29234375 -45.09765625 13.77734375 C-48.60956434 12.54764497 -48.60956434 12.54764497 -52.09765625 11.77734375 C-46.41917463 3.96439741 -37.39759105 -0.6378691 -28.0703125 -2.78515625 C-18.08949673 -4.25408052 -9.42880183 -3.60405939 0 0 Z " fill="#7E57C6" transform="translate(332.09765625,212.22265625)"/>
<path d="M0 0 C0 16.5 0 33 0 50 C4.95 47.03 4.95 47.03 10 44 C15.5496271 41.50833069 21.29866316 40.95195122 27.1796875 42.6171875 C32.69674238 44.96974298 35.54308376 48.6011111 38 54 C39.17561764 57.66841666 39.18925405 61.2404832 39.28125 65.07421875 C39.30886414 66.09912163 39.30886414 66.09912163 39.33703613 67.14472961 C39.39556338 69.32556866 39.44839836 71.50648683 39.5 73.6875 C39.78468124 86.37412243 39.78468124 86.37412243 41 99 C43.64 99.99 46.28 100.98 49 102 C49 103.98 49 105.96 49 108 C38.77 108 28.54 108 18 108 C18 106.02 18 104.04 18 102 C19.7015625 101.5359375 19.7015625 101.5359375 21.4375 101.0625 C24.78775099 100.37075469 24.78775099 100.37075469 26 99 C26.11343718 96.56081456 26.16417936 94.15106275 26.16796875 91.7109375 C26.17129715 90.97428864 26.17462555 90.23763977 26.17805481 89.47866821 C26.18313008 87.91335679 26.18546295 86.34803449 26.18530273 84.78271484 C26.18747195 82.40573766 26.20557247 80.02923764 26.22460938 77.65234375 C26.22754677 76.13020991 26.22952925 74.60807388 26.23046875 73.0859375 C26.24124702 72.02927383 26.24124702 72.02927383 26.25224304 70.95126343 C26.22640998 65.26722779 25.75516709 60.0211015 21.9375 55.625 C17.49235443 53.1659833 12.91706709 52.17836863 7.93359375 53.58203125 C6.24735274 54.29665948 4.61778379 55.14158411 3 56 C2.01 56.495 2.01 56.495 1 57 C0.92598421 62.94479629 0.87146187 68.88932593 0.83520508 74.83447266 C0.82009474 76.85795766 0.79960563 78.8814098 0.77368164 80.90478516 C0.73739672 83.80900165 0.72029645 86.71278615 0.70703125 89.6171875 C0.69154739 90.52556366 0.67606354 91.43393982 0.66011047 92.36984253 C0.65988388 93.21056305 0.65965729 94.05128357 0.65942383 94.91748047 C0.64943108 96.03000687 0.64943108 96.03000687 0.63923645 97.16500854 C0.75828842 97.77055573 0.87734039 98.37610291 1 99 C3.91765 100.9451 5.62537285 101.45276317 9 102 C9 103.98 9 105.96 9 108 C-1.23 108 -11.46 108 -22 108 C-22 106.02 -22 104.04 -22 102 C-20.865625 101.71125 -19.73125 101.4225 -18.5625 101.125 C-17.386875 100.75375 -16.21125 100.3825 -15 100 C-13.47490511 96.94981022 -13.87024056 93.77450387 -13.88647461 90.42919922 C-13.88632858 89.64862152 -13.88618256 88.86804382 -13.8860321 88.06381226 C-13.88673014 85.47740931 -13.89451743 82.89107791 -13.90234375 80.3046875 C-13.90420832 78.51392659 -13.90563204 76.72316517 -13.90663147 74.93240356 C-13.91045359 70.21415809 -13.92028129 65.4959433 -13.93133545 60.77770996 C-13.94155611 55.96509211 -13.9461305 51.15246932 -13.95117188 46.33984375 C-13.96190381 36.89321567 -13.9789766 27.44661038 -14 18 C-18.39656173 17.97534496 -22.7930872 17.95716158 -27.18969727 17.94506836 C-28.68644918 17.94002879 -30.18319616 17.93319713 -31.67993164 17.92456055 C-33.82699807 17.91247841 -35.97399962 17.90676809 -38.12109375 17.90234375 C-39.4145874 17.89710693 -40.70808105 17.89187012 -42.04077148 17.88647461 C-44.88652404 17.66003068 -44.88652404 17.66003068 -46 19 C-46.09008069 21.92266131 -46.11217626 24.8195183 -46.08984375 27.7421875 C-46.08605209 28.6684494 -46.08226044 29.5947113 -46.07835388 30.54904175 C-46.01476828 42.14869399 -45.83135688 53.74730573 -45.62768555 65.34521484 C-45.56151865 69.18190337 -45.50242078 73.01866502 -45.44335938 76.85546875 C-45.4014718 79.30209074 -45.35917011 81.74870567 -45.31640625 84.1953125 C-45.29969376 85.33888214 -45.28298126 86.48245178 -45.26576233 87.66067505 C-45.2358445 89.24040604 -45.2358445 89.24040604 -45.20532227 90.85205078 C-45.18200584 92.23929855 -45.18200584 92.23929855 -45.15821838 93.65457153 C-45.0884229 96.15416353 -45.0884229 96.15416353 -44 99 C-40.97717357 100.03547047 -40.97717357 100.03547047 -37.4375 100.6875 C-36.23996094 100.93886719 -35.04242187 101.19023437 -33.80859375 101.44921875 C-32.88175781 101.63097656 -31.95492187 101.81273437 -31 102 C-31.33 103.98 -31.66 105.96 -32 108 C-46.52 108 -61.04 108 -76 108 C-76 106.02 -76 104.04 -76 102 C-75.15695312 101.81824219 -74.31390625 101.63648438 -73.4453125 101.44921875 C-72.34960938 101.19785156 -71.25390625 100.94648438 -70.125 100.6875 C-69.03445313 100.44386719 -67.94390625 100.20023437 -66.8203125 99.94921875 C-63.70557647 99.22097942 -63.70557647 99.22097942 -62 96 C-61.62836628 93.03568567 -61.62836628 93.03568567 -61.5859375 89.59765625 C-61.56652603 88.94375916 -61.54711456 88.28986206 -61.52711487 87.6161499 C-61.46601601 85.43173458 -61.42001737 83.24730195 -61.375 81.0625 C-61.33684696 79.53018764 -61.29851309 77.99787977 -61.26000977 76.46557617 C-60.79965168 56.64820234 -60.90970854 36.82105831 -61 17 C-64.58451309 17.05189759 -68.16662051 17.14697784 -71.75 17.25 C-73.27367187 17.27126953 -73.27367187 17.27126953 -74.828125 17.29296875 C-80.47156128 17.3908951 -80.47156128 17.3908951 -85.5 19.625 C-87.36466004 22.57737839 -88.84321277 25.55275629 -90.25 28.75 C-91.03117188 30.50570312 -91.03117188 30.50570312 -91.828125 32.296875 C-92.21484375 33.18890625 -92.6015625 34.0809375 -93 35 C-94.98 34.67 -96.96 34.34 -99 34 C-98.01 25.42 -97.02 16.84 -96 8 C-93 7 -93 7 -89.83203125 7.92529297 C-82.96217357 9.78181623 -75.747914 9.24450197 -68.6875 9.1953125 C-67.10709818 9.19157696 -65.52669403 9.18873255 -63.94628906 9.18673706 C-59.81005326 9.17914315 -55.6739605 9.15953168 -51.53778076 9.1373291 C-47.30775893 9.11677872 -43.07771373 9.10771578 -38.84765625 9.09765625 C-30.56503892 9.0762813 -22.28253731 9.04219731 -14 9 C-13.67 6.69 -13.34 4.38 -13 2 C-11.39935157 1.46845258 -9.79431126 0.95011647 -8.1875 0.4375 C-7.29417969 0.14746094 -6.40085937 -0.14257812 -5.48046875 -0.44140625 C-3 -1 -3 -1 0 0 Z " fill="#7E57C6" transform="translate(752,208)"/>
<path d="M0 0 C3 1 3 1 4.6875 3.5625 C6.80337104 9.10406701 6.44020206 14.23919177 5 20 C9.44076448 19.48363204 12.23231273 18.34207587 16 16 C16.99 16 17.98 16 19 16 C19.6490968 19.18684428 20.29367948 22.37458595 20.9375 25.5625 C21.11990234 26.45775391 21.30230469 27.35300781 21.49023438 28.27539062 C24.67118166 44.06445622 24.67118166 44.06445622 24 51 C23.175 51.70125 22.35 52.4025 21.5 53.125 C17.94279823 57.21578204 18.26317515 60.2659894 18.42578125 65.5703125 C19.07820481 72.08238171 21.00148695 78.3983123 22.86450195 84.65185547 C24.65840617 90.82595121 25.69320738 96.55117174 25 103 C22.88074396 105.11925604 18.3803907 104.41831017 15.4375 104.5625 C14.63119141 104.60568359 13.82488281 104.64886719 12.99414062 104.69335938 C10.99631195 104.79975262 8.9981793 104.90040888 7 105 C7 105.66 7 106.32 7 107 C9.97 107.495 9.97 107.495 13 108 C12.94011859 110.12579013 12.85137256 112.25078413 12.75 114.375 C12.70359375 115.55835938 12.6571875 116.74171875 12.609375 117.9609375 C12 121 12 121 10.23828125 122.41015625 C7.84405722 123.04109487 5.90793424 123.16700229 3.4375 123.0625 C0.47171272 122.94746946 -1.118137 123.039379 -4 124 C-3.67 124.99 -3.34 125.98 -3 127 C-2.01 126.505 -2.01 126.505 -1 126 C6.22716981 125.54113208 6.22716981 125.54113208 9 127.1875 C10.43010386 129.77956325 10.63932754 131.08750789 10 134 C7.0625 136.1875 7.0625 136.1875 4 138 C2.48483779 141.03032442 2.82971947 143.65114962 3 147 C3.63903117 148.67745682 4.30341637 150.34561387 5 152 C5.125 154.8125 5.125 154.8125 5 157 C-0.64505048 160.69684283 -5.43340766 160.18065714 -11.875 159.6875 C-12.84953125 159.62626953 -13.8240625 159.56503906 -14.828125 159.50195312 C-17.22014928 159.34952021 -19.61005918 159.18180871 -22 159 C-21.84619873 158.27393555 -21.69239746 157.54787109 -21.53393555 156.79980469 C-17.90320687 139.03629445 -19.46047089 123.30756952 -27.66235352 107.21191406 C-30.78299349 100.95225284 -30.78299349 100.95225284 -30 97 C-28.55427593 94.58561172 -27.08967437 92.38714874 -25.4375 90.125 C-18.49405292 80.16035838 -13.57619435 70.07978125 -10.6640625 58.23828125 C-9.34841802 53.80378543 -6.73126682 51.59830921 -3.25 48.75 C2.02821851 45.90788234 7.13786187 45.35127365 13 47 C12.67 46.01 12.34 45.02 12 44 C4.98982658 42.53012493 1.38324282 43.2393636 -4.8359375 46.7734375 C-7 48 -7 48 -10 49 C-10.21914063 47.91203125 -10.43828125 46.8240625 -10.6640625 45.703125 C-12.86235832 35.32603228 -15.22153391 24.70922159 -23 17 C-23 16.34 -23 15.68 -23 15 C-21.84242188 14.50371094 -20.68484375 14.00742187 -19.4921875 13.49609375 C-17.95270586 12.81083668 -16.41366648 12.12458545 -14.875 11.4375 C-14.11445313 11.11458984 -13.35390625 10.79167969 -12.5703125 10.45898438 C-7.00596749 7.94063857 -3.5882301 4.93228408 0 0 Z M5.0625 55.8125 C1.83483217 58.55127842 -1.31408567 60.90977667 -5 63 C-4.84817368 65.65696068 -4.52675976 67.44234524 -2.66796875 69.41015625 C1.88137015 73.20680648 4.15099652 74.12715225 10 74 C9.80928437 72.03065292 9.80928437 72.03065292 9 70 C7.178624 68.97687797 7.178624 68.97687797 5 68.4375 C2.8125 67.80859375 2.8125 67.80859375 1 67 C0.67 66.01 0.34 65.02 0 64 C1.08861328 63.61134766 1.08861328 63.61134766 2.19921875 63.21484375 C5.10315949 61.95525439 7.31038983 60.49198794 9.8125 58.5625 C10.60269531 57.96566406 11.39289063 57.36882812 12.20703125 56.75390625 C13.09455078 55.88572266 13.09455078 55.88572266 14 55 C14 54.01 14 53.02 14 52 C9.26679236 52 8.55045716 52.82973232 5.0625 55.8125 Z " fill="#7E57C6" transform="translate(437,250)"/>
<path d="M0 0 C4.35244121 -0.32092353 8.70184487 -0.51522168 13.0625 -0.6875 C14.29162109 -0.77966797 15.52074219 -0.87183594 16.78710938 -0.96679688 C20.47712302 -1.07620429 23.44478573 -1.01316436 27 0 C30.22627813 3.24320842 31.98603096 6.93159577 34 11 C35.4053471 13.03603571 35.4053471 13.03603571 36.88671875 14.79296875 C37.34369141 15.35177734 37.80066406 15.91058594 38.27148438 16.48632812 C38.97241211 17.3284082 38.97241211 17.3284082 39.6875 18.1875 C43.9184558 23.37055458 48.01534672 28.62529062 52 34 C56.34854163 39.85369723 60.82283159 45.58262518 65.40551758 51.25439453 C70.00831314 56.96721822 74.46388954 62.7879099 78.90014648 68.63061523 C79.42165283 69.31712158 79.94315918 70.00362793 80.48046875 70.7109375 C80.94348389 71.32243652 81.40649902 71.93393555 81.88354492 72.56396484 C82.93030173 73.97171283 82.93030173 73.97171283 84 75 C84.19876666 48.12114716 84.19876666 48.12114716 83.6875 21.25 C83.66502197 20.34306396 83.64254395 19.43612793 83.61938477 18.50170898 C83.47346156 15.13223954 83.28259905 12.60338717 81.84375 9.53125 C79.31094946 7.42773769 77.01568139 6.93885621 73.8125 6.25 C72.72582031 6.00765625 71.63914062 5.7653125 70.51953125 5.515625 C69.68808594 5.34546875 68.85664062 5.1753125 68 5 C68 3.35 68 1.7 68 0 C80.21 0 92.42 0 105 0 C105 1.65 105 3.3 105 5 C104.37351562 5.24234375 103.74703125 5.4846875 103.1015625 5.734375 C102.28429687 6.06953125 101.46703125 6.4046875 100.625 6.75 C99.81289063 7.07484375 99.00078125 7.3996875 98.1640625 7.734375 C95.54337919 9.267049 95.09777286 10.20232331 94 13 C93.64941703 15.59895311 93.64941703 15.59895311 93.62109375 18.4921875 C93.58749756 19.6471875 93.55390137 20.8021875 93.51928711 21.9921875 C93.49229736 23.27351563 93.46530762 24.55484375 93.4375 25.875 C93.4023755 27.23439067 93.36662807 28.59376536 93.33032227 29.953125 C93.20200861 34.96839176 93.10019686 39.98410344 93 45 C92.96712891 46.62983826 92.96712891 46.62983826 92.93359375 48.29260254 C92.5945536 65.19457795 92.28776014 82.09707918 92 99 C90.24363545 99.09454787 88.4857989 99.16201258 86.7277832 99.21801758 C85.74912796 99.25848709 84.77047272 99.2989566 83.76216125 99.34065247 C80.42415023 98.92898147 79.47582878 98.0535641 77.35546875 95.51171875 C76.26279985 93.92834034 75.20855843 92.31797606 74.1875 90.6875 C72.99178458 88.92777411 71.79514448 87.16867623 70.59765625 85.41015625 C70.00098145 84.50668457 69.40430664 83.60321289 68.78955078 82.67236328 C66.03398589 78.5574365 63.08225922 74.59614068 60.125 70.625 C59.55362305 69.84938721 58.98224609 69.07377441 58.39355469 68.2746582 C52.14509405 59.79547281 45.75084935 51.42763644 39.34716797 43.06542969 C36.23090325 38.99555037 33.11746425 34.92351269 30.00390625 30.8515625 C28.85750576 29.35237439 27.71110296 27.85318804 26.56469727 26.35400391 C25.70979654 25.23600386 24.85489679 24.11800306 24 23 C23.9745215 30.5073168 23.95707935 38.01462233 23.94506836 45.52197266 C23.94005795 48.07275815 23.9332478 50.62354079 23.92456055 53.17431641 C23.91235028 56.85319728 23.90673862 60.53203997 23.90234375 64.2109375 C23.89718246 65.34050873 23.89202118 66.47007996 23.88670349 67.63388062 C23.11548541 78.72352638 23.11548541 78.72352638 26.37388611 88.7149353 C28.65086323 90.51435595 30.88468441 90.99503968 33.6875 91.6875 C34.68136719 91.93886719 35.67523437 92.19023437 36.69921875 92.44921875 C37.45847656 92.63097656 38.21773437 92.81273437 39 93 C39 94.65 39 96.3 39 98 C26.46 98 13.92 98 1 98 C1 96.35 1 94.7 1 93 C1.69867187 92.81824219 2.39734375 92.63648438 3.1171875 92.44921875 C4.02726563 92.19785156 4.93734375 91.94648438 5.875 91.6875 C6.77992188 91.44386719 7.68484375 91.20023437 8.6171875 90.94921875 C11.32113319 90.13330148 11.32113319 90.13330148 13 87 C14.05683929 82.3215997 14.20740412 77.64425575 14.31640625 72.8671875 C14.33736862 72.08504883 14.35833099 71.30291016 14.37992859 70.49707031 C14.44606631 67.95647915 14.50512183 65.41580329 14.5625 62.875 C14.59277283 61.57758881 14.59277283 61.57758881 14.62365723 60.25396729 C14.74505204 54.99226865 14.8539637 49.73042361 14.95318604 44.46826172 C14.98333381 42.878723 15.01446566 41.28920249 15.04681396 39.69970703 C15.14052472 35.0915548 15.20499682 30.48394682 15.25 25.875 C15.2713501 24.73401855 15.2927002 23.59303711 15.31469727 22.41748047 C15.31912842 21.36963379 15.32355957 20.32178711 15.328125 19.2421875 C15.3374707 18.3435498 15.34681641 17.44491211 15.35644531 16.51904297 C14.91653822 13.41016532 13.82454194 11.53371811 12 9 C9.87350833 7.81191973 9.87350833 7.81191973 7.5 7.25 C6.7265625 7.02828125 5.953125 6.8065625 5.15625 6.578125 C4.4446875 6.38734375 3.733125 6.1965625 3 6 C2.01 5.67 1.02 5.34 0 5 C0 3.35 0 1.7 0 0 Z " fill="#7E57C6" transform="translate(822,385)"/>
<path d="M0 0 C5.13960844 1.31737256 8.83710351 0.8558521 13.74609375 -1.23046875 C14.24109375 -1.53984375 14.73609375 -1.84921875 15.24609375 -2.16796875 C15.74109375 -1.67296875 15.74109375 -1.67296875 16.24609375 -1.16796875 C16.08328601 3.06503247 15.61122367 5.34171393 13.05859375 8.76953125 C9.79235231 11.16477497 8.20289203 11.29212407 4.24609375 10.83203125 C4.49359375 11.85296875 4.49359375 11.85296875 4.74609375 12.89453125 C6.08450919 20.75772195 5.15916352 28.33912205 0.76953125 35.109375 C-6.10219496 43.5342996 -14.4413524 45.5632694 -24.75390625 47.83203125 C-24.75390625 49.15203125 -24.75390625 50.47203125 -24.75390625 51.83203125 C-18.8769922 54.12383754 -13.14157035 54.48583832 -6.91796875 54.95507812 C-0.17266343 55.55502115 6.56817946 56.4744748 11.18359375 61.89453125 C15.2143145 67.63525474 14.91544979 72.94389059 14.24609375 79.83203125 C11.76081468 88.15887749 6.10271991 94.75355692 -1.17578125 99.3671875 C-11.35443222 104.78842552 -21.89406853 106.48709663 -33.15234375 103.11328125 C-39.09292813 100.47302153 -42.91675181 96.00529801 -46.12890625 90.45703125 C-47.29644043 85.5533877 -48.15782649 81.15389933 -45.43359375 76.6484375 C-41.73425236 72.26065366 -37.54159928 68.95868792 -32.75390625 65.83203125 C-33.24761719 65.42210937 -33.74132813 65.0121875 -34.25 64.58984375 C-34.89066406 64.05101562 -35.53132813 63.5121875 -36.19140625 62.95703125 C-36.82949219 62.42335938 -37.46757813 61.8896875 -38.125 61.33984375 C-40.3016878 59.32497207 -40.71856181 57.98754679 -41.37890625 55.08203125 C-40.75390625 51.83203125 -40.75390625 51.83203125 -38.74609375 50.10546875 C-36.45661031 48.59110823 -34.1490591 47.1721763 -31.75390625 45.83203125 C-32.80578125 45.21328125 -33.85765625 44.59453125 -34.94140625 43.95703125 C-39.70459946 40.46208664 -42.13172534 36.49530886 -43.75390625 30.83203125 C-44.60786915 23.30367407 -45.2228479 15.00948777 -40.99609375 8.36328125 C-30.11171005 -5.05394646 -15.05549193 -4.66670779 0 0 Z M-27.56640625 6.01953125 C-32.18751506 11.96095686 -32.38895188 17.53924917 -31.75390625 24.83203125 C-30.69674139 30.44461558 -28.24520795 34.26487983 -23.71875 37.7578125 C-20.08629858 39.74374519 -17.84208047 39.55735248 -13.75390625 38.83203125 C-9.68710335 36.00295097 -7.93847036 33.02083933 -6.96875 28.14453125 C-6.33512699 21.32444355 -6.92703655 14.64320376 -10.75390625 8.83203125 C-13.99847724 5.08049604 -16.15133403 4.01009483 -21.12890625 3.45703125 C-24.86515009 3.52023513 -24.86515009 3.52023513 -27.56640625 6.01953125 Z M-33.19140625 73.58203125 C-35.11292248 77.57878502 -35.5889545 80.4828216 -34.75390625 84.83203125 C-32.14325261 90.48844747 -28.36485784 92.69504773 -22.75390625 94.83203125 C-15.82684696 96.82438545 -9.16033836 96.08323556 -2.75390625 92.83203125 C0.2650325 90.14932501 2.99203523 86.95196214 3.484375 82.84375 C3.6095665 78.92327937 3.58760486 76.46041169 1.68359375 72.95703125 C-3.17077051 68.72502139 -8.44496439 67.37590555 -14.75390625 66.83203125 C-15.84058594 66.73535156 -15.84058594 66.73535156 -16.94921875 66.63671875 C-24.13558639 66.27131023 -28.31217843 68.0772614 -33.19140625 73.58203125 Z " fill="#7E57C6" transform="translate(1474.75390625,253.16796875)"/>
<path d="M0 0 C0.36907471 0.59401611 0.73814941 1.18803223 1.1184082 1.80004883 C0.78859479 3.13425721 0.45436863 4.46737502 0.1184082 5.80004883 C0.03118001 7.93890486 0.0007343 10.0803173 0.00488281 12.22094727 C0.00499611 14.1725174 0.00499611 14.1725174 0.00511169 16.16351318 C0.01021797 17.57881712 0.01543396 18.99412067 0.02075195 20.40942383 C0.02261785 21.86102245 0.02404094 23.31262171 0.02503967 24.76422119 C0.02885133 28.57824452 0.03867005 32.39222956 0.04974365 36.20623779 C0.05998685 40.10078412 0.06454352 43.99533665 0.06958008 47.88989258 C0.08029355 55.52662875 0.09735372 63.16333342 0.1184082 70.80004883 C1.566577 69.70014622 3.01111055 68.59545627 4.45410156 67.48876953 C5.25891464 66.87411331 6.06372772 66.25945709 6.89292908 65.62617493 C9.73386351 63.29503443 11.59077648 61.00662798 13.6809082 57.98754883 C14.34219727 57.05297852 15.00348633 56.1184082 15.68481445 55.15551758 C17.29170887 52.97487864 17.29170887 52.97487864 17.1184082 50.80004883 C14.4784082 50.14004883 11.8384082 49.48004883 9.1184082 48.80004883 C9.4484082 47.15004883 9.7784082 45.50004883 10.1184082 43.80004883 C24.4734082 42.81004883 24.4734082 42.81004883 39.1184082 41.80004883 C39.1184082 43.78004883 39.1184082 45.76004883 39.1184082 47.80004883 C38.51254883 47.9727832 37.90668945 48.14551758 37.2824707 48.32348633 C26.59783723 51.90694802 20.10327288 60.34468632 13.1184082 68.80004883 C14.57996112 73.12081456 16.88482614 76.44287597 19.6809082 79.98754883 C20.12128418 80.55199707 20.56166016 81.11644531 21.01538086 81.69799805 C29.79831142 93.92611908 29.79831142 93.92611908 42.3684082 100.98754883 C43.6059082 101.25567383 44.8434082 101.52379883 46.1184082 101.80004883 C46.1611292 103.46616788 46.15904652 105.13387768 46.1184082 106.80004883 C43.97237775 108.94607928 39.38872325 108.0778055 36.4309082 108.11254883 C35.2253125 108.15605469 35.2253125 108.15605469 33.99536133 108.20043945 C28.50418599 108.25880845 25.37843238 107.56444692 21.1184082 103.80004883 C18.81316845 101.18116123 16.73896612 98.42803326 14.6809082 95.61254883 C13.54037914 94.08773748 12.39975495 92.56299728 11.2590332 91.03833008 C10.71827148 90.3082373 10.17750977 89.57814453 9.62036133 88.82592773 C7.74709819 86.29921488 5.84827909 83.79343659 3.9309082 81.30004883 C3.42172852 80.62973633 2.91254883 79.95942383 2.38793945 79.26879883 C1.16410441 77.66280027 1.16410441 77.66280027 -0.8815918 76.80004883 C-0.5515918 84.06004883 -0.2215918 91.32004883 0.1184082 98.80004883 C3.0884082 99.79004883 6.0584082 100.78004883 9.1184082 101.80004883 C8.7884082 103.45004883 8.4584082 105.10004883 8.1184082 106.80004883 C-2.1115918 106.80004883 -12.3415918 106.80004883 -22.8815918 106.80004883 C-22.8815918 105.15004883 -22.8815918 103.50004883 -22.8815918 101.80004883 C-20.2415918 100.81004883 -17.6015918 99.82004883 -14.8815918 98.80004883 C-14.8815918 69.43004883 -14.8815918 40.06004883 -14.8815918 9.80004883 C-17.8515918 9.47004883 -20.8215918 9.14004883 -23.8815918 8.80004883 C-23.8815918 7.15004883 -23.8815918 5.50004883 -23.8815918 3.80004883 C-20.28408904 2.87584204 -16.67809874 1.99065817 -13.0690918 1.11254883 C-12.04493164 0.84893555 -11.02077148 0.58532227 -9.96557617 0.3137207 C-8.98266602 0.0784668 -7.99975586 -0.15678711 -6.98706055 -0.39916992 C-5.62810669 -0.73694458 -5.62810669 -0.73694458 -4.24169922 -1.08154297 C-1.8815918 -1.19995117 -1.8815918 -1.19995117 0 0 Z " fill="#7E57C6" transform="translate(1303.881591796875,376.199951171875)"/>
<path d="M0 0 C-0.96355353 16.70842825 -0.96355353 16.70842825 -2 25 C-3.98 25 -5.96 25 -8 25 C-8.15855469 24.19175781 -8.31710937 23.38351563 -8.48046875 22.55078125 C-10.2029746 14.08032633 -10.2029746 14.08032633 -16 8 C-25.42041093 3.37242972 -36.01053975 2.90681688 -46 6 C-53.44304634 8.58007595 -58.37483157 13.38755453 -62.25390625 20.203125 C-68.56991514 33.53433196 -69.3772697 51.18875732 -65.09765625 65.26171875 C-60.49165713 76.75212936 -54.34958241 84.51738974 -42.875 89.4375 C-34.77664918 92.06491438 -25.25798531 92.53682713 -17.125 89.75 C-11.19756109 86.65693416 -7.60467123 80.41843814 -4 75 C-3.01 73.515 -3.01 73.515 -2 72 C-0.35 72.33 1.3 72.66 3 73 C2.49813992 78.27956801 1.24821267 82.05409057 -1.3125 86.6875 C-1.90675781 87.78449219 -2.50101563 88.88148438 -3.11328125 90.01171875 C-6.23988193 94.96378815 -8.69017354 97.3761371 -14.4375 98.75 C-30.98628128 102.11932442 -49.21912259 101.50236237 -64 92.75 C-74.54759226 85.37920482 -80.6804727 75.17134559 -83.4921875 62.6640625 C-85.84925549 45.65691036 -84.51986051 29.155757 -74 15 C-55.59137819 -6.69314769 -25.65018039 -5.85493248 0 0 Z " fill="#7E57C6" transform="translate(1228,218)"/>
<path d="M0 0 C-0.99 8.25 -1.98 16.5 -3 25 C-4.65 25 -6.3 25 -8 25 C-8.4021875 23.5459375 -8.4021875 23.5459375 -8.8125 22.0625 C-8.998125 21.43085938 -9.18375 20.79921875 -9.375 20.1484375 C-9.81406572 18.63914908 -10.22863261 17.12262237 -10.625 15.6015625 C-11.8424957 10.79161894 -11.8424957 10.79161894 -15.3125 7.5625 C-16.199375 7.376875 -17.08625 7.19125 -18 7 C-18.91652344 6.67386719 -19.83304688 6.34773437 -20.77734375 6.01171875 C-30.26282039 3.03385396 -40.51491724 3.14771992 -49.62890625 7.15625 C-59.02327397 12.19644728 -62.80139606 19.53562169 -66.23828125 29.32421875 C-70.27063095 43.4891395 -68.91572581 59.77524473 -62.25 72.875 C-56.8978999 81.90010997 -50.15634416 87.27547066 -40.15234375 90.6171875 C-32.46703492 91.98408453 -21.70441142 92.60831957 -15 88 C-9.99715228 83.41844472 -6.37170577 77.84221829 -3 72 C-1.35 72.33 0.3 72.66 2 73 C1.48961729 78.30798019 0.14288015 82.49366612 -2.3125 87.25 C-2.60833984 87.86101562 -2.90417969 88.47203125 -3.20898438 89.1015625 C-5.56666579 93.76600349 -7.63190912 96.0994584 -12.49609375 97.94921875 C-30.06242347 102.35829752 -48.86349191 101.74979231 -64.66796875 92.45703125 C-74.94196254 86.0379363 -80.58710038 75.98977459 -83.68359375 64.453125 C-86.84178653 49.72941244 -85.8503121 33.78210281 -78.56640625 20.41015625 C-70.48639514 7.97781995 -59.02964248 0.75009878 -44.66015625 -2.53491211 C-30.01883266 -5.09472502 -14.39950584 -2.87990117 0 0 Z " fill="#7E57C6" transform="translate(967,218)"/>
<path d="M0 0 C10.23 0 20.46 0 31 0 C31 1.98 31 3.96 31 6 C29.02 6.66 27.04 7.32 25 8 C26.28132578 16.10060211 28.26071567 23.84019042 30.625 31.6875 C30.94984375 32.78255859 31.2746875 33.87761719 31.609375 35.00585938 C32.40111251 37.67215188 33.19804874 40.33676539 34 43 C37.77613319 35.03306478 40.51492326 26.79983902 43.25 18.4375 C43.71311863 17.03306356 44.17665718 15.62876551 44.640625 14.22460938 C45.76525829 10.81798684 46.88421138 7.40953121 48 4 C50.97 4 53.94 4 57 4 C57.52956299 5.60439941 57.52956299 5.60439941 58.06982422 7.24121094 C59.38251729 11.21553552 60.69920346 15.18852762 62.01708984 19.16113281 C62.58653738 20.87952259 63.15490656 22.59827013 63.72216797 24.31738281 C64.53849461 26.79066668 65.35871161 29.2626311 66.1796875 31.734375 C66.55793167 32.88459137 66.55793167 32.88459137 66.94381714 34.05804443 C68.09012713 37.49769563 69.23614681 40.82360048 71 44 C72.30460089 40.23352023 73.591214 36.46112009 74.875 32.6875 C75.42220703 31.1087207 75.42220703 31.1087207 75.98046875 29.49804688 C78.27478407 22.71938796 79.9436891 16.07939918 81 9 C78.03 8.01 75.06 7.02 72 6 C71.957279 4.33388095 71.95936168 2.66617115 72 1 C73 0 73 0 75.59204102 -0.11352539 C76.71795654 -0.10828857 77.84387207 -0.10305176 79.00390625 -0.09765625 C80.21884766 -0.09443359 81.43378906 -0.09121094 82.68554688 -0.08789062 C83.96494141 -0.07951172 85.24433594 -0.07113281 86.5625 -0.0625 C87.84576172 -0.05798828 89.12902344 -0.05347656 90.45117188 -0.04882812 C93.63416022 -0.03699545 96.81705762 -0.02051068 100 0 C100 1.98 100 3.96 100 6 C98.1746875 6.61875 98.1746875 6.61875 96.3125 7.25 C92.54130093 9.18975514 91.25011786 10.85370803 89.71875 14.78125 C89.30085205 15.8527832 88.8829541 16.92431641 88.45239258 18.02832031 C85.24044803 26.72500791 82.21322427 35.48727226 79.1875 44.25 C78.48797023 46.26704504 77.78810314 48.28397312 77.08789062 50.30078125 C75.38803516 55.19918117 73.69275187 60.09914098 72 65 C69.03 65 66.06 65 63 65 C62.68248779 64.03175293 62.36497559 63.06350586 62.0378418 62.06591797 C60.85157475 58.45255983 59.65922558 54.84123267 58.46508789 51.23046875 C57.95042122 49.6714408 57.43737581 48.11187662 56.92602539 46.55175781 C56.18808201 44.30128198 55.4442088 42.05283902 54.69921875 39.8046875 C54.47409103 39.1138205 54.24896332 38.42295349 54.01701355 37.71115112 C52.65189226 33.61438124 51.02156918 29.81477111 49 26 C47.48660408 30.1070209 45.97504441 34.21471178 44.46508789 38.32299805 C43.95255539 39.71673241 43.43954579 41.11029143 42.92602539 42.50366211 C40.17543801 49.96801169 37.45562884 57.43196981 35 65 C32.03 65 29.06 65 26 65 C25.69819824 63.93789307 25.39639648 62.87578613 25.08544922 61.78149414 C23.93897425 57.75227698 22.78538203 53.72512386 21.62988281 49.69848633 C21.13549707 47.97213351 20.64291501 46.2452629 20.15234375 44.51782227 C17.57372286 35.44245058 14.91923904 26.38830421 11.9453125 17.43359375 C11.72382538 16.72542007 11.50233826 16.0172464 11.2741394 15.28761292 C10.14259257 11.99031113 9.27079203 10.2049033 6.46044922 8.07836914 C4.29427551 7.12897548 2.32165678 6.42993644 0 6 C0 4.02 0 2.04 0 0 Z " fill="#7E57C6" transform="translate(982,419)"/>
<path d="M0 0 C12.21 0 24.42 0 37 0 C37 1.65 37 3.3 37 5 C35.02 5.66 33.04 6.32 31 7 C31.60811042 10.73451831 32.67923524 13.76830915 34.328125 17.16796875 C34.79863281 18.14443359 35.26914063 19.12089844 35.75390625 20.12695312 C36.24761719 21.13693359 36.74132813 22.14691406 37.25 23.1875 C37.72824219 24.17814453 38.20648437 25.16878906 38.69921875 26.18945312 C41.43375057 31.84007782 44.22848211 37.45446232 47.10839844 43.0324707 C48 45 48 45 48 47 C48.66 47 49.32 47 50 47 C50.23074219 46.20078125 50.46148438 45.4015625 50.69921875 44.578125 C52.34140285 40.06088585 54.53470111 35.97406169 56.8125 31.75 C57.71274167 30.05625635 58.61248625 28.3622484 59.51171875 26.66796875 C60.34091891 25.11185822 61.17032363 23.55585667 62 22 C63.05092993 20.02573649 64.09521632 18.04787546 65.125 16.0625 C65.68574219 14.99708984 65.68574219 14.99708984 66.2578125 13.91015625 C67.24144686 11.72013832 67.24144686 11.72013832 67 8 C63.7 7.01 60.4 6.02 57 5 C57.33 3.35 57.66 1.7 58 0 C68.89 0 79.78 0 91 0 C91 1.65 91 3.3 91 5 C90.33613281 5.21914063 89.67226562 5.43828125 88.98828125 5.6640625 C88.10527344 5.98117187 87.22226563 6.29828125 86.3125 6.625 C85.00732422 7.07746094 85.00732422 7.07746094 83.67578125 7.5390625 C76.76192982 11.31392445 73.42790203 19.1691119 69.75 25.8125 C69.18442383 26.82699219 68.61884766 27.84148437 68.03613281 28.88671875 C66.35015666 31.92052059 64.67495264 34.96010256 63 38 C62.51789063 38.86415527 62.03578125 39.72831055 61.5390625 40.61865234 C60.26386279 42.90599576 59.00397116 45.20096616 57.75 47.5 C57.3797168 48.16233643 57.00943359 48.82467285 56.62792969 49.50708008 C52.17401443 57.81173175 52.91683469 66.10309791 53.25 75.25 C53.27707031 76.43335938 53.30414062 77.61671875 53.33203125 78.8359375 C53.37199219 79.96773438 53.41195313 81.09953125 53.453125 82.265625 C53.48567383 83.29461914 53.51822266 84.32361328 53.55175781 85.38378906 C54.05705678 88.33301769 54.61564477 89.25348403 57 91 C59.49443774 91.78798055 59.49443774 91.78798055 62.1875 92.1875 C63.53908203 92.42533203 63.53908203 92.42533203 64.91796875 92.66796875 C65.60503906 92.77753906 66.29210938 92.88710938 67 93 C67 94.65 67 96.3 67 98 C52.48 98 37.96 98 23 98 C23 96.35 23 94.7 23 93 C27.29 92.01 31.58 91.02 36 90 C38.09252783 83.9808562 38.33401708 78.4682338 38.3125 72.125 C38.32861328 71.18269531 38.34472656 70.24039063 38.36132812 69.26953125 C38.36866435 58.66134422 34.49705686 50.47855965 29.9375 41.0625 C29.45796875 40.06702148 28.9784375 39.07154297 28.484375 38.04589844 C25.31145636 31.52725785 22.00287566 25.09744435 18.5 18.75 C18.09128662 18.0062915 17.68257324 17.26258301 17.26147461 16.49633789 C16.87612549 15.81176514 16.49077637 15.12719238 16.09375 14.421875 C15.59391602 13.53387207 15.59391602 13.53387207 15.08398438 12.62792969 C12.40307743 8.60173881 9.9851612 7.46692218 5.3125 6.3125 C4.31863281 6.06113281 3.32476563 5.80976563 2.30078125 5.55078125 C1.16189453 5.27814453 1.16189453 5.27814453 0 5 C0 3.35 0 1.7 0 0 Z " fill="#7E57C6" transform="translate(1091,385)"/>
<path d="M0 0 C10.23 0 20.46 0 31 0 C31.33 1.65 31.66 3.3 32 5 C30.02 5.66 28.04 6.32 26 7 C27.54512545 15.16074878 30.28043569 22.7760743 33.125 30.5625 C33.59816109 31.87026016 34.07082121 33.1782017 34.54296875 34.48632812 C35.6904139 37.65936521 36.84287028 40.83048462 38 44 C41.32752851 36.59996415 44.40985738 29.23491683 46.875 21.5 C47.08987061 20.84257812 47.30474121 20.18515625 47.52612305 19.5078125 C48.74416214 15.5633984 49.2161891 12.12030986 49 8 C46.36 7.01 43.72 6.02 41 5 C41.33 3.35 41.66 1.7 42 0 C50.91 0 59.82 0 69 0 C69.495 2.475 69.495 2.475 70 5 C69.09181519 5.28629272 69.09181519 5.28629272 68.1652832 5.57836914 C63.35198814 7.31520026 63.35198814 7.31520026 59.70068359 10.73779297 C58.70566243 12.93925723 57.92736289 15.13751136 57.1875 17.4375 C56.53036739 19.25109843 55.87001322 21.06353169 55.20703125 22.875 C54.85721191 23.85855469 54.50739258 24.84210938 54.14697266 25.85546875 C52.04701269 31.61270254 49.71178468 37.27309743 47.375 42.9375 C46.87210449 44.15711426 46.36920898 45.37672852 45.85107422 46.63330078 C37.8061564 65.97312658 28.71822294 84.99451966 18 103 C11.47692308 101.64615385 11.47692308 101.64615385 9.0625 98.375 C8.711875 97.59125 8.36125 96.8075 8 96 C11.37938778 90.59708824 14.78552789 85.24254614 18.5 80.0625 C21.10325771 76.35285776 23.60763214 72.59962367 26 68.75 C26.598125 67.79609375 27.19625 66.8421875 27.8125 65.859375 C30.01897069 60.54642584 27.61693133 55.54901793 25.70703125 50.37890625 C25.48042313 49.76139496 25.253815 49.14388367 25.02033997 48.50765991 C24.29027196 46.52370801 23.55211043 44.54291252 22.8125 42.5625 C22.30706396 41.20192842 21.801693 39.84133267 21.29638672 38.48071289 C20.3104412 35.83089462 19.31994015 33.18284326 18.32568359 30.53613281 C17.24381153 27.65034368 16.17572013 24.76015138 15.11328125 21.8671875 C14.61882549 20.55667249 14.12294087 19.24669479 13.625 17.9375 C13.22539063 16.87402344 12.82578125 15.81054688 12.4140625 14.71484375 C10.08644542 10.24607615 7.36575037 7.54114637 2.6875 5.6875 C1.800625 5.460625 0.91375 5.23375 0 5 C0 3.35 0 1.7 0 0 Z " fill="#7E57C6" transform="translate(1052,252)"/>
<path d="M0 0 C8.34699922 5.05028524 12.28444856 11.27338248 14.77734375 20.640625 C16.90411446 31.46324519 15.761574 42.53590567 9.51953125 51.8671875 C3.37867786 59.1927365 -4.31696405 64.28366662 -13.97265625 65.23828125 C-22.37869034 65.47350164 -29.90331612 64.03634407 -36.5 58.5625 C-37.5209375 57.2940625 -37.5209375 57.2940625 -38.5625 56 C-39.26375 55.21625 -39.965 54.4325 -40.6875 53.625 C-47.16676373 44.55403077 -47.53638116 33.74261649 -46.5625 23 C-44.61754209 14.03679036 -39.0961872 7.10682067 -31.5 2.125 C-22.53039147 -3.29848422 -9.65338007 -4.40407662 0 0 Z M-28.5625 9 C-34.29959204 16.48860301 -33.50732347 27.07689692 -32.5625 36 C-31.03268759 43.71242708 -27.49637266 49.80786143 -21.5625 55 C-17.1313515 57.7491207 -12.62585632 57.75190441 -7.5625 57 C-2.70309671 54.2610636 -0.50367054 51.09267847 0.96875 45.8515625 C2.80099512 34.70540472 2.09863896 23.69104707 -3.375 13.6875 C-6.48794287 9.86302734 -10.37522903 5.38884706 -15.515625 4.76171875 C-21.04143637 4.58316362 -24.38598253 5.01773916 -28.5625 9 Z " fill="#7E57C6" transform="translate(1212.5625,420)"/>
<path d="M0 0 C6.16830098 5.62352226 9.39899205 14.84963332 9.953125 22.98046875 C10.11551494 34.09064714 8.30886393 43.478525 0.75 52 C-7.9054633 59.37473621 -15.24078657 61.48267226 -26.546875 61.31640625 C-31.50358265 60.89289009 -35.07797266 59.64932538 -39.25 57 C-40.301875 56.34 -41.35375 55.68 -42.4375 55 C-48.82829638 49.28755631 -51.90339949 39.92059081 -52.48828125 31.6171875 C-52.70749801 20.56404758 -51.34433614 11.11233159 -43.44921875 2.7890625 C-30.09291572 -8.07627816 -14.4381909 -8.88504056 0 0 Z M-34.5 6.3125 C-38.01093839 11.70429825 -38.61193845 16.92823486 -38.5625 23.25 C-38.55686035 24.00144287 -38.5512207 24.75288574 -38.54541016 25.52709961 C-38.337929 35.05993432 -36.22624365 43.13423985 -29.25 50 C-25.2407137 53.0704028 -21.62277898 54.33148493 -16.5625 54.0625 C-12.10586097 53.28009521 -9.94477137 51.72512513 -7.25 48 C-2.39341808 39.29164622 -2.88020359 26.79846614 -5.5 17.3125 C-8.07589322 10.22277519 -11.93349588 5.15825206 -18.75 1.75 C-25.15102049 -0.17030615 -29.84318889 1.52633303 -34.5 6.3125 Z " fill="#7E57C6" transform="translate(1289.25,256)"/>
<path d="M0 0 C6.93148825 5.22507225 10.66712604 12.13895199 12.796875 20.48046875 C13.74720875 32.12205721 12.66186411 43.1584391 5.046875 52.54296875 C-0.92468988 59.18106365 -7.86196319 62.7072648 -16.71484375 63.921875 C-25.08190021 64.29188748 -32.15736592 61.83474782 -39.265625 57.54296875 C-45.30923508 51.93857452 -48.70818997 42.63057309 -49.19140625 34.56640625 C-49.43453565 24.29639937 -48.73847208 16.71168251 -43.265625 7.79296875 C-31.94566117 -3.22105011 -14.40166698 -8.62650186 0 0 Z M-30.953125 7.54296875 C-36.65408821 15.11996778 -36.52944186 24.77546467 -35.265625 33.79296875 C-33.47654542 42.91727461 -29.92965699 48.41955653 -22.765625 54.35546875 C-18.50286207 56.15530199 -14.50840203 56.21087593 -9.953125 55.54296875 C-5.56963203 53.11805774 -3.82288008 50.12386869 -1.953125 45.54296875 C0.8002206 34.39574316 -0.33384407 22.28231944 -5.765625 12.16796875 C-8.97204027 8.32027042 -12.10481131 5.15907331 -16.953125 3.54296875 C-22.98961546 3.04817445 -26.27523151 3.2903383 -30.953125 7.54296875 Z " fill="#7E57C6" transform="translate(724.953125,421.45703125)"/>
<path d="M0 0 C3.125 2.0625 3.125 2.0625 5 4 C4.42365861 8.75481646 2.44931479 11.97048212 0 16 C-4.55665941 15.46392242 -7.23345952 13.51102698 -11 11 C-14.11587255 9.86004663 -15.45464468 9.83119954 -18.625 10.8125 C-23.39769365 15.20840205 -24.1082508 22.31710747 -24.51171875 28.5703125 C-24.58341634 30.4214139 -24.64198206 32.27306992 -24.6875 34.125 C-24.72166016 35.08148438 -24.75582031 36.03796875 -24.79101562 37.0234375 C-24.87239553 39.34857775 -24.93789474 41.67426511 -25 44 C-16.585 43.505 -16.585 43.505 -8 43 C-8.66 46.3 -9.32 49.6 -10 53 C-14.95 53 -19.9 53 -25 53 C-24.9312297 59.21174426 -24.84331496 65.42280849 -24.73754883 71.6340332 C-24.70426872 73.74756336 -24.67624647 75.86118306 -24.65356445 77.97485352 C-24.62007528 81.01096806 -24.56776236 84.04625975 -24.51171875 87.08203125 C-24.50532883 88.02899368 -24.4989389 88.97595612 -24.49235535 89.95161438 C-24.46266411 91.27264412 -24.46266411 91.27264412 -24.43237305 92.62036133 C-24.42126999 93.39535477 -24.41016693 94.17034821 -24.39872742 94.96882629 C-23.89814123 97.51888296 -23.01080887 98.40216018 -21 100 C-18.96658113 100.77813652 -18.96658113 100.77813652 -16.8125 101.1875 C-15.554375 101.455625 -14.29625 101.72375 -13 102 C-13 103.65 -13 105.3 -13 107 C-24.22 107 -35.44 107 -47 107 C-47 105.35 -47 103.7 -47 102 C-45.865625 101.71125 -44.73125 101.4225 -43.5625 101.125 C-42.386875 100.75375 -41.21125 100.3825 -40 100 C-38.8239997 97.6479994 -38.87915459 96.26265599 -38.88647461 93.64208984 C-38.88655014 92.74130707 -38.88662567 91.84052429 -38.88670349 90.91244507 C-38.89186478 89.93844757 -38.89702606 88.96445007 -38.90234375 87.9609375 C-38.9037587 86.96494537 -38.90517365 85.96895325 -38.90663147 84.94277954 C-38.91224064 81.75348947 -38.9247947 78.56426894 -38.9375 75.375 C-38.94251382 73.21614685 -38.94707693 71.05729259 -38.95117188 68.8984375 C-38.96221305 63.5989345 -38.97896012 58.29947222 -39 53 C-42.96 52.505 -42.96 52.505 -47 52 C-46.9375 49.6875 -46.9375 49.6875 -46 47 C-44.85660156 46.63132812 -43.71320312 46.26265625 -42.53515625 45.8828125 C-40.59746607 45.19278844 -40.59746607 45.19278844 -39 44 C-37.81790902 41.14564484 -37.71407086 38.24838483 -37.5 35.1875 C-36.25209738 24.28880529 -33.36863085 14.6252087 -25.0625 6.875 C-17.23755576 0.84644374 -9.82858429 -2.097182 0 0 Z " fill="#7E57C6" transform="translate(793,376)"/>
<path d="M0 0 C7.68383081 5.80972573 10.62950612 12.92901879 13.5625 21.9375 C14.0575 22.9275 14.0575 22.9275 14.5625 23.9375 C14.0078125 25.9921875 14.0078125 25.9921875 12.5625 27.9375 C9.9296875 28.6953125 9.9296875 28.6953125 6.4375 29.0625 C5.80384521 29.1332373 5.17019043 29.20397461 4.51733398 29.27685547 C2.20094049 29.52398791 -0.1169071 29.73345317 -2.4375 29.9375 C-3.44635254 30.02773438 -4.45520508 30.11796875 -5.49462891 30.2109375 C-12.47248816 30.82684516 -19.45335726 31.39778863 -26.4375 31.9375 C-25.00231715 39.12596967 -23.63994348 45.40226911 -17.7890625 50.32421875 C-11.86556601 53.88581474 -5.13063761 53.79709249 1.5625 52.9375 C4.56933447 51.89306996 6.81932059 50.61388742 9.5625 48.9375 C10.5525 48.6075 11.5425 48.2775 12.5625 47.9375 C13.02776592 53.29187174 13.02776592 53.29187174 10.98046875 56.1328125 C3.37395342 62.71358058 -4.68388871 66.83450883 -14.9609375 66.3125 C-22.59012836 65.15729129 -28.1577913 62.29308762 -32.96875 56.22265625 C-39.5165636 46.0352335 -40.89153689 34.11470943 -38.8125 22.3125 C-36.49911867 13.3522202 -31.28772714 6.54038379 -23.515625 1.75390625 C-16.17386998 -2.11793171 -7.88830926 -2.43820468 0 0 Z M-23.4375 10.9375 C-25.94277317 15.5305008 -26.56809198 18.77911666 -26.4375 23.9375 C-23.77076258 23.96477345 -21.10431131 23.98446948 -18.4375 24 C-17.69371094 24.00837891 -16.94992187 24.01675781 -16.18359375 24.02539062 C-11.17834996 24.04715255 -6.37324889 23.81337508 -1.4375 22.9375 C-0.17502582 20.95881339 -0.17502582 20.95881339 -1.00390625 18.73046875 C-3.23188795 12.90276759 -4.97685422 9.14964458 -10.4375 5.9375 C-16.20846496 4.90697054 -19.75207575 6.49265499 -23.4375 10.9375 Z " fill="#7E57C6" transform="translate(966.4375,419.0625)"/>
<path d="M0 0 C6.46015035 4.91804994 9.17221004 11.62336022 10.81640625 19.3828125 C10.81640625 20.0428125 10.81640625 20.7028125 10.81640625 21.3828125 C11.47640625 21.3828125 12.13640625 21.3828125 12.81640625 21.3828125 C12.32140625 23.8578125 12.32140625 23.8578125 11.81640625 26.3828125 C-1.58955219 28.83106378 -14.59645234 29.53799559 -28.18359375 29.3828125 C-27.01974144 37.85982635 -24.97743309 44.36322609 -18.12109375 49.8203125 C-12.96874465 52.56092372 -7.95322562 53.07406233 -2.18359375 52.3828125 C0.97140794 51.31938541 3.87115778 49.92582986 6.81640625 48.3828125 C8.14927886 47.71522518 9.48247394 47.04827986 10.81640625 46.3828125 C11.87984802 48.99307867 11.92687214 50.10296557 10.87890625 52.7578125 C6.37472172 58.490411 0.03348771 62.96055378 -7.18359375 64.3828125 C-15.09557547 65.13324636 -22.7399087 65.56002813 -29.18359375 60.3828125 C-34.98594302 55.11752278 -38.48758692 50.04408474 -40.18359375 42.3828125 C-40.41046875 41.4134375 -40.63734375 40.4440625 -40.87109375 39.4453125 C-41.90679563 29.29543406 -41.5724443 18.60876889 -35.43359375 10.0078125 C-34.38531873 8.76894203 -33.30182292 7.55892647 -32.18359375 6.3828125 C-31.64605469 5.81691406 -31.10851562 5.25101562 -30.5546875 4.66796875 C-22.47420023 -3.00005745 -9.94949601 -5.7485977 0 0 Z M-24.18359375 8.3828125 C-27.00873476 13.07971876 -28.28005944 16.90866811 -28.18359375 22.3828125 C-24.41290543 22.4697975 -20.64247443 22.52319829 -16.87109375 22.5703125 C-15.26331055 22.60801758 -15.26331055 22.60801758 -13.62304688 22.64648438 C-12.59501953 22.65615234 -11.56699219 22.66582031 -10.5078125 22.67578125 C-9.55994873 22.6914917 -8.61208496 22.70720215 -7.63549805 22.72338867 C-4.78587967 22.32756893 -3.9338327 21.60456531 -2.18359375 19.3828125 C-4.84072966 11.01654842 -4.84072966 11.01654842 -11.18359375 5.3828125 C-16.93807176 3.70878253 -19.79001841 4.28214218 -24.18359375 8.3828125 Z " fill="#7E57C6" transform="translate(844.18359375,252.6171875)"/>
<path d="M0 0 C6.48884485 5.47367674 8.86393224 11.96103533 11 20 C11.21914062 20.73734375 11.43828125 21.4746875 11.6640625 22.234375 C12 24 12 24 11 26 C2.77909381 28.45385113 -6.18313577 28.58713974 -14.6875 29.125 C-15.97333984 29.21136719 -17.25917969 29.29773438 -18.58398438 29.38671875 C-21.72233196 29.5967197 -24.86093711 29.80102954 -28 30 C-27.24075247 37.88957217 -25.32603046 42.75925238 -19.5625 48.375 C-14.37365865 51.66548476 -9.10891585 52.90343122 -3 52 C1.87401343 50.44383908 6.44722779 48.31815466 11 46 C11.53055524 49.10753785 11.57435242 51.18326032 9.72265625 53.81640625 C4.02922431 59.79386427 -2.63907137 63.56222671 -10.91796875 64.23828125 C-19.25648913 64.42756666 -25.41904894 63.78861956 -31.96484375 58.375 C-39.35570043 50.8747649 -41.35563651 41.59111553 -41.4375 31.375 C-41.27630875 21.14217379 -39.41662593 12.49706656 -32 5 C-22.74036747 -2.58986273 -10.9276348 -6.47563544 0 0 Z M-26 10 C-27.45734777 13.25291959 -28.49174077 16.46759834 -29 20 C-28.67 20.66 -28.34 21.32 -28 22 C-24.20834926 22.0289337 -20.41672673 22.04677601 -16.625 22.0625 C-15.00464844 22.07506836 -15.00464844 22.07506836 -13.3515625 22.08789062 C-12.3203125 22.09111328 -11.2890625 22.09433594 -10.2265625 22.09765625 C-8.79691162 22.10551147 -8.79691162 22.10551147 -7.33837891 22.11352539 C-4.97675594 22.15642599 -4.97675594 22.15642599 -3 21 C-3.54228161 14.22147985 -5.59808002 10.40191998 -10.375 5.625 C-16.81483439 1.63843585 -21.73735777 4.52406162 -26 10 Z " fill="#7E57C6" transform="translate(1410,253)"/>
<path d="M0 0 C8.94827205 5.22880957 11.46248272 14.18077745 14.390625 23.6484375 C14.6875 25.375 14.6875 25.375 13.6875 27.375 C0.91097884 31.10554912 -13.1259889 30.52734737 -26.3125 30.375 C-24.28392069 41.55786873 -24.28392069 41.55786873 -17.1484375 49.83984375 C-10.75927561 53.41025775 -5.27910474 54.71078358 1.8515625 52.79296875 C5.74452434 51.42970309 9.23195566 49.64270097 12.6875 47.375 C13.5625 49.4375 13.5625 49.4375 13.6875 52.375 C9.80540376 59.62708617 2.1508525 62.88721583 -5.3125 65.375 C-13.24849451 65.9901152 -20.82686991 66.51978073 -27.3125 61.375 C-34.69505744 54.90574863 -38.03995121 47.36641003 -38.7265625 37.64453125 C-39.21469435 25.95488282 -38.23254596 15.6330799 -30.25 6.4375 C-22.06536129 -0.82191868 -10.30084381 -4.56317754 0 0 Z M-22.3125 9.375 C-24.80428321 14.04128968 -26.3125 18.06098412 -26.3125 23.375 C-22.35418191 23.40392857 -18.39589083 23.42177427 -14.4375 23.4375 C-13.30957031 23.44587891 -12.18164062 23.45425781 -11.01953125 23.46289062 C-9.40498047 23.46772461 -9.40498047 23.46772461 -7.7578125 23.47265625 C-6.26531982 23.48051147 -6.26531982 23.48051147 -4.74267578 23.48852539 C-2.30289227 23.5389415 -2.30289227 23.5389415 -0.3125 22.375 C-1.08278128 16.51820616 -2.39337288 12.0370257 -6.5390625 7.69921875 C-12.01546298 3.61001223 -17.58467715 4.75462767 -22.3125 9.375 Z " fill="#7E57C6" transform="translate(1533.3125,251.625)"/>
<path d="M0 0 C-0.00333092 1.83496536 -0.00333092 1.83496536 -0.00672913 3.70700073 C-0.02696778 15.21440232 -0.04197565 26.7218003 -0.05181217 38.22921562 C-0.05703915 44.14581924 -0.06413347 50.06240853 -0.07543945 55.97900391 C-0.08627487 61.68480699 -0.09227823 67.39059627 -0.09487724 73.09640884 C-0.09673031 75.27738792 -0.10034866 77.45836622 -0.10573006 79.63933945 C-0.11294914 82.68519497 -0.11399057 85.73099282 -0.11352539 88.77685547 C-0.11712067 89.68603729 -0.12071594 90.59521912 -0.12442017 91.5319519 C-0.25610423 95.90278046 -0.25610423 95.90278046 1 100 C2.88764903 100.68472665 2.88764903 100.68472665 5.0625 101.125 C5.79597656 101.29257812 6.52945312 101.46015625 7.28515625 101.6328125 C8.13400391 101.81457031 8.13400391 101.81457031 9 102 C8.67 103.98 8.34 105.96 8 108 C-2.23 108 -12.46 108 -23 108 C-23 106.02 -23 104.04 -23 102 C-21.865625 101.71125 -20.73125 101.4225 -19.5625 101.125 C-18.386875 100.75375 -17.21125 100.3825 -16 100 C-14.40768899 96.81537798 -14.87070143 93.37489467 -14.88647461 89.87841797 C-14.88632858 89.03931885 -14.88618256 88.20021973 -14.8860321 87.33569336 C-14.88673032 84.55449869 -14.89451845 81.77337051 -14.90234375 78.9921875 C-14.90420825 77.06690508 -14.905632 75.14162218 -14.90663147 73.21633911 C-14.91045409 68.1429921 -14.92028221 63.06967361 -14.93133545 57.99633789 C-14.94155505 52.82178127 -14.94613027 47.64722005 -14.95117188 42.47265625 C-14.96190469 32.31509162 -14.97897807 22.15754818 -15 12 C-17.97 11.67 -20.94 11.34 -24 11 C-24 9.02 -24 7.04 -24 5 C-22.97519531 4.80664062 -21.95039062 4.61328125 -20.89453125 4.4140625 C-19.53380399 4.15130137 -18.17312967 3.88826602 -16.8125 3.625 C-15.80219727 3.43550781 -15.80219727 3.43550781 -14.77148438 3.2421875 C-11.81297071 2.66491654 -9.06242502 2.02511249 -6.26171875 0.8984375 C-4 0 -4 0 0 0 Z " fill="#7E57C6" transform="translate(1325,208)"/>
<path d="M0 0 C-0.10602948 0.82956412 -0.10602948 0.82956412 -0.21420097 1.67588711 C-0.84639134 6.91955973 -1.14439141 12.05175745 -1.12939453 17.33032227 C-1.13114685 18.10882538 -1.13289917 18.88732849 -1.13470459 19.68942261 C-1.13906236 22.23177398 -1.13620701 24.77405432 -1.1328125 27.31640625 C-1.13348722 29.10041822 -1.13445864 30.88443011 -1.13571167 32.66844177 C-1.13718036 36.39444866 -1.13506057 40.12043147 -1.13037109 43.84643555 C-1.12467016 48.60630743 -1.1279604 53.36612295 -1.13394356 58.12599277 C-1.13756805 61.80556152 -1.13640199 65.48511705 -1.13381577 69.1646862 C-1.13315193 70.91924992 -1.13395577 72.67381487 -1.13629532 74.42837715 C-1.13885341 76.88530759 -1.13493726 79.34214844 -1.12939453 81.79907227 C-1.13141876 82.51358047 -1.13344299 83.22808868 -1.13552856 83.96424866 C-1.11568267 88.74682543 -0.88313371 93.30437292 0 98 C2.91765 99.9451 4.62537285 100.45276317 8 101 C8 102.98 8 104.96 8 107 C-2.56 107 -13.12 107 -24 107 C-24 105.02 -24 103.04 -24 101 C-19.545 100.01 -19.545 100.01 -15 99 C-14.97685217 88.09957676 -14.95907242 77.19915934 -14.94818783 66.29871655 C-14.94296436 61.23746562 -14.93587639 56.17623149 -14.92456055 51.11499023 C-14.91371269 46.23263191 -14.90771911 41.35028975 -14.90512276 36.4679203 C-14.90327195 34.60316017 -14.89965789 32.73840095 -14.89426994 30.87364769 C-14.88703436 28.26625007 -14.88601013 25.65891968 -14.88647461 23.05151367 C-14.88287933 22.27683746 -14.87928406 21.50216125 -14.87557983 20.70401001 C-14.88171486 17.53125515 -14.98892657 15.0332203 -16 12 C-17.87387216 11.19787372 -17.87387216 11.19787372 -20.0625 10.8125 C-20.79597656 10.65394531 -21.52945312 10.49539062 -22.28515625 10.33203125 C-22.85105469 10.22246094 -23.41695312 10.11289063 -24 10 C-24 8.02 -24 6.04 -24 4 C-23.05898437 3.80664062 -22.11796875 3.61328125 -21.1484375 3.4140625 C-19.90320312 3.15367187 -18.65796875 2.89328125 -17.375 2.625 C-16.14523437 2.36976563 -14.91546875 2.11453125 -13.6484375 1.8515625 C-10.03269179 1.08343118 -10.03269179 1.08343118 -6.7890625 -0.1640625 C-3.84196989 -1.04736477 -2.84047342 -0.85920713 0 0 Z " fill="#7E57C6" transform="translate(1359,209)"/>
<path d="M0 0 C2.08026141 3.81782987 2.48260038 7.35248118 2.875 11.625 C3.70409953 19.19448235 5.2824135 25.75054902 9.44140625 32.25390625 C11.99289913 36.25147684 13.47493498 38.73905806 12.4375 43.5 C12.21191406 44.3146875 11.98632812 45.129375 11.75390625 45.96875 C10.76385578 49.94947104 10.3252325 53.92788767 9.875 58 C9.78790771 58.75474609 9.70081543 59.50949219 9.61108398 60.28710938 C9.15948515 64.13392626 9.15948515 64.13392626 9 68 C9.99 68 10.98 68 12 68 C12.12117188 66.75863281 12.24234375 65.51726562 12.3671875 64.23828125 C12.53607548 62.59631474 12.7053676 60.95438977 12.875 59.3125 C12.95363281 58.49587891 13.03226562 57.67925781 13.11328125 56.83789062 C13.56214171 52.57371628 14.10442187 48.91062546 16 45 C24.53004799 52.75458908 31.362386 62.80210575 32.2734375 74.515625 C32.36974677 83.26050647 32.36974677 83.26050647 31 86 C19.54450874 84.92883718 8.83316265 78.7324953 0.796875 70.6640625 C-4.38136096 62.98676483 -5.61081416 55.47265657 -5.56640625 46.3671875 C-5.57260483 45.29050812 -5.57880341 44.21382874 -5.58518982 43.10452271 C-5.59224997 40.84394224 -5.58918113 38.58330936 -5.57641602 36.32275391 C-5.56250789 32.87695515 -5.59673232 29.43385325 -5.63476562 25.98828125 C-5.6357166 23.78124934 -5.63385919 21.57421406 -5.62890625 19.3671875 C-5.64216446 18.34615936 -5.65542267 17.32513123 -5.66908264 16.27316284 C-5.58181477 9.53190357 -4.20661755 5.3007538 0 0 Z " fill="#7E57C6" transform="translate(388,390)"/>
<path d="M0 0 C-0.33 6.93 -0.66 13.86 -1 21 C5.27 20.67 11.54 20.34 18 20 C17.67 23.3 17.34 26.6 17 30 C11.06 30 5.12 30 -1 30 C-0.92577498 35.14200191 -0.84274676 40.28233543 -0.73754883 45.42358398 C-0.70442233 47.17023899 -0.67635263 48.91699788 -0.65356445 50.66381836 C-0.61979119 53.1838787 -0.56746653 55.70299752 -0.51171875 58.22265625 C-0.50532883 58.99585709 -0.4989389 59.76905792 -0.49235535 60.56568909 C-0.35454202 65.71947272 0.58016203 69.42177781 3 74 C6.17412177 75.58706088 9.53638667 75.28477127 13 75 C15.88214887 74.11785113 15.88214887 74.11785113 18 73 C18.4375 76.1875 18.4375 76.1875 18 80 C14.62635584 83.58222968 10.43643413 85.80110742 5.51171875 86.203125 C-4.54289456 86.37000655 -4.54289456 86.37000655 -9 83 C-13.17735108 77.16699148 -13.60022423 72.53468466 -13.609375 65.47265625 C-13.62591125 64.48373886 -13.64244751 63.49482147 -13.65948486 62.47593689 C-13.70781071 59.33806043 -13.72930191 56.2006681 -13.75 53.0625 C-13.77817251 50.92640814 -13.80810173 48.79033868 -13.83984375 46.65429688 C-13.91356581 41.43623779 -13.96323476 36.21844504 -14 31 C-16.64 30.34 -19.28 29.68 -22 29 C-21.67 27.02 -21.34 25.04 -21 23 C-18.69 22.34 -16.38 21.68 -14 21 C-14.03222656 20.07058594 -14.06445312 19.14117187 -14.09765625 18.18359375 C-14.00486098 8.29574178 -14.00486098 8.29574178 -11.0703125 4.51171875 C-7.15526796 1.41177365 -5.09449062 0 0 0 Z " fill="#7E57C6" transform="translate(1032,231)"/>
<path d="M0 0 C0.66 0 1.32 0 2 0 C7.01682352 5.39488769 6.5977939 10.96645806 6.56640625 18.046875 C6.57260483 19.213255 6.57880341 20.37963501 6.58518982 21.58135986 C6.59228234 24.0457679 6.58912401 26.5102239 6.57641602 28.97460938 C6.56259743 32.72356703 6.59657849 36.47000473 6.63476562 40.21875 C6.63571735 42.61979227 6.63385512 45.02083764 6.62890625 47.421875 C6.64216446 48.5326239 6.65542267 49.6433728 6.66908264 50.78778076 C6.56761528 59.37757011 4.39263671 65.80641451 -1.03515625 72.515625 C-6.85654525 77.49577282 -12.99256386 80.9269065 -20 84 C-20.84046875 84.38414062 -21.6809375 84.76828125 -22.546875 85.1640625 C-25.18024128 86.0614198 -27.23797592 86.15782995 -30 86 C-30.94018068 69.53639171 -26.48469454 57.7711407 -16 45 C-15.34 45 -14.68 45 -14 45 C-11.74231361 52.34103058 -10.4302337 59.3299717 -10 67 C-9.34 67 -8.68 67 -8 67 C-7.63890659 59.4571598 -8.21077028 52.94946224 -10.34375 45.69140625 C-11.28731207 41.82167849 -11.64013453 39.25126621 -9.79296875 35.640625 C-9.26316406 34.85171875 -8.73335938 34.0628125 -8.1875 33.25 C-2.89466788 24.87384351 -1.07950824 16.50105454 -0.4375 6.6875 C-0.35371094 5.43324219 -0.26992188 4.17898438 -0.18359375 2.88671875 C-0.09271484 1.45779297 -0.09271484 1.45779297 0 0 Z " fill="#7E57C6" transform="translate(285,390)"/>
<path d="M0 0 C0.66 0.33 1.32 0.66 2 1 C2.4140625 3.28515625 2.4140625 3.28515625 2.625 6.0625 C2.69976563 6.98160156 2.77453125 7.90070313 2.8515625 8.84765625 C2.90054687 9.55792969 2.94953125 10.26820313 3 11 C3.53109375 10.44570313 4.0621875 9.89140625 4.609375 9.3203125 C5.66898438 8.23363281 5.66898438 8.23363281 6.75 7.125 C7.44609375 6.40570313 8.1421875 5.68640625 8.859375 4.9453125 C12.29495676 1.82319623 14.92470918 0.71104209 19.5625 0.6875 C20.32691406 0.67074219 21.09132813 0.65398437 21.87890625 0.63671875 C24.53816197 1.09217139 25.42946127 1.83044169 27 4 C26.89033463 9.70259912 24.96395102 13.31504516 22 18 C19.2723223 17.4754466 17.5153387 16.72157755 15.0625 15.3125 C12.11819617 13.69306175 12.11819617 13.69306175 9.3125 14.625 C5.78087598 16.72488456 4.31259939 18.06220182 3 22 C2.8796127 24.55075155 2.81196074 27.0734369 2.796875 29.625 C2.78832489 30.7399585 2.78832489 30.7399585 2.77960205 31.87744141 C2.77016575 33.44757671 2.76362351 35.0177317 2.75976562 36.58789062 C2.75003549 38.99123423 2.71899083 41.39373114 2.6875 43.796875 C2.68097197 45.32291159 2.67572071 46.84895429 2.671875 48.375 C2.6595282 49.09381348 2.6471814 49.81262695 2.63446045 50.55322266 C2.64240325 54.49364682 2.64240325 54.49364682 4.37915039 57.9309082 C6.44665039 59.29460492 8.2588806 59.72993403 10.6875 60.1875 C11.89986328 60.42533203 11.89986328 60.42533203 13.13671875 60.66796875 C13.75160156 60.77753906 14.36648438 60.88710938 15 61 C14.67 62.65 14.34 64.3 14 66 C3.11 66 -7.78 66 -19 66 C-19 64.35 -19 62.7 -19 61 C-17.865625 60.5875 -16.73125 60.175 -15.5625 59.75 C-11.93554255 58.47183568 -11.93554255 58.47183568 -11.29237366 56.13206482 C-10.46016267 50.06336564 -10.56916107 43.85428511 -10.48510742 37.73754883 C-10.45339459 35.95561297 -10.40556369 34.1738904 -10.34155273 32.39282227 C-10.25026031 29.81446683 -10.21150944 27.2398836 -10.18359375 24.66015625 C-10.14544052 23.86730728 -10.10728729 23.07445831 -10.06797791 22.25758362 C-10.07621485 19.91062371 -10.16276952 18.19707087 -11 16 C-13.43783616 13.81268445 -16.03246683 12.36074524 -19 11 C-18.67 9.35 -18.34 7.7 -18 6 C-17.03578125 5.73445313 -16.0715625 5.46890625 -15.078125 5.1953125 C-13.81484375 4.84210938 -12.5515625 4.48890625 -11.25 4.125 C-9.37054687 3.60292969 -9.37054687 3.60292969 -7.453125 3.0703125 C-4.11939223 2.1460677 -4.11939223 2.1460677 -1.671875 0.8046875 C-1.12015625 0.53914063 -0.5684375 0.27359375 0 0 Z " fill="#7E57C6" transform="translate(1253,417)"/>
<path d="M0 0 C0.33 18.81 0.66 37.62 1 57 C3.64 57.99 6.28 58.98 9 60 C9 61.98 9 63.96 9 66 C-1.23 66 -11.46 66 -22 66 C-22 64.02 -22 62.04 -22 60 C-20.865625 59.71125 -19.73125 59.4225 -18.5625 59.125 C-17.386875 58.75375 -16.21125 58.3825 -15 58 C-13.87149502 55.74299004 -13.85666833 54.47093233 -13.82299805 51.96508789 C-13.81016281 51.13405045 -13.79732758 50.303013 -13.78410339 49.4467926 C-13.77671646 48.54782761 -13.76932953 47.64886261 -13.76171875 46.72265625 C-13.753647 45.80036728 -13.74557526 44.87807831 -13.73725891 43.92784119 C-13.72341778 41.97510663 -13.71269576 40.02234787 -13.70483398 38.06958008 C-13.68758834 35.07782523 -13.64369928 32.08716605 -13.59960938 29.09570312 C-13.58948546 27.20052898 -13.58096842 25.30534542 -13.57421875 23.41015625 C-13.55671066 22.51321548 -13.53920258 21.61627472 -13.52116394 20.69215393 C-13.40178011 15.88332951 -13.40178011 15.88332951 -15.83911133 11.97436523 C-18.10566698 10.90828689 -18.10566698 10.90828689 -21 10 C-21 8.02 -21 6.04 -21 4 C-19.95199219 3.79503906 -18.90398438 3.59007812 -17.82421875 3.37890625 C-16.44529231 3.10687314 -15.06638717 2.83473209 -13.6875 2.5625 C-12.65206055 2.36043945 -12.65206055 2.36043945 -11.59570312 2.15429688 C-0.7191311 0 -0.7191311 0 0 0 Z " fill="#7E57C6" transform="translate(997,250)"/>
<path d="M0 0 C3.29308586 2.94976414 4.96911537 5.60120406 6.625 9.6875 C7.23214844 11.14736328 7.23214844 11.14736328 7.8515625 12.63671875 C10.61771796 20.73760259 11.35900107 28.26641163 11.3125 36.8125 C11.30758545 37.87476807 11.3026709 38.93703613 11.29760742 40.03149414 C11.13293279 51.02922623 9.56853588 60.87342045 3 70 C2.01 70.495 2.01 70.495 1 71 C-7.7209581 53.51029774 -13.00021266 35.326441 -7.3125 15.8125 C-5.31631717 10.33194069 -2.81267215 5.10661378 0 0 Z " fill="#7E57C6" transform="translate(270,354)"/>
<path d="M0 0 C7.81326726 6.99869259 10.57086066 18.62232915 11.25390625 28.7734375 C11.84459141 44.22999847 8.0337724 57.30758972 1 71 C0.34 71 -0.32 71 -1 71 C-1.96875839 69.17215398 -2.92446873 67.33739059 -3.875 65.5 C-4.40867187 64.4790625 -4.94234375 63.458125 -5.4921875 62.40625 C-9.19006538 54.0524948 -9.3653737 46.34678576 -9.375 37.3125 C-9.39949219 36.12205078 -9.42398437 34.93160156 -9.44921875 33.70507812 C-9.48984894 21.25192483 -5.96700976 10.83354641 0 0 Z " fill="#7E57C6" transform="translate(403,354)"/>
<path d="M0 0 C2.58844848 2.58844848 2.23877442 4.39883667 2.265625 7.9296875 C1.94717367 10.41173459 1.44041679 11.94417294 0 14 C-2.05859375 14.71484375 -2.05859375 14.71484375 -4.4375 14.9375 C-5.21996094 15.02902344 -6.00242187 15.12054688 -6.80859375 15.21484375 C-9 15 -9 15 -10.73828125 13.65234375 C-12.98807617 10.7060179 -13.06443511 7.92356994 -12.8125 4.3125 C-12 2 -12 2 -10.4375 0.6875 C-6.81363657 -0.33461533 -3.7694649 -0.24319128 0 0 Z " fill="#7E57C6" transform="translate(995,222)"/>
</svg>
