<?xml version="1.0" encoding="UTF-8"?>
<svg version="1.1" xmlns="http://www.w3.org/2000/svg" width="1280" height="448">
<path d="M0 0 C29.2359375 -0.309375 29.2359375 -0.309375 59.0625 -0.625 C65.21140869 -0.71604004 71.36031738 -0.80708008 77.69555664 -0.90087891 C85.21765137 -0.94604492 85.21765137 -0.94604492 88.74168396 -0.95443726 C91.19739405 -0.96977057 93.65302985 -1.00489711 96.10826111 -1.05575562 C99.83399672 -1.12905825 103.55514465 -1.13905904 107.28149414 -1.13525391 C108.9159667 -1.18922553 108.9159667 -1.18922553 110.5834589 -1.24428749 C115.10863866 -1.18249885 117.87075927 -1.11441903 121.18165398 2.15301895 C122.98558916 4.69897095 124.51559978 7.25788561 126 10 C126.90518702 11.42448733 127.81870633 12.84377141 128.74609375 14.25390625 C129.64545994 15.68870828 130.54251132 17.12496333 131.4375 18.5625 C132.47585263 20.21789339 133.51495608 21.872816 134.5546875 23.52734375 C135.38178223 24.84387939 135.38178223 24.84387939 136.22558594 26.18701172 C139.48109192 31.34798309 142.7719159 36.48634874 146.0625 41.625 C146.75013428 42.69886963 147.43776855 43.77273926 148.14624023 44.87915039 C152.33874411 51.42089781 156.54870913 57.9509627 160.77758789 64.46923828 C164.8780444 70.79600461 168.9387607 77.14801154 173 83.5 C175.03282527 86.67624451 177.06593473 89.85230694 179.09912109 93.02832031 C180.31422743 94.92791887 181.52820633 96.82823938 182.74072266 98.72949219 C184.26127577 101.11350715 185.78628512 103.49460725 187.3125 105.875 C187.75013672 106.56400391 188.18777344 107.25300781 188.63867188 107.96289062 C190.55421322 110.94160325 192.44104364 113.55763 195 116 C195.40089844 115.29842773 195.80179688 114.59685547 196.21484375 113.87402344 C196.78332031 112.87918945 197.35179687 111.88435547 197.9375 110.859375 C198.57703613 109.74014648 199.21657227 108.62091797 199.87548828 107.46777344 C201.31117641 104.95529829 202.74707343 102.44294266 204.18310547 99.93066406 C207.83637163 93.53902205 211.48759973 87.14623874 215.1328125 80.75 C216.46318552 78.41646341 217.79393569 76.08314234 219.125 73.75 C219.62166168 72.87938431 219.62166168 72.87938431 220.12835693 71.99118042 C225.30395852 62.92325836 230.55354839 53.90042159 235.83666992 44.89477539 C240.72029808 36.54250649 245.45120264 28.10834486 250.11962891 19.6340332 C250.6563623 18.66554443 251.1930957 17.69705566 251.74609375 16.69921875 C252.43723267 15.44371216 252.43723267 15.44371216 253.14233398 14.1628418 C253.75536377 13.119104 254.36839355 12.07536621 255 11 C255.30697311 10.08704666 255.61394623 9.17409332 255.93022156 8.23347473 C257.52854553 4.5026207 258.80946629 2.55388725 262 0 C269.5609536 -2.12031721 277.89095218 -1.27503628 285.65234375 -1.07421875 C287.73015103 -1.05803542 289.80800312 -1.04681971 291.88586426 -1.04064941 C299.57042896 -0.98309402 307.25403215 -0.82951773 314.9375 -0.6875 C332.118125 -0.460625 349.29875 -0.23375 367 0 C367 65.34 367 130.68 367 198 C335.65 198 304.3 198 272 198 C271.505 139.095 271.505 139.095 271 79 C266.71 86.59 262.42 94.18 258 102 C255.40003843 106.56502073 252.79784545 111.12845177 250.1875 115.6875 C249.51897027 116.85648512 248.85051569 118.02551322 248.18212891 119.19458008 C245.10225622 124.58093944 242.01986415 129.96585115 238.93518066 135.34945679 C237.24766294 138.29501867 235.5611534 141.24115695 233.875 144.1875 C233.54437561 144.76506042 233.21375122 145.34262085 232.87310791 145.93768311 C227.50032657 155.3273129 222.19342034 164.75247554 216.95458984 174.2175293 C215.89460136 176.12350488 214.80091646 178.01108634 213.67626953 179.87963867 C212.35606547 182.33718719 211.51962151 184.36163893 210.67919922 186.97387695 C208.97569451 191.56553934 207.14872614 195.20854234 203 198 C194.42925842 200.78983126 185.26527216 200.63127529 176.33837891 200.55981445 C173.44913408 200.5407159 170.58888654 200.61605488 167.70458984 200.78540039 C144.78672489 202.11643709 144.78672489 202.11643709 137.0447998 195.45861816 C131.66437135 189.4660222 128.0147432 182.32794917 124.5425415 175.11297607 C122.44353914 170.87701606 119.9082856 167.02381675 117.25 163.125 C116.3872716 161.79644243 115.5274672 160.46597697 114.671875 159.1328125 C111.62464389 154.41533216 108.56221408 149.70776299 105.5 145 C100.10212829 136.70003819 94.71823359 128.3911502 89.34277344 120.07666016 C86.60968121 115.8498088 83.87473152 111.62415885 81.13989258 107.3984375 C78.75996355 103.72086933 76.38111602 100.04260786 74.00390625 96.36328125 C73.51148438 95.60144531 73.0190625 94.83960938 72.51171875 94.0546875 C71.5751736 92.60569312 70.63895296 91.15648893 69.703125 89.70703125 C69.27644531 89.04703125 68.84976563 88.38703125 68.41015625 87.70703125 C68.04027588 87.1344458 67.67039551 86.56186035 67.28930664 85.97192383 C65.54414707 83.30279794 63.76894709 80.65342064 62 78 C61.67 117.6 61.34 157.2 61 198 C40.87 198 20.74 198 0 198 C0 132.66 0 67.32 0 0 Z " fill="#1B4D9D" transform="translate(556,172)"/>
<path d="M0 0 C3.12601009 0.00314927 6.25105968 -0.02036628 9.37695312 -0.0456543 C47.29013033 -0.16500732 86.98620018 7.24156665 118.02539062 30.31567383 C116.89601412 33.70380333 116.48007677 33.93739729 113.55273438 35.66333008 C112.82530029 36.09943604 112.09786621 36.53554199 111.34838867 36.98486328 C110.56117432 37.44465576 109.77395996 37.90444824 108.96289062 38.37817383 C107.32137803 39.35063546 105.68077163 40.32462816 104.04101562 41.30004883 C103.20634766 41.79569336 102.37167969 42.29133789 101.51171875 42.80200195 C99.11767602 44.25949066 96.77884186 45.77623708 94.44726562 47.33129883 C93.73320557 47.80172607 93.01914551 48.27215332 92.28344727 48.75683594 C90.92698324 49.65522746 89.57933303 50.56710454 88.24194336 51.49365234 C83.71750588 54.45118507 83.71750588 54.45118507 80.61132812 53.84301758 C79.75796875 53.33899414 78.90460938 52.8349707 78.02539062 52.31567383 C76.71583717 51.65612784 75.40149659 51.00604921 74.08398438 50.36254883 C73.34615723 49.99347412 72.60833008 49.62439941 71.84814453 49.24414062 C46.30922581 36.62629409 17.45542292 30.56395179 -10.97460938 33.06567383 C-12.24691406 33.17613037 -12.24691406 33.17613037 -13.54492188 33.28881836 C-22.2277371 34.19894887 -33.58848236 36.01577035 -39.47460938 43.12817383 C-40.25118653 46.52569887 -39.87328736 48.96060937 -38.97460938 52.31567383 C-32.73438961 59.36108324 -21.27954812 61.16058066 -12.47460938 63.00317383 C-11.34168457 63.2488208 -10.20875977 63.49446777 -9.04150391 63.74755859 C-2.50448121 65.15951769 4.04134142 66.52893545 10.58738708 67.89834595 C90.53606888 84.63938245 90.53606888 84.63938245 115.02539062 105.31567383 C115.89164063 105.91379883 116.75789063 106.51192383 117.65039062 107.12817383 C127.78206061 116.45997513 132.34029295 128.81354043 133.02539062 142.31567383 C132.23274685 157.93736158 125.92261761 170.28978353 114.68554688 181.05786133 C78.3223423 211.92119796 20.11012121 213.97560284 -24.97460938 210.31567383 C-61.32815114 207.20816967 -102.12342768 197.53228428 -129.97460938 172.31567383 C-129.97460938 171.65567383 -129.97460938 170.99567383 -129.97460938 170.31567383 C-127.75421253 168.78682516 -125.53591724 167.38370442 -123.22460938 166.00317383 C-118.28274505 163.00486023 -113.39629533 159.95681707 -108.59960938 156.72973633 C-107.7059668 156.13201416 -106.81232422 155.53429199 -105.89160156 154.91845703 C-104.13064197 153.73637019 -102.37590723 152.54495044 -100.62792969 151.34375 C-99.41508301 150.53514526 -99.41508301 150.53514526 -98.17773438 149.71020508 C-97.46262695 149.22398682 -96.74751953 148.73776855 -96.01074219 148.23681641 C-93.97460938 147.31567383 -93.97460938 147.31567383 -91.86791992 147.57250977 C-89.17827982 148.62824986 -86.94821523 150.16177992 -84.53710938 151.75317383 C-52.67557801 171.96395092 -12.51785944 182.58462889 25.07226562 176.01098633 C35.15595452 173.65452258 35.15595452 173.65452258 43.02539062 167.31567383 C43.61118403 163.36156833 43.28408184 160.9494673 41.77539062 157.25317383 C36.24661286 150.13935398 25.8147874 147.7850343 17.53320312 145.43676758 C16.62120651 145.17754013 15.7092099 144.91831268 14.76957703 144.65122986 C5.21507131 141.99792579 -4.44741502 139.9627734 -14.16119385 137.9899292 C-99.80414328 120.53107911 -99.80414328 120.53107911 -117.97460938 94.31567383 C-124.81049935 81.54942735 -126.37572033 67.39157426 -122.41210938 53.31567383 C-116.86758103 38.07305061 -105.96050179 27.12261377 -91.97460938 19.31567383 C-90.93820312 18.73043945 -89.90179687 18.14520508 -88.83398438 17.54223633 C-76.26065722 10.84620861 -62.82244116 6.9257037 -48.91210938 4.06567383 C-47.81842041 3.83908081 -47.81842041 3.83908081 -46.70263672 3.60791016 C-31.19972856 0.64279083 -15.74614246 -0.03298773 0 0 Z " fill="#1B4D9D" transform="translate(1086.974609375,165.684326171875)"/>
<path d="M0 0 C0.9990033 0.06552063 1.99800659 0.13104126 3.02728271 0.19854736 C33.13073613 2.18571435 63.09150695 5.0361551 93 9 C94.30098633 9.14542236 95.60197266 9.29084473 96.94238281 9.44067383 C98.45590332 9.71754028 98.45590332 9.71754028 100 10 C100.33 10.66 100.66 11.32 101 12 C99.97453819 11.92816246 99.97453819 11.92816246 98.92835999 11.85487366 C92.35828314 11.39528764 85.7879614 10.93937995 79.21737003 10.48720646 C75.84261065 10.25484336 72.4679846 10.02084699 69.09350586 9.78442383 C38.24949026 7.62528516 7.59334746 6.81173419 -23.31982422 6.81469727 C-27.48393169 6.81477772 -31.64792722 6.80795216 -35.81201172 6.79418945 C-74.87511727 6.66732319 -113.85356083 7.79441975 -152.8125 10.75 C-153.9211441 10.83236908 -155.02978821 10.91473816 -156.17202759 10.99960327 C-253.09631957 18.25058356 -349.6122019 32.68840366 -444 56 C-445.577959 56.38754574 -447.15592112 56.77507878 -448.73388672 57.16259766 C-524.18709335 75.75861148 -597.90394339 100.3247728 -668 134 C-668.94939453 134.4547168 -669.89878906 134.90943359 -670.87695312 135.37792969 C-711.76052843 155.0631745 -750.11887234 179.62631659 -783 211 C-783.67289063 211.63164062 -784.34578125 212.26328125 -785.0390625 212.9140625 C-803.53191508 230.73137709 -822.62668559 258.48103958 -823.23828125 285.2109375 C-823.68044906 309.46699999 -817.47436953 328.24573693 -802 347 C-801.3915625 347.74894531 -800.783125 348.49789063 -800.15625 349.26953125 C-796.16788014 354.0102527 -791.76878568 358.05791987 -787 362 C-786.27296875 362.61488281 -785.5459375 363.22976563 -784.796875 363.86328125 C-774.35439709 372.49042774 -762.98843421 379.54780634 -751.25 386.25 C-749.8882666 387.02790894 -749.8882666 387.02790894 -748.49902344 387.8215332 C-744.03801344 390.34810487 -739.55702425 392.7113038 -734.9375 394.9375 C-728.52645162 398.35740638 -724.11003319 403.95302646 -719.44287109 409.390625 C-717.91055991 411.09976126 -716.2954324 412.68694288 -714.64453125 414.28125 C-712 417 -712 417 -712 419 C-721.37801516 417.41050591 -730.29033509 414.56317127 -739.3125 411.625 C-740.12413605 411.36155792 -740.93577209 411.09811584 -741.77200317 410.82669067 C-790.79276627 394.83783533 -851.06987009 369.869636 -875.97900391 321.08251953 C-886.20265337 299.21824876 -886.5281411 276.61998047 -878.375 254.0625 C-870.88962675 234.57778199 -858.31726742 218.90706217 -844 204 C-843.27079346 203.23792236 -843.27079346 203.23792236 -842.52685547 202.46044922 C-835.75296824 195.42187086 -828.72194877 189.00486994 -821 183 C-820.40654785 182.53013672 -819.8130957 182.06027344 -819.20166016 181.57617188 C-803.02204551 168.76986581 -785.89663997 157.2681723 -768 147 C-767.1352002 146.50064941 -766.27040039 146.00129883 -765.37939453 145.48681641 C-687.26466377 100.53337396 -600.84072896 72.11699653 -381 22 C-380.10526978 21.85044861 -379.21053955 21.70089722 -378.28869629 21.54681396 C-314.25004324 10.85829617 -249.59380287 3.74187188 -184.769104 0.15429688 C-182.03378127 0.00188232 -179.2988863 -0.15697219 -176.56396484 -0.31640625 C-118.04457223 -3.65873555 -58.49118518 -3.90724129 0 0 Z " fill="#1B4D9D" transform="translate(891,8)"/>
<path d="M0 0 C28.94269333 -0.68033755 57.08531426 3.21268746 84.65283203 12.06640625 C85.72307617 12.41010254 85.72307617 12.41010254 86.81494141 12.76074219 C98.4067905 16.58216995 108.98993681 22.17945394 119.65283203 28.06640625 C119.65283203 29.05640625 119.65283203 30.04640625 119.65283203 31.06640625 C118.0390625 32.53344727 118.0390625 32.53344727 115.77001953 34.0703125 C114.52297241 34.92774048 114.52297241 34.92774048 113.25073242 35.80249023 C112.35217529 36.40520752 111.45361816 37.0079248 110.52783203 37.62890625 C108.68984312 38.88041065 106.8526076 40.13302217 105.01611328 41.38671875 C104.10555176 42.00579102 103.19499023 42.62486328 102.25683594 43.26269531 C99.9254912 44.87754389 97.64610279 46.53714725 95.38330078 48.24609375 C94.75633301 48.71587646 94.12936523 49.18565918 93.48339844 49.66967773 C92.3325573 50.53813214 91.18976073 51.41738559 90.05664062 52.30883789 C86.26498189 55.13503348 86.26498189 55.13503348 83.25952148 54.7980957 C80.67781146 54.0734179 78.49024828 53.16198043 76.09814453 51.95703125 C74.81653442 51.32293335 74.81653442 51.32293335 73.5090332 50.67602539 C72.60773682 50.22735107 71.70644043 49.77867676 70.77783203 49.31640625 C62.21226901 45.16070478 53.86995972 41.55806934 44.65283203 39.06640625 C43.50041016 38.74929687 42.34798828 38.4321875 41.16064453 38.10546875 C17.41962624 32.63449413 -8.34070559 34.2524642 -29.34716797 47.06640625 C-41.72556658 55.76075765 -48.44333906 69.66537675 -51.59716797 84.19140625 C-55.38492754 106.31049282 -54.5641549 131.54299458 -41.92919922 150.86328125 C-32.00672341 164.68124757 -18.02032405 171.82237788 -1.35400391 174.67602539 C25.57768743 178.17259688 53.98710588 172.8828638 77.23681641 158.73583984 C81.98000483 155.95391464 81.98000483 155.95391464 85.12939453 156.48046875 C88.6815701 158.71295061 92.12632007 161.04788098 95.52783203 163.50390625 C96.26509521 164.03234131 97.0023584 164.56077637 97.76196289 165.10522461 C99.29446944 166.20553189 100.82529674 167.30818154 102.35449219 168.41308594 C104.59334745 170.02361577 106.84571517 171.61330558 109.10205078 173.19921875 C110.47357992 174.17516968 111.84469246 175.15170639 113.21533203 176.12890625 C113.86421387 176.58128662 114.5130957 177.03366699 115.18164062 177.49975586 C116.72790992 178.61500417 118.19920621 179.83283441 119.65283203 181.06640625 C119.65283203 182.05640625 119.65283203 183.04640625 119.65283203 184.06640625 C60.34956859 214.411193 -7.2474073 220.54613475 -71.14404297 200.28515625 C-102.06178594 189.89070159 -132.7392474 171.83715458 -147.78466797 141.81640625 C-157.4405592 121.79964269 -159.18528844 100.36358137 -152.09326172 79.140625 C-147.42142805 66.21811349 -139.7710745 55.94072008 -130.34716797 46.06640625 C-129.83154297 45.47601563 -129.31591797 44.885625 -128.78466797 44.27734375 C-99.82323732 12.44993819 -47.19522157 2.195392 -6.40576172 0.19140625 C-4.27070056 0.11926505 -2.13542452 0.06041559 0 0 Z " fill="#1B4D9D" transform="translate(410.34716796875,164.93359375)"/>
<path d="M0 0 C86.38829517 -1.00387133 173.18886147 3.99868751 257.80163574 22.28320312 C258.95908798 22.5330748 258.95908798 22.5330748 260.1399231 22.78799438 C268.28986076 24.56058908 276.36409632 26.44361706 284.30163574 29.03320312 C283.97163574 31.01320313 283.64163574 32.99320313 283.30163574 35.03320312 C282.21374756 34.82228027 281.12585937 34.61135742 280.00500488 34.39404297 C237.33140348 26.1528705 194.77531284 19.91662999 151.44958496 16.29748535 C148.47387798 16.04766351 145.49910817 15.78849527 142.52429199 15.52832031 C75.30325236 9.78832867 5.82344672 10.51883293 -61.41308594 15.7767334 C-64.88561291 16.04782095 -68.35881067 16.30892002 -71.83215332 16.56933594 C-180.13620496 24.77991965 -288.20543017 42.05439695 -524.69836426 120.03320312 C-525.84901367 120.54463867 -526.99966309 121.05607422 -528.18518066 121.58300781 C-572.02219118 141.20604557 -614.42913537 165.05487581 -649.69836426 198.03320312 C-650.63422363 198.90332031 -651.57008301 199.7734375 -652.53430176 200.66992188 C-672.71158986 219.86221908 -689.50397469 245.18878039 -690.79455566 273.72241211 C-691.12952575 295.38297774 -681.26480185 313.08053395 -667.51086426 329.22070312 C-663.36447951 334.09918393 -659.29699586 339.13042907 -656.69836426 345.03320312 C-657.02836426 345.69320313 -657.35836426 346.35320312 -657.69836426 347.03320312 C-681.35092979 331.00477791 -701.81161521 310.84180802 -709.07336426 282.34570312 C-713.29419224 255.87759431 -704.99569266 231.50599885 -689.69836426 210.03320312 C-677.87829514 194.27022873 -663.13489756 179.92018286 -647.31018066 168.23925781 C-645.73217796 167.0585045 -644.18925496 165.83132607 -642.64758301 164.60351562 C-627.42294619 152.49344872 -610.66248246 142.49198418 -593.69836426 133.03320312 C-592.77539551 132.51757812 -591.85242676 132.00195312 -590.90148926 131.47070312 C-576.42849266 123.42154994 -561.76924258 115.89953603 -546.69836426 109.03320312 C-545.08888916 108.299646 -545.08888916 108.299646 -543.44689941 107.55126953 C-490.75887816 83.74172524 -435.57106443 65.69990497 -379.69836426 51.03320312 C-378.87197449 50.81553284 -378.04558472 50.59786255 -377.19415283 50.37359619 C-279.50308628 24.68509396 -178.85091605 9.35663812 0 0 Z " fill="#EDCB03" transform="translate(804.6983642578125,32.966796875)"/>
<path d="M0 0 C1.65 0 3.3 0 5 0 C8.33333333 6.66666667 11.66666667 13.33333333 15 20 C18.63 13.4 22.26 6.8 26 0 C27.65 0 29.3 0 31 0 C34.37526257 22.59489033 34.37526257 22.59489033 35 33 C32.03 33 29.06 33 26 33 C25.34 27.06 24.68 21.12 24 15 C23.46890625 16.21558594 22.9378125 17.43117188 22.390625 18.68359375 C21.67785228 20.26857519 20.96426835 21.853192 20.25 23.4375 C19.90195312 24.23994141 19.55390625 25.04238281 19.1953125 25.86914062 C18.84726562 26.63291016 18.49921875 27.39667969 18.140625 28.18359375 C17.82641602 28.89056396 17.51220703 29.59753418 17.18847656 30.32592773 C16 32 16 32 12 33 C9.03 27.39 6.06 21.78 3 16 C2.34 21.61 1.68 27.22 1 33 C-0.98 33 -2.96 33 -5 33 C-1.83112696 9.00483611 -1.83112696 9.00483611 0 0 Z " fill="#1B4E9D" transform="translate(535,409)"/>
<path d="M0 0 C1.98 0 3.96 0 6 0 C6.2673999 0.57032959 6.5347998 1.14065918 6.81030273 1.72827148 C8.01714167 4.29906662 9.2272751 6.86829722 10.4375 9.4375 C10.85837891 10.33533203 11.27925781 11.23316406 11.71289062 12.15820312 C12.11572266 13.01220703 12.51855469 13.86621094 12.93359375 14.74609375 C13.4913147 15.93223267 13.4913147 15.93223267 14.06030273 17.14233398 C14.86104789 18.96497994 14.86104789 18.96497994 16 20 C16.2673999 19.42967041 16.5347998 18.85934082 16.81030273 18.27172852 C18.01714167 15.70093338 19.2272751 13.13170278 20.4375 10.5625 C21.06881836 9.21575195 21.06881836 9.21575195 21.71289062 7.84179688 C22.11572266 6.98779297 22.51855469 6.13378906 22.93359375 5.25390625 C23.30540771 4.46314697 23.67722168 3.6723877 24.06030273 2.85766602 C25 1 25 1 26 0 C28.5 -0.125 28.5 -0.125 31 0 C32.73996394 1.73996394 32.48050492 4.20029057 32.75390625 6.57421875 C32.88603516 7.71697266 33.01816406 8.85972656 33.15429688 10.03710938 C33.28900391 11.24173828 33.42371094 12.44636719 33.5625 13.6875 C33.70107422 14.87279297 33.83964844 16.05808594 33.98242188 17.27929688 C34.58319597 22.5560467 35.07907681 27.68295482 35 33 C28.84765625 33.09765625 28.84765625 33.09765625 27 33 C25.15119504 31.15119504 25.65386718 28.11435121 25.5 25.625 C25.28419953 22.14907092 25.1024508 19.3073524 24 16 C21.03 21.61 18.06 27.22 15 33 C11 32 11 32 9.81152344 30.32592773 C9.49731445 29.61895752 9.18310547 28.9119873 8.859375 28.18359375 C8.51132812 27.41982422 8.16328125 26.65605469 7.8046875 25.86914062 C7.45664062 25.06669922 7.10859375 24.26425781 6.75 23.4375 C6.38648438 22.63119141 6.02296875 21.82488281 5.6484375 20.99414062 C4.75253217 19.00193008 3.8745414 17.00168093 3 15 C2.34 20.94 1.68 26.88 1 33 C-0.98 33 -2.96 33 -5 33 C-3.35 22.11 -1.7 11.22 0 0 Z " fill="#1B4D9D" transform="translate(830,409)"/>
<path d="M0 0 C3.85705214 3.35395839 5.77633082 5.49197185 6.23828125 10.671875 C6.40064878 17.40585486 6.23703718 21.64795303 2 27 C-4.46260975 32.0118198 -10.01502726 32.78540715 -18 32 C-23.32069349 30.37912649 -27.01872429 27.77004114 -30 23 C-31.67838882 17.57058115 -31.76111388 12.08304852 -29.8125 6.75 C-22.83947248 -3.82976589 -11.04836402 -6.28240307 0 0 Z M-18.875 3.8125 C-22.41567376 9.12351064 -22.55112505 13.78292271 -22 20 C-20.45771534 24.11275909 -19.66328593 25.55780938 -16 28 C-12.02903551 28.61770559 -10.28567671 28.1593197 -6.75 26.1875 C-2.68115868 22.42917552 -2.23590288 17.30400985 -2 12 C-2.611685 7.71820497 -3.31364564 5.76479486 -6.1875 2.5625 C-11.02427871 -0.12459928 -15.12830171 -0.52977172 -18.875 3.8125 Z " fill="#1B4D9D" transform="translate(479,411)"/>
<path d="M0 0 C3.34125 -0.061875 6.6825 -0.12375 10.125 -0.1875 C11.68758545 -0.22846802 11.68758545 -0.22846802 13.28173828 -0.27026367 C18.61715381 -0.31798378 22.41457496 -0.05210542 27 3 C30.89246275 7.10286614 31.82706198 9.75180574 32.25 15.25 C31.9151542 20.27268697 31.04628402 24.79001326 27.53515625 28.58203125 C23.61801327 31.90537749 21.24913372 33.12800683 16.2109375 33.09765625 C15.36321777 33.09515869 14.51549805 33.09266113 13.64208984 33.09008789 C12.5639502 33.08098389 11.48581055 33.07187988 10.375 33.0625 C6.95125 33.041875 3.5275 33.02125 0 33 C0 22.11 0 11.22 0 0 Z M8 3 C8 11.91 8 20.82 8 30 C16.45051123 29.86635988 16.45051123 29.86635988 20 26.625 C23.68457237 21.78899877 23.51548408 16.85777368 23 11 C21.3002055 6.79524518 19.1574796 4.79527528 15 3 C12.69 3 10.38 3 8 3 Z " fill="#1B4D9D" transform="translate(1025,409)"/>
<path d="M0 0 C3.34125 -0.061875 6.6825 -0.12375 10.125 -0.1875 C11.68758545 -0.22846802 11.68758545 -0.22846802 13.28173828 -0.27026367 C19.89337542 -0.32939834 24.23355156 0.53262707 29.3125 5.0625 C32.05856595 9.84268888 32.62113415 14.83386488 31.55859375 20.25 C29.81852501 25.50003598 26.94682181 29.22680754 22.13769531 32.12060547 C19.67265858 33.1346601 17.89270797 33.22939369 15.234375 33.1953125 C14.43225586 33.19031738 13.63013672 33.18532227 12.80371094 33.18017578 C11.79598633 33.16196777 10.78826172 33.14375977 9.75 33.125 C6.5325 33.08375 3.315 33.0425 0 33 C0 22.11 0 11.22 0 0 Z M8 3 C8 11.91 8 20.82 8 30 C16.27106565 29.82496593 16.27106565 29.82496593 19.4375 27.25 C23.01802966 22.09403729 23.89399358 17.19254091 23 11 C21.37854397 7.81499709 20.02671736 5.77888904 17.1875 3.625 C14.25739445 2.67949202 14.25739445 2.67949202 8 3 Z " fill="#1B4D9D" transform="translate(894,409)"/>
<path d="M0 0 C3.50625 -0.061875 7.0125 -0.12375 10.625 -0.1875 C11.71893066 -0.21481201 12.81286133 -0.24212402 13.93994141 -0.27026367 C19.38395816 -0.3167041 23.32963636 -0.13602943 28 3 C31.84649044 6.84649044 32.31922316 10.18894575 32.5 15.4375 C32.2956829 21.22428759 31.70785574 24.53155847 28 29 C22.03905089 33.35306152 17.2935116 33.50500642 10.0625 33.25 C6.741875 33.1675 3.42125 33.085 0 33 C0 22.11 0 11.22 0 0 Z M9 3 C9 11.91 9 20.82 9 30 C17.46895974 29.88056597 17.46895974 29.88056597 21 26.5625 C23.84979374 22.44613126 24.25597878 17.90238152 24 13 C23.18837028 8.85682353 21.73254919 6.504645 18.1875 4.0625 C14.61130337 2.68377223 14.61130337 2.68377223 9 3 Z " fill="#1B4D9D" transform="translate(598,409)"/>
<path d="M0 0 C2.55167237 0.57340952 3.46066314 1.45697747 5.0859375 3.46875 C5.9609375 5.34375 5.9609375 5.34375 6.0859375 7.46875 C4.7734375 10.03125 4.7734375 10.03125 3.0859375 12.46875 C2.0959375 13.95375 2.0959375 13.95375 1.0859375 15.46875 C2.7359375 17.44875 4.3859375 19.42875 6.0859375 21.46875 C8.85594575 18.14788229 8.85594575 18.14788229 11.0859375 14.46875 C12.4059375 15.12875 13.7259375 15.78875 15.0859375 16.46875 C13.75105622 20.06266114 12.12571027 23.22365696 10.0859375 26.46875 C12.0659375 28.77875 14.0459375 31.08875 16.0859375 33.46875 C12.1259375 33.46875 8.1659375 33.46875 4.0859375 33.46875 C4.0859375 32.80875 4.0859375 32.14875 4.0859375 31.46875 C3.0959375 31.96375 2.1059375 32.45875 1.0859375 32.96875 C-3.15257439 34.77054655 -6.32444172 34.91290685 -10.9140625 34.46875 C-15.48350694 32.32986111 -15.48350694 32.32986111 -16.9140625 29.46875 C-17.2890625 26.15625 -17.2890625 26.15625 -16.9140625 22.46875 C-14.5390625 19.65625 -14.5390625 19.65625 -11.9140625 17.46875 C-11.2540625 16.80875 -10.5940625 16.14875 -9.9140625 15.46875 C-10.4090625 14.664375 -10.4090625 14.664375 -10.9140625 13.84375 C-12.21741439 10.74828927 -12.39038444 8.80300359 -11.9140625 5.46875 C-8.5629932 0.49619556 -5.63458586 -0.07692267 0 0 Z M-2.9140625 3.46875 C-4.13096783 5.23404595 -4.13096783 5.23404595 -4.9140625 7.46875 C-4.13096783 9.70345405 -4.13096783 9.70345405 -2.9140625 11.46875 C-1.9240625 11.13875 -0.9340625 10.80875 0.0859375 10.46875 C0.4159375 8.81875 0.7459375 7.16875 1.0859375 5.46875 C-0.2340625 4.80875 -1.5540625 4.14875 -2.9140625 3.46875 Z M-7.9140625 19.46875 C-9.74234464 22.97072699 -9.74234464 22.97072699 -9.1640625 26.71875 C-8.01803755 28.61171569 -8.01803755 28.61171569 -5.9140625 29.46875 C-3.91446238 29.508742 -1.91359008 29.51221799 0.0859375 29.46875 C-0.42146712 25.07124328 -2.99699564 22.59926078 -5.9140625 19.46875 C-6.5740625 19.46875 -7.2340625 19.46875 -7.9140625 19.46875 Z " fill="#1B4D9D" transform="translate(794.9140625,408.53125)"/>
<path d="M0 0 C3.0525 -0.0825 6.105 -0.165 9.25 -0.25 C10.20551758 -0.28641602 11.16103516 -0.32283203 12.14550781 -0.36035156 C18.35723112 -0.44184264 18.35723112 -0.44184264 21.57421875 1.76953125 C23.31685086 4.49567628 23.61102629 6.8087362 23.47265625 10.02734375 C22.68639284 13.30885632 20.55270688 14.95783449 18 17 C19.42749981 20.79049707 21.16236542 24.27122456 23.125 27.8125 C23.66382813 28.78832031 24.20265625 29.76414062 24.7578125 30.76953125 C25.16773438 31.50558594 25.57765625 32.24164063 26 33 C22.43024567 33.77572126 19.5299998 34.04516685 16 33 C12.94920228 29.33260871 10.94916602 25.33721711 9 21 C9 24.96 9 28.92 9 33 C6.03 33 3.06 33 0 33 C0 22.11 0 11.22 0 0 Z M9 3 C7.71387324 4.05978933 7.71387324 4.05978933 7.90234375 6.50390625 C7.91394531 7.51324219 7.92554688 8.52257812 7.9375 9.5625 C7.94652344 10.57441406 7.95554687 11.58632813 7.96484375 12.62890625 C7.97644531 13.41136719 7.98804688 14.19382812 8 15 C10.43717258 14.72965366 10.43717258 14.72965366 13 14 C15.14762184 10.77856724 15.561068 9.7404533 15 6 C12.95575462 4.02389614 11.8823175 3 9 3 Z " fill="#1B4D9D" transform="translate(490,409)"/>
<path d="M0 0 C4.57875 -0.1546875 4.57875 -0.1546875 9.25 -0.3125 C10.20551758 -0.35802002 11.16103516 -0.40354004 12.14550781 -0.45043945 C18.38161063 -0.55270309 18.38161063 -0.55270309 21.57421875 2.30078125 C23.46469887 5.87974498 23.64193503 8.00573756 23 12 C20.5 14.8125 20.5 14.8125 18 17 C18 20.32507901 20.2584226 22.82951789 22 25.5625 C26 31.88006757 26 31.88006757 26 33 C22.43024567 33.77572126 19.5299998 34.04516685 16 33 C12.94920228 29.33260871 10.94916602 25.33721711 9 21 C9 24.96 9 28.92 9 33 C6.03 33 3.06 33 0 33 C0 22.11 0 11.22 0 0 Z M8 3 C8 6.96 8 10.92 8 15 C9.65 14.67 11.3 14.34 13 14 C15.32038095 11.17431454 15.32038095 11.17431454 14.8125 7.9375 C14.26245502 4.70259047 14.26245502 4.70259047 11 3 C10.01 3 9.02 3 8 3 Z " fill="#1B4E9C" transform="translate(1123,409)"/>
<path d="M0 0 C3.0525 -0.0825 6.105 -0.165 9.25 -0.25 C10.20551758 -0.28641602 11.16103516 -0.32283203 12.14550781 -0.36035156 C18.39354991 -0.44231911 18.39354991 -0.44231911 21.5546875 1.86328125 C23.25643434 4.37910698 23.85180909 5.96208632 24 9 C22.9519123 13.00178939 21.47436993 14.79956571 18 17 C19.31535569 20.60765033 20.91963438 23.54991462 23.125 26.6875 C26 30.77990431 26 30.77990431 26 33 C22.7 33 19.4 33 16 33 C14.02 29.37 12.04 25.74 10 22 C9.67 25.63 9.34 29.26 9 33 C6.03 33 3.06 33 0 33 C0 22.11 0 11.22 0 0 Z M9 3 C9 6.96 9 10.92 9 15 C10.65 14.67 12.3 14.34 14 14 C15.4783226 11.04335481 15.06032783 8.25770263 15 5 C13.02 4.34 11.04 3.68 9 3 Z " fill="#1B4D9D" transform="translate(360,409)"/>
<path d="M0 0 C4.57875 -0.1546875 4.57875 -0.1546875 9.25 -0.3125 C10.20551758 -0.35802002 11.16103516 -0.40354004 12.14550781 -0.45043945 C18.38161063 -0.55270309 18.38161063 -0.55270309 21.57421875 2.30078125 C23.46469887 5.87974498 23.64193503 8.00573756 23 12 C20.5 14.8125 20.5 14.8125 18 17 C18 20.44235117 20.29586025 23.21759941 22 26.125 C22.3815625 26.78371094 22.763125 27.44242187 23.15625 28.12109375 C24.10032752 29.74962748 25.04967068 31.37510657 26 33 C22.49356398 33.62367439 19.47616884 33.87033736 16 33 C13.2669188 30.0006743 11.63898574 26.6892299 10 23 C9.67 22.34 9.34 21.68 9 21 C9 24.96 9 28.92 9 33 C6.03 33 3.06 33 0 33 C0 22.11 0 11.22 0 0 Z M8 3 C8 6.96 8 10.92 8 15 C9.65 14.67 11.3 14.34 13 14 C15.32038095 11.17431454 15.32038095 11.17431454 14.8125 7.9375 C14.26245502 4.70259047 14.26245502 4.70259047 11 3 C10.01 3 9.02 3 8 3 Z " fill="#1B4D9D" transform="translate(714,409)"/>
<path d="M0 0 C5.47510955 -0.40528046 5.47510955 -0.40528046 7.765625 1.36328125 C8.25546875 2.00652344 8.7453125 2.64976562 9.25 3.3125 C12.19777586 7.00218798 15.24395942 10.52429505 18.4375 14 C19.943125 15.65 21.44875 17.3 23 19 C23.33 12.73 23.66 6.46 24 0 C25.65 0 27.3 0 29 0 C29 10.89 29 21.78 29 33 C23 33 23 33 20.47265625 30.875 C19.67730469 29.92625 18.88195312 28.9775 18.0625 28 C17.20914062 27.00226563 16.35578125 26.00453125 15.4765625 24.9765625 C14.25066406 23.50316406 14.25066406 23.50316406 13 22 C11.64981628 20.4548439 10.29622451 18.91265119 8.9375 17.375 C8.38964844 16.74335938 7.84179688 16.11171875 7.27734375 15.4609375 C6.54167701 14.61953273 5.79030613 13.79030613 5 13 C4.67 19.6 4.34 26.2 4 33 C2.35 33 0.7 33 -1 33 C-1.18115526 21.96965735 -0.614687 11.00948323 0 0 Z " fill="#1B4D9D" transform="translate(274,409)"/>
<path d="M0 0 C1.65 0 3.3 0 5 0 C6.6965938 4.03603908 8.38706737 8.07457087 10.07202148 12.11547852 C10.64555792 13.48856843 11.22073402 14.86097471 11.79760742 16.23266602 C12.62855583 18.20930515 13.45349302 20.18836262 14.27734375 22.16796875 C14.77484131 23.35672607 15.27233887 24.5454834 15.78491211 25.77026367 C16.82845844 28.54403791 17.53581864 31.08263219 18 34 C15.03 34 12.06 34 9 34 C8.01 31.03 7.02 28.06 6 25 C2.37 25 -1.26 25 -5 25 C-5.66 27.97 -6.32 30.94 -7 34 C-8.98 34 -10.96 34 -13 34 C-10.6065288 26.50151713 -7.76336589 19.2325793 -4.8125 11.9375 C-4.11737305 10.20983398 -4.11737305 10.20983398 -3.40820312 8.44726562 C-2.2745028 5.63054626 -1.13838499 2.81482853 0 0 Z M0 13 C-1.485 16.96 -1.485 16.96 -3 21 C-0.69 21 1.62 21 4 21 C3.34 18.36 2.68 15.72 2 13 C1.34 13 0.68 13 0 13 Z " fill="#1B4D9D" transform="translate(692,408)"/>
<path d="M0 0 C2.38598633 0.05957031 2.38598633 0.05957031 5 1 C6.5456543 3.60449219 6.5456543 3.60449219 7.82421875 7.046875 C8.05655716 7.65509094 8.28889557 8.26330688 8.52827454 8.88995361 C9.26708258 10.83674171 9.97751203 12.79254078 10.6875 14.75 C11.17588055 16.05277979 11.66609557 17.35487346 12.15820312 18.65625 C13.06456321 21.05962319 13.95755955 23.46645101 14.8425293 25.87792969 C15.85328588 28.60426488 16.90593134 31.3062298 18 34 C14.7 34 11.4 34 8 34 C7.01 31.36 6.02 28.72 5 26 C1.7 26 -1.6 26 -5 26 C-5.99 28.64 -6.98 31.28 -8 34 C-9.98 34 -11.96 34 -14 34 C-10.86396751 25.46493721 -7.63902075 16.9756381 -4.1875 8.5625 C-3.88577881 7.82330322 -3.58405762 7.08410645 -3.27319336 6.32250977 C-1.12394681 1.12394681 -1.12394681 1.12394681 0 0 Z M-1 13 C-2.25664978 15.90600261 -3 17.79604584 -3 21 C-1.02 21 0.96 21 3 21 C2.43260132 16.87026372 2.43260132 16.87026372 1 13 C0.34 13 -0.32 13 -1 13 Z " fill="#1B4D9D" transform="translate(988,408)"/>
<path d="M0 0 C6.6 0 13.2 0 20 0 C19.67 1.65 19.34 3.3 19 5 C15.7 4.67 12.4 4.34 9 4 C9 6.97 9 9.94 9 13 C12.3 13 15.6 13 19 13 C19 14.65 19 16.3 19 18 C14.05 18.495 14.05 18.495 9 19 C9 22.3 9 25.6 9 29 C12.63 28.67 16.26 28.34 20 28 C20 29.65 20 31.3 20 33 C13.4 33 6.8 33 0 33 C0 22.11 0 11.22 0 0 Z " fill="#1B4D9D" transform="translate(1230,409)"/>
<path d="M0 0 C-0.33 1.98 -0.66 3.96 -1 6 C-1.99 6 -2.98 6 -4 6 C-4 5.34 -4 4.68 -4 4 C-5.41433206 3.7763663 -6.83167618 3.57173524 -8.25 3.375 C-9.43335938 3.20097656 -9.43335938 3.20097656 -10.640625 3.0234375 C-13.39324295 2.99609361 -14.72608485 3.47098809 -17 5 C-19.91365009 10.20294659 -20.56453702 14.07236124 -20 20 C-18.80151529 23.23590871 -17.94742121 25.28126667 -15.1875 27.375 C-10.03562012 28.84696568 -5.91392802 27.87197258 -1 26 C-1 27.65 -1 29.3 -1 31 C-6.91804375 33.66578547 -13.0851039 34.20308269 -19.3515625 32.27734375 C-24.16690646 30.05002173 -27.66630979 27.22308467 -29.75 22.1875 C-30.51173325 15.52233405 -30.27837346 10.99151011 -27 5 C-20.17538963 -3.3002018 -9.59399188 -4.03957553 0 0 Z " fill="#1B4D9E" transform="translate(245,410)"/>
<path d="M0 0 C-0.33 1.98 -0.66 3.96 -1 6 C-2.0209375 5.5359375 -2.0209375 5.5359375 -3.0625 5.0625 C-7.11810775 3.59557805 -10.96531294 2.54784732 -15.25 3.5 C-18.4885902 6.27593446 -19.70332189 9.91924407 -20.2890625 14.02734375 C-20.48847549 18.749806 -19.60856389 22.08715417 -17 26 C-13.84484001 28.39356965 -10.86853221 28.32237768 -7 28 C-5.65909241 27.34870203 -4.32407669 26.68486725 -3 26 C-2.01 26.33 -1.02 26.66 0 27 C-0.1875 28.875 -0.1875 28.875 -1 31 C-6.71864346 33.85932173 -13.24668354 34.15342782 -19.3515625 32.27734375 C-24.17949373 30.04419953 -27.71811314 27.20471715 -29.75 22.125 C-30.48681207 15.86209741 -30.1890492 10.50835771 -27 5 C-19.7931127 -3.04246844 -9.91064001 -4.17290106 0 0 Z " fill="#1B4D9D" transform="translate(679,410)"/>
<path d="M0 0 C-0.33 1.98 -0.66 3.96 -1 6 C-3 5 -5 4 -7 3 C-10.53884564 2.60679493 -12.54574283 2.77287141 -15.75 4.375 C-19.04222119 8.21592473 -19.6928223 12.0160418 -20 17 C-19.39376474 21.17628732 -18.60977425 23.26087969 -15.9375 26.5 C-10.71619444 29.16619858 -5.46098665 27.42406681 0 26 C-0.75 28.9375 -0.75 28.9375 -2 32 C-7.22713059 34.00684478 -14.04375737 33.85794769 -19.35546875 32.31640625 C-24.04541958 30.19580935 -26.95816625 27.84935516 -29 23 C-29.73841087 16.33732718 -30.15975194 9.59414916 -26 4 C-19.23950662 -2.57777735 -8.50815402 -4.53768214 0 0 Z " fill="#1B4D9D" transform="translate(1226,410)"/>
<path d="M0 0 C-0.33 1.98 -0.66 3.96 -1 6 C-3 5 -5 4 -7 3 C-10.69243155 2.58972983 -12.51957129 2.71611031 -15.75 4.625 C-18.88932939 7.93873658 -20.04107566 10.63814943 -19.9609375 15.24609375 C-19.60871326 19.21840049 -19.21105218 22.59727684 -17 26 C-14.04171768 28.03695287 -12.00329056 28.18539917 -8.5 27.6875 C-7.7471875 27.58824219 -6.994375 27.48898437 -6.21875 27.38671875 C-4.11178366 27.01948342 -2.06621118 26.54942434 0 26 C-0.1875 28.375 -0.1875 28.375 -1 31 C-6.68005439 33.92002796 -13.25731541 34.09420679 -19.3515625 32.3125 C-24.04998897 30.20084766 -26.69013577 27.71212303 -29 23 C-30.48919169 17.36234576 -29.97569036 12.42327004 -28 7 C-25.12229404 2.42952583 -22.30272704 0.08209918 -17.25 -1.53515625 C-11.38417948 -2.74701848 -5.38668875 -2.87290067 0 0 Z " fill="#1B4D9D" transform="translate(974,410)"/>
<path d="M0 0 C6.6 0 13.2 0 20 0 C20 1.65 20 3.3 20 5 C14.555 4.505 14.555 4.505 9 4 C9 6.97 9 9.94 9 13 C12.3 13 15.6 13 19 13 C19 14.65 19 16.3 19 18 C15.7 18 12.4 18 9 18 C9 21.63 9 25.26 9 29 C12.63 28.67 16.26 28.34 20 28 C20 29.65 20 31.3 20 33 C13.4 33 6.8 33 0 33 C0 22.11 0 11.22 0 0 Z " fill="#1B4E9C" transform="translate(574,409)"/>
<path d="M0 0 C6.27 0 12.54 0 19 0 C19 1.65 19 3.3 19 5 C15.7 4.67 12.4 4.34 9 4 C9 6.97 9 9.94 9 13 C12.3 13 15.6 13 19 13 C19 14.65 19 16.3 19 18 C15.37 18 11.74 18 8 18 C8.33 21.63 8.66 25.26 9 29 C12.3 28.67 15.6 28.34 19 28 C19 29.65 19 31.3 19 33 C12.73 33 6.46 33 0 33 C0 22.11 0 11.22 0 0 Z " fill="#1C4E9D" transform="translate(336,409)"/>
<path d="M0 0 C6.6 0 13.2 0 20 0 C20 1.65 20 3.3 20 5 C14.555 4.505 14.555 4.505 9 4 C9.33 6.97 9.66 9.94 10 13 C13.3 13 16.6 13 20 13 C20 14.65 20 16.3 20 18 C16.37 18 12.74 18 9 18 C9 21.63 9 25.26 9 29 C12.63 28.67 16.26 28.34 20 28 C20 29.65 20 31.3 20 33 C13.4 33 6.8 33 0 33 C0 22.11 0 11.22 0 0 Z " fill="#1B4E9C" transform="translate(742,409)"/>
<path d="M0 0 C3.3 0 6.6 0 10 0 C10.49371094 1.35996094 10.98742188 2.71992188 11.49609375 4.12109375 C12.14308327 5.89328244 12.79022663 7.66541497 13.4375 9.4375 C13.76298828 10.33533203 14.08847656 11.23316406 14.42382812 12.15820312 C14.73642578 13.01220703 15.04902344 13.86621094 15.37109375 14.74609375 C15.65911865 15.53685303 15.94714355 16.3276123 16.24389648 17.14233398 C16.85248918 18.98194412 16.85248918 18.98194412 18 20 C20.64 13.4 23.28 6.8 26 0 C27.65 0 29.3 0 31 0 C30.3227011 4.1143381 29.03379361 7.74251954 27.49609375 11.61328125 C27.13198143 12.53490303 27.13198143 12.53490303 26.76051331 13.47514343 C25.9901095 15.42251559 25.21390549 17.36751397 24.4375 19.3125 C23.91172353 20.63851895 23.38632887 21.96468936 22.86132812 23.29101562 C21.5786321 26.52910808 20.29072651 29.76509885 19 33 C17.02 33 15.04 33 13 33 C9.8162767 25.4692699 6.73327791 17.89989524 3.6875 10.3125 C3.32591797 9.41499023 2.96433594 8.51748047 2.59179688 7.59277344 C2.25599609 6.75391602 1.92019531 5.91505859 1.57421875 5.05078125 C1.27088623 4.29450439 0.96755371 3.53822754 0.6550293 2.7590332 C0 1 0 1 0 0 Z " fill="#1B4D9D" transform="translate(1148,409)"/>
<path d="M0 0 C6.27 0 12.54 0 19 0 C19 1.65 19 3.3 19 5 C15.37 4.67 11.74 4.34 8 4 C8.33 6.97 8.66 9.94 9 13 C12.3 13 15.6 13 19 13 C19 14.65 19 16.3 19 18 C15.37 18 11.74 18 8 18 C8 21.63 8 25.26 8 29 C11.63 28.67 15.26 28.34 19 28 C19 29.65 19 31.3 19 33 C12.73 33 6.46 33 0 33 C0 22.11 0 11.22 0 0 Z " fill="#1B4D9D" transform="translate(870,409)"/>
<path d="M0 0 C0.495 0.33 0.99 0.66 1.5 1 C1.17 2.98 0.84 4.96 0.5 7 C-0.49 7 -1.48 7 -2.5 7 C-3.16 6.01 -3.82 5.02 -4.5 4 C-7.08380177 3.74969023 -7.08380177 3.74969023 -9.5 4 C-10.0534764 6.07553648 -10.5 7.84365964 -10.5 10 C-9.79875 10.2475 -9.0975 10.495 -8.375 10.75 C-4.25008686 12.5434405 -0.6843812 14.8156188 2.5 18 C3.0689878 21.3839801 3.03256913 24.61286032 2.5 28 C-0.02676039 31.34625024 -1.53933542 32.67977847 -5.5 34 C-6.97586615 34.11687338 -8.45706612 34.17501742 -9.9375 34.1875 C-11.08025391 34.20876953 -11.08025391 34.20876953 -12.24609375 34.23046875 C-14.73347315 33.97612666 -16.34808106 33.24017196 -18.5 32 C-18.17 29.69 -17.84 27.38 -17.5 25 C-16.51 25 -15.52 25 -14.5 25 C-14.17 25.99 -13.84 26.98 -13.5 28 C-11.1739143 28.38063221 -8.83944736 28.71269945 -6.5 29 C-5.25433027 27.95105072 -5.25433027 27.95105072 -5.1328125 25.63671875 C-5.21931751 22.8294117 -5.21931751 22.8294117 -7.6171875 21.26953125 C-8.98230469 20.54830078 -8.98230469 20.54830078 -10.375 19.8125 C-15.40092879 17.09907121 -15.40092879 17.09907121 -17.5 15 C-18.55693658 10.33186345 -18.85347766 7.23625978 -16.5 3 C-12.44106156 -1.94131636 -5.68580062 -2.27432025 0 0 Z " fill="#1B4E9D" transform="translate(1091.5,409)"/>
<path d="M0 0 C6.27 0 12.54 0 19 0 C19 1.65 19 3.3 19 5 C15.37 4.67 11.74 4.34 8 4 C8.33 6.97 8.66 9.94 9 13 C12.3 13 15.6 13 19 13 C19 14.65 19 16.3 19 18 C15.37 18 11.74 18 8 18 C8 21.63 8 25.26 8 29 C11.63 28.67 15.26 28.34 19 28 C19 29.65 19 31.3 19 33 C12.73 33 6.46 33 0 33 C0 22.11 0 11.22 0 0 Z " fill="#1C4E9C" transform="translate(1099,409)"/>
<path d="M0 0 C6.27 0 12.54 0 19 0 C19 1.65 19 3.3 19 5 C15.37 4.67 11.74 4.34 8 4 C8.33 6.97 8.66 9.94 9 13 C12.3 13 15.6 13 19 13 C19 14.65 19 16.3 19 18 C15.37 18 11.74 18 8 18 C8 21.63 8 25.26 8 29 C11.63 28.67 15.26 28.34 19 28 C19 29.65 19 31.3 19 33 C12.73 33 6.46 33 0 33 C0 22.11 0 11.22 0 0 Z " fill="#1C4D9D" transform="translate(249,409)"/>
<path d="M0 0 C0.495 0.33 0.99 0.66 1.5 1 C1.17 2.98 0.84 4.96 0.5 7 C-3.375 5.125 -3.375 5.125 -4.5 4 C-6.16617115 3.95936168 -7.83388095 3.957279 -9.5 4 C-9.83 5.32 -10.16 6.64 -10.5 8 C-9.34371094 8.83144531 -9.34371094 8.83144531 -8.1640625 9.6796875 C-7.16117187 10.40414063 -6.15828125 11.12859375 -5.125 11.875 C-4.12726563 12.59429687 -3.12953125 13.31359375 -2.1015625 14.0546875 C2.30292366 17.34813211 2.30292366 17.34813211 3.3125 20.6875 C3.55573244 24.98460643 2.66677278 27.2955175 0.5 31 C-4.07787367 34.37890676 -8.98079007 34.77268939 -14.5 34 C-16.7734375 32.98046875 -16.7734375 32.98046875 -18.5 32 C-17.51 28.535 -17.51 28.535 -16.5 25 C-15.84 25 -15.18 25 -14.5 25 C-14.17 26.32 -13.84 27.64 -13.5 29 C-10.53 29 -7.56 29 -4.5 29 C-4.20829092 26.1982633 -4.20829092 26.1982633 -5.5 23 C-7.95013757 21.20438072 -10.46111111 19.80016786 -13.15234375 18.39453125 C-15.5 17 -15.5 17 -17.5 14 C-18.23446576 9.43948005 -18.09262059 5.98088926 -15.6875 2 C-11.39519452 -1.92439358 -5.25730521 -2.10292208 0 0 Z " fill="#1B4D9D" transform="translate(405.5,409)"/>
<path d="M0 0 C0.495 0.33 0.99 0.66 1.5 1 C1.17 2.98 0.84 4.96 0.5 7 C-3.375 5.125 -3.375 5.125 -4.5 4 C-6.16617115 3.95936168 -7.83388095 3.957279 -9.5 4 C-10.0534764 6.07553648 -10.5 7.84365964 -10.5 10 C-9.654375 10.20625 -8.80875 10.4125 -7.9375 10.625 C-3.64936812 12.34025275 -0.59211577 14.57658611 2.5 18 C3.86235232 21.20553488 3.5753084 22.66453533 2.8125 26.0625 C1.42235288 29.17378164 0.12396905 30.85311623 -2.5 33 C-5.27052181 33.92350727 -7.06688758 34.16329585 -9.9375 34.1875 C-11.08025391 34.20876953 -11.08025391 34.20876953 -12.24609375 34.23046875 C-14.73347315 33.97612666 -16.34808106 33.24017196 -18.5 32 C-17.51 28.535 -17.51 28.535 -16.5 25 C-15.84 25 -15.18 25 -14.5 25 C-14.17 26.32 -13.84 27.64 -13.5 29 C-11.19 29 -8.88 29 -6.5 29 C-5.84 27.68 -5.18 26.36 -4.5 25 C-6.97342462 22.21739731 -9.39771876 20.45957079 -12.625 18.6875 C-15.76566949 16.76787585 -16.45938066 16.08123869 -18.1875 12.625 C-18.57588764 8.11970334 -17.80721064 5.87015979 -15.5 2 C-11.06773967 -1.92571629 -5.44376863 -2.17750745 0 0 Z " fill="#1B4D9D" transform="translate(1270.5,409)"/>
<path d="M0 0 C6.27 0 12.54 0 19 0 C19 1.65 19 3.3 19 5 C15.7 4.67 12.4 4.34 9 4 C9 6.97 9 9.94 9 13 C12.3 13 15.6 13 19 13 C19 14.65 19 16.3 19 18 C15.37 18 11.74 18 8 18 C8.33 19.65 8.66 21.3 9 23 C9.06459042 24.76977761 9.08611065 26.54170152 9.0625 28.3125 C9.05347656 29.19550781 9.04445313 30.07851563 9.03515625 30.98828125 C9.02355469 31.65214844 9.01195312 32.31601562 9 33 C6.03 33 3.06 33 0 33 C0 22.11 0 11.22 0 0 Z " fill="#1C4E9C" transform="translate(426,409)"/>
<path d="M0 0 C8.58 0 17.16 0 26 0 C26 1.65 26 3.3 26 5 C23.03 4.67 20.06 4.34 17 4 C17 13.57 17 23.14 17 33 C14.36 33 11.72 33 9 33 C9 23.43 9 13.86 9 4 C4.545 4.495 4.545 4.495 0 5 C0 3.35 0 1.7 0 0 Z " fill="#1C4E9C" transform="translate(307,409)"/>
<path d="M0 0 C2.97 0 5.94 0 9 0 C9 10.89 9 21.78 9 33 C6.03 33 3.06 33 0 33 C0 22.11 0 11.22 0 0 Z " fill="#1B4F9C" transform="translate(1183,409)"/>
<path d="M0 0 C2.97 0 5.94 0 9 0 C9 10.89 9 21.78 9 33 C6.03 33 3.06 33 0 33 C0 22.11 0 11.22 0 0 Z " fill="#1B4D9C" transform="translate(931,409)"/>
<path d="M0 0 C2.97 0 5.94 0 9 0 C9 10.89 9 21.78 9 33 C6.03 33 3.06 33 0 33 C0 22.11 0 11.22 0 0 Z " fill="#1C4E9C" transform="translate(1009,409)"/>
<path d="M0 0 C2.97 0 5.94 0 9 0 C9 10.89 9 21.78 9 33 C6.03 33 3.06 33 0 33 C0 22.11 0 11.22 0 0 Z " fill="#1B4D9D" transform="translate(636,409)"/>
</svg>
