<?xml version="1.0" encoding="UTF-8"?>
<svg version="1.1" xmlns="http://www.w3.org/2000/svg" width="732" height="184">
<path d="M0 0 C3.22857551 2.24000283 6.22132481 4.44264961 8 8 C8.33 5.03 8.66 2.06 9 -1 C14.28 -1 19.56 -1 25 -1 C25.06058594 1.34738281 25.12117188 3.69476563 25.18359375 6.11328125 C25.24540412 8.38699498 25.30878311 10.66065995 25.37231445 12.93432617 C25.41562305 14.51436015 25.45730106 16.09443969 25.49731445 17.67456055 C25.55511583 19.94594048 25.6187816 22.21709189 25.68359375 24.48828125 C25.70030624 25.19463211 25.71701874 25.90098297 25.73423767 26.6287384 C25.8259747 29.6664824 26.03207686 32.09623058 27 35 C34.00981818 37.05820088 34.00981818 37.05820088 41 35.8125 C44.19030213 34.17531082 44.19030213 34.17531082 46 31 C46.23965047 28.53615097 46.37242 26.17459424 46.4140625 23.70703125 C46.43342865 23.00100266 46.4527948 22.29497406 46.4727478 21.56755066 C46.53245224 19.31598939 46.5788914 17.06437672 46.625 14.8125 C46.66318829 13.28448311 46.70224052 11.75648755 46.7421875 10.22851562 C46.83977081 6.48578908 46.91940802 2.74328537 47 -1 C51.95 -1 56.9 -1 62 -1 C62.07438973 4.30188966 62.12871511 9.60347268 62.16479492 14.90576172 C62.1798424 16.70789892 62.2002853 18.50999973 62.22631836 20.31201172 C62.26288021 22.90862021 62.27976681 25.50474275 62.29296875 28.1015625 C62.30845261 28.9017984 62.32393646 29.7020343 62.33988953 30.52651978 C62.3416108 36.30227915 61.32245299 40.58305749 57.17578125 44.8984375 C55.45052083 46.265625 53.72526042 47.6328125 52 49 C55.3 49.33 58.6 49.66 62 50 C60.6149309 54.53949398 58.75548334 58.65015412 56.55859375 62.83984375 C55.88471512 64.16402608 55.21223489 65.4889208 54.54101562 66.81445312 C53.49810078 68.86789717 52.44871882 70.91622932 51.37426758 72.95336914 C46.69897193 81.84934246 44.17036781 89.06896507 44.05493164 99.18579102 C44 102 44 102 43 103 C40.4672235 103.07320163 37.96896082 103.09227569 35.4375 103.0625 C34.12402588 103.0514624 32.81055176 103.0404248 31.45727539 103.02905273 C29.74592407 103.01467163 29.74592407 103.01467163 28 103 C28.03202515 101.67923462 28.03202515 101.67923462 28.06469727 100.33178711 C27.87789313 88.83320514 24.19257568 80.65193785 18.9375 70.5625 C15.0084375 62.8590625 15.0084375 62.8590625 11 55 C10.67 70.84 10.34 86.68 10 103 C-4 103 -4 103 -7.67578125 100.54296875 C-9.04174805 98.93457031 -9.04174805 98.93457031 -10.3125 97.1875 C-10.79050049 96.60452148 -11.26850098 96.02154297 -11.76098633 95.42089844 C-12.73405584 94.22591785 -13.68941531 93.01628434 -14.62597656 91.79248047 C-15.94909937 90.06640235 -17.31559866 88.39064165 -18.7109375 86.72265625 C-20.27571192 84.84443332 -21.82596596 82.95393073 -23.35546875 81.046875 C-24.83818757 79.12569477 -24.83818757 79.12569477 -26 78 C-26.33 86.25 -26.66 94.5 -27 103 C-32.28 103 -37.56 103 -43 103 C-43 85.51 -43 68.02 -43 50 C-38.545 49.505 -38.545 49.505 -34 49 C-35.3303125 48.0409375 -35.3303125 48.0409375 -36.6875 47.0625 C-41.40187293 43.16364656 -44.08903907 37.73288278 -46 32 C-46.90526041 21.3308594 -45.97942721 13.69959297 -39.49609375 4.9765625 C-29.5000823 -6.44056865 -12.75819169 -6.56936715 0 0 Z M-28 17 C-30.25130445 20.62166368 -30.28053645 23.80260254 -29.60546875 28.00390625 C-28.29319698 32.33016997 -25.48614449 35.00923701 -21.75 37.5 C-17.6440189 38.24654202 -13.88310195 37.49070393 -10 36 C-8.2107723 34.63387188 -8.2107723 34.63387188 -7 33 C-7 32.34 -7 31.68 -7 31 C-1.72 31 3.56 31 9 31 C9 26.71 9 22.42 9 18 C3.72 18 -1.56 18 -7 18 C-7.66 16.68 -8.32 15.36 -9 14 C-15.85391211 9.47410445 -22.79701035 11.28940161 -28 17 Z M9 37 C8.649375 37.86625 8.29875 38.7325 7.9375 39.625 C5.84112138 43.27675631 3.6840787 45.23057146 0.42578125 47.80078125 C-0.27998047 48.39439453 -0.27998047 48.39439453 -1 49 C-1 49.33 -1 49.66 -1 50 C6.26 50 13.52 50 21 50 C18.82289175 47.82289175 16.64131819 45.65006653 14.4375 43.5 C12.40758464 41.41803552 10.66906635 39.37183114 9 37 Z M-7.81933594 51.49389648 C-11.26230807 52.29296514 -14.73576308 52.10285784 -18.25 52.0625 C-18.99507812 52.05798828 -19.74015625 52.05347656 -20.5078125 52.04882812 C-22.3385764 52.03709246 -24.16929873 52.0191585 -26 52 C-22.95597827 56.87938777 -19.45169459 60.9582472 -15.5 65.125 C-14.93152344 65.73214844 -14.36304688 66.33929688 -13.77734375 66.96484375 C-10.89831428 70.03090993 -7.97563802 73.02436198 -5 76 C-5 67.75 -5 59.5 -5 51 C-6.15335209 50.95633524 -6.15335209 50.95633524 -7.81933594 51.49389648 Z M26 52 C28.78440536 58.80632421 31.61156832 65.47413157 35 72 C38.24517263 69.28404014 39.85894696 65.72581997 41.6875 62 C42.00783203 61.3709375 42.32816406 60.741875 42.65820312 60.09375 C44.09311902 57.20556107 45 55.26753139 45 52 C38.73 52 32.46 52 26 52 Z " fill="#125EAB" transform="translate(63,62)"/>
<path d="M0 0 C8.91 0 17.82 0 27 0 C27 45.54 27 91.08 27 138 C30.3 138 33.6 138 37 138 C37 105 37 72 37 38 C45.91 38 54.82 38 64 38 C64 71 64 104 64 138 C70.6 138 77.2 138 84 138 C84 139.32 84 140.64 84 142 C75.75 142 67.5 142 59 142 C59 109.33 59 76.66 59 43 C53.06 43 47.12 43 41 43 C41 75.67 41 108.34 41 142 C34.73 142 28.46 142 22 142 C22 96.46 22 50.92 22 4 C16.06 4 10.12 4 4 4 C4 49.54 4 95.08 4 142 C-2.27 142 -8.54 142 -15 142 C-15 125.83 -15 109.66 -15 93 C-20.94 93 -26.88 93 -33 93 C-33 109.17 -33 125.34 -33 142 C-41.25 142 -49.5 142 -58 142 C-58 140.68 -58 139.36 -58 138 C-51.07 138 -44.14 138 -37 138 C-37 121.83 -37 105.66 -37 89 C-28.42 89 -19.84 89 -11 89 C-11 105.17 -11 121.34 -11 138 C-7.37 138 -3.74 138 0 138 C0 92.46 0 46.92 0 0 Z " fill="#125EAB" transform="translate(233,22)"/>
<path d="M0 0 C4.95 0 9.9 0 15 0 C19.29 11.55 23.58 23.1 28 35 C28.33 23.45 28.66 11.9 29 0 C32.63 0 36.26 0 40 0 C40 21.12 40 42.24 40 64 C35.71 64 31.42 64 27 64 C23.23635421 55.18425311 19.87233816 46.28923298 16.6875 37.25 C14.3671875 30.69125 14.3671875 30.69125 12 24 C12 37.2 12 50.4 12 64 C8.04 64 4.08 64 0 64 C0 42.88 0 21.76 0 0 Z " fill="#125EAB" transform="translate(424,101)"/>
<path d="M0 0 C27 0 27 0 33 3 C37.20780788 7.32469143 38.77029113 11.47320248 39.3125 17.4375 C38.84945518 22.71621095 36.9128807 26.63067896 34 31 C33.34 31 32.68 31 32 31 C32 31.66 32 32.32 32 33 C32.99 33.33 33.98 33.66 35 34 C38.851683 39.7775245 38.27140231 47.68452526 38.5625 54.375 C38.60568359 55.30183594 38.64886719 56.22867188 38.69335938 57.18359375 C38.79876096 59.45558351 38.89981743 61.72777413 39 64 C34.71 64 30.42 64 26 64 C24.87740225 57.26441352 24.87740225 57.26441352 24.71875 53.765625 C24.68136719 53.02699219 24.64398438 52.28835937 24.60546875 51.52734375 C24.53443416 49.99352285 24.46413618 48.45966769 24.39453125 46.92578125 C24.27587901 42.83066449 24.27587901 42.83066449 23 39 C19.7 38.34 16.4 37.68 13 37 C13 45.91 13 54.82 13 64 C8.71 64 4.42 64 0 64 C0 42.88 0 21.76 0 0 Z M13 10 C13 15.61 13 21.22 13 27 C19.87884005 27.20234184 19.87884005 27.20234184 25 24 C26.58770472 20.82459056 26.41100302 17.45809441 26 14 C24.45661909 11.82523599 23.36334727 11.18167363 21 10 C18.36 10 15.72 10 13 10 Z " fill="#125EAB" transform="translate(382,22)"/>
<path d="M0 0 C28 0 28 0 34 4 C37.99146555 8.63873023 39.26734724 12.97973615 39 19 C37.97617192 23.87686048 36.40655032 28.26901631 33 32 C33.639375 32.845625 34.27875 33.69125 34.9375 34.5625 C39.16642931 40.15560006 38.12843509 48.26791163 38.0625 54.9375 C38.05798828 55.81212891 38.05347656 56.68675781 38.04882812 57.58789062 C38.03714834 59.72529047 38.01921689 61.86265463 38 64 C34.04 64 30.08 64 26 64 C25.89042969 62.37449219 25.78085937 60.74898437 25.66796875 59.07421875 C25.5085312 56.94525855 25.34833557 54.81635504 25.1875 52.6875 C25.11724609 51.61564453 25.04699219 50.54378906 24.97460938 49.43945312 C24.89404297 48.41142578 24.81347656 47.38339844 24.73046875 46.32421875 C24.66239014 45.37635498 24.59431152 44.42849121 24.52416992 43.4519043 C24.1476634 40.6040068 24.1476634 40.6040068 21 38 C18.03 37.67 15.06 37.34 12 37 C12 45.91 12 54.82 12 64 C8.04 64 4.08 64 0 64 C0 42.88 0 21.76 0 0 Z M12 10 C12 15.61 12 21.22 12 27 C19.15672446 27.0267017 19.15672446 27.0267017 25 24 C26.60682055 20.7863589 26.46150508 17.48539659 26 14 C24.79504081 11.29441138 24.79504081 11.29441138 22 10 C18.59261423 9.6795562 15.43812659 9.81904597 12 10 Z " fill="#125EAB" transform="translate(568,101)"/>
<path d="M0 0 C4.40596539 3.25091315 6.15419827 7.93269368 7.4375 13.125 C7.4375 14.445 7.4375 15.765 7.4375 17.125 C3.1475 17.125 -1.1425 17.125 -5.5625 17.125 C-6.2225 15.145 -6.8825 13.165 -7.5625 11.125 C-10.23288895 9.50871195 -11.65391587 8.92983482 -14.7265625 9.58984375 C-15.33242188 9.76644531 -15.93828125 9.94304688 -16.5625 10.125 C-19.36474968 17.24738462 -19.88965635 24.18339422 -19.9375 31.75 C-19.95103516 32.63196045 -19.96457031 33.5139209 -19.97851562 34.42260742 C-19.94146664 39.93724615 -19.73951587 47.94798413 -15.5625 52.125 C-12.10437831 52.45838596 -12.10437831 52.45838596 -8.5625 52.125 C-6.37507986 48.8438698 -6.01807194 46.79415644 -5.4375 42.9375 C-5.26992188 41.85082031 -5.10234375 40.76414063 -4.9296875 39.64453125 C-4.80851562 38.81308594 -4.68734375 37.98164062 -4.5625 37.125 C-7.5325 37.125 -10.5025 37.125 -13.5625 37.125 C-13.5625 33.495 -13.5625 29.865 -13.5625 26.125 C-6.6325 26.125 0.2975 26.125 7.4375 26.125 C7.4375 38.335 7.4375 50.545 7.4375 63.125 C4.1375 63.125 0.8375 63.125 -2.5625 63.125 C-3.0575 61.64 -3.0575 61.64 -3.5625 60.125 C-3.995625 60.599375 -4.42875 61.07375 -4.875 61.5625 C-8.37344289 64.80179897 -12.56154556 64.39875705 -17.05859375 64.33984375 C-21.68669354 63.9427369 -24.47804333 62.17847219 -27.75 59 C-35.40743199 46.85372856 -34.97988449 30.29696435 -32.375 16.625 C-30.6302322 9.53284201 -28.51999764 3.56747224 -22.0625 -0.375 C-15.24773556 -3.25320544 -6.61346119 -3.47361233 0 0 Z " fill="#125EAB" transform="translate(361.5625,22.875)"/>
<path d="M0 0 C27.88888889 0 27.88888889 0 34.3125 6.25 C41.5278147 18.00829062 41.53354459 32.94854709 38.75 46.125 C36.87862329 53.19950354 34.29567854 57.90048839 28 62 C21 64 21 64 0 64 C0 42.88 0 21.76 0 0 Z M12 10 C12 24.52 12 39.04 12 54 C19.4933465 53.71011368 19.4933465 53.71011368 22.875 50.9375 C27.171002 44.998909 27.34276752 38.0947069 27.3125 31 C27.32861328 30.24460937 27.34472656 29.48921875 27.36132812 28.7109375 C27.36609087 23.16709792 26.3231366 19.04887768 24 14 C20.63559456 10.01089951 20.63559456 10.01089951 12 10 Z " fill="#125EAB" transform="translate(483,22)"/>
<path d="M0 0 C3.96 0 7.92 0 12 0 C12.01458252 1.42787842 12.02916504 2.85575684 12.04418945 4.3269043 C12.10220226 9.62924119 12.17943566 14.93115475 12.26245117 20.2331543 C12.29568634 22.52702967 12.32372264 24.82098654 12.34643555 27.11499023 C12.38000674 30.41425273 12.43232535 33.7127693 12.48828125 37.01171875 C12.49467117 38.03585373 12.5010611 39.05998871 12.50764465 40.11515808 C12.54168661 47.11186978 12.54168661 47.11186978 16 53 C19.42744229 53.3607834 21.88122044 53.55938978 25 52 C25.96380077 49.1085977 26.15112024 47.17346077 26.20532227 44.16137695 C26.22526749 43.1805867 26.24521271 42.19979645 26.26576233 41.18928528 C26.28247482 40.13295395 26.29918732 39.07662262 26.31640625 37.98828125 C26.33718735 36.90491989 26.35796844 35.82155853 26.37937927 34.70536804 C26.44481797 31.24114384 26.50373353 27.7768432 26.5625 24.3125 C26.60569061 21.96548685 26.64930507 19.61848147 26.69335938 17.27148438 C26.80049361 11.51440146 26.90177727 5.75724158 27 0 C31.29 0 35.58 0 40 0 C40.07447946 6.81353397 40.12875808 13.62682787 40.16479492 20.44067383 C40.17982729 22.75582002 40.2002587 25.070938 40.22631836 27.38598633 C40.26294596 30.72484324 40.27978241 34.0633217 40.29296875 37.40234375 C40.30845261 38.42770737 40.32393646 39.45307098 40.33988953 40.50950623 C40.34140732 47.07613922 40.10612631 54.33717732 35.65397644 59.58726501 C29.6699104 64.87177765 23.92966762 65.44698248 16.234375 65.31640625 C10.3210508 64.73792888 6.61624793 62.69913244 2.5625 58.4375 C0.21654354 54.77780793 -0.12362269 52.04515338 -0.11352539 47.79418945 C-0.11344986 46.73331619 -0.11337433 45.67244293 -0.11329651 44.579422 C-0.10813522 43.43559555 -0.10297394 42.2917691 -0.09765625 41.11328125 C-0.0962413 39.94113571 -0.09482635 38.76899017 -0.09336853 37.56132507 C-0.08776388 33.81169093 -0.07521056 30.06211615 -0.0625 26.3125 C-0.0574856 23.77278732 -0.05292259 21.2330737 -0.04882812 18.69335938 C-0.03779294 12.46221665 -0.02052515 6.2311184 0 0 Z " fill="#125EAB" transform="translate(535,22)"/>
<path d="M0 0 C5.28 0 10.56 0 16 0 C17.31699231 3.95097692 18.46659532 7.66208867 19.42041016 11.68237305 C19.68052887 12.77337814 19.94064758 13.86438324 20.20864868 14.9884491 C20.48268524 16.15112808 20.7567218 17.31380707 21.0390625 18.51171875 C21.32478119 19.71689651 21.61049988 20.92207428 21.90487671 22.16377258 C22.65989692 25.3530349 23.41217007 28.54293098 24.16363525 31.73303223 C24.62575992 33.69071923 25.09027027 35.64782408 25.55566406 37.60473633 C26.44947601 41.3645757 27.33871724 45.12546647 28.2265625 48.88671875 C28.50464752 50.05547043 28.78273254 51.22422211 29.06924438 52.4283905 C29.44996597 54.05071342 29.44996597 54.05071342 29.83837891 55.70581055 C30.0632901 56.65812057 30.28820129 57.6104306 30.51992798 58.59159851 C31 61 31 61 31 64 C26.71 64 22.42 64 18 64 C15 52.5 15 52.5 15 48 C10.38 48 5.76 48 1 48 C0.87625 49.340625 0.7525 50.68125 0.625 52.0625 C0.16879285 56.24109306 -0.72374319 60.00106201 -2 64 C-5.96 64 -9.92 64 -14 64 C-13.35878981 56.77601281 -11.97043224 49.90611675 -10.3125 42.8515625 C-10.04993408 41.71721771 -9.78736816 40.58287292 -9.5168457 39.41415405 C-8.96446862 37.0318945 -8.40965893 34.65019783 -7.85253906 32.26904297 C-6.9980689 28.61674582 -6.15073024 24.96285135 -5.3046875 21.30859375 C-4.76603531 18.98948799 -4.2269868 16.67047425 -3.6875 14.3515625 C-3.43331299 13.25784332 -3.17912598 12.16412415 -2.91723633 11.03726196 C-2.68029053 10.02545868 -2.44334473 9.0136554 -2.19921875 7.97119141 C-1.99127686 7.08122467 -1.78333496 6.19125793 -1.5690918 5.27432251 C-1 3 -1 3 0 0 Z M7 17 C6.49395076 19.39469729 5.99500483 21.79051717 5.5 24.1875 C5.35691406 24.86103516 5.21382812 25.53457031 5.06640625 26.22851562 C4.31930158 29.87509793 3.82647718 33.27648957 4 37 C6.64 37 9.28 37 12 37 C11.45136137 30.2142064 10.45732062 23.64990964 9 17 C8.34 17 7.68 17 7 17 Z " fill="#125EAB" transform="translate(597,22)"/>
<path d="M0 0 C5.28 0 10.56 0 16 0 C19.28406441 11.9711967 22.18444829 24.01329617 25.00146484 36.10229492 C25.75926014 39.35221351 26.5219969 42.60094668 27.28515625 45.84960938 C27.7685206 47.91659854 28.25160421 49.98365337 28.734375 52.05078125 C28.96243835 53.02147049 29.19050171 53.99215973 29.42547607 54.99226379 C29.63279358 55.8846727 29.84011108 56.7770816 30.05371094 57.6965332 C30.32873444 58.87443169 30.32873444 58.87443169 30.60931396 60.0761261 C31 62 31 62 31 64 C26.71 64 22.42 64 18 64 C15 52.5 15 52.5 15 48 C10.38 48 5.76 48 1 48 C0.690625 50.26875 0.38125 52.5375 0.0625 54.875 C-0.875 61.75 -0.875 61.75 -2 64 C-5.96 64 -9.92 64 -14 64 C-13.35878981 56.77601281 -11.97043224 49.90611675 -10.3125 42.8515625 C-10.04993408 41.71721771 -9.78736816 40.58287292 -9.5168457 39.41415405 C-8.96446862 37.0318945 -8.40965893 34.65019783 -7.85253906 32.26904297 C-6.9980689 28.61674582 -6.15073024 24.96285135 -5.3046875 21.30859375 C-4.76603531 18.98948799 -4.2269868 16.67047425 -3.6875 14.3515625 C-3.43331299 13.25784332 -3.17912598 12.16412415 -2.91723633 11.03726196 C-2.68029053 10.02545868 -2.44334473 9.0136554 -2.19921875 7.97119141 C-1.99127686 7.08122467 -1.78333496 6.19125793 -1.5690918 5.27432251 C-1 3 -1 3 0 0 Z M7 16 C6.49432271 18.56149628 5.99529868 21.12399465 5.5 23.6875 C5.35691406 24.40873047 5.21382813 25.12996094 5.06640625 25.87304688 C4.34428113 29.63841359 3.8175024 33.14473813 4 37 C6.64 37 9.28 37 12 37 C11.2223134 26.87552108 11.2223134 26.87552108 9 17 C8.34 16.67 7.68 16.34 7 16 Z " fill="#125EAB" transform="translate(443,22)"/>
<path d="M0 0 C11.22 0 22.44 0 34 0 C34 3.63 34 7.26 34 11 C27.07 11 20.14 11 13 11 C13 15.62 13 20.24 13 25 C19.6 25 26.2 25 33 25 C33 28.63 33 32.26 33 36 C26.4 36 19.8 36 13 36 C13 41.61 13 47.22 13 53 C20.26 53 27.52 53 35 53 C35 60 35 60 34 64 C22.78 64 11.56 64 0 64 C0 42.88 0 21.76 0 0 Z " fill="#125EAB" transform="translate(676,22)"/>
<path d="M0 0 C10.89 0 21.78 0 33 0 C33 3.63 33 7.26 33 11 C26.07 11 19.14 11 12 11 C12 15.62 12 20.24 12 25 C18.6 25 25.2 25 32 25 C32 28.63 32 32.26 32 36 C25.4 36 18.8 36 12 36 C12 41.61 12 47.22 12 53 C19.59 53 27.18 53 35 53 C34 63 34 63 33 64 C30.55196233 64.0884283 28.13155206 64.11535972 25.68359375 64.09765625 C25.03588013 64.09664917 24.3881665 64.09564209 23.7208252 64.09460449 C21.29303221 64.08935843 18.86526439 64.07539725 16.4375 64.0625 C8.3009375 64.0315625 8.3009375 64.0315625 0 64 C0 42.88 0 21.76 0 0 Z " fill="#125EAB" transform="translate(523,101)"/>
<path d="M0 0 C10.89 0 21.78 0 33 0 C33 3.63 33 7.26 33 11 C26.07 11 19.14 11 12 11 C12 15.62 12 20.24 12 25 C18.6 25 25.2 25 32 25 C32 28.63 32 32.26 32 36 C25.4 36 18.8 36 12 36 C12 41.61 12 47.22 12 53 C19.59 53 27.18 53 35 53 C34 63 34 63 33 64 C30.55196233 64.0884283 28.13155206 64.11535972 25.68359375 64.09765625 C25.03588013 64.09664917 24.3881665 64.09564209 23.7208252 64.09460449 C21.29303221 64.08935843 18.86526439 64.07539725 16.4375 64.0625 C8.3009375 64.0315625 8.3009375 64.0315625 0 64 C0 42.88 0 21.76 0 0 Z " fill="#125EAB" transform="translate(379,101)"/>
<path d="M0 0 C1.30453125 -0.03738281 2.6090625 -0.07476562 3.953125 -0.11328125 C8.32893942 0.37742222 10.36798714 1.55126777 13.75 4.3125 C17.91543363 9.82888508 18.87940105 13.45424411 18.75 20.3125 C14.79 20.3125 10.83 20.3125 6.75 20.3125 C6.358125 19.013125 5.96625 17.71375 5.5625 16.375 C4.35442741 12.97173392 4.35442741 12.97173392 1.3125 11.125 C-2.01086279 11.36817289 -3.0362928 11.79345388 -5.25 14.3125 C-7.19616113 20.50546275 -7.58592138 26.22319978 -7.5625 32.6875 C-7.58666992 34.01007813 -7.58666992 34.01007813 -7.61132812 35.359375 C-7.61600357 41.73667533 -6.56525136 47.35508359 -4.25 53.3125 C-3.14203039 54.62370653 -3.14203039 54.62370653 -0.375 54.6875 C2.89903023 54.66363787 2.89903023 54.66363787 4.5625 52.0625 C5.90134114 49.16595581 5.90134114 49.16595581 6.75 45.3125 C10.71 45.3125 14.67 45.3125 18.75 45.3125 C18.34813047 51.84287988 17.61707435 55.98220833 13.75 61.3125 C7.69132994 66.10894713 2.29563455 66.99032819 -5.25 66.3125 C-11.26175322 64.58029992 -15.22205144 61.7536318 -18.25 56.3125 C-23.16884769 42.24015756 -23.46978993 23.06818073 -17.3359375 9.25390625 C-13.03002459 2.23491813 -7.80880557 0.14545814 0 0 Z " fill="#125EAB" transform="translate(349.25,99.6875)"/>
<path d="M0 0 C12.87 0 25.74 0 39 0 C39 3.63 39 7.26 39 11 C34.71 11 30.42 11 26 11 C26 28.49 26 45.98 26 64 C21.71 64 17.42 64 13 64 C13 46.51 13 29.02 13 11 C8.71 11 4.42 11 0 11 C0 7.37 0 3.74 0 0 Z " fill="#125EAB" transform="translate(474,101)"/>
<path d="M0 0 C13.2 0 26.4 0 40 0 C40 3.63 40 7.26 40 11 C35.38 11 30.76 11 26 11 C26 28.49 26 45.98 26 64 C22.04 64 18.08 64 14 64 C14 46.51 14 29.02 14 11 C9.38 11 4.76 11 0 11 C0 7.37 0 3.74 0 0 Z " fill="#125EAB" transform="translate(627,22)"/>
</svg>
