<?xml version="1.0" encoding="UTF-8"?>
<svg version="1.1" xmlns="http://www.w3.org/2000/svg" width="582" height="370">
<path d="M0 0 C1.06009277 0.01027222 1.06009277 0.01027222 2.14160156 0.02075195 C7.92428423 0.19887566 11.43831913 1.1027463 16.125 4.4375 C18.625 7.1875 18.625 7.1875 20.125 9.4375 C20.455 7.1275 20.785 4.8175 21.125 2.4375 C25.415 2.4375 29.705 2.4375 34.125 2.4375 C34.18107422 5.05751953 34.18107422 5.05751953 34.23828125 7.73046875 C34.30394406 10.02866719 34.37039129 12.32684332 34.4375 14.625 C34.47133789 16.35073242 34.47133789 16.35073242 34.50585938 18.11132812 C34.54130859 19.22314453 34.57675781 20.33496094 34.61328125 21.48046875 C34.63946533 22.50164795 34.66564941 23.52282715 34.69262695 24.57495117 C35.19116754 27.87556572 36.10023114 29.79476496 38.125 32.4375 C43.54813577 33.97234975 45.54780419 33.29656527 51.125 31.4375 C51.455 21.8675 51.785 12.2975 52.125 2.4375 C56.415 2.4375 60.705 2.4375 65.125 2.4375 C65.19951364 6.7424777 65.25377223 11.04710734 65.28979492 15.35253906 C65.30482196 16.81517075 65.32524955 18.27775782 65.35131836 19.74023438 C65.38797267 21.8503728 65.40478676 23.95991226 65.41796875 26.0703125 C65.4336792 27.33762207 65.44938965 28.60493164 65.46557617 29.91064453 C64.96635794 35.08032662 63.08752005 39.04105424 59.125 42.4375 C61.105 42.7675 63.085 43.0975 65.125 43.4375 C64.47491638 46.40572748 63.50914866 48.96442994 62.19921875 51.703125 C61.81443359 52.51136719 61.42964844 53.31960937 61.03320312 54.15234375 C60.63037109 54.98894531 60.22753906 55.82554687 59.8125 56.6875 C59.42126953 57.50863281 59.03003906 58.32976562 58.62695312 59.17578125 C55.40545387 65.91795714 55.40545387 65.91795714 53.96630859 68.58398438 C51.62053736 72.95320713 50.58542779 76.38723315 50.375 81.4375 C50.2925 83.4175 50.21 85.3975 50.125 87.4375 C45.835 87.4375 41.545 87.4375 37.125 87.4375 C37.125 85.766875 37.125 84.09625 37.125 82.375 C36.56079147 75.25081473 33.76138295 70.20996787 30.23046875 64.17578125 C27.91977262 60.07311669 26.03735476 55.7402982 24.125 51.4375 C23.795 63.3175 23.465 75.1975 23.125 87.4375 C18.835 87.4375 14.545 87.4375 10.125 87.4375 C9.135 86.4475 8.145 85.4575 7.125 84.4375 C7.125 83.7775 7.125 83.1175 7.125 82.4375 C6.465 82.4375 5.805 82.4375 5.125 82.4375 C3.60759024 80.73846977 2.159872 78.97677277 0.75 77.1875 C-2.01225145 73.69542291 -4.71124149 70.60125851 -7.875 67.4375 C-8.205 74.0375 -8.535 80.6375 -8.875 87.4375 C-12.835 87.4375 -16.795 87.4375 -20.875 87.4375 C-20.875 72.9175 -20.875 58.3975 -20.875 43.4375 C-18.4 42.9425 -18.4 42.9425 -15.875 42.4375 C-16.638125 41.7775 -17.40125 41.1175 -18.1875 40.4375 C-22.92044444 35.61043451 -24.06395142 30.11133351 -24.375 23.5625 C-24.17774333 16.14189212 -21.690146 10.252646 -16.4375 5 C-10.86999994 1.60518289 -6.57447582 -0.09723255 0 0 Z M-8.875 17.4375 C-10.47316475 20.63382951 -10.24205452 23.96049267 -9.875 27.4375 C-8.53069181 30.69214089 -7.58246804 32.01684333 -4.5625 33.8125 C-0.31151207 34.80110184 2.77314182 34.25572995 6.5 32 C7.03625 31.484375 7.5725 30.96875 8.125 30.4375 C8.125 29.7775 8.125 29.1175 8.125 28.4375 C12.415 28.4375 16.705 28.4375 21.125 28.4375 C21.125 25.1375 21.125 21.8375 21.125 18.4375 C16.835 18.4375 12.545 18.4375 8.125 18.4375 C7.465 17.1175 6.805 15.7975 6.125 14.4375 C0.40627892 11.57813946 -4.65270087 13.08725241 -8.875 17.4375 Z M21.125 34.4375 C20.7125 35.18 20.3 35.9225 19.875 36.6875 C18.125 39.4375 18.125 39.4375 14.125 43.4375 C19.075 43.4375 24.025 43.4375 29.125 43.4375 C28.17625 42.138125 27.2275 40.83875 26.25 39.5 C25.71632813 38.76910156 25.18265625 38.03820312 24.6328125 37.28515625 C23.24487896 35.32651765 23.24487896 35.32651765 21.125 34.4375 Z M-6.875 46.4375 C-5.885 48.0875 -4.895 49.7375 -3.875 51.4375 C-3.215 51.4375 -2.555 51.4375 -1.875 51.4375 C-1.606875 52.015 -1.33875 52.5925 -1.0625 53.1875 C0.15429189 55.49300043 1.42833879 57.45806192 3.125 59.4375 C3.785 59.4375 4.445 59.4375 5.125 59.4375 C5.41375 60.076875 5.7025 60.71625 6 61.375 C6.95323451 63.58956079 6.95323451 63.58956079 9.125 64.4375 C9.125 58.4975 9.125 52.5575 9.125 46.4375 C3.845 46.4375 -1.435 46.4375 -6.875 46.4375 Z M35.125 46.4375 C37.765 51.7175 40.405 56.9975 43.125 62.4375 C45.11341412 59.45487882 46.66171732 56.46109325 48.25 53.25 C48.78882812 52.16332031 49.32765625 51.07664062 49.8828125 49.95703125 C50.49769531 48.70986328 50.49769531 48.70986328 51.125 47.4375 C47.66277385 46.37026039 44.48460734 46.33576514 40.875 46.375 C38.02875 46.4059375 38.02875 46.4059375 35.125 46.4375 Z " fill="#FFFFFF" transform="translate(31.875,162.5625)"/>
<path d="M0 0 C7.26 0 14.52 0 22 0 C22 37.29 22 74.58 22 113 C24.64 113 27.28 113 30 113 C30 85.94 30 58.88 30 31 C37.26 31 44.52 31 52 31 C53.73141493 32.73141493 53.11977579 34.95750044 53.12442017 37.26478577 C53.11902725 38.39550758 53.11902725 38.39550758 53.11352539 39.54907227 C53.11367142 40.33925751 53.11381744 41.12944275 53.1139679 41.943573 C53.11326857 44.56787822 53.10547527 47.19211336 53.09765625 49.81640625 C53.09579214 51.63101665 53.0943682 53.44562756 53.09336853 55.26023865 C53.08954279 60.0459023 53.07971204 64.8315358 53.06866455 69.6171875 C53.05845163 74.49674064 53.05387117 79.37629864 53.04882812 84.25585938 C53.03808981 93.83725499 53.02049257 103.41862028 53 113 C58.28 113 63.56 113 69 113 C69 114.32 69 115.64 69 117 C62.4 117 55.8 117 49 117 C49 89.94 49 62.88 49 35 C44.05 35 39.1 35 34 35 C34 62.06 34 89.12 34 117 C28.72 117 23.44 117 18 117 C18 79.71 18 42.42 18 4 C13.38 4 8.76 4 4 4 C4 41.29 4 78.58 4 117 C-1.61 117 -7.22 117 -13 117 C-13 103.8 -13 90.6 -13 77 C-17.62 77 -22.24 77 -27 77 C-27 90.2 -27 103.4 -27 117 C-33.93 117 -40.86 117 -48 117 C-48 115.68 -48 114.36 -48 113 C-42.39 113 -36.78 113 -31 113 C-31 99.8 -31 86.6 -31 73 C-23.41 73 -15.82 73 -8 73 C-8 86.2 -8 99.4 -8 113 C-5.36 113 -2.72 113 0 113 C0 75.71 0 38.42 0 0 Z " fill="#FFFFFF" transform="translate(185,133)"/>
<path d="M0 0 C3.96 0 7.92 0 12 0 C12.37511719 1.07636719 12.75023437 2.15273437 13.13671875 3.26171875 C13.65354242 4.7370154 14.17047553 6.21227371 14.6875 7.6875 C14.93177734 8.38939453 15.17605469 9.09128906 15.42773438 9.81445312 C17.81257318 16.60671556 20.41157491 23.27009476 23 30 C23 20.1 23 10.2 23 0 C26.3 0 29.6 0 33 0 C33 17.49 33 34.98 33 53 C22 53 22 53 20 51.01953125 C19.67 50.02308594 19.34 49.02664062 19 48 C18.7628125 47.38044434 18.525625 46.76088867 18.28125 46.12255859 C17.46892608 43.99274682 16.72934425 41.84704275 16 39.6875 C15.50079943 38.23279834 15.00080184 36.77836993 14.5 35.32421875 C14.2834375 34.68572998 14.066875 34.04724121 13.84375 33.3894043 C12.61423779 29.90756517 11.29653984 26.45743957 10 23 C10 32.9 10 42.8 10 53 C6.7 53 3.4 53 0 53 C0 35.51 0 18.02 0 0 Z " fill="#FFFFFF" transform="translate(342,197)"/>
<path d="M0 0 C4.72277465 4.36856655 5.87528609 7.94041815 6.5 14.3125 C2.87 14.3125 -0.76 14.3125 -4.5 14.3125 C-5.16 12.6625 -5.82 11.0125 -6.5 9.3125 C-8.95884972 8.51337384 -10.93090798 8.3125 -13.5 8.3125 C-16.75716314 19.50899831 -16.75716314 32.11600169 -13.5 43.3125 C-11.19 43.3125 -8.88 43.3125 -6.5 43.3125 C-6.17 42.075 -5.84 40.8375 -5.5 39.5625 C-5.314375 38.86640625 -5.12875 38.1703125 -4.9375 37.453125 C-4.36650651 35.02348139 -4.36650651 35.02348139 -4.5 31.3125 C-6.48 31.3125 -8.46 31.3125 -10.5 31.3125 C-10.5 28.0125 -10.5 24.7125 -10.5 21.3125 C-4.89 21.3125 0.72 21.3125 6.5 21.3125 C6.5 31.5425 6.5 41.7725 6.5 52.3125 C3.86 52.3125 1.22 52.3125 -1.5 52.3125 C-1.83 51.6525 -2.16 50.9925 -2.5 50.3125 C-3.469375 50.828125 -4.43875 51.34375 -5.4375 51.875 C-9.88902921 53.81005249 -13.84174855 53.33712557 -18.5 52.3125 C-19.16 51.9825 -19.82 51.6525 -20.5 51.3125 C-20.5 50.6525 -20.5 49.9925 -20.5 49.3125 C-21.16 49.3125 -21.82 49.3125 -22.5 49.3125 C-23.14757625 47.87578432 -23.79299453 46.43809584 -24.4375 45 C-24.79714844 44.19949219 -25.15679687 43.39898437 -25.52734375 42.57421875 C-29.75345752 32.74723132 -29.2321658 18.07881966 -25.3125 8.1875 C-23.41587225 4.12931872 -21.16664251 1.87857951 -17.5 -0.6875 C-11.65323045 -2.63642318 -5.56047738 -2.68094445 0 0 Z " fill="#FFFFFF" transform="translate(290.5,133.6875)"/>
<path d="M0 0 C23.57723577 0 23.57723577 0 28.64453125 4.44140625 C31.16146773 7.33552053 31.99718123 10.40175894 32.00390625 14.21484375 C31.6316055 18.78122643 30.95664669 22.33375811 28 26 C27.34 26 26.68 26 26 26 C26 26.66 26 27.32 26 28 C26.66 28 27.32 28 28 28 C30.06258176 31.09387264 30.32514254 32.24371558 30.6328125 35.81640625 C30.75849609 37.20956055 30.75849609 37.20956055 30.88671875 38.63085938 C30.96535156 39.59830078 31.04398437 40.56574219 31.125 41.5625 C31.21136719 42.53380859 31.29773438 43.50511719 31.38671875 44.50585938 C32 51.50992063 32 51.50992063 32 54 C28.37 53.67 24.74 53.34 21 53 C20.95101563 51.97519531 20.90203125 50.95039063 20.8515625 49.89453125 C20.77648929 48.5338294 20.70094345 47.17315356 20.625 45.8125 C20.5940625 45.13896484 20.563125 44.46542969 20.53125 43.77148438 C20.27563302 38.06490295 20.27563302 38.06490295 18 33 C15.36 32.34 12.72 31.68 10 31 C10 38.26 10 45.52 10 53 C6.7 53 3.4 53 0 53 C0 35.51 0 18.02 0 0 Z M10 9 C10 13.62 10 18.24 10 23 C11.258125 22.87625 12.51625 22.7525 13.8125 22.625 C14.52019531 22.55539063 15.22789062 22.48578125 15.95703125 22.4140625 C18.29988142 22.07334609 18.29988142 22.07334609 21 20 C21.73186003 14.59891865 21.73186003 14.59891865 19.4375 10 C16.35974576 8.55718425 16.35974576 8.55718425 10 9 Z " fill="#FFFFFF" transform="translate(460,197)"/>
<path d="M0 0 C22 0 22 0 28 3 C31.07607571 8.12679284 31.96106081 13.07177224 31 19 C29.89356485 21.88343706 28.56204985 24.31522682 27 27 C27.4844458 27.55268555 27.9688916 28.10537109 28.46801758 28.67480469 C30.26857859 31.40764024 30.41741158 32.9589585 30.51171875 36.203125 C30.56489258 37.67265625 30.56489258 37.67265625 30.61914062 39.171875 C30.64169922 40.18765625 30.66425781 41.2034375 30.6875 42.25 C30.73874023 43.796875 30.73874023 43.796875 30.79101562 45.375 C30.87337215 47.91628699 30.93836593 50.45812601 31 53 C27.7 53 24.4 53 21 53 C19.76546 48.06184001 19.62903452 43.2865936 19.37890625 38.21484375 C19.22893056 34.85211007 19.22893056 34.85211007 17 32 C14.69 31.67 12.38 31.34 10 31 C10 38.26 10 45.52 10 53 C6.7 53 3.4 53 0 53 C0 35.51 0 18.02 0 0 Z M10 9 C10 13.29 10 17.58 10 22 C15.00593542 22.41953254 15.00593542 22.41953254 19.4375 20.375 C21.44814771 17.31881548 21.53520313 15.59350675 21 12 C20.12870693 9.96117905 20.12870693 9.96117905 18 9 C15.28121737 8.75868793 12.7407889 8.8652071 10 9 Z " fill="#FFFFFF" transform="translate(308,133)"/>
<path d="M0 0 C22.27586207 0 22.27586207 0 28.25 4.8125 C34.48105963 12.60132453 33.43253043 25.10457831 32.75 34.5625 C32.00468303 40.48362928 29.84663379 45.15336621 25.625 49.375 C17.01474277 54.70515924 10.91351935 53 0 53 C0 35.51 0 18.02 0 0 Z M10 9 C10 20.55 10 32.1 10 44 C15.47825081 44.4472136 15.47825081 44.4472136 18 43 C18 42.34 18 41.68 18 41 C18.66 41 19.32 41 20 41 C21.67591796 35.89909098 22.31149698 31.32361012 22.25 25.9375 C22.25773437 25.25623047 22.26546875 24.57496094 22.2734375 23.87304688 C22.25400135 18.81478786 21.54559236 14.44040899 18.8125 10.125 C16.36429581 8.38474333 16.36429581 8.38474333 10 9 Z " fill="#FFFFFF" transform="translate(390,133)"/>
<path d="M0 0 C3.63 0 7.26 0 11 0 C11.33 14.19 11.66 28.38 12 43 C14.97 43.33 17.94 43.66 21 44 C21.89442465 41.31672606 22.14581687 39.65850261 22.20532227 36.89575195 C22.22526749 36.07512772 22.24521271 35.25450348 22.26576233 34.40901184 C22.28247482 33.52767075 22.29918732 32.64632965 22.31640625 31.73828125 C22.33718735 30.83248825 22.35796844 29.92669525 22.37937927 28.99345398 C22.44476558 26.09987984 22.50370904 23.20621493 22.5625 20.3125 C22.6056956 18.35090207 22.64931023 16.38931332 22.69335938 14.42773438 C22.80043582 9.61858261 22.90173414 4.80933954 23 0 C26.3 0 29.6 0 33 0 C33.07432654 6.01397009 33.12868588 12.02767096 33.16479492 18.04199219 C33.17985288 20.08663594 33.20030357 22.13124755 33.22631836 24.17578125 C33.26283311 27.11987252 33.27975651 30.06353557 33.29296875 33.0078125 C33.30845261 33.9174173 33.32393646 34.82702209 33.33988953 35.76419067 C33.34125289 40.94129038 32.91241879 44.5298161 30 49 C25.165712 53.36265015 20.31048377 54.08013313 14 54 C8.44193143 53.08884122 5.51212253 51.41523975 2 47 C-0.27734983 41.78572921 -0.26181475 37.02352115 -0.1953125 31.4453125 C-0.1924826 30.54376434 -0.18965271 29.64221619 -0.18673706 28.71334839 C-0.17559439 25.85042724 -0.1505008 22.98782566 -0.125 20.125 C-0.11496255 18.17708787 -0.10583804 16.22917081 -0.09765625 14.28125 C-0.07567443 9.5207113 -0.0411855 4.76040973 0 0 Z " fill="#FFFFFF" transform="translate(432,133)"/>
<path d="M0 0 C4.62 0 9.24 0 14 0 C17.17645257 13.13384291 20.3203788 26.27472514 23.375 39.4375 C23.63748535 40.5620459 23.8999707 41.6865918 24.17041016 42.84521484 C24.41065918 43.88500488 24.6509082 44.92479492 24.8984375 45.99609375 C25.11161621 46.91575928 25.32479492 47.8354248 25.54443359 48.78295898 C26 51 26 51 26 53 C22.37 53 18.74 53 15 53 C14.01 49.04 13.02 45.08 12 41 C8.37 40.67 4.74 40.34 1 40 C0.855625 41.77375 0.71125 43.5475 0.5625 45.375 C0.125 50.75 0.125 50.75 -1 53 C-4.63 53 -8.26 53 -12 53 C-10.84024013 45.17162089 -9.18265037 37.70700936 -7.078125 30.08203125 C-5.67006014 24.87603144 -4.53387369 19.61155028 -3.39501953 14.34130859 C-2.35467605 9.53476889 -1.21428359 4.76579443 0 0 Z M6 16 C4.66416101 20.84241633 3.74671881 24.93437617 4 30 C5.98 30 7.96 30 10 30 C9.34 25.38 8.68 20.76 8 16 C7.34 16 6.68 16 6 16 Z " fill="#FFFFFF" transform="translate(357,133)"/>
<path d="M0 0 C4.62 0 9.24 0 14 0 C16.81837761 9.72507371 19.37738451 19.36007306 21.2421875 29.31640625 C22.3167385 34.53961032 23.75945326 39.63405069 25.23046875 44.7578125 C26 48 26 48 26 53 C22.37 53 18.74 53 15 53 C14.34 48.71 13.68 44.42 13 40 C7.555 40.495 7.555 40.495 2 41 C1.690625 42.794375 1.38125 44.58875 1.0625 46.4375 C0.125 51.875 0.125 51.875 -1 53 C-2.85287502 53.07226502 -4.70833878 53.0838122 -6.5625 53.0625 C-7.57441406 53.05347656 -8.58632813 53.04445312 -9.62890625 53.03515625 C-10.41136719 53.02355469 -11.19382812 53.01195312 -12 53 C-11.75765625 51.98164063 -11.5153125 50.96328125 -11.265625 49.9140625 C-8.93270154 40.07556927 -6.69338686 30.21954684 -4.51757812 20.34521484 C-3.59996446 16.18738614 -2.67445049 12.03131289 -1.75 7.875 C-1.41142538 6.35156982 -1.07288054 4.82813303 -0.734375 3.3046875 C-0.49203125 2.21414062 -0.2496875 1.12359375 0 0 Z M7 15 C4.5978396 19.8043208 4.38877771 24.73103895 4 30 C6.31 30.33 8.62 30.66 11 31 C10.01 25.72 9.02 20.44 8 15 C7.67 15 7.34 15 7 15 Z " fill="#FFFFFF" transform="translate(483,133)"/>
<path d="M0 0 C9.24 0 18.48 0 28 0 C28 3.3 28 6.6 28 10 C22.39 10 16.78 10 11 10 C11 13.63 11 17.26 11 21 C16.61 21 22.22 21 28 21 C28 23.97 28 26.94 28 30 C22.39 30 16.78 30 11 30 C11 34.62 11 39.24 11 44 C17.27 44 23.54 44 30 44 C29.34 46.97 28.68 49.94 28 53 C18.76 53 9.52 53 0 53 C0 35.51 0 18.02 0 0 Z " fill="#FFFFFF" transform="translate(422,197)"/>
<path d="M0 0 C9.24 0 18.48 0 28 0 C28 2.97 28 5.94 28 9 C22.39 9 16.78 9 11 9 C11 12.63 11 16.26 11 20 C16.28 20 21.56 20 27 20 C27 23.3 27 26.6 27 30 C21.72 30 16.44 30 11 30 C11 34.62 11 39.24 11 44 C16.94 43.67 22.88 43.34 29 43 C29 50 29 50 28 53 C23.52084672 53.02886338 19.04171709 53.04675187 14.5625 53.0625 C13.28310547 53.07087891 12.00371094 53.07925781 10.68554688 53.08789062 C9.47060547 53.09111328 8.25566406 53.09433594 7.00390625 53.09765625 C5.87799072 53.10289307 4.7520752 53.10812988 3.59204102 53.11352539 C1 53 1 53 0 52 C-0.09340434 50.37325222 -0.11745171 48.74245949 -0.11352539 47.11303711 C-0.11344986 46.07203354 -0.11337433 45.03102997 -0.11329651 43.95848083 C-0.10813522 42.8262056 -0.10297394 41.69393036 -0.09765625 40.52734375 C-0.0962413 39.37456436 -0.09482635 38.22178497 -0.09336853 37.03407288 C-0.08775005 33.33518936 -0.07519442 29.63636536 -0.0625 25.9375 C-0.05748738 23.43684983 -0.05292406 20.93619871 -0.04882812 18.43554688 C-0.0386235 12.29032295 -0.01905169 6.14522845 0 0 Z " fill="#FFFFFF" transform="translate(548,133)"/>
<path d="M0 0 C8.91 0 17.82 0 27 0 C27 3.3 27 6.6 27 10 C21.39 10 15.78 10 10 10 C10 13.63 10 17.26 10 21 C15.28 21 20.56 21 26 21 C26 23.97 26 26.94 26 30 C20.72 30 15.44 30 10 30 C10 34.62 10 39.24 10 44 C15.94 44 21.88 44 28 44 C28 46.97 28 49.94 28 53 C18.76 53 9.52 53 0 53 C0 35.51 0 18.02 0 0 Z " fill="#FFFFFF" transform="translate(305,197)"/>
<path d="M0 0 C1.03769531 -0.02578125 2.07539063 -0.0515625 3.14453125 -0.078125 C6.57864233 0.29217709 8.45379035 1.16813609 11.1875 3.25 C11.1875 3.91 11.1875 4.57 11.1875 5.25 C11.8475 5.25 12.5075 5.25 13.1875 5.25 C15.18535435 9.3705746 15.36585515 12.70194365 15.1875 17.25 C11.8875 17.25 8.5875 17.25 5.1875 17.25 C4.1975 14.94 3.2075 12.63 2.1875 10.25 C-0.22895782 10.08312552 -0.22895782 10.08312552 -2.8125 10.25 C-6.9958977 14.4333977 -5.99534138 21.5738674 -6 27.1875 C-6.01224609 27.96029297 -6.02449219 28.73308594 -6.03710938 29.52929688 C-6.04967943 34.48608685 -5.4560291 38.56380363 -3.8125 43.25 C-2.74604885 44.54633621 -2.74604885 44.54633621 -0.25 44.3125 C0.554375 44.291875 1.35875 44.27125 2.1875 44.25 C3.1775 41.94 4.1675 39.63 5.1875 37.25 C8.4875 37.25 11.7875 37.25 15.1875 37.25 C15.53649765 42.13596712 14.80489561 45.09826904 12.1875 49.25 C6.78108488 54.12895999 3.32899159 54.61370384 -3.828125 54.51953125 C-7.92968652 54.14910226 -9.899869 53.162631 -12.8125 50.25 C-17.34592249 42.95837871 -18.0455233 36.62792573 -18.125 28.1875 C-18.15400391 27.18783203 -18.18300781 26.18816406 -18.21289062 25.15820312 C-18.27503946 17.80073688 -17.42029879 10.25969632 -12.29370117 4.56201172 C-8.10451917 0.97710601 -5.40832723 0.08002457 0 0 Z " fill="#FFFFFF" transform="translate(280.8125,196.75)"/>
<path d="M0 0 C10.56 0 21.12 0 32 0 C32 3.3 32 6.6 32 10 C28.37 10 24.74 10 21 10 C21 24.19 21 38.38 21 53 C17.37 53 13.74 53 10 53 C10 38.81 10 24.62 10 10 C6.7 10 3.4 10 0 10 C0 6.7 0 3.4 0 0 Z " fill="#FFFFFF" transform="translate(383,197)"/>
<path d="M0 0 C10.89 0 21.78 0 33 0 C33 2.97 33 5.94 33 9 C29.37 9 25.74 9 22 9 C22 23.52 22 38.04 22 53 C18.37 53 14.74 53 11 53 C11 38.48 11 23.96 11 9 C7.37 9 3.74 9 0 9 C0 6.03 0 3.06 0 0 Z " fill="#FFFFFF" transform="translate(508,133)"/>
</svg>
