<?xml version="1.0" encoding="UTF-8"?>
<svg version="1.1" xmlns="http://www.w3.org/2000/svg" width="1024" height="303">
<path d="M0 0 C1.32650845 0.68014525 2.65753688 1.35191436 4 2 C4 2.66 4 3.32 4 4 C4.598125 4.28875 5.19625 4.5775 5.8125 4.875 C8 6 8 6 11 8 C11 8.66 11 9.32 11 10 C11.88945313 10.39445312 11.88945313 10.39445312 12.796875 10.796875 C21.18382667 15.37698336 25.8769126 25.76439723 30 34 C30.30389648 34.60312012 30.60779297 35.20624023 30.92089844 35.82763672 C39.74889921 54.05428804 38.40303602 74.58306552 32.3125 93.4375 C31.879375 94.613125 31.44625 95.78875 31 97 C30.34 97 29.68 97 29 97 C28.83757812 97.83917969 28.83757812 97.83917969 28.671875 98.6953125 C26.69666277 105.4707498 21.81164496 111.92104143 17 117 C16.34 117 15.68 117 15 117 C14.9175 117.598125 14.835 118.19625 14.75 118.8125 C13.78423221 121.62932273 12.51131433 122.47799132 10 124 C9.34 124 8.68 124 8 124 C8 124.66 8 125.32 8 126 C6.68 126.33 5.36 126.66 4 127 C4 127.66 4 128.32 4 129 C3.01 129 2.02 129 1 129 C1 129.66 1 130.32 1 131 C-13.73503333 140.70355853 -35.01649576 144.18611783 -52.3828125 141.65234375 C-54.6217236 141.18817925 -56.79969851 140.62089636 -59 140 C-59.82371094 139.79375 -60.64742187 139.5875 -61.49609375 139.375 C-66.55857709 138.01884008 -70.64365644 136.25722777 -74.984375 133.328125 C-77.88598112 131.41621399 -80.94797216 129.83098106 -84.01953125 128.2109375 C-86.02469217 126.98490222 -87.49110601 125.79924899 -89 124 C-89 123.34 -89 122.68 -89 122 C-90.175625 121.62875 -90.175625 121.62875 -91.375 121.25 C-94.4855082 119.76880562 -94.61620468 119.02705226 -96 116 C-97.1446875 114.8553125 -97.1446875 114.8553125 -98.3125 113.6875 C-100.35368088 111.64631912 -102.12849826 109.71427665 -103.875 107.4375 C-104.30554688 106.87933594 -104.73609375 106.32117188 -105.1796875 105.74609375 C-106.25230395 103.46295302 -105.68835337 102.36107034 -105 100 C-100.60768777 99.82541259 -96.21727309 99.69922931 -91.82250977 99.61547852 C-90.33159156 99.58052883 -88.8409088 99.53294814 -87.35083008 99.47192383 C-73.3884428 98.91492615 -73.3884428 98.91492615 -67.85546875 103.34375 C-66.56492643 104.5567952 -65.27907079 105.77486488 -64 107 C-53.1294712 113.03181781 -38.90879472 114.33383456 -26.82324219 111.48730469 C-23.05793593 110.31238111 -19.55413615 108.68957236 -16 107 C-15.34 107 -14.68 107 -14 107 C-14 106.34 -14 105.68 -14 105 C-12.948125 104.4121875 -12.948125 104.4121875 -11.875 103.8125 C-8.60567734 101.75140528 -6.69599679 99.43843391 -4.33203125 96.42578125 C-3.89246094 95.95527344 -3.45289063 95.48476562 -3 95 C-2.34 95 -1.68 95 -1 95 C-0.34 93.02 0.32 91.04 1 89 C1.66 89 2.32 89 3 89 C3.47886186 87.08455255 3.95556288 85.16854127 4.421875 83.25 C4.91934166 81.31391354 5.51329508 79.40308196 6.125 77.5 C8.37555607 68.38974901 7.95640773 57.75493159 4.65625 49.015625 C4 47 4 47 4 43 C2.515 42.505 2.515 42.505 1 42 C-3 36.62857143 -3 36.62857143 -3 34 C-3.66 34 -4.32 34 -5 34 C-5 33.34 -5 32.68 -5 32 C-5.66 32 -6.32 32 -7 32 C-8.68762851 30.3545622 -10.3540349 28.68711423 -12 27 C-12.66 26.67 -13.32 26.34 -14 26 C-14 25.34 -14 24.68 -14 24 C-14.85851562 23.814375 -14.85851562 23.814375 -15.734375 23.625 C-18.0793519 22.97810982 -20.05544812 22.04356313 -22.25 21 C-31.60135667 17.20404189 -43.43739978 16.66839729 -53 20 C-53.81855469 20.26941406 -54.63710938 20.53882812 -55.48046875 20.81640625 C-60.76180019 22.72599507 -64.9119977 25.11752998 -69.2109375 28.73046875 C-73.09917265 31.48958758 -77.32259422 31.11727714 -81.953125 31.09765625 C-82.61334656 31.0962413 -83.27356812 31.09482635 -83.95379639 31.09336853 C-86.05257794 31.08779245 -88.15125095 31.07524447 -90.25 31.0625 C-91.67708179 31.0574819 -93.10416525 31.05291954 -94.53125 31.04882812 C-98.02086832 31.03783088 -101.51042356 31.0205828 -105 31 C-105.61303711 29.18457031 -105.61303711 29.18457031 -106 27 C-104.60428558 24.7210365 -103.24190285 22.80075203 -101.5625 20.75 C-101.09875977 20.1715332 -100.63501953 19.59306641 -100.15722656 18.99707031 C-98.79053994 17.31434328 -97.40195403 15.65339992 -96 14 C-95.35417969 13.236875 -94.70835937 12.47375 -94.04296875 11.6875 C-70.3618799 -13.90252194 -29.12509434 -17.54523755 0 0 Z " fill="#0F284F" transform="translate(727,86)"/>
<path d="M0 0 C3.6481007 0.4600481 5.90509262 2.20155155 8.75 4.4375 C9.54921875 5.05496094 10.3484375 5.67242187 11.171875 6.30859375 C12.07679688 7.14583984 12.07679688 7.14583984 13 8 C13 8.66 13 9.32 13 10 C13.66 10 14.32 10 15 10 C15 10.66 15 11.32 15 12 C15.66 12 16.32 12 17 12 C17 12.66 17 13.32 17 14 C17.87724731 14.39288208 17.87724731 14.39288208 18.7722168 14.79370117 C21.12151632 16.06579859 22.7297533 17.44517853 24.64453125 19.30078125 C25.32193359 19.94853516 25.99933594 20.59628906 26.69726562 21.26367188 C27.39529297 21.93978516 28.09332031 22.61589844 28.8125 23.3125 C33.65642277 28.0017811 38.46987154 32.14419435 44 36 C45.34919532 37.65385233 46.68133728 39.321702 48 41 C49.8565561 42.73046681 51.77261882 44.37597546 53.703125 46.0234375 C57.16643996 49.00377316 60.52485464 52.09855145 63.8984375 55.1796875 C65.86723421 57.03676667 65.86723421 57.03676667 68 58 C68 58.66 68 59.32 68 60 C68.59022949 60.26804443 69.18045898 60.53608887 69.78857422 60.81225586 C72.01766904 62.00948994 73.55874782 63.26251195 75.3828125 65.00390625 C75.99253906 65.57947266 76.60226562 66.15503906 77.23046875 66.74804688 C78.16826172 67.64620117 78.16826172 67.64620117 79.125 68.5625 C80.37568283 69.75332327 81.62820262 70.94222111 82.8828125 72.12890625 C83.43340332 72.65556885 83.98399414 73.18223145 84.55126953 73.72485352 C85.99204489 75.10237804 85.99204489 75.10237804 88 76 C88 76.66 88 77.32 88 78 C88.721875 78.20625 89.44375 78.4125 90.1875 78.625 C93 80 93 80 98 86 C98.33 57.62 98.66 29.24 99 0 C107.91 0 116.82 0 126 0 C127.07993241 3.23979724 127.1231403 5.57130735 127.12025452 8.97941589 C127.12231651 10.85354408 127.12231651 10.85354408 127.12442017 12.76553345 C127.12088103 14.15252709 127.11724622 15.5395205 127.11352539 16.92651367 C127.11324336 18.38506569 127.11340157 19.84361786 127.1139679 21.3021698 C127.11425525 25.26468809 127.10836853 29.22717622 127.10139394 33.18968749 C127.09515008 37.32968859 127.09455578 41.46969035 127.09336853 45.60969543 C127.09025827 53.45069737 127.08204897 61.29168539 127.07201904 69.13268119 C127.06084846 78.05881844 127.05534507 86.98495634 127.05032361 95.91109884 C127.03986612 114.27407379 127.02227255 132.63703577 127 151 C125.68 151 124.36 151 123 151 C123 150.34 123 149.68 123 149 C122.4225 148.731875 121.845 148.46375 121.25 148.1875 C118.94449957 146.97070811 116.97943808 145.69666121 115 144 C115 143.34 115 142.68 115 142 C114.278125 141.79375 113.55625 141.5875 112.8125 141.375 C109.18253654 139.6003512 107.4981422 137.13869148 105 134 C104.278125 133.46375 103.55625 132.9275 102.8125 132.375 C101 131 101 131 100.0625 128.9375 C98.58491194 126.24307471 96.82027604 126.11499285 94 125 C92.28891311 123.37897032 90.62746694 121.70496537 89 120 C87.8439277 118.9877708 86.67667535 117.98820354 85.5 117 C83.32775242 115.17098635 81.3676246 113.35256804 79.375 111.3125 C77.12223213 108.93386724 77.12223213 108.93386724 74.4375 107.5 C71.55692127 105.72733617 70.01877596 103.69170128 68 101 C65.87600133 98.62112149 65.13402591 98.0446753 62 97 C60.3125 95.5625 60.3125 95.5625 59 94 C59 93.34 59 92.68 59 92 C58.34 92 57.68 92 57 92 C55.61992749 90.7151049 54.29579647 89.36984198 53 88 C52.195625 87.195625 51.39125 86.39125 50.5625 85.5625 C48.95819806 83.95819806 47.3716366 82.33573012 45.8125 80.6875 C42.43063592 77.45594099 38.80685819 74.63015804 35.109375 71.76953125 C33 70 33 70 32 68 C31.2575 67.566875 30.515 67.13375 29.75 66.6875 C26.66493599 64.79439254 24.41320485 62.68899969 22 60 C22 59.34 22 58.68 22 58 C21.38125 57.690625 20.7625 57.38125 20.125 57.0625 C18.75 56.375 17.375 55.6875 16 55 C16 54.34 16 53.68 16 53 C15.38125 52.9175 14.7625 52.835 14.125 52.75 C13.42375 52.5025 12.7225 52.255 12 52 C11.71125 51.38898438 11.4225 50.77796875 11.125 50.1484375 C9.7618994 47.54529399 8.28441197 46.52445407 5.875 44.875 C3.6796875 43.3671875 3.6796875 43.3671875 2 42 C2 41.34 2 40.68 2 40 C1.34 40 0.68 40 0 40 C-0.16722049 34.46428137 -0.32781942 28.92842623 -0.48217773 23.39233398 C-0.5356766 21.50751524 -0.5910118 19.62274772 -0.64819336 17.73803711 C-0.7298851 15.03510589 -0.8050554 12.33206161 -0.87890625 9.62890625 C-0.90594131 8.78099014 -0.93297638 7.93307404 -0.96083069 7.0594635 C-1.01280526 5.04026894 -1.01188213 3.01982842 -1 1 C-0.67 0.67 -0.34 0.34 0 0 Z " fill="#0F2950" transform="translate(770,76)"/>
<path d="M0 0 C24.75 0 49.5 0 75 0 C75.33 24.42 75.66 48.84 76 74 C57.55513598 75.152804 57.55513598 75.152804 48.8671875 75.1328125 C47.90201202 75.13376923 46.93683655 75.13472595 45.94241333 75.13571167 C43.93117201 75.13638311 41.91992838 75.13460254 39.90869141 75.13037109 C36.87267087 75.12499588 33.83679741 75.13035804 30.80078125 75.13671875 C6.60242866 75.14806998 6.60242866 75.14806998 0 74 C-1.44498338 71.11003324 -1.12731121 68.60778788 -1.12939453 65.37890625 C-1.13114685 64.69907684 -1.13289917 64.01924744 -1.13470459 63.31881714 C-1.13911375 61.06668563 -1.13618841 58.81463234 -1.1328125 56.5625 C-1.13348581 55.00073227 -1.13445606 53.43896464 -1.13571167 51.87719727 C-1.13718737 48.60204064 -1.13503817 45.32691127 -1.13037109 42.05175781 C-1.12467388 37.84822928 -1.12795356 33.64476459 -1.13394356 29.4412384 C-1.1375526 26.21569333 -1.136409 22.99016345 -1.13381577 19.76461792 C-1.13314745 18.2144266 -1.13397161 16.66423391 -1.13629532 15.11404419 C-1.13882745 12.94969005 -1.13497332 10.78544011 -1.12939453 8.62109375 C-1.12859894 7.3880249 -1.12780334 6.15495605 -1.12698364 4.88452148 C-1 2 -1 2 0 0 Z " fill="#F6F4F6" transform="translate(3,107)"/>
<path d="M0 0 C2.60527105 -0.10792837 5.20608311 -0.18724878 7.8125 -0.25 C8.55048828 -0.28351563 9.28847656 -0.31703125 10.04882812 -0.3515625 C15.5044697 -0.45030714 15.5044697 -0.45030714 18.01171875 1.828125 C19 4 19 4 19 7 C19.99 7.33 20.98 7.66 22 8 C25 11.44444444 25 11.44444444 25 14 C25.66 14 26.32 14 27 14 C28.5078125 15.6796875 28.5078125 15.6796875 30.125 17.875 C30.66382813 18.59429687 31.20265625 19.31359375 31.7578125 20.0546875 C33 22 33 22 33 24 C33.66 24 34.32 24 35 24 C37.6020866 27.49655387 39.54997977 30.89160936 41 35 C41.66 35 42.32 35 43 35 C43.495 36.98 43.495 36.98 44 39 C44.66 39 45.32 39 46 39 C46 28.44 46 17.88 46 7 C43.7763932 5.7018576 43.7763932 5.7018576 40 6 C39.957279 4.33388095 39.95936168 2.66617115 40 1 C41.651788 -0.651788 43.59301831 -0.15261503 45.86767578 -0.17700195 C46.90610626 -0.18983719 47.94453674 -0.20267242 49.01443481 -0.21589661 C50.71271927 -0.22697701 50.71271927 -0.22697701 52.4453125 -0.23828125 C53.60368622 -0.246353 54.76205994 -0.25442474 55.95553589 -0.26274109 C58.41532891 -0.27660522 60.87514137 -0.28731689 63.33496094 -0.29516602 C67.08826599 -0.31233199 70.84067987 -0.35619329 74.59375 -0.40039062 C76.98176434 -0.41052113 79.36978619 -0.41903611 81.7578125 -0.42578125 C83.43787888 -0.45204338 83.43787888 -0.45204338 85.15188599 -0.47883606 C91.66016953 -0.46082826 95.72913647 0.06985828 101 4 C103.82977198 8.18314119 103.73991938 14.10698473 103 19 C100.5649032 22.8683252 97.33668315 26.33660171 92.83984375 27.61328125 C91.92912109 27.80470703 91.92912109 27.80470703 91 28 C92.07666203 29.7541123 93.16163339 31.50312587 94.25 33.25 C94.85328125 34.22453125 95.4565625 35.1990625 96.078125 36.203125 C97.86406649 38.80217806 99.76169263 40.79963005 102 43 C103.25 45.75 103.25 45.75 104 48 C104.66 48 105.32 48 106 48 C106 48.66 106 49.32 106 50 C106.99 50 107.98 50 109 50 C109 51.98 109 53.96 109 56 C104.63177762 57.20421266 101.35008262 57.35970324 97 56 C92.31354719 51.8713647 88.94614667 46.42722823 85.52050781 41.25390625 C83.14583237 37.73383501 80.57180942 34.37789894 78 31 C78 36.94 78 42.88 78 49 C79.98 49.66 81.96 50.32 84 51 C84 52.65 84 54.3 84 56 C76.41 56 68.82 56 61 56 C61 54.35 61 52.7 61 51 C62.65 50.34 64.3 49.68 66 49 C66 34.81 66 20.62 66 6 C62.04 6 58.08 6 54 6 C54 22.5 54 39 54 56 C49.46003687 57.13499078 48.15334035 56.97402108 44 55 C41.95298534 53.0428856 40.33280605 50.86090463 38.6875 48.5625 C38.24599609 47.97662109 37.80449219 47.39074219 37.34960938 46.78710938 C35.44493036 44.21739696 34.01732067 42.05196201 33 39 C32.34 39 31.68 39 31 39 C29.25546502 36.90773676 27.6156781 34.81308978 26 32.625 C22.70464663 28.14076607 22.70464663 28.14076607 19 24 C19 23.01 19 22.02 19 21 C18.34 21 17.68 21 17 21 C16.01 19.68 15.02 18.36 14 17 C14 27.56 14 38.12 14 49 C15.98 49.33 17.96 49.66 20 50 C20 51.65 20 53.3 20 55 C17.04196565 55.19421438 14.08379837 55.38066186 11.125 55.5625 C9.86236328 55.64661133 9.86236328 55.64661133 8.57421875 55.73242188 C7.76855469 55.78076172 6.96289062 55.82910156 6.1328125 55.87890625 C5.38918457 55.9260376 4.64555664 55.97316895 3.87939453 56.02172852 C2 56 2 56 0 55 C0 53.35 0 51.7 0 50 C2.475 49.505 2.475 49.505 5 49 C5.33 34.81 5.66 20.62 6 6 C4.02 6 2.04 6 0 6 C0 4.02 0 2.04 0 0 Z M77 7 C77 12.61 77 18.22 77 24 C83.86986108 24.55680534 83.86986108 24.55680534 90.0625 22.1875 C92.19543851 20.06749463 92.19543851 20.06749463 93 17 C92.69144715 12.32541245 92.69144715 12.32541245 90.8125 8.125 C86.20363177 5.26432317 82.21396961 6.13100506 77 7 Z " fill="#010408" transform="translate(208,124)"/>
<path d="M0 0 C39.33333333 0 78.66666667 0 118 0 C118.495 4.455 118.495 4.455 119 9 C114.75572357 10.06106911 112.12863595 10.13893405 108 9 C108 8.01 108 7.02 108 6 C107.67 7.32 107.34 8.64 107 10 C105.68 10 104.36 10 103 10 C103.01160156 11.05960938 103.02320313 12.11921875 103.03515625 13.2109375 C103.04453476 14.59895658 103.05363489 15.98697755 103.0625 17.375 C103.07087891 18.07367188 103.07925781 18.77234375 103.08789062 19.4921875 C103.11328125 24.7734375 103.11328125 24.7734375 102 27 C68.67 27 35.34 27 1 27 C-1.25186597 21.37033508 -1.25186597 21.37033508 -1.23046875 17.4609375 C-1.22853516 16.63335937 -1.22660156 15.80578125 -1.22460938 14.953125 C-1.21236328 14.10234375 -1.20011719 13.2515625 -1.1875 12.375 C-1.18685547 11.51648438 -1.18621094 10.65796875 -1.18554688 9.7734375 C-1.16041565 6.19921871 -1.139841 3.419523 0 0 Z M102 4 C103 7 103 7 103 7 Z " fill="#0F2951" transform="translate(903,76)"/>
<path d="M0 0 C1.37308571 0.00842926 1.37308571 0.00842926 2.77391052 0.01702881 C4.21793495 0.01418129 4.21793495 0.01418129 5.69113159 0.01127625 C8.88482209 0.0075606 12.07828699 0.01828393 15.2719574 0.02947998 C17.48391188 0.03067145 19.69586687 0.03112501 21.90782166 0.03086853 C26.54827533 0.03243476 31.188652 0.04073508 35.8290863 0.05413818 C41.7881045 0.0711282 47.74703799 0.0749526 53.70607758 0.074193 C58.27499709 0.07446447 62.84389795 0.07994196 67.41281128 0.08719444 C69.61053323 0.09038474 71.8082573 0.09234936 74.00598145 0.09308815 C77.07319261 0.09524789 80.14031258 0.10398423 83.20750427 0.11468506 C84.12289474 0.11423187 85.03828522 0.11377869 85.98141479 0.11331177 C92.26175531 0.14547269 92.26175531 0.14547269 94.4907074 1.25994873 C94.4907074 9.83994873 94.4907074 18.41994873 94.4907074 27.25994873 C88.86549282 29.51003456 88.86549282 29.51003456 85.3924408 29.51391602 C84.21919502 29.52237549 84.21919502 29.52237549 83.02224731 29.53100586 C81.7565667 29.52493317 81.7565667 29.52493317 80.46531677 29.51873779 C79.11564568 29.52399475 79.11564568 29.52399475 77.7387085 29.52935791 C74.77054584 29.53814558 71.80262239 29.5323365 68.8344574 29.52557373 C66.76849827 29.52692123 64.70253946 29.52886247 62.63658142 29.53137207 C58.30911741 29.53431932 53.98173602 29.53003847 49.65428162 29.52069092 C44.1092496 29.50929667 38.5644112 29.51585827 33.01938629 29.52783585 C28.75401859 29.53506518 24.48869673 29.53276156 20.22332764 29.52758026 C18.17880226 29.52624674 16.13427271 29.52788106 14.0897522 29.53253937 C11.2317554 29.53762217 8.37407154 29.52986958 5.51609802 29.51873779 C4.67231094 29.52278625 3.82852386 29.52683472 2.95916748 29.53100586 C-1.31711301 29.50017253 -4.60943146 29.24184739 -8.5092926 27.25994873 C-8.56713968 23.13500722 -8.60283667 19.01016929 -8.6342926 14.88494873 C-8.65105042 13.70932373 -8.66780823 12.53369873 -8.68507385 11.32244873 C-8.69151917 10.20096436 -8.69796448 9.07947998 -8.7046051 7.92401123 C-8.71507874 6.88712158 -8.72555237 5.85023193 -8.73634338 4.78192139 C-8.24353469 -0.69196444 -4.62125199 0.02327376 0 0 Z " fill="#0F284F" transform="translate(910.5092926025391,198.74005126953125)"/>
<path d="M0 0 C0.7355908 0.00184359 1.4711816 0.00368717 2.22906303 0.00558662 C3.07322777 0.0028373 3.9173925 0.00008797 4.78713799 -0.00274467 C5.71502129 0.00444588 6.64290459 0.01163643 7.59890556 0.01904488 C8.57455467 0.01875282 9.55020378 0.01846077 10.55541801 0.01815987 C13.79119469 0.01955698 17.02674317 0.03513615 20.26247978 0.05078316 C22.50164476 0.05451193 24.74081137 0.05735954 26.97997856 0.0593586 C32.88193048 0.06700574 38.78378443 0.0866635 44.68569756 0.10876656 C50.70476773 0.12920173 56.72385369 0.13835533 62.74294853 0.14843941 C74.5593979 0.16990837 86.37577445 0.20405733 98.19216728 0.24609566 C100.44754891 5.6319656 100.52438401 10.08226423 100.50466728 15.87109566 C100.52078056 16.82500191 100.53689384 17.77890816 100.55349541 18.76172066 C100.55413994 19.67695503 100.55478447 20.59218941 100.55544853 21.53515816 C100.55842949 22.36740913 100.56141045 23.19966011 100.56448174 24.05713081 C100.09827437 26.79812438 99.34557015 27.53066125 97.19216728 29.24609566 C95.26128674 29.59962177 95.26128674 29.59962177 93.03501701 29.56889534 C91.76670792 29.5624601 91.76670792 29.5624601 90.47277641 29.55589485 C89.54848839 29.53575829 88.62420036 29.51562172 87.67190361 29.49487495 C86.69610847 29.48555946 85.72031334 29.47624397 84.71494865 29.46664619 C81.48434861 29.4322265 78.25449024 29.37634001 75.02419853 29.32031441 C72.78647765 29.29228705 70.54873966 29.26559603 68.31098747 29.24019051 C62.4170771 29.16967427 56.52357435 29.08096502 50.62997246 28.9885273 C44.61764141 28.89742677 38.60510274 28.82344778 32.59255791 28.74804878 C20.79216043 28.59753398 8.99212268 28.42780802 -2.80783272 28.24609566 C-3.9145065 22.95750005 -3.9916779 17.94945507 -3.99533272 12.55859566 C-4.00757881 11.5963105 -4.01982491 10.63402534 -4.03244209 9.64258003 C-4.03437569 8.724123 -4.03630928 7.80566597 -4.03830147 6.85937691 C-4.04241035 6.02188911 -4.04651924 5.18440132 -4.05075264 4.32153511 C-3.72592268 1.54627933 -2.82902737 0.38510828 0 0 Z " fill="#0D498D" transform="translate(905.8078327178955,136.75390434265137)"/>
<path d="M0 0 C7.59 0 15.18 0 23 0 C23 1.98 23 3.96 23 6 C20.69 6 18.38 6 16 6 C16 11.61 16 17.22 16 23 C24.58 23 33.16 23 42 23 C41.67 17.39 41.34 11.78 41 6 C39.02 6 37.04 6 35 6 C34.957279 4.33388095 34.95936168 2.66617115 35 1 C36 0 36 0 38.54994202 -0.12025452 C40.25204079 -0.1169236 40.25204079 -0.1169236 41.98852539 -0.11352539 C43.26977798 -0.11344986 44.55103058 -0.11337433 45.87110901 -0.11329651 C47.27995848 -0.10818909 48.68880756 -0.10297309 50.09765625 -0.09765625 C51.53112234 -0.09579202 52.96458907 -0.09436814 54.39805603 -0.09336853 C58.17759957 -0.08954372 61.9571049 -0.07971377 65.7366333 -0.06866455 C69.59069298 -0.05844963 73.44475882 -0.05387074 77.29882812 -0.04882812 C84.86590287 -0.03809146 92.43294609 -0.02101549 100 0 C100.02703381 1.93742341 100.04641125 3.87495479 100.0625 5.8125 C100.07410156 6.89144531 100.08570313 7.97039062 100.09765625 9.08203125 C100 12 100 12 99 15 C97.02 15 95.04 15 93 15 C92.505 11.535 92.505 11.535 92 8 C87.05 7.67 82.1 7.34 77 7 C76.21700392 10.9149804 75.89034841 13.89891782 75.9375 17.8125 C75.958125 19.524375 75.97875 21.23625 76 23 C79.96 23 83.92 23 88 23 C88.33 21.35 88.66 19.7 89 18 C90.98 18 92.96 18 95 18 C95 24.6 95 31.2 95 38 C93.35 38.33 91.7 38.66 90 39 C89.71125 37.865625 89.4225 36.73125 89.125 35.5625 C88.75375 34.386875 88.3825 33.21125 88 32 C85.03103721 30.32917961 85.03103721 30.32917961 77 31 C76.67 36.94 76.34 42.88 76 49 C82.27 48.67 88.54 48.34 95 48 C95.33 45.36 95.66 42.72 96 40 C97.98 40 99.96 40 102 40 C101.67 44.95 101.34 49.9 101 55 C95.93036247 55.72423393 91.55797653 56.12834806 86.50390625 56.1328125 C85.8009845 56.13413177 85.09806274 56.13545105 84.37384033 56.1368103 C82.1033476 56.13871398 79.83298003 56.13241547 77.5625 56.125 C76.78997894 56.12411377 76.01745789 56.12322754 75.2215271 56.12231445 C61.79703214 56.10424158 48.40523772 55.74683203 35 55 C35 53.35 35 51.7 35 50 C36.98 50 38.96 50 41 50 C41.33 43.07 41.66 36.14 42 29 C33.42 29 24.84 29 16 29 C16.33 35.6 16.66 42.2 17 49 C18.98 49.33 20.96 49.66 23 50 C23 51.65 23 53.3 23 55 C17.54724114 55.97758625 12.57483237 55.97344509 7.0625 55.5625 C6.28326172 55.51029297 5.50402344 55.45808594 4.70117188 55.40429688 C2.80033228 55.27601936 0.90009096 55.13892679 -1 55 C-1 53.35 -1 51.7 -1 50 C2.465 49.505 2.465 49.505 6 49 C6 35.14 6 21.28 6 7 C3.69 6.34 1.38 5.68 -1 5 C-0.67 3.35 -0.34 1.7 0 0 Z M52 7 C50.94438089 14.58356769 50.81380619 22.11336946 50.81469727 29.75878906 C50.8124829 31.89147109 50.79418752 34.02365717 50.77539062 36.15625 C50.77246089 37.51822742 50.77047329 38.88020726 50.76953125 40.2421875 C50.76542236 41.4679248 50.76131348 42.69366211 50.75708008 43.95654297 C50.76554951 47.17562632 50.76554951 47.17562632 53 50 C57.58440825 51.12447749 60.85665453 51.43726204 65 49 C66.3158809 45.0523573 66.12300273 41.28910644 66.09765625 37.17578125 C66.09553383 35.88367989 66.09553383 35.88367989 66.09336853 34.56547546 C66.0877714 31.81444831 66.07521946 29.06350256 66.0625 26.3125 C66.05748463 24.4472668 66.05292179 22.58203233 66.04882812 20.71679688 C66.03780292 16.14449989 66.02054027 11.57226375 66 7 C64.56609024 6.6392183 63.12930909 6.28983546 61.69140625 5.9453125 C60.89162354 5.74953613 60.09184082 5.55375977 59.26782227 5.35205078 C56.3423439 4.89790719 54.5367393 5.5270546 52 7 Z " fill="#010407" transform="translate(472,124)"/>
<path d="M0 0 C1.32964525 0.34775337 2.66196647 0.68606503 4 1 C3.85936865 3.29199177 3.71234057 5.58359186 3.5625 7.875 C3.48128906 9.15117188 3.40007812 10.42734375 3.31640625 11.7421875 C3 15 3 15 2 17 C0.35 17 -1.3 17 -3 17 C-3.14695312 16.30132812 -3.29390625 15.60265625 -3.4453125 14.8828125 C-4.12366342 12.13042314 -4.85689185 9.59562902 -6 7 C-10.11765751 4.56683874 -14.28433289 4.6441006 -19 5 C-19.99 5.66 -20.98 6.32 -22 7 C-22.99 7 -23.98 7 -25 7 C-27.35071343 13.31461482 -27.35071343 13.31461482 -27.75 19.9375 C-23.58441711 24.84693697 -16.60097673 25.08445671 -10.5625 25.8125 C-4.07705743 26.70415309 0.85511672 28.95445075 6 33 C6.33 33.66 6.66 34.32 7 35 C7.165 33.72125 7.33 32.4425 7.5 31.125 C9.22925805 23.40422814 14.63069817 17.27119757 21.125 12.9375 C30.58159177 7.7528049 43.9060123 9.19515265 54 12 C54.99 12.66 55.98 13.32 57 14 C57.36328125 16.2421875 57.36328125 16.2421875 57.3125 18.875 C57.30863281 19.73867187 57.30476563 20.60234375 57.30078125 21.4921875 C56.9897786 24.0852226 56.30753633 25.75999753 55 28 C53.35 28 51.7 28 50 28 C50 25.36 50 22.72 50 20 C41.45596588 17.04594565 34.46820996 16.27619432 26 20 C25.34 20.99 24.68 21.98 24 23 C23.34 23 22.68 23 22 23 C21.49161436 25.03959477 20.99366114 27.08179138 20.5 29.125 C20.2215625 30.26195312 19.943125 31.39890625 19.65625 32.5703125 C18.02428149 41.09929076 20.18441183 46.82203045 24.9375 53.875 C29.55360835 58.63099042 33.88111795 59.76461268 40.3125 60.25 C44.10324446 59.99300038 46.67532834 59.10073942 50.1328125 57.66796875 C52.48129457 56.8278214 54.5289414 56.76833826 57 57 C57.375 59.25 57.375 59.25 57 62 C50.47884668 67.5668382 43.34620827 68.41567417 35.0625 68.25 C27.16630402 67.60541257 21.0270399 65.10988166 15 60 C15 59.34 15 58.68 15 58 C14.01 57.67 13.02 57.34 12 57 C9.78248601 53.30414334 9 51.36991627 9 47 C8.34 47 7.68 47 7 47 C7.1546875 47.99 7.1546875 47.99 7.3125 49 C6.76369554 54.26852284 3.9234468 58.16910399 0.1328125 61.77734375 C-6.29126867 66.88911262 -12.69686435 68.37559073 -20.875 68.3125 C-21.57173828 68.31121094 -22.26847656 68.30992187 -22.98632812 68.30859375 C-28.56064312 68.20488556 -32.90794676 67.18230853 -38 65 C-38 59.06 -38 53.12 -38 47 C-35.69 47 -33.38 47 -31 47 C-31.061875 48.0725 -31.12375 49.145 -31.1875 50.25 C-31.24008246 53.85498984 -31.24008246 53.85498984 -29.9375 56.3125 C-26.48244238 59.32174373 -22.4990754 59.80862867 -18.0625 60.375 C-13.81661482 59.85509569 -10.47944929 58.49629364 -7 56 C-4.52923671 52.37106642 -3.30691214 49.38955643 -4 45 C-5.43990623 42.82967524 -5.43990623 42.82967524 -7 41 C-7 40.34 -7 39.68 -7 39 C-7.66531738 38.93006836 -8.33063477 38.86013672 -9.01611328 38.78808594 C-12.05452026 38.45900895 -15.08948814 38.10475259 -18.125 37.75 C-19.17171875 37.64042969 -20.2184375 37.53085938 -21.296875 37.41796875 C-28.3416189 36.570816 -33.19587638 35.46078547 -37.8515625 29.71484375 C-39.3380011 26.20098379 -39.39800989 23.37063742 -39.375 19.5625 C-39.38273437 18.28503906 -39.39046875 17.00757813 -39.3984375 15.69140625 C-38.81780552 10.31202174 -36.9553047 6.32551967 -32.8125 2.8125 C-22.66677957 -5.25747805 -11.66940414 -4.01460784 0 0 Z M7 43 C8 46 8 46 8 46 Z " fill="#010407" transform="translate(413,113)"/>
<path d="M0 0 C6.07214947 4.31751477 11.49906408 9.10041927 16.875 14.25 C17.63296875 14.96929687 18.3909375 15.68859375 19.171875 16.4296875 C27.46299291 24.3077248 27.46299291 24.3077248 28 30 C27.67240066 32.33414529 27.33926947 34.66752239 27 37 C27.30404678 38.67225729 27.63128912 40.34080104 28 42 C27.67 42.99 27.34 43.98 27 45 C26.92656097 46.81513548 26.91323921 48.63296195 26.93408203 50.44946289 C26.94384064 51.56394302 26.95359924 52.67842316 26.96365356 53.82667542 C26.97822601 55.02984909 26.99279846 56.23302277 27.0078125 57.47265625 C27.02532326 60.00585541 27.04223207 62.53905879 27.05859375 65.07226562 C27.08963007 69.07767465 27.12419891 73.08288697 27.17138672 77.08813477 C27.21354374 80.94550244 27.23711279 84.80262204 27.2578125 88.66015625 C27.27643341 89.86535416 27.29505432 91.07055206 27.3142395 92.31227112 C27.31769379 93.42359909 27.32114807 94.53492706 27.32470703 95.67993164 C27.33438507 96.66127579 27.34406311 97.64261993 27.35403442 98.65370178 C27.23720306 99.42798019 27.1203717 100.20225861 27 101 C23.73041829 103.17972114 22.78441762 103.24800193 19 103.23046875 C18.030625 103.22853516 17.06125 103.22660156 16.0625 103.22460938 C15.051875 103.21236328 14.04125 103.20011719 13 103.1875 C11.989375 103.18685547 10.97875 103.18621094 9.9375 103.18554688 C2.42171632 103.14057211 2.42171632 103.14057211 -1 102 C-1.0231209 88.84850976 -1.04091379 75.69702431 -1.05181217 62.54551792 C-1.05704156 56.43943631 -1.0641402 50.33336856 -1.07543945 44.22729492 C-1.08626637 38.33994853 -1.09227642 32.45261551 -1.09487724 26.56525993 C-1.09673185 24.31367723 -1.10035313 22.06209531 -1.10573006 19.81051826 C-1.11293789 16.66866573 -1.11399105 13.52686917 -1.11352539 10.38500977 C-1.11712067 9.44418045 -1.12071594 8.50335114 -1.12442017 7.53401184 C-1.11405216 1.11405216 -1.11405216 1.11405216 0 0 Z " fill="#0D4A90" transform="translate(771,125)"/>
<path d="M0 0 C9.57 0 19.14 0 29 0 C29 1.65 29 3.3 29 5 C26.36 5.33 23.72 5.66 21 6 C21 13.26 21 20.52 21 28 C31.89 28 42.78 28 54 28 C53.505 17.605 53.505 17.605 53 7 C50.36 6.34 47.72 5.68 45 5 C45 3.35 45 1.7 45 0 C54.57 0 64.14 0 74 0 C74 1.65 74 3.3 74 5 C71.36 5.33 68.72 5.66 66 6 C65.67 23.82 65.34 41.64 65 60 C67.97 60.66 70.94 61.32 74 62 C74 63.98 74 65.96 74 68 C64.43 68 54.86 68 45 68 C45 66.02 45 64.04 45 62 C47.97 61.34 50.94 60.68 54 60 C54 51.75 54 43.5 54 35 C43.11 35 32.22 35 21 35 C21.33 43.25 21.66 51.5 22 60 C24.31 60.66 26.62 61.32 29 62 C29 63.98 29 65.96 29 68 C19.43 68 9.86 68 0 68 C0 66.02 0 64.04 0 62 C2.64 61.67 5.28 61.34 8 61 C8 43.18 8 25.36 8 7 C5.36 6.34 2.72 5.68 0 5 C0 3.35 0 1.7 0 0 Z " fill="#000204" transform="translate(91,112)"/>
<path d="M0 0 C5.49921406 -0.09881786 10.99791235 -0.17144379 16.49780273 -0.21972656 C18.36898804 -0.23985207 20.24011039 -0.26715549 22.11108398 -0.30175781 C24.79947432 -0.35023581 27.48703388 -0.37295872 30.17578125 -0.390625 C31.01337479 -0.41127014 31.85096832 -0.43191528 32.71394348 -0.45318604 C38.50810192 -0.45542866 38.50810192 -0.45542866 41.05151367 1.89941406 C42 4 42 4 42 6 C42.66 6 43.32 6 44 6 C46.29648649 8.5614657 47 9.47967572 47 13 C47.99 13.33 48.98 13.66 50 14 C50 14.66 50 15.32 50 16 C50.66 16 51.32 16 52 16 C55 20.38461538 55 20.38461538 55 23 C55.99 23.33 56.98 23.66 58 24 C62 29.37142857 62 29.37142857 62 32 C62.66 32 63.32 32 64 32 C65.98 34.64 67.96 37.28 70 40 C70.33 29.11 70.66 18.22 71 7 C68.69 6.67 66.38 6.34 64 6 C63.505 3.525 63.505 3.525 63 1 C67.28297531 -0.05619003 71.42985646 -0.11702092 75.8125 -0.0625 C76.50537109 -0.05798828 77.19824219 -0.05347656 77.91210938 -0.04882812 C79.60811068 -0.03713156 81.30406703 -0.01919924 83 0 C83.495 2.97 83.495 2.97 84 6 C81.69 6.66 79.38 7.32 77 8 C77.00444122 8.58437836 77.00888245 9.16875671 77.01345825 9.77084351 C77.05760762 15.83743858 77.08783134 21.90398823 77.10986328 27.97070312 C77.11993859 30.23667249 77.13359918 32.50262881 77.15087891 34.76855469 C77.17506011 38.02021501 77.18646763 41.27170387 77.1953125 44.5234375 C77.20563507 45.54118256 77.21595764 46.55892761 77.22659302 47.60751343 C77.22674408 48.54833771 77.22689514 49.48916199 77.22705078 50.45849609 C77.231492 51.28900482 77.23593323 52.11951355 77.24050903 52.97518921 C77 55 77 55 75 57 C71.4291332 56.93623452 70.03832074 56.74338139 67 55 C63.25163746 50.93879992 60.14759142 46.53512314 57 42 C55.95947177 40.60331781 54.91811084 39.20725443 53.875 37.8125 C52 35 52 35 52 33 C51.34 33 50.68 33 50 33 C50 32.34 50 31.68 50 31 C49.01 30.67 48.02 30.34 47 30 C46.29788106 28.34795544 45.63028587 26.68076231 45 25 C44.34 24.67 43.68 24.34 43 24 C41.02 21.69 39.04 19.38 37 17 C37 27.56 37 38.12 37 49 C39.97 49.495 39.97 49.495 43 50 C43 51.65 43 53.3 43 55 C28.58041695 55.77266539 14.40149576 56.19552647 0 55 C0 53.35 0 51.7 0 50 C2.97 49.505 2.97 49.505 6 49 C6.33 34.81 6.66 20.62 7 6 C4.69 6 2.38 6 0 6 C0 4.02 0 2.04 0 0 Z M17 7 C16.8988308 10.09081465 16.86031442 13.15882555 16.8671875 16.25 C16.86623077 17.17844727 16.86527405 18.10689453 16.86428833 19.06347656 C16.86360645 21.03059965 16.86546128 22.99772496 16.86962891 24.96484375 C16.87497705 27.98703026 16.86968418 31.00906815 16.86328125 34.03125 C16.86394203 35.93750033 16.86522319 37.84375057 16.8671875 39.75 C16.86516327 40.66040039 16.86313904 41.57080078 16.86105347 42.50878906 C16.46108668 46.57663678 16.46108668 46.57663678 18 50 C20.29615554 50.23819228 20.29615554 50.23819228 22.9375 50.25 C23.83339844 50.27578125 24.72929688 50.3015625 25.65234375 50.328125 C26.42707031 50.21984375 27.20179688 50.1115625 28 50 C30.60876023 46.08685966 30.26967935 42.78251575 30.23046875 38.24609375 C30.23001053 37.38943619 30.22955231 36.53277863 30.2290802 35.65016174 C30.22606053 33.84040948 30.21818273 32.03065976 30.20581055 30.22094727 C30.18754757 27.44473101 30.18530095 24.66884819 30.18554688 21.89257812 C30.1806318 20.13541377 30.17480353 18.37825169 30.16796875 16.62109375 C30.16685593 15.78775009 30.1657431 14.95440643 30.16459656 14.09580994 C30.24034593 9.91433404 30.24034593 9.91433404 29 6 C27.18757948 5.97312721 25.37504767 5.95366285 23.5625 5.9375 C22.04849609 5.92009766 22.04849609 5.92009766 20.50390625 5.90234375 C18.05978933 5.71387324 18.05978933 5.71387324 17 7 Z " fill="#010205" transform="translate(574,124)"/>
<path d="M0 0 C21.78 0 43.56 0 66 0 C66 1.65 66 3.3 66 5 C64.89205078 5.22042969 64.89205078 5.22042969 63.76171875 5.4453125 C46.44842739 9.27315582 36.40697395 18.81238325 26.54321289 33.01513672 C21.61439389 40.08136922 16.46111589 46.30979905 8 49 C5.36 49.33 2.72 49.66 0 50 C0 33.5 0 17 0 0 Z " fill="#ED2033" transform="translate(7,112)"/>
<path d="M0 0 C0 16.5 0 33 0 50 C-21.45 50 -42.9 50 -65 50 C-65.33 48.35 -65.66 46.7 -66 45 C-65.04480469 44.79246094 -64.08960937 44.58492187 -63.10546875 44.37109375 C-46.19548727 40.44818879 -36.76689053 31.89551173 -27 17.875 C-20.26394887 8.24750658 -12.48003826 0 0 0 Z " fill="#125098" transform="translate(73,126)"/>
<path d="M0 0 C13.2 0 26.4 0 40 0 C41.09318411 3.27955232 40.95793255 5.21469086 40.625 8.625 C40.48964844 10.09839844 40.48964844 10.09839844 40.3515625 11.6015625 C40 14 40 14 39 15 C37.33382885 15.04063832 35.66611905 15.042721 34 15 C33.34 12.69 32.68 10.38 32 8 C26.72 7.67 21.44 7.34 16 7 C16 12.61 16 18.22 16 24 C20.29 24 24.58 24 29 24 C29.33 22.02 29.66 20.04 30 18 C31.98 18 33.96 18 36 18 C36 24.6 36 31.2 36 38 C33.525 38.495 33.525 38.495 31 39 C30.731875 37.865625 30.46375 36.73125 30.1875 35.5625 C29.5996875 33.7990625 29.5996875 33.7990625 29 32 C26.11788698 31.03929566 24.30149956 30.89418117 21.3125 30.9375 C19.889375 30.958125 18.46625 30.97875 17 31 C17 36.61 17 42.22 17 48 C22.94 48 28.88 48 35 48 C35.33 45.36 35.66 42.72 36 40 C37.98 40 39.96 40 42 40 C41.67 44.95 41.34 49.9 41 55 C36.74037948 56.06490513 32.86382595 56.12611161 28.515625 56.09765625 C27.70003113 56.0962413 26.88443726 56.09482635 26.04412842 56.09336853 C23.44604788 56.08778303 20.84805437 56.07523321 18.25 56.0625 C16.48567833 56.05748312 14.72135531 56.05292054 12.95703125 56.04882812 C8.63798744 56.03781835 4.31900846 56.02056369 0 56 C0 54.35 0 52.7 0 51 C0.639375 50.71125 1.27875 50.4225 1.9375 50.125 C4.15206079 49.17176549 4.15206079 49.17176549 5 47 C5.08705146 44.01029711 5.11550145 41.04415045 5.09765625 38.0546875 C5.09553383 36.72716965 5.09553383 36.72716965 5.09336853 35.37283325 C5.0877614 32.54018809 5.07520771 29.70762136 5.0625 26.875 C5.05748592 24.95703239 5.05292285 23.03906354 5.04882812 21.12109375 C5.03778966 16.41403218 5.02052025 11.7070294 5 7 C3.02 6.34 1.04 5.68 -1 5 C-0.67 3.35 -0.34 1.7 0 0 Z " fill="#010409" transform="translate(166,124)"/>
<path d="M0 0 C2.95031436 2.10464235 4.33935685 4.82551088 6 8 C6.30454102 8.56783203 6.60908203 9.13566406 6.92285156 9.72070312 C13 21.10862069 13 21.10862069 13 24 C13.66 24 14.32 24 15 24 C15.26941406 23.27683594 15.53882813 22.55367187 15.81640625 21.80859375 C16.98581627 19.03365709 18.35083867 16.61811482 19.9375 14.0625 C22.14850939 10.44741896 24.14107249 6.81080139 26 3 C26.66 2.01 27.32 1.02 28 0 C29.9453125 -0.29296875 29.9453125 -0.29296875 32.125 -0.1875 C33.40375 -0.125625 34.6825 -0.06375 36 0 C36.495 1.98 36.495 1.98 37 4 C36.34 4 35.68 4 35 4 C34.71125 4.763125 34.4225 5.52625 34.125 6.3125 C33 9 33 9 31 12 C30.34 12 29.68 12 29 12 C28.34 13.98 27.68 15.96 27 18 C26.34 18 25.68 18 25 18 C24.88744873 18.58523437 24.77489746 19.17046875 24.65893555 19.7734375 C23.94398453 22.18927791 22.95086242 23.61216889 21.45703125 25.625 C18.3808568 30.39810696 18.41077167 34.45691872 18.6875 40 C18.71005859 40.87011719 18.73261719 41.74023438 18.75585938 42.63671875 C18.81415206 44.75857251 18.90380916 46.87952629 19 49 C20.98 49.66 22.96 50.32 25 51 C25 52.32 25 53.64 25 55 C21.5842767 55.22634311 18.16752678 55.42792113 14.75 55.625 C13.29787109 55.72167969 13.29787109 55.72167969 11.81640625 55.8203125 C10.88183594 55.871875 9.94726562 55.9234375 8.984375 55.9765625 C8.12553711 56.02893066 7.26669922 56.08129883 6.38183594 56.13525391 C3.77120603 55.9870078 2.23056144 55.32298482 0 54 C0.125 52.125 0.125 52.125 1 50 C2.97664289 49.26697386 4.97765086 48.59543967 7 48 C7.32098157 39.64259099 7.21819111 32.77729519 4 25 C3.34 25 2.68 25 2 25 C0.23537317 21.91190305 0 20.76687864 0 17 C-0.66 17 -1.32 17 -2 17 C-6 11.58823529 -6 11.58823529 -6 9 C-6.66 9 -7.32 9 -8 9 C-8 8.34 -8 7.68 -8 7 C-9.65 7 -11.3 7 -13 7 C-13 5.02 -13 3.04 -13 1 C-8.94316279 -1.0284186 -4.38023695 -0.8150725 0 0 Z " fill="#010408" transform="translate(324,124)"/>
<path d="M0 0 C0.825 0.04125 1.65 0.0825 2.5 0.125 C3.16 0.125 3.82 0.125 4.5 0.125 C5.49 0.125 6.48 0.125 7.5 0.125 C7.83 3.095 8.16 6.065 8.5 9.125 C4.25572357 10.18606911 1.62863595 10.26393405 -2.5 9.125 C-2.5 8.135 -2.5 7.145 -2.5 6.125 C-3.49 6.62 -3.49 6.62 -4.5 7.125 C-4.625 4.75 -4.625 4.75 -4.5 2.125 C-2.5 0.125 -2.5 0.125 0 0 Z " fill="#0C2244" transform="translate(1013.5,75.875)"/>
<path d="M0 0 C12.87 0 25.74 0 39 0 C39 0.99 39 1.98 39 3 C38.505 2.505 38.505 2.505 38 2 C35.65012738 1.76472227 33.29443961 1.58613583 30.9375 1.4375 C29.64714844 1.35371094 28.35679687 1.26992187 27.02734375 1.18359375 C25.52880859 1.09271484 25.52880859 1.09271484 24 1 C24.33 1.99 24.66 2.98 25 4 C26.32 4.66 27.64 5.32 29 6 C23.06 6.495 23.06 6.495 17 7 C17 6.34 17 5.68 17 5 C18.65 4.67 20.3 4.34 22 4 C22.33 3.01 22.66 2.02 23 1 C15.74 1 8.48 1 1 1 C1.66868314 4.11332248 1.66868314 4.11332248 4.0625 5.1875 C4.701875 5.455625 5.34125 5.72375 6 6 C4.02 6 2.04 6 0 6 C0 4.02 0 2.04 0 0 Z " fill="#061224" transform="translate(574,124)"/>
<path d="M0 0 C0.66 0.33 1.32 0.66 2 1 C0.02 1.99 0.02 1.99 -2 3 C-2 3.66 -2 4.32 -2 5 C-1.01 5.66 -0.02 6.32 1 7 C-1.31 6.67 -3.62 6.34 -6 6 C-5.67 4.68 -5.34 3.36 -5 2 C-6.65 2 -8.3 2 -10 2 C-10 1.67 -10 1.34 -10 1 C-8.906875 1.020625 -7.81375 1.04125 -6.6875 1.0625 C-3.05615809 1.18544452 -3.05615809 1.18544452 0 0 Z " fill="#061021" transform="translate(535,173)"/>
<path d="M0 0 C0.66 0.66 1.32 1.32 2 2 C3.32 2.66 4.64 3.32 6 4 C2.04 4 -1.92 4 -6 4 C-6 3.67 -6 3.34 -6 3 C-5.195625 2.87625 -4.39125 2.7525 -3.5625 2.625 C-2.716875 2.41875 -1.87125 2.2125 -1 2 C-0.67 1.34 -0.34 0.68 0 0 Z " fill="#061325" transform="translate(268,126)"/>
</svg>
