<svg width="270" height="39" viewBox="0 0 270 39" fill="none" xmlns="http://www.w3.org/2000/svg">
<g clip-path="url(#clip0_5952_15179)">
<path d="M265.938 0.227273H265.248V0H266.813V0.227273H266.123V2H265.892V0.227273H265.938ZM267.319 0H267.549L268.332 1.18182L269.114 0H269.345V2H269.114V0.409091L268.332 1.59091L267.549 0.409091V2H267.319V0Z" fill="#152C52"/>
<path d="M245.15 32.167H264.891V38.5524H245.15H238.611V32.167H245.15Z" fill="white"/>
<path d="M245.15 16.123H264.891V22.5085H245.15H238.611V16.123H245.15Z" fill="white"/>
<path d="M245.15 0.0803223H264.891V6.46576H245.15H238.611V0.0803223H245.15Z" fill="white"/>
<path d="M236.12 0.0803223V38.5526L203.341 9.7782V0.0803223L229.581 23.1078V0.0803223H236.12Z" fill="white"/>
<path d="M203.341 13.0112L209.922 18.798V38.553H203.341V13.0112Z" fill="white"/>
<path d="M195.041 5.74739C191.199 1.99595 186.622 0.0803223 181.145 0.0803223C175.668 0.0803223 171.05 1.99595 167.248 5.74739C165.9 7.06439 164.796 8.4612 163.897 9.97774H172.153C174.687 7.62312 177.671 6.54557 181.145 6.54557C184.742 6.54557 187.848 7.78275 190.382 10.297C192.957 12.8113 194.224 15.8444 194.224 19.3563C194.224 22.8683 192.998 25.9014 190.382 28.4556C187.807 30.9699 184.742 32.1671 181.145 32.1671C177.671 32.1671 174.646 31.0497 172.112 28.735H163.897C164.796 30.2515 165.9 31.6483 167.248 32.9653C171.09 36.7167 175.668 38.6324 181.145 38.6324C186.622 38.6324 191.199 36.7167 195.041 32.9653C198.924 29.2538 200.886 24.7441 200.886 19.3963C200.886 14.0085 198.924 9.49884 195.041 5.74739Z" fill="white"/>
<path d="M40.133 23.3996C40.133 25.2814 40.0923 25.4451 42.4145 25.5678V26.3041C41.2738 26.2223 40.133 26.1814 38.9515 26.1814C37.77 26.1814 36.6292 26.2223 35.5699 26.3041V25.5678C37.8922 25.4451 37.8515 25.2814 37.8515 23.3996V17.7951H28.2364V23.3996C28.2364 25.2814 28.1957 25.4451 30.5179 25.5678V26.3041C29.3772 26.2223 28.2364 26.1814 27.0549 26.1814C25.8734 26.1814 24.7326 26.2223 23.6733 26.3041V25.5678C25.9956 25.4451 25.9549 25.2814 25.9549 23.3996V12.3132C25.9549 10.4314 25.9956 10.2678 23.6733 10.1451V9.40869C24.7734 9.49051 25.8734 9.53142 27.0549 9.53142C28.2364 9.53142 29.3772 9.49051 30.5179 9.40869V10.1451C28.1957 10.2678 28.2364 10.4314 28.2364 12.3132V16.7723H37.8515V12.3132C37.8515 10.4314 37.8922 10.2678 35.5699 10.1451V9.40869C36.6699 9.49051 37.77 9.53142 38.9515 9.53142C40.133 9.53142 41.2738 9.49051 42.4145 9.40869V10.1451C40.0923 10.2678 40.133 10.4314 40.133 12.3132V23.3996Z" fill="white"/>
<path d="M46.9356 23.6041C46.9356 24.2995 46.9763 24.7495 47.0171 25.2814C47.7097 25.3632 48.7282 25.3632 49.6245 25.3632C50.6431 25.3632 51.7024 25.3223 52.7209 25.0359C52.8024 24.7495 52.9246 24.3814 52.9654 24.0541L53.1283 22.9905H53.7802C53.6987 23.3995 53.5765 23.9314 53.5765 24.545V26.1814C52.8431 26.2632 51.5801 26.2632 50.3986 26.2632C49.2579 26.2223 48.1171 26.1814 46.9356 26.1814C45.7541 26.1814 44.6133 26.2223 43.4725 26.2632V25.6905C44.4503 25.6495 45.1429 25.2405 45.1429 23.9723V15.095C45.1429 13.5814 45.1429 13.4586 43.3096 13.3359V12.7632C44.4911 12.8041 45.6318 12.845 46.8134 12.845C47.9949 12.845 49.1764 12.8041 50.3171 12.7632C51.5394 12.7632 52.8431 12.7632 53.495 12.845C53.2913 13.4995 53.2098 14.1132 53.1691 14.7268C53.1691 15.1359 53.1283 15.4632 53.1283 15.8723H52.5172C52.5172 15.1359 52.395 14.5632 52.232 13.9905C51.2949 13.7041 50.3171 13.6632 49.3801 13.6632C48.5245 13.6632 47.6282 13.6632 47.0171 13.745C46.9356 14.2359 46.9356 14.6859 46.9356 15.3405V18.9405C51.132 18.9814 51.3764 19.2268 51.4172 17.3041H52.069V21.7632H51.4172C51.4172 19.595 51.2949 19.7177 46.9356 19.8405V23.6041Z" fill="white"/>
<path d="M67.0653 24.2586V14.645C67.0653 13.5405 66.7393 13.3359 65.5578 13.3359H65.2319V12.7632C66.006 12.8041 66.7801 12.845 67.5542 12.845C68.3283 12.845 69.1024 12.8041 69.8357 12.7632V13.3359H69.5098C68.2875 13.3359 67.9208 13.4995 67.9208 14.645V25.8132L67.9616 26.5086L66.4541 26.2223L57.165 14.8905V24.2995C57.165 25.4041 57.5317 25.6086 58.754 25.6086H59.0799V26.1814C58.3465 26.1405 57.5724 26.0995 56.7984 26.0995C56.0243 26.0995 55.2502 26.1405 54.4761 26.1814V25.6086H54.802C55.9835 25.6086 56.3095 25.445 56.3095 24.2995V14.645C56.3095 13.5405 55.9835 13.3359 54.9242 13.3359H54.639V12.7632C55.2094 12.8041 55.7391 12.845 56.3095 12.845C56.8798 12.845 57.4095 12.8041 57.9799 12.7632L67.0653 24.2586Z" fill="white"/>
<path d="M72.3607 15.0953C72.3607 13.5816 72.3607 13.4589 70.5273 13.3362V12.7635C71.5866 12.8044 72.7274 12.8453 73.8682 12.8453C75.0089 12.8453 76.109 12.8044 77.2497 12.7635C79.8979 12.6407 81.1202 14.0725 81.1202 15.7089C81.1202 17.7953 79.2461 19.0635 77.3719 19.4316L81.7313 25.1589C82.0572 25.5271 82.4239 25.6498 82.8313 25.6907V26.2635C82.4239 26.2225 81.9758 26.1816 81.5276 26.1816C81.0794 26.1816 80.672 26.2225 80.2239 26.2635C79.8979 25.8544 79.6942 25.5271 79.4498 25.1998L74.8867 19.3089L74.9682 19.0225C75.5793 19.0635 76.1497 19.0225 76.7201 18.9407C78.0646 18.6953 79.2053 17.6725 79.2053 16.2407C79.2053 14.1544 77.6571 13.5407 76.2312 13.5407C75.5386 13.5407 74.846 13.6225 74.3163 13.7862C74.1941 14.1135 74.1941 14.5225 74.1941 15.1362V24.0135C74.1941 25.5271 74.1941 25.6498 76.0275 25.7316V26.3044C75.0904 26.2635 74.1941 26.2225 73.257 26.2225C72.32 26.2225 71.4237 26.2635 70.5681 26.3044V25.7316C72.4015 25.6498 72.4015 25.4862 72.4015 24.0135V15.0953H72.3607Z" fill="white"/>
<path d="M88.5773 19.5949L90.5737 16.4449C91.307 15.2176 91.9996 14.0312 92.6515 12.763H94.1997V13.0494C92.57 14.9312 90.2477 18.2039 89.4736 19.9221C89.2292 20.413 89.1884 20.9039 89.1884 21.3539V23.9312C89.1884 25.4449 89.1884 25.5676 91.0218 25.6494V26.2221C90.0847 26.1812 89.1884 26.1403 88.2514 26.1403C87.3143 26.1403 86.418 26.1812 85.5217 26.2221V25.6494C87.3551 25.5676 87.3551 25.4039 87.3551 23.9312V21.1085C87.3551 20.9449 87.3551 20.7403 87.2736 20.4949L84.9513 16.4449C84.2994 15.3403 83.1587 13.4585 81.7734 13.6221V13.0494L83.8105 12.6403C84.3809 12.5585 84.6661 12.8858 84.992 13.2949C85.318 13.7039 85.5624 14.113 85.8476 14.563L88.5773 19.5949Z" fill="white"/>
<path d="M107.967 13.4588C107.967 12.5588 107.967 11.9043 107.723 11.5361C107.071 10.5134 105.36 10.1452 104.219 10.1452C102.263 10.1452 100.552 11.5361 100.552 13.5815C100.552 18.8179 110.127 14.4815 110.127 20.5361C110.127 24.6679 106.46 26.6315 102.874 26.6315C101.449 26.6315 100.104 26.2634 98.7596 25.7315C98.8411 24.8315 98.9226 23.6452 98.9226 22.7043V22.0497H99.7374V23.1952C99.7374 23.727 99.7781 24.177 100.063 24.4634C101.041 25.3225 102.549 25.5679 103.771 25.5679C105.93 25.5679 108.049 24.2997 108.049 21.8861C108.049 16.0361 98.5151 21.5179 98.5151 14.4815C98.5151 11.1679 101.286 9.08154 104.423 9.08154C106.052 9.08154 107.56 9.61336 109.067 10.1861C108.986 10.5543 108.904 10.9634 108.864 11.3315C108.823 12.0679 108.701 12.7634 108.701 13.4997H107.967V13.4588Z" fill="white"/>
<path d="M122.96 25.4043C121.738 26.0998 119.823 26.5498 118.601 26.5498C114.363 26.5498 110.819 24.0543 110.819 19.4725C110.819 15.0134 114.404 12.4771 118.234 12.4771C119.945 12.4771 121.615 12.8861 123.245 13.3361C123.041 14.318 122.919 15.2589 122.838 16.2407H122.267C122.227 15.0134 122.512 14.5634 121.371 13.9907C120.597 13.6225 119.66 13.2952 118.275 13.2952C115.097 13.2952 112.897 15.5452 112.897 19.0634C112.897 22.9089 115.382 25.6089 119.252 25.6089C120.638 25.6089 122.023 25.1589 123.164 24.3816L123.327 24.5861L122.96 25.4043Z" fill="white"/>
<path d="M137.466 23.9314C137.466 25.445 137.466 25.5677 139.3 25.6495V26.2223C138.363 26.1814 137.466 26.1405 136.529 26.1405C135.592 26.1405 134.696 26.1814 133.8 26.2223V25.6495C135.633 25.5677 135.633 25.4041 135.633 23.9314V19.4723H127.933V23.9314C127.933 25.445 127.892 25.5677 129.766 25.6495V26.2223C128.829 26.1814 127.933 26.1405 126.996 26.1405C126.059 26.1405 125.162 26.1814 124.266 26.2223V25.6495C126.099 25.5677 126.099 25.4041 126.099 23.9314V15.095C126.099 13.5814 126.099 13.4586 124.266 13.3359V12.7632C125.122 12.8041 126.018 12.845 126.996 12.845C127.933 12.845 128.829 12.8041 129.766 12.7632V13.3359C127.933 13.4177 127.933 13.5814 127.933 15.095V18.6541H135.633V15.095C135.633 13.5814 135.633 13.4586 133.8 13.3359V12.7632C134.655 12.8041 135.552 12.845 136.529 12.845C137.466 12.845 138.363 12.8041 139.3 12.7632V13.3359C137.466 13.4177 137.466 13.5814 137.466 15.095V23.9314Z" fill="white"/>
<path d="M143.736 23.6041C143.736 24.2995 143.736 24.7495 143.817 25.2814C144.51 25.3632 145.529 25.3632 146.425 25.3632C147.443 25.3632 148.503 25.3223 149.521 25.0359C149.603 24.7495 149.725 24.3814 149.766 24.0541L149.929 22.9905H150.58C150.499 23.3995 150.377 23.9314 150.377 24.545V26.1814C149.684 26.2632 148.38 26.2632 147.199 26.2632C146.058 26.2223 144.917 26.1814 143.736 26.1814C142.554 26.1814 141.414 26.2223 140.273 26.2632V25.6905C141.251 25.6495 141.943 25.2405 141.943 23.9723V15.095C141.943 13.5814 141.943 13.4586 140.11 13.3359V12.7632C141.291 12.8041 142.432 12.845 143.614 12.845C144.795 12.845 145.977 12.8041 147.117 12.7632C148.34 12.7632 149.643 12.7632 150.295 12.845C150.092 13.4995 150.01 14.1132 149.969 14.7268C149.969 15.1359 149.929 15.4632 149.929 15.8723H149.317C149.277 15.1359 149.195 14.5632 149.032 13.9905C148.095 13.7041 147.117 13.6632 146.18 13.6632C145.325 13.6632 144.428 13.6632 143.777 13.745C143.695 14.2359 143.695 14.6859 143.695 15.3405V18.9405C147.892 18.9814 148.136 19.2268 148.177 17.3041H148.829V21.7632H148.217C148.217 19.595 148.095 19.7177 143.736 19.8405V23.6041Z" fill="white"/>
<path d="M155.227 23.9314C155.227 25.445 155.187 25.5677 157.061 25.6495V26.2223C156.124 26.1814 155.227 26.1405 154.29 26.1405C153.353 26.1405 152.457 26.1814 151.561 26.2223V25.6495C153.394 25.5677 153.394 25.4041 153.394 23.9314V15.095C153.394 13.5814 153.394 13.4586 151.561 13.3359V12.7632C152.416 12.8041 153.312 12.845 154.29 12.845C155.227 12.845 156.124 12.8041 157.061 12.7632V13.3359C155.227 13.4177 155.227 13.5814 155.227 15.095V23.9314Z" fill="white"/>
<path d="M170.14 24.2589V14.6452C170.14 13.5407 169.814 13.3362 168.633 13.3362H168.307V12.7634C169.081 12.8043 169.855 12.8452 170.629 12.8452C171.403 12.8452 172.177 12.8043 172.91 12.7634V13.3362H172.584C171.362 13.3362 170.996 13.4998 170.996 14.6452V25.8134L171.036 26.5089L169.529 26.2225L160.24 14.8907V24.2998C160.24 25.4043 160.606 25.6089 161.829 25.6089H162.155V26.1816C161.421 26.1407 160.647 26.0998 159.873 26.0998C159.099 26.0998 158.325 26.1407 157.551 26.1816V25.6089H157.877C159.058 25.6089 159.384 25.4452 159.384 24.2998V14.6452C159.384 13.5407 159.058 13.3362 157.999 13.3362H157.714V12.7634C158.284 12.8043 158.814 12.8452 159.384 12.8452C159.955 12.8452 160.484 12.8043 161.055 12.7634L170.14 24.2589Z" fill="white"/>
<path d="M19.5345 8.23926H0.0795898V26.6772H19.5345V8.23926Z" fill="white"/>
<path d="M18.4714 10.474V9.23682H1.06006V22.1673C3.51236 22.1673 6.16902 20.6109 8.78481 16.5801C11.4823 12.4694 15.3652 10.474 18.4714 10.474Z" fill="#ED1B2F"/>
<path d="M1.06006 24.442V25.6792H18.4714V12.7886C16.0191 12.7886 13.3624 14.345 10.7467 18.3758C8.08999 22.4465 4.20718 24.442 1.06006 24.442Z" fill="#0E4E96"/>
</g>
<defs>
<clipPath id="clip0_5952_15179">
<rect width="270" height="39" fill="white"/>
</clipPath>
</defs>
</svg>
