<?xml version="1.0" encoding="UTF-8"?>
<svg version="1.1" xmlns="http://www.w3.org/2000/svg" width="330" height="308">
<path d="M0 0 C5.28 0 10.56 0 16 0 C17.98 3.96 19.96 7.92 22 12 C23.98 8.04 25.96 4.08 28 0 C32.95 0 37.9 0 43 0 C43 1.32 43 2.64 43 4 C41.68 4 40.36 4 39 4 C39 9.28 39 14.56 39 20 C40.32 20 41.64 20 43 20 C43 21.32 43 22.64 43 24 C37.72 24 32.44 24 27 24 C27 22.68 27 21.36 27 20 C28.32 20 29.64 20 31 20 C30.505 15.05 30.505 15.05 30 10 C27.69 14.62 25.38 19.24 23 24 C21.35 24 19.7 24 18 24 C15.69 19.38 13.38 14.76 11 10 C10.67 13.3 10.34 16.6 10 20 C11.32 20 12.64 20 14 20 C14 21.32 14 22.64 14 24 C9.71 24 5.42 24 1 24 C1 22.68 1 21.36 1 20 C1.99 19.67 2.98 19.34 4 19 C4 14.38 4 9.76 4 5 C2.68 4.67 1.36 4.34 0 4 C0 2.68 0 1.36 0 0 Z " fill="#000000" transform="translate(158,283)"/>
<path d="M0 0 C0 2.97 0 5.94 0 9 C-0.99 9.495 -0.99 9.495 -2 10 C-1.2575 10.5259375 -1.2575 10.5259375 -0.5 11.0625 C1.79395236 14.02552179 1.38888282 16.37042697 1 20 C-0.79711887 23.06567337 -3.56036623 23.69957076 -6.88500977 24.61889648 C-10.90278083 25.34286516 -14.88926557 24.93285053 -18.9375 24.625 C-19.81212891 24.56828125 -20.68675781 24.5115625 -21.58789062 24.453125 C-23.72599869 24.31292119 -25.86313113 24.15797033 -28 24 C-28 20.7 -28 17.4 -28 14 C-25.625 14.3125 -25.625 14.3125 -23 15 C-22.34 15.99 -21.68 16.98 -21 18 C-17.85069107 19.04976964 -15.61185544 19.10131595 -12.3125 19.0625 C-11.31863281 19.05347656 -10.32476563 19.04445313 -9.30078125 19.03515625 C-8.54152344 19.02355469 -7.78226563 19.01195312 -7 19 C-6.67 18.01 -6.34 17.02 -6 16 C-6.845625 15.96261719 -7.69125 15.92523438 -8.5625 15.88671875 C-24.00844391 14.99155609 -24.00844391 14.99155609 -28 11 C-28.2303928 8.14312929 -28.41631212 5.79604222 -28 3 C-21.42042843 -4.03333513 -8.54304534 -0.99049801 0 0 Z M-21 5 C-21 5.66 -21 6.32 -21 7 C-15.39 7.66 -9.78 8.32 -4 9 C-5.5406389 4.99422187 -5.5406389 4.99422187 -8.1875 3.75 C-13.09631075 2.4409838 -16.71287127 2.14191418 -21 5 Z " fill="#000000" transform="translate(28,283)"/>
<path d="M0 0 C10.18768637 -1.06970707 10.18768637 -1.06970707 14.40234375 1.41796875 C16.37841539 3.19681251 18.1929973 5.05110795 20 7 C21.65651812 8.34592097 23.31806068 9.6859849 25 11 C25.33 8.69 25.66 6.38 26 4 C24.68 4 23.36 4 22 4 C22 2.68 22 1.36 22 0 C26.62 0 31.24 0 36 0 C36 1.32 36 2.64 36 4 C34.68 4 33.36 4 32 4 C32 10.6 32 17.2 32 24 C24.15365239 22.8790932 24.15365239 22.8790932 21.5 19.8125 C18.21716676 16.2095719 14.73837969 13.12803199 11 10 C10.67 13.3 10.34 16.6 10 20 C11.32 20 12.64 20 14 20 C14 21.32 14 22.64 14 24 C9.71 24 5.42 24 1 24 C1 22.68 1 21.36 1 20 C1.99 19.67 2.98 19.34 4 19 C4 14.38 4 9.76 4 5 C2.68 4.67 1.36 4.34 0 4 C0 2.68 0 1.36 0 0 Z " fill="#000000" transform="translate(70,283)"/>
<path d="M0 0 C0 2.97 0 5.94 0 9 C-0.99 9.495 -0.99 9.495 -2 10 C-1.319375 10.53625 -0.63875 11.0725 0.0625 11.625 C2 14 2 14 1.9375 17.0625 C0.59459459 21.27027027 0.59459459 21.27027027 -2 23 C-7.70441245 25.07567008 -12.43078006 25.10902256 -18.4375 24.625 C-19.26443359 24.56828125 -20.09136719 24.5115625 -20.94335938 24.453125 C-22.96302888 24.31303232 -24.98165637 24.15805019 -27 24 C-27 20.7 -27 17.4 -27 14 C-26.34 13.67 -25.68 13.34 -25 13 C-25.495 12.62875 -25.99 12.2575 -26.5 11.875 C-28 10 -28 10 -28.5 7.0625 C-28 4 -28 4 -25.6875 1.6875 C-18.17264116 -3.0311323 -8.41867915 -1.10408907 0 0 Z M-21 5 C-21 5.66 -21 6.32 -21 7 C-19.10507994 7.33848652 -17.20901534 7.67056911 -15.3125 8 C-14.25675781 8.185625 -13.20101563 8.37125 -12.11328125 8.5625 C-9.35095938 8.95068074 -6.78257957 9.08259976 -4 9 C-5.0041412 6.2614331 -5.66177234 5.18790425 -8.25 3.75 C-13.0051306 2.4531462 -16.73929179 2.37802572 -21 5 Z M-23 14 C-22.80528889 15.94999129 -22.80528889 15.94999129 -22 18 C-18.93541235 20.20398427 -16.07625473 20.29753536 -12.375 20.3125 C-11.41335938 20.32925781 -10.45171875 20.34601563 -9.4609375 20.36328125 C-8.24277344 20.18345703 -8.24277344 20.18345703 -7 20 C-6.34 19.01 -5.68 18.02 -5 17 C-8.65172633 14.73150334 -12.0127118 14.6104049 -16.25 14.375 C-18.14492187 14.26285156 -18.14492187 14.26285156 -20.078125 14.1484375 C-21.04234375 14.09945313 -22.0065625 14.05046875 -23 14 Z " fill="#000000" transform="translate(272,283)"/>
<path d="M0 0 C6.05234657 4.2366426 6.05234657 4.2366426 7.10546875 7.796875 C7.81891147 12.00689343 7.76192239 14.20600735 5.875 18.125 C1.98378856 22.42581264 -1.85229736 24.39345764 -7.578125 24.953125 C-14.34257588 25.09912034 -19.90701114 24.21001507 -24.9375 19.4375 C-26.75430673 16.31259243 -27.42753983 14.37300874 -27.5 10.75 C-26.2061007 6.33552004 -25.12619523 4.24573789 -21.5 1.375 C-14.85972897 -2.22181348 -7.10651839 -2.53804228 0 0 Z M-16.5 4.75 C-18.95618439 8.43427659 -19.19019715 11.47077768 -18.5 15.75 C-16.47708097 18.78437855 -15.07772802 19.56161043 -11.625 20.6875 C-7.7262352 20.7654753 -5.73952181 19.88513938 -2.5 17.75 C-0.29644453 15.06741074 -0.50201262 13.71176013 -0.6875 10.1875 C-1.29238402 6.91263012 -1.29238402 6.91263012 -2.5625 4.875 C-6.8035308 2.41246599 -12.45162053 1.63586195 -16.5 4.75 Z " fill="#000000" transform="translate(60.5,283.25)"/>
<path d="M0 0 C5.61 0 11.22 0 17 0 C17 1.32 17 2.64 17 4 C15.68 4 14.36 4 13 4 C13.14024219 6.47960136 13.2869185 8.95852402 13.4375 11.4375 C13.47681641 12.14455078 13.51613281 12.85160156 13.55664062 13.58007812 C13.47624438 17.08690419 13.47624438 17.08690419 15 20 C20.17735677 20.37052339 20.17735677 20.37052339 25 19 C25.31241371 16.45058627 25.51303421 13.99638487 25.625 11.4375 C25.66367188 10.72658203 25.70234375 10.01566406 25.7421875 9.28320312 C25.83671783 7.52257575 25.91945817 5.76132272 26 4 C24.68 4 23.36 4 22 4 C22 2.68 22 1.36 22 0 C26.62 0 31.24 0 36 0 C36 1.32 36 2.64 36 4 C34.68 4 33.36 4 32 4 C32.04640625 5.10859375 32.0928125 6.2171875 32.140625 7.359375 C32.17815102 8.82288968 32.21455029 10.28643356 32.25 11.75 C32.30027344 12.84441406 32.30027344 12.84441406 32.3515625 13.9609375 C32.41552369 17.47880305 32.31747853 19.55890151 30.234375 22.453125 C25.14351942 25.97756348 18.98312835 25.48945197 13 25 C10.31590164 24.27861929 8.44948284 23.3844903 6 22 C4.47893366 18.95786733 4.62570662 15.71952428 4.4375 12.375 C4.39431641 11.66859375 4.35113281 10.9621875 4.30664062 10.234375 C4.20055249 8.48981463 4.09977111 6.74493303 4 5 C2.68 4.67 1.36 4.34 0 4 C0 2.68 0 1.36 0 0 Z " fill="#000000" transform="translate(204,283)"/>
<path d="M0 0 C0 2.97 0 5.94 0 9 C-4 9 -4 9 -6.125 7.0625 C-6.74375 6.381875 -7.3625 5.70125 -8 5 C-11.48761171 3.25619414 -15.29457709 4.13132943 -19 5 C-21.72466785 7.22927369 -21.93171915 8.53178843 -22.4375 12 C-22.22253649 15.05270539 -22.22253649 15.05270539 -20.375 17.3125 C-17.45949827 19.38404071 -15.5657278 19.85446009 -12 20 C-9.14973339 19.20457676 -7.4907653 18.51039591 -5.4375 16.375 C-4 15 -4 15 0 15 C-0.29097264 18.49167166 -0.75539583 19.76200675 -3.3125 22.25 C-7.99155583 25.29682705 -12.4710077 25.54186131 -18 25 C-22.35608861 24.05337301 -25.87260834 22.5456063 -29 19.3125 C-31.44285966 15.26651369 -31.97352159 12.60126714 -31 8 C-28.94400958 3.6413003 -26.7216504 1.13850229 -22.11328125 -0.5390625 C-14.90438522 -2.11142799 -7.22905897 -0.94807331 0 0 Z " fill="#000000" transform="translate(330,283)"/>
<path d="M0 0 C5.28 0 10.56 0 16 0 C15.67 1.65 15.34 3.3 15 5 C16.83358335 7.33454661 16.83358335 7.33454661 19 9 C20.66846734 7.30504044 20.66846734 7.30504044 22 5 C21.67 3.35 21.34 1.7 21 0 C25.62 0 30.24 0 35 0 C35 1.32 35 2.64 35 4 C34.154375 4.165 33.30875 4.33 32.4375 4.5 C27.66800159 6.58123567 24.87810266 9.70669768 22 14 C20.96975233 17.29889553 20.96975233 17.29889553 21 20 C22.32 20 23.64 20 25 20 C25 21.32 25 22.64 25 24 C19.72 24 14.44 24 9 24 C9 22.68 9 21.36 9 20 C10.32 20 11.64 20 13 20 C11.80549068 13.62928364 8.92411159 9.25925264 4 5 C1.87491875 4.24014565 1.87491875 4.24014565 0 4 C0 2.68 0 1.36 0 0 Z " fill="#000000" transform="translate(108,283)"/>
<path d="M0 0 C5.28 0 10.56 0 16 0 C16 1.32 16 2.64 16 4 C14.68 4 13.36 4 12 4 C12 9.28 12 14.56 12 20 C13.32 20 14.64 20 16 20 C16 21.32 16 22.64 16 24 C10.72 24 5.44 24 0 24 C0 22.68 0 21.36 0 20 C1.32 20 2.64 20 4 20 C4 14.72 4 9.44 4 4 C2.68 4 1.36 4 0 4 C0 2.68 0 1.36 0 0 Z " fill="#000000" transform="translate(279,283)"/>
<path d="M0 0 C2.375 1.625 2.375 1.625 4 4 C4.61195145 7.6717087 4.48706506 9.28813568 2.375 12.375 C-0.71186432 14.48706506 -2.3282913 14.61195145 -6 14 C-8.375 12.375 -8.375 12.375 -10 10 C-10.61195145 6.3282913 -10.48706506 4.71186432 -8.375 1.625 C-5.28813568 -0.48706506 -3.6717087 -0.61195145 0 0 Z " fill="#F90000" transform="translate(168,94)"/>
<path d="M0 0 C2.375 1.625 2.375 1.625 4 4 C4.61195145 7.6717087 4.48706506 9.28813568 2.375 12.375 C-0.71186432 14.48706506 -2.3282913 14.61195145 -6 14 C-8.375 12.375 -8.375 12.375 -10 10 C-10.61195145 6.3282913 -10.48706506 4.71186432 -8.375 1.625 C-5.28813568 -0.48706506 -3.6717087 -0.61195145 0 0 Z " fill="#F90000" transform="translate(168,212)"/>
<path d="M0 0 C2.375 1.625 2.375 1.625 4 4 C4.61195145 7.6717087 4.48706506 9.28813568 2.375 12.375 C-0.71186432 14.48706506 -2.3282913 14.61195145 -6 14 C-8.375 12.375 -8.375 12.375 -10 10 C-10.61195145 6.3282913 -10.48706506 4.71186432 -8.375 1.625 C-5.28813568 -0.48706506 -3.6717087 -0.61195145 0 0 Z " fill="#F90000" transform="translate(50,94)"/>
<path d="M0 0 C3.4375 1 3.4375 1 5.375 2.75 C6.67120853 5.49491218 6.96237013 7.00074212 6.4375 10 C4.8125 12.3125 4.8125 12.3125 2.4375 14 C-1.2342087 14.61195145 -2.85063568 14.48706506 -5.9375 12.375 C-8.04956506 9.28813568 -8.17445145 7.6717087 -7.5625 4 C-5.27647022 0.43379354 -4.27192374 0 0 0 Z " fill="#F90000" transform="translate(236.5625,212)"/>
<path d="M0 0 C2.32749345 3.49124017 2.50299316 4.89222251 2 9 C0.375 11.375 0.375 11.375 -2 13 C-5.65852292 13.60975382 -7.30512879 13.44543026 -10.4375 11.4375 C-12 9 -12 9 -12 5.4375 C-11 2 -11 2 -9.375 0 C-5.92336696 -1.45331917 -3.57190516 -0.92604949 0 0 Z " fill="#F90000" transform="translate(99,213)"/>
<path d="M0 0 C2.4375 2.125 2.4375 2.125 4 5 C4 8.50732933 3.6345092 10.2434698 1.375 12.9375 C-2.04750467 14.46862051 -4.41676602 13.8626304 -8 13 C-10 11 -10 11 -10.375 7.0625 C-10.29081697 4.1634469 -10.24906476 3.30654124 -8.375 1 C-5.26291151 -0.31035305 -3.34451564 -0.55741927 0 0 Z " fill="#F90000" transform="translate(192,94)"/>
<path d="M0 0 C3 2 3 2 4 5.3125 C4 9 4 9 1.9375 12 C-1 14 -1 14 -4.125 14 C-8.51648352 12.47252747 -8.51648352 12.47252747 -10 10 C-10.36528977 6.5906288 -10.6140629 4.11976176 -8.9375 1.0625 C-5.91362524 -0.5957539 -3.37613017 -0.30144019 0 0 Z " fill="#F90000" transform="translate(121,47)"/>
<path d="M0 0 C3.4375 1 3.4375 1 5.375 2.75 C6.67120853 5.49491218 6.96237013 7.00074212 6.4375 10 C4.8125 12.3125 4.8125 12.3125 2.4375 14 C-1.2342087 14.61195145 -2.85063568 14.48706506 -5.9375 12.375 C-8.04956506 9.28813568 -8.17445145 7.6717087 -7.5625 4 C-5.27647022 0.43379354 -4.27192374 0 0 0 Z " fill="#F90000" transform="translate(236.5625,23)"/>
<path d="M0 0 C2.32749345 3.49124017 2.50299316 4.89222251 2 9 C0.375 11.375 0.375 11.375 -2 13 C-5.65852292 13.60975382 -7.30512879 13.44543026 -10.4375 11.4375 C-12 9 -12 9 -12 5.4375 C-11 2 -11 2 -9.375 0 C-5.92336696 -1.45331917 -3.57190516 -0.92604949 0 0 Z " fill="#F90000" transform="translate(99,24)"/>
<path d="M0 0 C2.42194927 1.53390121 2.88729401 2.69408374 3.875 5.375 C4.04299299 8.90285284 3.29492223 10.33492902 1 13 C-2.22380166 14.02887287 -4.10543271 14.31430743 -7.3125 13.1875 C-9 12 -9 12 -10 10 C-10.44948064 3.81964117 -10.44948064 3.81964117 -8.9375 1.0625 C-5.88023824 -0.6140629 -3.4093712 -0.36528977 0 0 Z " fill="#F90000" transform="translate(192,236)"/>
<path d="M0 0 C2.375 1.625 2.375 1.625 4 4 C4.5625 7 4.5625 7 4 10 C1.875 12.4375 1.875 12.4375 -1 14 C-4.21382832 13.93572343 -6.16137435 13.53112958 -8.875 11.8125 C-10.58558918 9.05655076 -10.45339217 7.17374516 -10 4 C-7.21921757 -0.06422047 -4.81255755 -0.80209293 0 0 Z " fill="#F90000" transform="translate(168,236)"/>
<path d="M0 0 C2.4375 1.5625 2.4375 1.5625 4 4 C4 7.81153499 3.80074051 10.05097421 1.3125 13 C-1.87167993 14.37694267 -3.70924801 13.980224 -7 13 C-8.875 11.8125 -8.875 11.8125 -10 10 C-10.54068562 6.36968224 -10.46379841 4.67785921 -8.375 1.625 C-5.28813568 -0.48706506 -3.6717087 -0.61195145 0 0 Z " fill="#F90000" transform="translate(239,165)"/>
<path d="M0 0 C2.375 1.0625 2.375 1.0625 4 3 C4.57349318 6.9427656 4.5664946 9.09360864 2.4375 12.5 C0 14 0 14 -3.5625 14 C-7 13 -7 13 -9 11.3125 C-10.37694267 8.12832007 -9.980224 6.29075199 -9 3 C-6.69027592 -0.64693276 -4.08119519 -0.49973819 0 0 Z " fill="#F90000" transform="translate(215,165)"/>
<path d="M0 0 C2.5 2.125 2.5 2.125 4 5 C4 8.50732933 3.6345092 10.2434698 1.375 12.9375 C-2.07517724 14.48100034 -4.39999716 13.93333407 -8 13 C-10.46324069 9.30513897 -10.38991688 7.36706908 -10 3 C-7.77944313 -1.04925076 -4.19686267 -0.58903336 0 0 Z " fill="#F90000" transform="translate(192,165)"/>
<path d="M0 0 C2.375 1.625 2.375 1.625 4 4 C4.5625 7 4.5625 7 4 10 C1.875 12.4375 1.875 12.4375 -1 14 C-4.21382832 13.93572343 -6.16137435 13.53112958 -8.875 11.8125 C-10.58558918 9.05655076 -10.45339217 7.17374516 -10 4 C-7.21921757 -0.06422047 -4.81255755 -0.80209293 0 0 Z " fill="#F90000" transform="translate(168,165)"/>
<path d="M0 0 C2.375 1.625 2.375 1.625 4 4 C4.45339217 7.17374516 4.58558918 9.05655076 2.875 11.8125 C0.12749766 13.55258481 -1.7377941 14 -5 14 C-7.9375 12 -7.9375 12 -10 9 C-10 5.3125 -10 5.3125 -9 2 C-5.50875983 -0.32749345 -4.10777749 -0.50299316 0 0 Z " fill="#F90000" transform="translate(97,165)"/>
<path d="M0 0 C4.39148352 1.52747253 4.39148352 1.52747253 5.875 4 C6.24028977 7.4093712 6.4890629 9.88023824 4.8125 12.9375 C1.75523824 14.6140629 -0.7156288 14.36528977 -4.125 14 C-6.78510658 12.40393605 -7.10057088 11.07023371 -8.125 8.125 C-8.125 5 -8.125 5 -6.0625 2.0625 C-3.125 0 -3.125 0 0 0 Z " fill="#F90000" transform="translate(213.125,141)"/>
<path d="M0 0 C4.30169173 1.40272556 4.30169173 1.40272556 5.875 3.9375 C6.41568562 7.56781776 6.33879841 9.25964079 4.25 12.3125 C1.16313568 14.42456506 -0.4532913 14.54945145 -4.125 13.9375 C-7.21384321 11.82408096 -7.99608765 10.62503254 -8.6875 6.9375 C-8.125 3.9375 -8.125 3.9375 -6 1.5 C-3.125 -0.0625 -3.125 -0.0625 0 0 Z " fill="#F90000" transform="translate(166.125,141.0625)"/>
<path d="M0 0 C1.9375 1.6875 1.9375 1.6875 3 4 C2.87304813 7.11032079 2.47953174 9.20078043 0.875 11.875 C-2.12446786 13.67468071 -4.59386668 13.36494286 -8 13 C-9.9375 11.9375 -9.9375 11.9375 -11 10 C-11.65439093 3.89235127 -11.65439093 3.89235127 -9.625 1.125 C-6.09737898 -1.31719917 -4.15086173 -1.10124903 0 0 Z " fill="#F90000" transform="translate(122,142)"/>
<path d="M0 0 C1.875 0.3125 1.875 0.3125 3.875 1.375 C5.45933618 4.44465135 5.23748449 6.92931143 4.875 10.3125 C3.34109879 12.73444927 2.18091626 13.19979401 -0.5 14.1875 C-4.06289883 14.35716185 -5.46320316 13.67854164 -8.125 11.3125 C-9.18291799 7.6759069 -9.55803731 5.438397 -8.1875 1.875 C-5.42414899 -0.21844774 -3.40010058 -0.20000592 0 0 Z " fill="#F90000" transform="translate(285.125,117.6875)"/>
<path d="M0 0 C2.0625 1.5625 2.0625 1.5625 3 4 C3 7.5625 3 7.5625 2 11 C-0.1875 13.0625 -0.1875 13.0625 -3 14 C-6.53164296 13.23827309 -8.43871412 12.56128588 -11 10 C-11.5410628 4.04830918 -11.5410628 4.04830918 -10 1.0625 C-6.75482811 -0.66149757 -3.58008387 -0.65498416 0 0 Z " fill="#F90000" transform="translate(240,118)"/>
<path d="M0 0 C2.375 1.625 2.375 1.625 4 4 C4.61195145 7.6717087 4.48706506 9.28813568 2.375 12.375 C0 14 0 14 -3 14.5625 C-6 14 -6 14 -8.4375 11.875 C-10 9 -10 9 -9.9375 5.875 C-8.12944906 0.33031044 -5.83514388 -0.83359198 0 0 Z " fill="#F90000" transform="translate(286,94)"/>
<path d="M0 0 C3 0.5625 3 0.5625 5.4375 2.6875 C7 5.5625 7 5.5625 6.9375 8.6875 C5.53477444 12.98919173 5.53477444 12.98919173 3 14.5625 C-0.63031776 15.10318562 -2.32214079 15.02629841 -5.375 12.9375 C-7.48706506 9.85063568 -7.61195145 8.2342087 -7 4.5625 C-4.88658096 1.47365679 -3.68753254 0.69141235 0 0 Z " fill="#F90000" transform="translate(236,93.4375)"/>
<path d="M0 0 C2.375 1.625 2.375 1.625 4 4 C4.61195145 7.6717087 4.48706506 9.28813568 2.375 12.375 C0 14 0 14 -3 14.5625 C-6 14 -6 14 -8.4375 11.875 C-10 9 -10 9 -9.9375 5.875 C-8.12944906 0.33031044 -5.83514388 -0.83359198 0 0 Z " fill="#F90000" transform="translate(215,94)"/>
<path d="M0 0 C3 0.5625 3 0.5625 5.4375 2.6875 C7 5.5625 7 5.5625 6.9375 8.6875 C5.53477444 12.98919173 5.53477444 12.98919173 3 14.5625 C-0.63031776 15.10318562 -2.32214079 15.02629841 -5.375 12.9375 C-7.48706506 9.85063568 -7.61195145 8.2342087 -7 4.5625 C-4.88658096 1.47365679 -3.68753254 0.69141235 0 0 Z " fill="#F90000" transform="translate(118,93.4375)"/>
<path d="M0 0 C2.375 1.625 2.375 1.625 4 4 C4.61195145 7.6717087 4.48706506 9.28813568 2.375 12.375 C0 14 0 14 -3 14.5625 C-6 14 -6 14 -8.4375 11.875 C-10 9 -10 9 -9.9375 5.875 C-8.12944906 0.33031044 -5.83514388 -0.83359198 0 0 Z " fill="#F90000" transform="translate(97,94)"/>
<path d="M0 0 C1.8125 1.125 1.8125 1.125 3 3 C3.36528977 6.4093712 3.6140629 8.88023824 1.9375 11.9375 C-1.1652833 13.63902633 -3.53769185 13.42519574 -7 13 C-9.5 11.4375 -9.5 11.4375 -11 9 C-11.0625 5.4375 -11.0625 5.4375 -10 2 C-6.60539102 -1.0174302 -4.26129477 -1.5699507 0 0 Z " fill="#F90000" transform="translate(98,71)"/>
<path d="M0 0 C3.5625 0.5 3.5625 0.5 6.0625 2.0625 C7.5625 4.5 7.5625 4.5 7.5625 8.0625 C6.5625 11.5 6.5625 11.5 4.875 13.5 C1.69082007 14.87694267 -0.14674801 14.480224 -3.4375 13.5 C-5.3125 12.3125 -5.3125 12.3125 -6.4375 10.5 C-6.85780443 7.20761528 -6.732954 5.16042658 -5.375 2.125 C-3.4375 0.5 -3.4375 0.5 0 0 Z " fill="#F90000" transform="translate(235.4375,46.5)"/>
<path d="M0 0 C1.9375 1.0625 1.9375 1.0625 3 3 C3.63636364 8.93939394 3.63636364 8.93939394 1.875 11.875 C-0.88622381 13.53173428 -2.76578825 14 -6 14 C-8.9375 11.9375 -8.9375 11.9375 -11 9 C-11 5.76578825 -10.53173428 3.88622381 -8.875 1.125 C-5.87553214 -0.67468071 -3.40613332 -0.36494286 0 0 Z " fill="#F90000" transform="translate(216,47)"/>
<path d="M0 0 C2.375 1.625 2.375 1.625 4 4 C4.5625 7 4.5625 7 4 10 C1.875 12.4375 1.875 12.4375 -1 14 C-4.21382832 13.93572343 -6.16137435 13.53112958 -8.875 11.8125 C-10.58558918 9.05655076 -10.45339217 7.17374516 -10 4 C-7.21921757 -0.06422047 -4.81255755 -0.80209293 0 0 Z " fill="#F90000" transform="translate(168,47)"/>
<path d="M0 0 C2.61321414 2.19172799 2.94109015 3.64654092 3.5 7 C3 10 3 10 0.875 12.4375 C-2 14 -2 14 -5.125 14 C-8 13 -8 13 -9.9375 11.375 C-11.48100034 7.92482276 -10.93333407 5.60000284 -10 2 C-6.29584707 -0.46943529 -4.37855495 -0.46913089 0 0 Z " fill="#F90000" transform="translate(98,47)"/>
<path d="M0 0 C4.30169173 1.40272556 4.30169173 1.40272556 5.875 3.9375 C6.41568562 7.56781776 6.33879841 9.25964079 4.25 12.3125 C1.16313568 14.42456506 -0.4532913 14.54945145 -4.125 13.9375 C-7.21384321 11.82408096 -7.99608765 10.62503254 -8.6875 6.9375 C-8.125 3.9375 -8.125 3.9375 -6 1.5 C-3.125 -0.0625 -3.125 -0.0625 0 0 Z " fill="#F90000" transform="translate(166.125,23.0625)"/>
<path d="M0 0 C2.32749345 3.49124017 2.50299316 4.89222251 2 9 C0.375 11.375 0.375 11.375 -2 13 C-5 13.5625 -5 13.5625 -8 13 C-10.4375 10.875 -10.4375 10.875 -12 8 C-12 4.49267067 -11.6345092 2.7565302 -9.375 0.0625 C-5.92482276 -1.48100034 -3.60000284 -0.93333407 0 0 Z " fill="#F90000" transform="translate(217,213)"/>
<path d="M0 0 C3.4375 1.0625 3.4375 1.0625 5.4375 3.3125 C6.59699287 6.5011054 6.60332954 7.89810553 5.4375 11.0625 C4.25 12.875 4.25 12.875 2.4375 14.0625 C-0.85488472 14.48280443 -2.90207342 14.357954 -5.9375 13 C-7.5625 11.0625 -7.5625 11.0625 -8.0625 7.625 C-7.5625 4.0625 -7.5625 4.0625 -6 1.5625 C-3.5625 0.0625 -3.5625 0.0625 0 0 Z " fill="#F90000" transform="translate(189.5625,211.9375)"/>
<path d="M0 0 C2 2 2 2 2.375 5.9375 C2.29081697 8.8365531 2.24906476 9.69345876 0.375 12 C-2.65696965 13.2766188 -4.74003936 13.41616519 -8 13 C-10.36002096 11.45377937 -10.90125807 10.2680138 -11.875 7.625 C-12.0376843 4.20862965 -11.02489572 2.69986096 -9 0 C-5.88135455 -1.55932272 -3.33704665 -0.65549131 0 0 Z " fill="#F90000" transform="translate(146,213)"/>
<path d="M0 0 C3.4375 1 3.4375 1 5.4375 2.6875 C6.81444267 5.87167993 6.417724 7.70924801 5.4375 11 C4.25 12.875 4.25 12.875 2.4375 14 C-1.19281776 14.54068562 -2.88464079 14.46379841 -5.9375 12.375 C-8.04956506 9.28813568 -8.17445145 7.6717087 -7.5625 4 C-5.27647022 0.43379354 -4.27192374 0 0 0 Z " fill="#F90000" transform="translate(118.5625,212)"/>
<path d="M0 0 C3.5625 0.3125 3.5625 0.3125 5.5 1.375 C7.20152633 4.4777833 6.98769574 6.85019185 6.5625 10.3125 C5 12.8125 5 12.8125 2.5625 14.3125 C-1 14.375 -1 14.375 -4.4375 13.3125 C-6.5 11.125 -6.5 11.125 -7.4375 8.3125 C-6.34674936 3.25538338 -5.45079174 0.49552652 0 0 Z " fill="#F90000" transform="translate(141.4375,164.6875)"/>
<path d="M0 0 C3 0.5625 3 0.5625 5.4375 2.6875 C7 5.5625 7 5.5625 7 8.6875 C6 11.5625 6 11.5625 4.375 13.5 C0.92482276 15.04350034 -1.39999716 14.49583407 -5 13.5625 C-7.32749345 10.07125983 -7.50299316 8.67027749 -7 4.5625 C-4.88658096 1.47365679 -3.68753254 0.69141235 0 0 Z " fill="#F90000" transform="translate(118,164.4375)"/>
<path d="M0 0 C2.1595457 1.43969714 2.79150161 2.51884987 3.8125 4.875 C4.06704199 7.75980919 3.33930733 9.45531608 2 12 C-1 14 -1 14 -4.5625 13.75 C-8 13 -8 13 -10 11 C-10.55239643 4.03980504 -10.55239643 4.03980504 -8.9375 1 C-5.86784865 -0.58433618 -3.38318857 -0.36248449 0 0 Z " fill="#F90000" transform="translate(74,165)"/>
<path d="M0 0 C1.875 1.1875 1.875 1.1875 3 3 C3.54068562 6.63031776 3.46379841 8.32214079 1.375 11.375 C-1.71186432 13.48706506 -3.3282913 13.61195145 -7 13 C-9.4375 11.4375 -9.4375 11.4375 -11 9 C-11 5.18846501 -10.80074051 2.94902579 -8.3125 0 C-5.12832007 -1.37694267 -3.29075199 -0.980224 0 0 Z " fill="#F90000" transform="translate(287,142)"/>
<path d="M0 0 C2.875 1 2.875 1 4.8125 2.625 C6.35600034 6.07517724 5.80833407 8.39999716 4.875 12 C1.38375983 14.32749345 -0.01722251 14.50299316 -4.125 14 C-7.21384321 11.88658096 -7.99608765 10.68753254 -8.6875 7 C-8.125 4 -8.125 4 -6 1.5625 C-3.125 0 -3.125 0 0 0 Z " fill="#F90000" transform="translate(237.125,141)"/>
<path d="M0 0 C2.29492223 2.66507098 3.04299299 4.09714716 2.875 7.625 C1.88729401 10.30591626 1.42194927 11.46609879 -1 13 C-4.4093712 13.36528977 -6.88023824 13.6140629 -9.9375 11.9375 C-11.5957539 8.91362524 -11.30144019 6.37613017 -11 3 C-7.91941567 -1.6208765 -5.07962537 -1.4815574 0 0 Z " fill="#F90000" transform="translate(193,142)"/>
<path d="M0 0 C2.46324069 3.69486103 2.38991688 5.63293092 2 10 C0.9375 11.9375 0.9375 11.9375 -1 13 C-4.4375 13.5 -4.4375 13.5 -8 13 C-10.5 10.875 -10.5 10.875 -12 8 C-12 4.49267067 -11.6345092 2.7565302 -9.375 0.0625 C-5.92482276 -1.48100034 -3.60000284 -0.93333407 0 0 Z " fill="#F90000" transform="translate(146,142)"/>
<path d="M0 0 C1.875 1.1875 1.875 1.1875 3 3 C3.54068562 6.63031776 3.46379841 8.32214079 1.375 11.375 C-1.71186432 13.48706506 -3.3282913 13.61195145 -7 13 C-9.4375 11.4375 -9.4375 11.4375 -11 9 C-11 5.18846501 -10.80074051 2.94902579 -8.3125 0 C-5.12832007 -1.37694267 -3.29075199 -0.980224 0 0 Z " fill="#F90000" transform="translate(98,142)"/>
<path d="M0 0 C2.430466 2.430466 2.76271993 3.5989856 3 7 C1.8584081 9.2831838 0.80987317 11.19012683 -1 13 C-7.12145749 13.4534413 -7.12145749 13.4534413 -9.9375 12 C-11.66149757 8.75482811 -11.65498416 5.58008387 -11 2 C-7.93817059 -2.04161482 -4.56939437 -1.10003939 0 0 Z " fill="#F90000" transform="translate(75,142)"/>
<path d="M0 0 C2.875 1 2.875 1 4.8125 2.625 C6.35600034 6.07517724 5.80833407 8.39999716 4.875 12 C1.38375983 14.32749345 -0.01722251 14.50299316 -4.125 14 C-7.21384321 11.88658096 -7.99608765 10.68753254 -8.6875 7 C-8.125 4 -8.125 4 -6 1.5625 C-3.125 0 -3.125 0 0 0 Z " fill="#F90000" transform="translate(48.125,141)"/>
<path d="M0 0 C1.9375 1.0625 1.9375 1.0625 3 3 C3.6414791 8.98713826 3.6414791 8.98713826 1.8125 11.875 C-0.57042043 13.35405406 -2.18417448 13.86591307 -5 14 C-7.75 13 -7.75 13 -10 11 C-11.0625 7.5625 -11.0625 7.5625 -11 4 C-8.19454211 -0.55886907 -5.07534236 -0.64595266 0 0 Z " fill="#F90000" transform="translate(98,118)"/>
<path d="M0 0 C1.87890625 0.37890625 1.87890625 0.37890625 3.94140625 1.94140625 C5.31194356 5.50480325 4.93682424 7.74231315 3.87890625 11.37890625 C1.69140625 13.44140625 1.69140625 13.44140625 -1.12109375 14.37890625 C-4.65273671 13.61717934 -6.55980787 12.94019213 -9.12109375 10.37890625 C-9.47062333 7.16323409 -9.38063542 4.99531773 -8.12109375 2.00390625 C-5.41692132 -0.19323385 -3.41484242 -0.19495417 0 0 Z " fill="#F90000" transform="translate(49.12109375,117.62109375)"/>
<path d="M0 0 C3.125 0.3125 3.125 0.3125 5.5 1.3125 C7.6971401 4.01667243 7.69886042 6.01875133 7.50390625 9.43359375 C7.125 11.3125 7.125 11.3125 5.5625 13.375 C1.999103 14.74553731 -0.2384069 14.37041799 -3.875 13.3125 C-5.9375 11.125 -5.9375 11.125 -6.875 8.3125 C-5.88496232 3.72232531 -5.03679851 0.5474781 0 0 Z " fill="#F90000" transform="translate(140.875,93.6875)"/>
<path d="M0 0 C2 2 2 2 2.3125 4.875 C2 8 2 8 1 10.375 C-1.70417243 12.5721401 -3.70625133 12.57386042 -7.12109375 12.37890625 C-9 12 -9 12 -11.0625 10.4375 C-12.43303731 6.874103 -12.05791799 4.6365931 -11 1 C-7.12126632 -2.65709176 -4.65429004 -2.17200202 0 0 Z " fill="#F80000" transform="translate(170,72)"/>
<path d="M0 0 C2.875 1 2.875 1 4.8125 2.625 C6.35600034 6.07517724 5.80833407 8.39999716 4.875 12 C1.17084707 14.46943529 -0.74644505 14.46913089 -5.125 14 C-7.73821414 11.80827201 -8.06609015 10.35345908 -8.625 7 C-8.125 4 -8.125 4 -6 1.5625 C-3.125 0 -3.125 0 0 0 Z " fill="#F90000" transform="translate(237.125,70)"/>
<path d="M0 0 C1.8125 1.125 1.8125 1.125 3 3 C3.36528977 6.4093712 3.6140629 8.88023824 1.9375 11.9375 C-1.08637476 13.5957539 -3.62386983 13.30144019 -7 13 C-10 11 -10 11 -10.875 7.625 C-11 4 -11 4 -9.75 1.625 C-6.53558525 -1.3598137 -3.99715694 -1.19914708 0 0 Z " fill="#F90000" transform="translate(216,71)"/>
<path d="M0 0 C2.875 1 2.875 1 4.8125 2.625 C6.35600034 6.07517724 5.80833407 8.39999716 4.875 12 C1.18013897 14.46324069 -0.75793092 14.38991688 -5.125 14 C-7.0625 12.9375 -7.0625 12.9375 -8.125 11 C-8.625 7.5625 -8.625 7.5625 -8.125 4 C-5.45946825 0.86408029 -4.13747529 0 0 0 Z " fill="#F90000" transform="translate(119.125,70)"/>
<path d="M0 0 C2.5 2.125 2.5 2.125 4 5 C4 8.50732933 3.6345092 10.2434698 1.375 12.9375 C-2.07517724 14.48100034 -4.39999716 13.93333407 -8 13 C-10.46324069 9.30513897 -10.38991688 7.36706908 -10 3 C-7.77944313 -1.04925076 -4.19686267 -0.58903336 0 0 Z " fill="#F90000" transform="translate(192,47)"/>
<path d="M0 0 C3.4375 0.5 3.4375 0.5 5.375 1.5625 C7.0332539 4.58637476 6.73894019 7.12386983 6.4375 10.5 C4.4375 13.5 4.4375 13.5 1.0625 14.375 C-2.5625 14.5 -2.5625 14.5 -4.9375 13.4375 C-7.1970092 10.7434698 -7.5625 9.00732933 -7.5625 5.5 C-5.49563395 1.53850674 -4.46566401 0.62675986 0 0 Z " fill="#F90000" transform="translate(141.5625,46.5)"/>
<path d="M0 0 C2.32749345 3.49124017 2.50299316 4.89222251 2 9 C0.375 11.375 0.375 11.375 -2 13 C-5 13.5625 -5 13.5625 -8 13 C-10.4375 10.875 -10.4375 10.875 -12 8 C-12 4.49267067 -11.6345092 2.7565302 -9.375 0.0625 C-5.92482276 -1.48100034 -3.60000284 -0.93333407 0 0 Z " fill="#F90000" transform="translate(217,24)"/>
<path d="M0 0 C3.4375 1.0625 3.4375 1.0625 5.4375 3.3125 C6.59699287 6.5011054 6.60332954 7.89810553 5.4375 11.0625 C4.25 12.875 4.25 12.875 2.4375 14.0625 C-0.85488472 14.48280443 -2.90207342 14.357954 -5.9375 13 C-7.5625 11.0625 -7.5625 11.0625 -8.0625 7.625 C-7.5625 4.0625 -7.5625 4.0625 -6 1.5625 C-3.5625 0.0625 -3.5625 0.0625 0 0 Z " fill="#F90000" transform="translate(189.5625,22.9375)"/>
<path d="M0 0 C2 2 2 2 2.375 5.9375 C2.29081697 8.8365531 2.24906476 9.69345876 0.375 12 C-2.65696965 13.2766188 -4.74003936 13.41616519 -8 13 C-10.36002096 11.45377937 -10.90125807 10.2680138 -11.875 7.625 C-12.0376843 4.20862965 -11.02489572 2.69986096 -9 0 C-5.88135455 -1.55932272 -3.33704665 -0.65549131 0 0 Z " fill="#F90000" transform="translate(146,24)"/>
<path d="M0 0 C3.4375 1 3.4375 1 5.4375 2.6875 C6.81444267 5.87167993 6.417724 7.70924801 5.4375 11 C4.25 12.875 4.25 12.875 2.4375 14 C-1.19281776 14.54068562 -2.88464079 14.46379841 -5.9375 12.375 C-8.04956506 9.28813568 -8.17445145 7.6717087 -7.5625 4 C-5.27647022 0.43379354 -4.27192374 0 0 0 Z " fill="#F90000" transform="translate(118.5625,23)"/>
<path d="M0 0 C2.0625 1.5625 2.0625 1.5625 3 4 C2.67272727 10.32727273 2.67272727 10.32727273 0 13 C-6.96019496 13.55239643 -6.96019496 13.55239643 -10 11.9375 C-11.58433618 8.86784865 -11.36248449 6.38318857 -11 3 C-8.85023976 -1.16516046 -4.12934638 -0.75547293 0 0 Z " fill="#F90000" transform="translate(240,189)"/>
<path d="M0 0 C2.0625 1.5625 2.0625 1.5625 3 4 C2.67272727 10.32727273 2.67272727 10.32727273 0 13 C-6.96019496 13.55239643 -6.96019496 13.55239643 -10 11.9375 C-11.58433618 8.86784865 -11.36248449 6.38318857 -11 3 C-8.85023976 -1.16516046 -4.12934638 -0.75547293 0 0 Z " fill="#F90000" transform="translate(122,189)"/>
<path d="M0 0 C2.50041894 0.08168338 3.83455801 0.19140582 6.0625 1.375 C7.64683618 4.44465135 7.42498449 6.92931143 7.0625 10.3125 C6.0625 12.25 6.0625 12.25 4.0625 13.3125 C1.30249526 13.77250079 -1.18154774 13.81670748 -3.9375 13.3125 C-6 11.75 -6 11.75 -6.9375 9.3125 C-6.62815348 3.33180065 -6.4509419 0.51197952 0 0 Z " fill="#F90000" transform="translate(93.9375,188.6875)"/>
<path d="M0 0 C1.9375 1 1.9375 1 3 3 C3.46000079 5.76000474 3.50420748 8.24404774 3 11 C1.4375 13.0625 1.4375 13.0625 -1 14 C-7.32727273 13.67272727 -7.32727273 13.67272727 -10 11 C-10.55239643 4.03980504 -10.55239643 4.03980504 -8.9375 1 C-5.86784865 -0.58433618 -3.38318857 -0.36248449 0 0 Z " fill="#F90000" transform="translate(263,165)"/>
<path d="M0 0 C2 2 2 2 2.3125 5.9375 C2.23081662 8.43791894 2.12109418 9.77205801 0.9375 12 C-2.13215135 13.58433618 -4.61681143 13.36248449 -8 13 C-9.9375 12 -9.9375 12 -11 10 C-11.46000079 7.23999526 -11.50420748 4.75595226 -11 2 C-7.93817059 -2.04161482 -4.56939437 -1.10003939 0 0 Z " fill="#F90000" transform="translate(264,142)"/>
<path d="M0 0 C1.9375 1.0625 1.9375 1.0625 3 3 C3.6414791 8.98713826 3.6414791 8.98713826 1.8125 11.875 C-0.57042043 13.35405406 -2.18417448 13.86591307 -5 14 C-7.75 12.9375 -7.75 12.9375 -10 11 C-11.02887287 7.77619834 -11.31430743 5.89456729 -10.1875 2.6875 C-7.61888608 -0.96263558 -4.11717046 -0.28892424 0 0 Z " fill="#F90000" transform="translate(216,118)"/>
<path d="M0 0 C2.86801846 0.08864784 3.78417611 0.16414857 6.125 1.9375 C7.49553731 5.500897 7.12041799 7.7384069 6.0625 11.375 C3.875 13.4375 3.875 13.4375 1.0625 14.375 C-2.125 13.75 -2.125 13.75 -4.9375 12.375 C-6.9375 9.375 -6.9375 9.375 -6.6875 5.8125 C-5.6207884 0.92340516 -5.02163621 0.47825107 0 0 Z " fill="#F90000" transform="translate(164.9375,117.625)"/>
<path d="M0 0 C3 2 3 2 3.875 5.375 C4 9 4 9 2.875 11.375 C0.49279641 13.43957645 -0.84509951 13.92488332 -4 14 C-6.2831838 12.8584081 -8.19012683 11.80987317 -10 10 C-10.45681382 3.83301344 -10.45681382 3.83301344 -8.9375 1.0625 C-5.91362524 -0.5957539 -3.37613017 -0.30144019 0 0 Z " fill="#F90000" transform="translate(121,118)"/>
<path d="M0 0 C2.29492223 2.66507098 3.04299299 4.09714716 2.875 7.625 C1.88729401 10.30591626 1.42194927 11.46609879 -1 13 C-4.4093712 13.36528977 -6.88023824 13.6140629 -9.9375 11.9375 C-11.6140629 8.88023824 -11.36528977 6.4093712 -11 3 C-7.89543922 -1.23349197 -4.90176779 -1.40050508 0 0 Z " fill="#F90000" transform="translate(193,71)"/>
<path d="M0 0 C1.8125 1.125 1.8125 1.125 3 3 C3.36528977 6.4093712 3.6140629 8.88023824 1.9375 11.9375 C-1.11976176 13.6140629 -3.5906288 13.36528977 -7 13 C-9.42194927 11.46609879 -9.88729401 10.30591626 -10.875 7.625 C-11.03879238 4.18536009 -10.0904649 2.68774058 -8 0 C-4.65044556 -1.11651815 -3.32740404 -0.99822121 0 0 Z " fill="#F90000" transform="translate(145,71)"/>
<path d="M0 0 C2.1595457 1.43969714 2.79150161 2.51884987 3.8125 4.875 C4.06704199 7.75980919 3.33930733 9.45531608 2 12 C-1 14 -1 14 -4.5625 13.75 C-8 13 -8 13 -10 11 C-10.55239643 4.03980504 -10.55239643 4.03980504 -8.9375 1 C-5.86784865 -0.58433618 -3.38318857 -0.36248449 0 0 Z " fill="#F90000" transform="translate(74,47)"/>
<path d="M0 0 C3.625 0.25 3.625 0.25 5.5625 1.3125 C7.2207539 4.33637476 6.92644019 6.87386983 6.625 10.25 C4.625 13.25 4.625 13.25 1.8125 14.125 C-2.00974729 14.27489205 -3.48411966 13.72789743 -6.375 11.25 C-7.375 8.875 -7.375 8.875 -7.375 6.25 C-4.41346154 0.32692308 -4.41346154 0.32692308 0 0 Z " fill="#F90000" transform="translate(141.375,235.75)"/>
<path d="M0 0 C2.50041894 0.08168338 3.83455801 0.19140582 6.0625 1.375 C7.64683618 4.44465135 7.42498449 6.92931143 7.0625 10.3125 C6.0625 12.25 6.0625 12.25 4.0625 13.3125 C1.28022014 13.82838106 -1.16562414 13.92334998 -3.9375 13.3125 C-6 11.1875 -6 11.1875 -6.9375 8.3125 C-6.60592918 2.67579604 -5.95938361 0.47296695 0 0 Z " fill="#F90000" transform="translate(211.9375,188.6875)"/>
<path d="M0 0 C2.42194927 1.53390121 2.88729401 2.69408374 3.875 5.375 C4.04145361 8.87052572 3.22535743 10.32957109 1 13 C-2.07568797 14.21408736 -3.57749985 14.12482959 -6.75 13.1875 C-9 12 -9 12 -10 10 C-10.44948064 3.81964117 -10.44948064 3.81964117 -8.9375 1.0625 C-5.88023824 -0.6140629 -3.4093712 -0.36528977 0 0 Z " fill="#F90000" transform="translate(192,118)"/>
<path d="M0 0 C1.9375 1.0625 1.9375 1.0625 3 3 C3.6414791 8.98713826 3.6414791 8.98713826 1.8125 11.875 C-0.57042043 13.35405406 -2.18417448 13.86591307 -5 14 C-7.75 12.9375 -7.75 12.9375 -10 11 C-11.02887287 7.77619834 -11.31430743 5.89456729 -10.1875 2.6875 C-7.61888608 -0.96263558 -4.11717046 -0.28892424 0 0 Z " fill="#F90000" transform="translate(145,118)"/>
<path d="M0 0 C1.9375 1 1.9375 1 3 3 C3.46000079 5.76000474 3.50420748 8.24404774 3 11 C1.4375 13.0625 1.4375 13.0625 -1 14 C-7.32727273 13.67272727 -7.32727273 13.67272727 -10 11 C-10.55239643 4.03980504 -10.55239643 4.03980504 -8.9375 1 C-5.86784865 -0.58433618 -3.38318857 -0.36248449 0 0 Z " fill="#F90000" transform="translate(263,47)"/>
<path d="M0 0 C2.86801846 0.08864784 3.78417611 0.16414857 6.125 1.9375 C7.45524773 5.3961441 6.91857025 7.8190159 6.0625 11.375 C4.0625 13.375 4.0625 13.375 0.125 13.75 C-2.74301846 13.66135216 -3.65917611 13.58585143 -6 11.8125 C-7.33024773 8.3538559 -6.79357025 5.9309841 -5.9375 2.375 C-3.9375 0.375 -3.9375 0.375 0 0 Z " fill="#F90000" transform="translate(164.9375,188.625)"/>
<path d="M0 0 C2 2 2 2 2.375 5.9375 C2.28635216 8.80551846 2.21085143 9.72167611 0.4375 12.0625 C-3.0211441 13.39274773 -5.4440159 12.85607025 -9 12 C-11 10 -11 10 -11.375 6.0625 C-11.28635216 3.19448154 -11.21085143 2.27832389 -9.4375 -0.0625 C-5.9788559 -1.39274773 -3.5559841 -0.85607025 0 0 Z " fill="#F90000" transform="translate(264,95)"/>
<path d="M0 0 C2 2 2 2 2.375 5.9375 C2.28635216 8.80551846 2.21085143 9.72167611 0.4375 12.0625 C-3.0211441 13.39274773 -5.4440159 12.85607025 -9 12 C-11 10 -11 10 -11.375 6.0625 C-11.28635216 3.19448154 -11.21085143 2.27832389 -9.4375 -0.0625 C-5.9788559 -1.39274773 -3.5559841 -0.85607025 0 0 Z " fill="#F90000" transform="translate(75,95)"/>
<path d="M0 0 C2.430466 2.430466 2.76271993 3.5989856 3 7 C1.8584081 9.2831838 0.80987317 11.19012683 -1 13 C-7.16698656 13.45681382 -7.16698656 13.45681382 -9.9375 11.9375 C-11.5957539 8.91362524 -11.30144019 6.37613017 -11 3 C-7.84482371 -1.73276443 -5.17523435 -1.21122506 0 0 Z " fill="#F90000" transform="translate(75,71)"/>
<path d="M0 0 C2.86801846 0.08864784 3.78417611 0.16414857 6.125 1.9375 C7.45524773 5.3961441 6.91857025 7.8190159 6.0625 11.375 C4.0625 13.375 4.0625 13.375 0.125 13.75 C-2.74301846 13.66135216 -3.65917611 13.58585143 -6 11.8125 C-7.33024773 8.3538559 -6.79357025 5.9309841 -5.9375 2.375 C-3.9375 0.375 -3.9375 0.375 0 0 Z " fill="#F90000" transform="translate(164.9375,-0.375)"/>
<path d="M0 0 C2.0625 2.125 2.0625 2.125 3 5 C2.875 8.1875 2.875 8.1875 2 11 C-1.69486103 13.46324069 -3.63293092 13.38991688 -8 13 C-9.9375 11.9375 -9.9375 11.9375 -11 10 C-11.36248449 6.61681143 -11.58433618 4.13215135 -10 1.0625 C-6.75215027 -0.66292017 -3.57481814 -0.78779776 0 0 Z " fill="#F90000" transform="translate(193,189)"/>
<path d="M0 0 C1.9375 1.0625 1.9375 1.0625 3 3 C3.6414791 8.98713826 3.6414791 8.98713826 1.8125 11.875 C-0.52105067 13.32341076 -2.25767499 13.79934207 -5 14 C-7.70637529 13.02269781 -8.70256222 12.59487555 -10 10 C-10.44948064 3.81964117 -10.44948064 3.81964117 -8.9375 1.0625 C-5.88023824 -0.6140629 -3.4093712 -0.36528977 0 0 Z " fill="#F90000" transform="translate(263,118)"/>
<path d="M0 0 C2.12579971 1.41719981 2.77765895 2.5394364 3.875 4.8125 C4.07322155 8.28137705 2.94362274 10.17861215 1 13 C-2.24587532 14.10497883 -4.07050402 14.32657967 -7.3125 13.1875 C-9 12 -9 12 -10 10 C-10.44948064 3.81964117 -10.44948064 3.81964117 -8.9375 1.0625 C-5.88023824 -0.6140629 -3.4093712 -0.36528977 0 0 Z " fill="#F90000" transform="translate(74,118)"/>
<path d="M0 0 C1.9375 1.0625 1.9375 1.0625 3 3 C3.36528977 6.4093712 3.6140629 8.88023824 1.9375 11.9375 C-1.08637476 13.5957539 -3.62386983 13.30144019 -7 13 C-10 11 -10 11 -10.8125 8.125 C-11.00583978 4.90267041 -10.83094313 3.60186656 -9 1 C-5.95016004 -0.52491998 -3.3576631 -0.23562548 0 0 Z " fill="#F90000" transform="translate(145,0)"/>
<path d="M0 0 C1.9375 1.0625 1.9375 1.0625 3 3 C3.36528977 6.4093712 3.6140629 8.88023824 1.9375 11.9375 C-1.11976176 13.6140629 -3.5906288 13.36528977 -7 13 C-9.459636 11.44223053 -9.89388592 10.31834223 -10.8125 7.5625 C-11.02578982 4.64753907 -10.62661237 3.39711296 -9 1 C-5.95016004 -0.52491998 -3.3576631 -0.23562548 0 0 Z " fill="#F90000" transform="translate(145,189)"/>
<path d="M0 0 C2.46324069 3.69486103 2.38991688 5.63293092 2 10 C0.9375 11.9375 0.9375 11.9375 -1 13 C-4.4093712 13.36528977 -6.88023824 13.6140629 -9.9375 11.9375 C-11.5957539 8.91362524 -11.30144019 6.37613017 -11 3 C-7.87521953 -1.68717071 -5.14026869 -1.31240903 0 0 Z " fill="#F90000" transform="translate(264,71)"/>
<path d="M0 0 C3 2 3 2 3.8125 4.875 C4.00583978 8.09732959 3.83094313 9.39813344 2 12 C-1.04983996 13.52491998 -3.6423369 13.23562548 -7 13 C-8.9375 11.9375 -8.9375 11.9375 -10 10 C-10.36528977 6.5906288 -10.6140629 4.11976176 -8.9375 1.0625 C-5.91362524 -0.5957539 -3.37613017 -0.30144019 0 0 Z " fill="#F90000" transform="translate(192,0)"/>
<path d="M0 0 C2.1595457 1.43969714 2.79150161 2.51884987 3.8125 4.875 C4.06421186 7.72773444 3.2960437 9.47612543 2 12 C-1.04983996 13.52491998 -3.6423369 13.23562548 -7 13 C-8.9375 11.9375 -8.9375 11.9375 -10 10 C-10.36528977 6.5906288 -10.6140629 4.11976176 -8.9375 1.0625 C-5.88023824 -0.6140629 -3.4093712 -0.36528977 0 0 Z " fill="#F90000" transform="translate(74,189)"/>
<path d="M0 0 C1.9375 1.0625 1.9375 1.0625 3 3 C3.36528977 6.4093712 3.6140629 8.88023824 1.9375 11.9375 C-1.11976176 13.6140629 -3.5906288 13.36528977 -7 13 C-8.9375 11.9375 -8.9375 11.9375 -10 10 C-10.36528977 6.5906288 -10.6140629 4.11976176 -8.9375 1.0625 C-5.88023824 -0.6140629 -3.4093712 -0.36528977 0 0 Z " fill="#F90000" transform="translate(263,189)"/>
</svg>
