<?xml version="1.0" encoding="UTF-8"?>
<svg version="1.1" xmlns="http://www.w3.org/2000/svg" width="600" height="600">
<path d="M0 0 C14.10647521 12.9526533 24.04136804 31.49407595 25.59057617 50.75195312 C25.68820462 53.3247353 25.71507147 55.88419815 25.69848633 58.45874023 C25.6911145 59.82953735 25.6911145 59.82953735 25.68359375 61.22802734 C25.31232512 82.85870872 16.43464565 100.89699246 1.38598633 116.20874023 C0.77239258 116.83522461 0.15879883 117.46170898 -0.47338867 118.10717773 C-15.94920183 132.72322349 -36.57062157 137.80680268 -57.30541992 137.47827148 C-74.65946904 136.84294741 -91.76121751 129.9502044 -104.61401367 118.20874023 C-105.44416992 117.45850586 -106.27432617 116.70827148 -107.12963867 115.93530273 C-122.25669192 101.57818932 -130.46026579 82.8524896 -131.0168457 62.14111328 C-131.2674108 38.23685034 -123.93899435 19.09310046 -107.31323242 1.81811523 C-78.06778868 -26.32643619 -30.22786923 -26.52425797 0 0 Z " fill="#FF883E" transform="translate(130.614013671875,271.791259765625)"/>
<path d="M0 0 C0.59941406 0.39832031 1.19882812 0.79664063 1.81640625 1.20703125 C12.2063444 7.28137631 23.24299986 7.79145681 35 9 C54.10761518 11.13335408 69.40179519 16.83322916 82 32 C91.42003356 44.63089109 98.307612 61.00522014 98.0625 76.9375 C98.05347656 77.70964844 98.04445313 78.48179687 98.03515625 79.27734375 C98.02355469 79.84582031 98.01195312 80.41429687 98 81 C95.01484399 79.68038168 93.24213526 78.33545449 91.125 75.875 C78.97935485 63.52393168 60.8921343 59.35306645 44.625 55.4375 C29.00523441 51.66474647 15.79304936 46.18728912 7 32 C5.07403417 28.08165574 3.48202005 24.10450083 2 20 C1.566875 18.865625 1.13375 17.73125 0.6875 16.5625 C-0.37413104 11.06132095 -0.1511499 5.58414915 0 0 Z " fill="#78A22F" transform="translate(42,191)"/>
<path d="M0 0 C8.83578815 4.84598459 14.72633583 11.64044199 18.1875 21.0625 C21.94358001 33.99351063 21.64805921 48.93073504 15.6484375 61.0390625 C11.12390654 69.24128707 5.77807295 74.32692804 -3.0625 77.4375 C-12.80562545 79.72810234 -22.13332829 79.07406528 -31.0625 74.4375 C-39.68800369 68.80177228 -44.67972444 60.3270729 -47.0625 50.4375 C-49.08529335 34.87504151 -48.15824242 20.512274 -38.375 7.625 C-29.55766606 -2.08784442 -12.01725166 -4.94206835 0 0 Z M-27.375 21.1875 C-31.88837843 29.87993253 -32.40227911 39.43180756 -29.75 48.8125 C-27.69538671 54.79644286 -25.90839117 58.65672104 -20.0234375 61.7109375 C-15.46597447 63.39955926 -11.4497268 62.92710946 -6.875 61.3125 C-1.49008417 57.72255612 1.31504477 53.63167351 2.9375 47.4375 C3.23455786 44.47365664 3.26242457 41.53942735 3.25 38.5625 C3.27416992 37.41587891 3.27416992 37.41587891 3.29882812 36.24609375 C3.30414121 29.98727865 2.33965961 24.25696128 -1.81640625 19.37890625 C-2.41324219 18.92386719 -3.01007813 18.46882813 -3.625 18 C-4.22441406 17.52691406 -4.82382813 17.05382812 -5.44140625 16.56640625 C-13.04331076 11.27254986 -21.86721333 14.63769964 -27.375 21.1875 Z " fill="#083C58" transform="translate(226.0625,309.5625)"/>
<path d="M0 0 C0 27.06 0 54.12 0 82 C-5.28 82 -10.56 82 -16 82 C-16 81.34 -16 80.68 -16 80 C-16.94875 80.495 -17.8975 80.99 -18.875 81.5 C-24.21568425 83.75495557 -29.62817245 83.94888598 -35.20703125 82.37890625 C-41.53831535 79.65512246 -45.05664917 74.96003565 -48.03515625 68.890625 C-51.60012793 59.27349209 -51.9040913 45.28149839 -47.9140625 35.75390625 C-44.36072798 28.93575582 -40.37053057 24.48902925 -33 22 C-30.28125 21.734375 -30.28125 21.734375 -27.5 21.75 C-26.5821875 21.74484375 -25.664375 21.7396875 -24.71875 21.734375 C-21.8221718 22.01737402 -19.63624347 22.79649755 -17 24 C-17.15275391 22.40671875 -17.15275391 22.40671875 -17.30859375 20.78125 C-17.51608236 16.39079096 -17.70187746 12.12501202 -16 8 C-12.53492337 4.44376676 -5.07927115 0 0 0 Z M-30.9375 39.25 C-34.09643486 43.46191315 -34.18416792 46.66113971 -34.25 51.8125 C-34.27578125 53.01519531 -34.3015625 54.21789062 -34.328125 55.45703125 C-33.89418079 60.14259553 -32.39947614 63.45057999 -29.25 66.9375 C-25.86746986 68.5348059 -23.56575462 67.89143865 -20 67 C-17.74502244 65.85630172 -17.74502244 65.85630172 -16 64 C-15.38569445 61.54701859 -15.38569445 61.54701859 -15.46875 58.78125 C-15.46359375 57.76675781 -15.4584375 56.75226563 -15.453125 55.70703125 C-15.46859375 54.64871094 -15.4840625 53.59039062 -15.5 52.5 C-15.48453125 51.44167969 -15.4690625 50.38335937 -15.453125 49.29296875 C-15.45828125 48.27847656 -15.4634375 47.26398438 -15.46875 46.21875 C-15.47326172 45.28998047 -15.47777344 44.36121094 -15.48242188 43.40429688 C-15.79201874 40.85389426 -15.79201874 40.85389426 -17.91040039 39.21679688 C-22.61975381 36.47448849 -26.53474888 35.87768 -30.9375 39.25 Z " fill="#083C58" transform="translate(582,305)"/>
<path d="M0 0 C0 7.92 0 15.84 0 24 C2.31 23.01 4.62 22.02 7 21 C14.32903349 19.95029327 20.9495658 20.53176167 27 25 C34.08414815 31.89268468 34.89130801 41.50368247 35.07739258 50.91357422 C35.11019363 55.46337827 35.08747552 60.01271368 35.0625 64.5625 C35.05747543 66.15950381 35.05291421 67.75650914 35.04882812 69.35351562 C35.03875487 73.23574629 35.01916629 77.11776142 35 81 C29.39 81 23.78 81 18 81 C17.96261719 78.31488281 17.92523438 75.62976563 17.88671875 72.86328125 C17.8404726 70.25520809 17.78925023 67.64727669 17.73754883 65.03930664 C17.70434886 63.23047542 17.67630159 61.42154182 17.65356445 59.61254883 C17.61992742 57.00818367 17.56760805 54.4047524 17.51171875 51.80078125 C17.50532883 50.99538406 17.4989389 50.18998688 17.49235535 49.36018372 C17.37308952 44.77847658 16.95151595 41.72863539 14 38 C10.95016004 36.47508002 8.3576631 36.76437452 5 37 C2.89641619 38.54262813 2.15945841 39.68108317 1 42 C0.84279903 44.9148537 0.74144346 47.80939636 0.68359375 50.7265625 C0.66281265 51.58937836 0.64203156 52.45219421 0.62062073 53.34115601 C0.55513966 56.10235493 0.49624702 58.86365038 0.4375 61.625 C0.3943134 63.49480172 0.35069907 65.36459362 0.30664062 67.234375 C0.19945976 71.82281728 0.09818825 76.41135683 0 81 C-5.28 81 -10.56 81 -16 81 C-16 56.58 -16 32.16 -16 7 C-3 0 -3 0 0 0 Z " fill="#083C58" transform="translate(380,306)"/>
<path d="M0 0 C3.79049301 3.41066856 6.81789695 6.80918763 7.12025452 12.10710144 C7.11803391 12.91762466 7.11581329 13.72814789 7.11352539 14.56323242 C7.11344986 15.48396042 7.11337433 16.40468842 7.11329651 17.35331726 C7.10813522 18.34402725 7.10297394 19.33473724 7.09765625 20.35546875 C7.0962413 21.37224197 7.09482635 22.3890152 7.09336853 23.43659973 C7.08776707 26.68692964 7.07521432 29.93719088 7.0625 33.1875 C7.05748519 35.38997296 7.05292225 37.59244701 7.04882812 39.79492188 C7.03779716 45.19664107 7.02053154 50.59830889 7 56 C1.72 56 -3.56 56 -9 56 C-9.33 55.34 -9.66 54.68 -10 54 C-10.763125 54.495 -11.52625 54.99 -12.3125 55.5 C-18.18848926 57.89023292 -23.74740225 58.10542833 -29.79296875 56.05078125 C-35.54783267 53.35611085 -39.32525667 50.58175033 -42.0703125 44.7109375 C-43.8900252 39.40471643 -43.97407369 33.22552546 -42.34765625 27.83984375 C-39.66621459 22.60355209 -35.31182193 19.14365074 -29.828125 17.25 C-22.61879622 15.46009768 -16.01084742 15.19566103 -9 18 C-9.96776098 14.20452079 -9.96776098 14.20452079 -12 11 C-14.08043713 10.87364577 -16.16576212 10.82418295 -18.25 10.8125 C-19.95929688 10.79123047 -19.95929688 10.79123047 -21.703125 10.76953125 C-24.93384046 10.9953751 -27.07546255 11.68525219 -30 13 C-32.0625 13.0625 -32.0625 13.0625 -34 12 C-36.83366281 8.28020896 -38 5.7430623 -38 1 C-36.60721983 0.34760842 -35.21060788 -0.29660552 -33.8125 -0.9375 C-33.03519531 -1.29714844 -32.25789063 -1.65679687 -31.45703125 -2.02734375 C-21.70643768 -5.88727666 -8.96108113 -5.65616864 0 0 Z M-27 33 C-27.67927401 36.62279473 -27.46942769 38.25673949 -25.5 41.375 C-22.05352668 43.61520766 -18.94464341 43.67309392 -15 43 C-12.63706998 41.84367254 -10.85016245 40.85016245 -9 39 C-8.92851801 37.64756083 -8.91600546 36.29165633 -8.9375 34.9375 C-8.958125 33.638125 -8.97875 32.33875 -9 31 C-15.34503433 27.82748283 -22.12344981 27.20909665 -27 33 Z " fill="#083C58" transform="translate(468,331)"/>
<path d="M0 0 C3.85184304 2.63547156 6.98505214 5.94954253 10.078125 9.421875 C8.60091078 12.87389139 6.64018499 15.07149436 3.953125 17.671875 C3.22867188 18.37828125 2.50421875 19.0846875 1.7578125 19.8125 C1.20351563 20.34359375 0.64921875 20.8746875 0.078125 21.421875 C-0.36917969 21.01195312 -0.81648438 20.60203125 -1.27734375 20.1796875 C-5.90201617 16.05791123 -9.03343875 13.32052636 -15.484375 13.546875 C-19.47751593 14.56331087 -20.69643122 14.96007356 -22.921875 18.421875 C-25.03356051 24.83010875 -25.50283814 30.31138624 -22.890625 36.60546875 C-21.50017904 39.21255492 -20.71531089 40.31920294 -17.921875 41.421875 C-13.1169346 42.13711422 -9.88503626 41.96706062 -5.609375 39.546875 C-4.7225 38.845625 -3.835625 38.144375 -2.921875 37.421875 C-1.601875 36.761875 -0.281875 36.101875 1.078125 35.421875 C4.048125 38.391875 7.018125 41.361875 10.078125 44.421875 C6.18403888 50.91201853 1.7137199 55.57409041 -5.625 57.94921875 C-14.02593977 59.67798357 -21.60442133 58.96713949 -28.921875 54.421875 C-36.20150943 49.40990447 -39.9758563 43.4665915 -41.60546875 34.8046875 C-42.89271569 25.11060558 -41.86606644 16.14574968 -36.046875 8.046875 C-27.17831634 -2.7562467 -12.83716618 -6.56121827 0 0 Z " fill="#083C58" transform="translate(342.921875,329.578125)"/>
<path d="M0 0 C1.98 1.32 3.96 2.64 6 4 C4.68 9.28 3.36 14.56 2 20 C0.68 19.34 -0.64 18.68 -2 18 C-6.06647611 17.04781457 -9.6603614 16.36367166 -13.5 18.1875 C-16.78306815 22.15454068 -16.20908932 27.34165639 -16.31640625 32.265625 C-16.33718735 33.05902283 -16.35796844 33.85242065 -16.37937927 34.66986084 C-16.44459973 37.19648844 -16.50363144 39.72321721 -16.5625 42.25 C-16.6057114 43.96615616 -16.64932653 45.68230222 -16.69335938 47.3984375 C-16.80101034 51.59885627 -16.90028773 55.79935527 -17 60 C-22.28 60 -27.56 60 -33 60 C-33 40.53 -33 21.06 -33 1 C-27.72 1 -22.44 1 -17 1 C-16.67 1.66 -16.34 2.32 -16 3 C-15.401875 2.505 -14.80375 2.01 -14.1875 1.5 C-9.57765705 -0.66933786 -5.00907499 -0.88231973 0 0 Z " fill="#093B58" transform="translate(522,327)"/>
<path d="M0 0 C0.78375 0.495 1.5675 0.99 2.375 1.5 C1.95911954 7.69518473 0.77248106 12.76689311 -1.625 18.5 C-2.470625 18.005 -3.31625 17.51 -4.1875 17 C-8.0339807 15.3215357 -10.47271187 15.02992965 -14.625 15.5 C-16.72858381 17.04262813 -17.46554159 18.18108317 -18.625 20.5 C-18.78206331 23.34208026 -18.8834957 26.16337307 -18.94140625 29.0078125 C-18.96218735 29.84843231 -18.98296844 30.68905212 -19.00437927 31.55514526 C-19.06985439 34.24501235 -19.1287502 36.93497843 -19.1875 39.625 C-19.23068716 41.44662489 -19.27430152 43.26823971 -19.31835938 45.08984375 C-19.42553368 49.55979394 -19.52680685 54.02984386 -19.625 58.5 C-24.905 58.5 -30.185 58.5 -35.625 58.5 C-35.625 39.03 -35.625 19.56 -35.625 -0.5 C-30.345 -0.5 -25.065 -0.5 -19.625 -0.5 C-19.625 0.16 -19.625 0.82 -19.625 1.5 C-18.84125 1.005 -18.0575 0.51 -17.25 0 C-11.30635296 -2.45944015 -5.94364704 -2.45944015 0 0 Z " fill="#083C58" transform="translate(294.625,328.5)"/>
<path d="M0 0 C0 4.29 0 8.58 0 13 C0.66 12.67 1.32 12.34 2 12 C6.23660902 11.56718336 9.91394711 11.55141294 13.875 13.1875 C17.21336972 16.034933 18.8487168 18.64691005 19.34057617 23.04614258 C19.32486572 24.15111084 19.30915527 25.2560791 19.29296875 26.39453125 C19.28330078 27.59658203 19.27363281 28.79863281 19.26367188 30.03710938 C19.23853516 31.28298828 19.21339844 32.52886719 19.1875 33.8125 C19.16719727 35.71032227 19.16719727 35.71032227 19.14648438 37.64648438 C19.11118318 40.76475643 19.06186819 43.88216042 19 47 C16.03 46.67 13.06 46.34 10 46 C9.505 34.12 9.505 34.12 9 22 C6.69 22 4.38 22 2 22 C0.76939579 24.46120841 0.7942277 26.25776866 0.68359375 29.0078125 C0.64169922 29.99394531 0.59980469 30.98007812 0.55664062 31.99609375 C0.51732422 33.02863281 0.47800781 34.06117188 0.4375 35.125 C0.39431641 36.16527344 0.35113281 37.20554687 0.30664062 38.27734375 C0.20037232 40.8513983 0.09966473 43.42568131 0 46 C-3.3 46 -6.6 46 -10 46 C-10 32.14 -10 18.28 -10 4 C-3 0 -3 0 0 0 Z " fill="#083C58" transform="translate(296,268)"/>
<path d="M0 0 C4.40420487 4.19935814 6.45080585 8.95886432 7 15 C6.6875 17.5625 6.6875 17.5625 5.6875 19.5625 C-0.5825 19.5625 -6.8525 19.5625 -13.3125 19.5625 C-9.95110787 23.74247961 -9.95110787 23.74247961 -6.8125 23.875 C-4.35242221 23.6657836 -4.35242221 23.6657836 -2.3125 22.8125 C-0.3125 22.5625 -0.3125 22.5625 2.4375 24.5 C3.18 25.180625 3.9225 25.86125 4.6875 26.5625 C4.5625 28.375 4.5625 28.375 3.6875 30.5625 C-1.26615556 34.11897066 -6.43525038 34.3994501 -12.3125 33.5625 C-16.14163321 32.23373363 -18.73045923 30.33855437 -21.1875 27.0625 C-24.03307407 20.73900207 -24.20952535 14.39521162 -22.125 7.8125 C-17.16859744 -1.07484252 -9.40255015 -4.08035195 0 0 Z M-11.5625 8.4375 C-13.41845121 10.23234847 -13.41845121 10.23234847 -13.3125 11.5625 C-10.0125 11.5625 -6.7125 11.5625 -3.3125 11.5625 C-4.8132211 7.59647946 -4.8132211 7.59647946 -7.1875 6.5625 C-9.52856223 6.33576803 -9.52856223 6.33576803 -11.5625 8.4375 Z " fill="#083C58" transform="translate(344.3125,281.4375)"/>
<path d="M0 0 C11.55 0 23.1 0 35 0 C35 3.3 35 6.6 35 10 C30.71 10 26.42 10 22 10 C22 21.55 22 33.1 22 45 C18.7 45 15.4 45 12 45 C12 33.45 12 21.9 12 10 C8.04 10 4.08 10 0 10 C0 6.7 0 3.4 0 0 Z " fill="#083B58" transform="translate(246,269)"/>
<path d="M0 0 C1 1 1 1 1.375 4.375 C1 8 1 8 -1.1875 10 C-4.37706461 11.13406742 -5.83335633 11.11260453 -9 10 C-11 8 -11 8 -11.25 5.0625 C-11 2 -11 2 -9 -1 C-5.21801096 -2.26066301 -3.63636792 -1.42292658 0 0 Z " fill="#083C58" transform="translate(599,378)"/>
<path d="M0 0 C2 3 2 3 1.75 6.625 C1.5025 7.73875 1.255 8.8525 1 10 C-2.01324195 11.50662097 -4.68286377 11.17770373 -8 11 C-10 9 -10 9 -10.375 5.5625 C-10 2 -10 2 -8.375 0 C-5.16403572 -1.35198496 -3.30053834 -1.00451167 0 0 Z M-8 4 C-7 7 -7 7 -7 7 Z M-2 5 C-1 7 -1 7 -1 7 Z M-5 7 C-5.33 7.66 -5.66 8.32 -6 9 C-5.01 8.67 -4.02 8.34 -3 8 C-3.66 7.67 -4.32 7.34 -5 7 Z " fill="#083C58" transform="translate(140,394)"/>
</svg>
